<svg xmlns="http://www.w3.org/2000/svg" width="546" height="640" fill="none" viewBox="0 0 546 640">
  <path fill="#fff" fill-rule="evenodd" d="M266.835.263c-142.632.41-185.988.814-187.613 1.746-2.999 1.72-7.775 7.376-9.156 10.842-.645 1.62-3.198 14.809-5.673 29.309-2.475 14.499-4.887 26.874-5.36 27.5-1.426 1.882-8.29 18.558-11.376 27.637-8.162 24.01-10.656 40.201-16.329 106-3.02 35.037-6.135 68.213-11.5 122.5-4.747 48.032-9.146 101.022-13.988 168.5-1.124 15.675-2.704 37.07-3.51 47.546-2.796 36.316-2.972 44.502-1.082 50.193 5.672 17.076 31.038 32.448 68.087 41.262 23.254 5.532 32.339 6.444 64.5 6.473 31.078.027 42.806-.843 68-5.047 17.083-2.851 24.502-6.049 31.574-13.61 8.603-9.197 8.408-8.321 19.897-89.187 5.715-40.221 12.249-86.63 14.52-103.13 2.271-16.5 4.386-30.675 4.7-31.5.56-1.469 5.805 33.661 14.857 99.5 9.775 71.098 15.519 107.95 17.69 113.5 3.069 7.84 12.317 16.941 20.262 19.939 7.294 2.752 21.388 5.391 41.172 7.709 21.423 2.511 70.353 2.547 86.328.065 40.184-6.245 74.571-20.662 86.462-36.251 7.199-9.439 7.648-14.757 4.558-53.962a5873.307 5873.307 0 0 1-3.522-47.5c-4.502-65.264-9.464-125.236-14.522-175.5-1.605-15.95-5.165-53.975-7.911-84.5-9.153-101.748-10.005-108.674-16.16-131.338-3.084-11.353-7.498-23.374-12.914-35.162-2.343-5.102-3.97-11.34-5.997-23-1.53-8.8-3.561-20.5-4.513-26-1.898-10.96-3.816-15.6-8.139-19.686-3.517-3.325-6.421-4.45-12.842-4.973-2.75-.225-88.475-.168-190.5.125ZM461.863 15.83c.7.844 3.389 13.556 5.974 28.25 4.36 24.778 5.043 27.478 9.416 37.216 8.873 19.762 14.334 39.074 17.533 62 .576 4.125 2.859 27.075 5.073 51 2.215 23.925 5.617 60.15 7.56 80.5 9.538 99.904 14.909 163.969 20.957 250 .889 12.65 2.195 31.09 2.903 40.977.742 10.374.932 19.213.448 20.899-1.49 5.197-5.147 9.333-12.848 14.531-15.27 10.308-41.293 18.937-68.544 22.728-31.137 4.332-97.086.847-118.87-6.282-5.973-1.954-11.785-7.544-14.005-13.469-1.413-3.77-18.016-117.058-27.608-188.384-9.907-73.664-10.568-77.718-12.973-79.665-2.867-2.322-5.218-2.324-8.079-.008-2.068 1.675-2.66 4.77-7.119 37.25-7.118 51.836-24.315 174.3-28.755 204.763-3.549 24.351-4.058 26.652-6.746 30.476-4.566 6.498-10.384 9.482-22.872 11.734-21.713 3.916-39.757 5.312-68.973 5.336-23.997.02-30.01-.291-42.062-2.177-27.086-4.237-50.426-12.192-65.482-22.32-8.014-5.39-11.7-9.718-12.85-15.088-1.42-6.621 11.321-172.646 21.395-278.801 4.097-43.175 9.05-96.05 11.004-117.5 1.955-21.45 4.247-43.725 5.093-49.5 3.056-20.868 8.78-40.516 17.531-60.193 3.66-8.226 4.69-12.413 8.875-36.048 2.605-14.707 5.3-27.42 5.988-28.25 1.11-1.336 22.825-1.51 189.008-1.51 167.524 0 187.892.166 189.028 1.535Z" clip-rule="evenodd"/>
</svg>
