<svg xmlns="http://www.w3.org/2000/svg" width="626" height="511" fill="none" viewBox="0 0 626 511">
  <path fill="#fff" fill-rule="evenodd" d="M147.372 1.137c-2.492 1.45-8.801 8.414-14.994 16.553l-5.204 6.838.154 47c.085 25.85.758 73.775 1.497 106.5.739 32.725 1.345 69.4 1.346 81.5l.003 22-5.766 13.773c-8.386 20.031-18.772 41.398-25.956 53.398-9.558 15.966-22.545 27.711-56.278 50.895-7.34 5.045-16.737 12.635-21.584 17.437-7.148 7.08-9.367 10.09-13.273 18-7.875 15.95-9.328 28.746-4.675 41.181 5.517 14.748 26.804 25.998 61.532 32.521 13.708 2.575 45.3 2.326 60.5-.478 53.48-9.863 102.142-37.625 117.955-67.294 1.736-3.257 3.955-6.35 4.931-6.872.976-.522 7.24-1.867 13.921-2.988 25.46-4.273 35.542-10.699 39.554-25.209 2.163-7.823 2.914-30.003 1.637-48.364-1.384-19.9-2.093-25.17-6.659-49.5l-3.66-19.5 1.172-27.5c.645-15.125 1.834-41.675 2.642-59 2.403-51.488 4.432-108.326 5.122-143.5l.648-33-3.784-5.5c-7.034-10.223-13.77-18.16-16.196-19.082-3.496-1.33-132.286-1.146-134.585.19Zm195.664.176c-2.19 1.245-7.927 8.05-14.829 17.592-3.047 4.21-3.984 6.519-4.327 10.647-.635 7.659 3.732 131.447 7.314 207.334 2.111 44.736 1.981 54.172-.95 68.644-5.863 28.944-7.897 50.305-7.354 77.225.505 25.014 1.653 29.273 9.888 36.677 6.115 5.498 13.018 8.202 27.396 10.734 18.316 3.225 18.024 3.066 24.296 13.23 3.03 4.91 8.718 12.114 12.745 16.141 20.193 20.193 60.705 39.73 98.959 47.722 13.916 2.908 16.482 3.138 35.5 3.18 15.779.034 22.803-.379 30.5-1.797 24.46-4.504 45.141-12.996 54.168-22.242 11.519-11.799 12.356-30.236 2.314-51.014-5.08-10.512-15.799-22.031-29.419-31.615-22.756-16.014-27.486-19.482-36.563-26.807-12.602-10.17-18.512-16.636-24.899-27.243-6.982-11.593-19.429-37.604-26.639-55.667l-5.777-14.473.697-45.527c.383-25.039 1.115-66.676 1.626-92.526.512-25.85.944-62.56.961-81.58l.031-34.577-2.936-4.422C490.669 13.318 480.576 1.94 478.007.965c-3.92-1.491-132.318-1.16-134.971.348Zm-59.062 19.715 5.876 7.5-.6 26.5c-.822 36.288-3.196 99.109-5.651 149.5-1.125 23.1-2.3 52.35-2.611 65-.541 21.966-.45 23.584 2.028 36 6.137 30.758 7.937 47.471 7.916 73.5-.016 19.31-.837 24.924-4.286 29.308-2.881 3.662-11.172 7.281-21.001 9.166-4.659.893-11.737 2.249-15.728 3.012-3.992.763-8.492 2.268-10 3.344-1.509 1.076-4.964 5.717-7.678 10.313-6.644 11.251-16.778 21.556-29.565 30.062-35.619 23.694-84.547 37.208-122.31 33.782-24.85-2.254-50.582-10.135-60.59-18.557-11.1-9.34-9.167-29.998 4.525-48.337 4.564-6.114 11.301-11.656 29.875-24.577 24.298-16.902 38.826-29.267 46.912-39.927 9.994-13.176 23.343-39.024 35.937-69.589l5.151-12.5v-25.5c0-26.706-1.202-100.21-2.004-122.5-.257-7.15-.728-34.15-1.047-60l-.581-47 6.575-8.257 6.574-8.258 63.204.258 63.203.257 5.876 7.5Zm196.737.127 6.287 8.127-.682 56.623c-.375 31.143-1.315 85.423-2.088 120.623-.773 35.2-1.058 67.391-.634 71.536.954 9.31 8.352 28.374 21.135 54.464 17.764 36.255 27.019 46.389 68.945 75.487 24.042 16.686 32.232 25.844 37.572 42.013 2.306 6.981 2.414 18.366.213 22.521-4.038 7.626-14.644 13.764-33.371 19.315-46.334 13.733-100.588 5.155-148.414-23.465-17.872-10.695-29.762-22.004-36.569-34.783-5.533-10.388-8.845-12.227-27.059-15.032-16.607-2.556-25.747-6.741-28.992-13.272-1.696-3.414-1.872-6.226-1.8-28.784.085-26.732 1.394-40.627 5.954-63.222 5.034-24.944 5-16.968.501-118.778-3.318-75.081-6.027-147.614-6.033-161.567-.002-2.808 1.298-5.31 6.102-11.75l6.105-8.183h126.541l6.287 8.127Z" clip-rule="evenodd"/>
</svg>
