<svg xmlns="http://www.w3.org/2000/svg" width="760" height="760" fill="none" viewBox="0 0 760 760">
  <mask id="a" width="712" height="712" x="30" y="30" maskUnits="userSpaceOnUse" style="mask-type:alpha">
    <path fill="#fff" fill-rule="evenodd" d="M741.288 549.558c.478 1.973.412 6.062-.147 9.09-1.258 6.804-9.126 23.577-17.617 37.558l-6.399 10.537-55.06 55.06-55.06 55.06-10.72 6.475c-21.918 13.236-38.173 19.581-46.153 18.015-4.016-.787-4.024-.794-32.198-28.967-16.633-16.633-27.913-28.445-27.53-28.829.357-.357 2.95-1.422 5.763-2.369 6.218-2.09 16.329-7.733 28.33-15.81 8.546-5.753 11.802-8.841 67.947-64.452 52.031-51.537 59.872-59.588 66.633-68.424 9.175-11.993 18.789-27.793 21.742-35.735 1.181-3.175 2.426-6.051 2.769-6.393.347-.348 13.034 11.793 28.726 27.488 26.472 26.477 28.155 28.319 28.974 31.696ZM438.953 254.749c-1.315 5.034-5.533 15.836-9.101 23.309-2.813 5.891-3.329 15.446-1.205 22.312 1.688 5.457 1.925 5.754 17.067 21.339l15.357 15.804 6.889 2.19c8.428 2.678 15.54 1.96 22.155-2.236 4.446-2.82 5.032-3.565 9.346-11.899l4.601-8.892 29.808 29.778a93001.188 93001.188 0 0 1 58.782 58.786l28.973 29.009-.328 13.057c-.19 7.533.305 14.579 1.17 16.655 1.326 3.182 1.155 4.205-1.469 8.829-7.651 13.477-8.866 14.793-71.846 77.773-60.555 60.555-60.847 60.835-69.43 66.241-9.026 5.686-13.337 7.263-15.084 5.516-1.476-1.476-9.913-1.73-22.718-.684l-11.008.899-17.069-17.073c-9.388-9.389-34.412-35.686-55.609-58.436-83.331-89.437-118.844-127.604-189.15-203.294a568545.1 568545.1 0 0 0-64.712-69.638c-25.477-27.415-50.89-54.827-56.472-60.916l-10.15-11.071 5.869-2.065c12.66-4.454 34.975-19.009 57.014-37.187 15.407-12.709 53.66-51.45 66.046-66.89 18.106-22.568 29.177-39.715 33.079-51.23l2.367-6.988 7.165 6.27c3.942 3.448 11.884 10.572 17.65 15.829l10.483 9.56-.925 3.886c-.508 2.138-2.603 7.618-4.653 12.179-2.824 6.28-3.736 9.894-3.758 14.897-.042 9.678 2.636 14.057 16.996 27.789 9.924 9.491 11.891 11.014 15.691 12.163 7.842 2.367 16.918.759 21.486-3.809 1.02-1.019 3.719-5.696 6.001-10.393 2.281-4.697 4.368-8.535 4.638-8.528.27.007 9.792 8.121 21.16 18.03l20.668 18.019-.369 3.096c-.464 3.877-4.15 14.247-7.267 20.446-4.884 9.708-4.914 19.306-.087 28.212 2.993 5.522 23.579 26.527 29.372 29.97 5.032 2.991 12.103 4.181 18.362 3.088 4.642-.81 5.707-1.438 10.201-6.018 3.878-3.953 5.752-6.826 8.255-12.659l3.238-7.545 5.476 4.584c4.753 3.978 36.377 31.334 37.779 32.68.281.269-.05 2.635-.734 5.256Zm226.532 242.848c-.189 3.79-2.833 9.403-8.405 17.84-10.708 16.214-16.904 22.855-73.479 78.767-45.967 45.426-55.635 54.639-62.282 59.342-11.084 7.843-19.311 12.051-23.317 11.926l-3.407-.106-9.588-14.107c-5.274-7.759-9.678-14.485-9.787-14.947-.109-.463 1.77-1.909 4.176-3.213 15.067-8.167 14.576-7.724 75.959-68.554 40.269-39.906 59.691-59.658 63.805-64.889 5.057-6.426 13.17-18.548 15.989-23.885.647-1.226 1.514-1.08 3.964.67 1.724 1.232 8.073 5.635 14.107 9.788 13.104 9.014 12.415 8.375 12.265 11.368ZM197.013 37.896c-.244 7.173-12.146 27.665-27.285 46.977-11.186 14.27-22.768 27.132-39.498 43.862-37.846 37.846-75.058 65.372-92.293 68.271-6.816 1.147-9.06-4.063-5.874-13.625 7.268-21.807 44.653-68.478 81.36-101.57 35.147-31.684 62.408-50.022 76.116-51.203 5.245-.451 7.657 1.902 7.474 7.288Zm-35.547 23.117c-3.72.445-11.847 5.18-23.143 13.485-11.322 8.322-45.068 40.844-55.75 53.727-26.253 31.66-28.693 46.374-5.351 32.267 26.449-15.984 75.86-66.665 86.327-88.546 4.053-8.473 3.459-11.594-2.083-10.933Zm157.235 251.01c-6.093-2.071-13.628-2.232-19.545-.416-3.587 1.101-5.727 2.577-10.207 7.037-4.973 4.951-5.877 6.368-7.359 11.53-1.874 6.526-1.628 12.675.772 19.332 1.524 4.231 3.192 6.02 40.977 43.966l39.388 39.557 5.154 1.868c17.943 6.5 35.396-3.378 38.798-21.957 1.014-5.538.193-10.712-2.674-16.852-2.165-4.636-4.788-7.406-41.366-43.678l-39.054-38.728-4.884-1.659ZM173.78 167.21c-6.222-1.946-14.252-2.139-19.771-.476-5.875 1.769-15.112 10.788-16.817 16.417-2.314 7.64-2.284 13.159.109 20.192l2.385 7.01 39.268 38.982c44.135 43.814 41.955 42.087 53.885 42.704 16.643.862 30.871-13.824 29.248-30.188-1.16-11.68-.539-10.919-44.4-54.403l-39.059-38.722-4.848-1.516Z" clip-rule="evenodd"/>
  </mask>
  <g mask="url(#a)">
    <path fill="#fff" d="M1266.16 382.98 379.448-503.734-507.264 382.98l886.712 886.712z"/>
  </g>
</svg>
