<svg xmlns="http://www.w3.org/2000/svg" width="725" height="725" fill="none" viewBox="0 0 725 725">
  <mask id="a" width="682" height="683" x="20" y="20" maskUnits="userSpaceOnUse" style="mask-type:alpha">
    <path fill="#fff" fill-rule="evenodd" d="M683.418 489.385c-.508 9.014-3.733 24.526-5.456 26.249l-1.968 1.968 12.959 12.959c12.63 12.63 12.955 13.037 12.859 16.132l-.1 3.174-75.696 75.696c-75.509 75.509-75.704 75.697-79.025 76.093l-3.328.398-13.031-13.03-13.03-13.03-2.053 2.054c-1.465 1.464-5.732 2.573-14.874 3.865l-12.819 1.811-20.966-20.591c-20.718-20.345-20.968-20.628-21.066-23.787l-.1-3.197 95.285-95.284 95.285-95.285 3.328.398c3.196.382 4.134 1.205 23.626 20.763 18.194 18.256 20.285 20.603 20.17 22.644Zm-72.322-72.663.471 2.672-96.017 96.018c-92.121 92.121-96.116 96.011-98.48 95.893-2.155-.107-4.692-2.352-20.262-17.922-16.856-16.856-17.799-17.948-17.799-20.627 0-2.8.943-3.771 95.337-98.164l95.335-95.336 3.174.098c3.081.097 3.685.611 20.473 17.398 14.511 14.511 17.373 17.729 17.768 19.97Zm-65.054-65.054.472 2.672-96.018 96.018c-92.121 92.121-96.116 96.011-98.48 95.893-2.244-.111-7.052-4.711-54.214-51.873l-51.751-51.751-1.321-6.542-1.321-6.543-10.154-10.598c-71.024-74.134-143.69-153.42-198.112-216.158-18.948-21.845-18.95-22.397-.262-41.088l11.897-11.9h4.134c5.056 0 2.858-2.154 33.357 32.693 30.728 35.106 73.919 83.038 115.879 128.599 55.514 60.279 51.721 56.891 63.553 56.738 14.169-.183 23.139-9.716 22.235-23.629-.641-9.873 5.159-3.607-108.934-117.7L73.539 123.037l24.749-24.75 24.749-24.748 103.478 103.479C338.824 289.327 333.624 284.47 342.928 285.723c5.12.689 12.459-1.143 16.811-4.196 5.38-3.774 8.507-10.82 8.248-18.585-.317-9.484-1.986-11.962-18.279-27.132-46.177-42.993-119.072-109.237-147.458-134.004a14430.421 14430.421 0 0 1-29.018-25.43c-9.937-8.73-18.935-16.432-19.996-17.116-2.567-1.653-4.914-7.573-4.086-10.307.4-1.32 5.388-6.913 12.555-14.08 18.732-18.728 18.794-18.727 41.544.905 55.529 47.919 146.917 131.427 200.247 182.98l25.528 24.677 7.039 1.545 7.038 1.545 51.235 51.236c45.228 45.227 51.291 51.549 51.706 53.907Zm-3.691 23.806c-1.217 5.574-1.139 5.932 1.963 9.034 2.007 2.007 4.158 3.275 5.683 3.351 2.373.118-.272 2.846-79.876 82.405-68.342 68.303-82.279 81.914-82.026 80.112.218-1.559-.691-3.166-3.23-5.704-3.458-3.459-3.669-3.511-9.787-2.431l-6.254 1.103 87.117-87.117c47.914-47.915 87.243-86.991 87.397-86.837.153.153-.291 2.891-.987 6.084Zm-8.53 158.347-83.792 83.792.493-3.395c.449-3.083.08-3.81-4.003-7.893-3.811-3.811-4.895-4.427-7.102-4.038-2.335.412 5.867-8.055 79.51-82.065 45.162-45.388 82.489-82.673 82.946-82.855.458-.182.636.79.394 2.162-.366 2.078.31 3.241 4.058 6.99 4.083 4.083 4.81 4.452 7.893 4.003l3.395-.493-83.792 83.792Z" clip-rule="evenodd"/>
  </mask>
  <g mask="url(#a)">
    <path fill="#fff" d="M1248.75 362.04 362.038-524.674-524.674 362.04l886.712 886.712z"/>
  </g>
</svg>
