<svg xmlns="http://www.w3.org/2000/svg" width="468" height="468" fill="none" viewBox="0 0 468 468">
  <mask id="a" width="448" height="448" x="15" y="14" maskUnits="userSpaceOnUse" style="mask-type:alpha">
    <path fill="#fff" fill-rule="evenodd" d="M461.924 298.332c1.796 7.402 5.71 3.045-77.431 86.183-70.488 70.487-75.75 75.584-79.168 76.693-2.013.654-5.133.961-6.932.685-3.206-.495-4.983-2.216-87.972-85.27-46.584-46.622-86.316-86.44-88.292-88.485l-3.593-3.719 83.009-83.161 83.009-83.161 88.229 88.235c87.246 87.25 88.238 88.275 89.141 92ZM269.236 106.191l.278 3.69-77.313 78.02c-42.522 42.911-78.65 78.911-80.284 80-5.237 3.491-7.304 2.595-17.472-7.573-6.036-6.036-8.973-9.529-8.973-10.67 0-1.3 18.869-20.565 80.665-82.362 71.864-71.864 80.956-80.716 83.337-81.135 2.507-.442 3.193.05 11.078 7.934 7.866 7.866 8.424 8.643 8.684 12.096Zm-35.062-36.659c1.805 5.504 4.631 2.424-79.157 86.236l-78.29 78.311-4.31.243-4.31.242-8.528-8.76c-5.288-5.431-8.592-9.447-8.696-10.57-.143-1.534 12.285-14.266 80.952-82.932 77.691-77.692 81.225-81.117 83.585-80.999 1.979.099 3.98 1.644 10.175 7.856 4.765 4.777 8.044 8.742 8.579 10.373Zm-34.648-34.648c1.816 5.539 4.807 2.295-79.756 86.49l-78.897 78.555-3.691-.277c-3.417-.257-4.266-.853-11.464-8.051-5.374-5.374-8.052-8.675-8.674-10.694-1.399-4.539-2.599-25.022-1.638-27.951 1.128-3.441 133.028-135.66 137.472-137.807 2.579-1.246 21.884-.13 28.56 1.65 3.19.85 16.946 14.606 18.088 18.085Z" clip-rule="evenodd"/>
  </mask>
  <g mask="url(#a)">
    <path fill="#fff" d="M1123.22 242.588 236.508-644.124l-886.712 886.712L236.508 1129.3z"/>
  </g>
</svg>
