<svg xmlns="http://www.w3.org/2000/svg" width="302" height="832" fill="none" viewBox="0 0 302 832">
  <path fill="#fff" fill-rule="evenodd" d="M49.775 1.67C45.644 3.927 45 6.07 45 17.555v10.566l-14.75.024c-18.524.03-21.685.732-26.5 5.885L0 38.044v24.088c0 26.073.157 26.963 5.661 32.18 1.561 1.48 7.215 4.911 12.564 7.623 5.349 2.713 12.025 6.677 14.837 8.809 10.013 7.594 18.198 21.195 21.59 35.877 2.438 10.556 2.288 31.717-.52 73-10.115 148.715-11.214 238.798-5.014 411 1.148 31.9 1.832 62.725 1.519 68.5-.929 17.165-3.758 26.307-19.492 63-3.633 8.471-3.646 8.556-3.972 25-.199 10.057.102 17.938.77 20.183 4.958 16.648 42.509 24.123 121.057 24.097 77.686-.025 114.807-6.424 123.461-21.28 1.858-3.189 2.039-5.191 2.039-22.5v-19l-4.865-9.459c-10.975-21.338-16.734-39.85-18.678-60.041-1.164-12.089-1.086-16.632 1.785-104.5 2.134-65.3 2.431-235.251.485-277.5-1.891-41.07-4.004-78.027-6.346-111-3.122-43.978-2.118-58.232 5.211-73.978 6.446-13.845 14.385-21.358 32.704-30.945 8.494-4.446 11.268-6.456 13.68-9.913l3.024-4.336V62.61c0-23.183-.1-24.476-2.105-27.165-4.479-6.008-7.282-6.79-25.645-7.157L257 27.952v-9.868c0-11-1.066-14.429-5.145-16.538-3.769-1.949-50.675-2.109-51.361-.175-.244.688-.567 6.875-.719 13.75l-.275 12.5-48.722.26-48.721.26-.279-13.76L101.5.62 77 .402C56.892.222 52.012.45 49.775 1.67Z" clip-rule="evenodd"/>
</svg>
