<svg xmlns="http://www.w3.org/2000/svg" width="956" height="464" fill="none" viewBox="0 0 956 464">
  <path fill="#fff" fill-rule="evenodd" d="m23.264 3.482-3.482 3.482.332 12.602.332 12.603 3.266 2.915C25.729 36.885 28.087 38 29.88 38c6.573 0 6.066-6.32 6.066 75.607V188H22.594c-12.25 0-13.633.189-16.75 2.285-4.251 2.858-5.77 7.131-5.842 16.445-.067 8.649 1.97 14.44 6.119 17.394 2.914 2.076 7.023 2.535 25.075 2.805l4.75.071v14.804c0 14.526.053 14.888 2.823 19.25 5.722 9.013 20.876 13.595 36.78 11.123 8.943-1.391 12.969-3.418 16.144-8.129 2.023-3.002 2.253-4.555 2.253-15.196V237h24.851c15.141 0 26.055-.42 27.934-1.075 6.552-2.284 6.661-2.88 7.215-39.425l.5-33 11 .335c17.626.538 30.867-2.936 43.694-11.464 20.58-13.681 32.407-39.972 28.795-64.01-2.393-15.93-9.516-29.255-21.477-40.18-7.359-6.721-13.884-10.49-24.012-13.87-7.189-2.399-9.52-2.677-23-2.74l-15-.071-.53-12.5c-.291-6.875-.908-13.304-1.371-14.287C150.344.039 149.79 0 86.395 0h-59.65l-3.481 3.482Zm847.717 32.69c-3.554 1.384-7.338 4-10.816 7.478L854.816 49H546.603c-274.923 0-308.448.165-310.395 1.529-3.275 2.294-3.926 7.68-1.437 11.899 3.147 5.334 6.798 16.287 8.179 24.534 3.304 19.749-3.904 42.92-18.23 58.595-5.593 6.119-15.504 13.597-21.15 15.956-2.969 1.24-3.624 2.031-3.624 4.378 0 4.68-.752 4.363 30 12.627 6.875 1.847 25.775 7.02 42 11.494 35.294 9.734 55.572 15.278 157 42.923 42.625 11.617 79.975 22.098 83 23.291 5.006 1.973 30.225 16.916 86 50.957 11.275 6.882 33.1 20.159 48.5 29.504 15.4 9.346 46.225 28.166 68.5 41.823 73.252 44.91 89.011 54.454 94.648 57.319 7.701 3.913 18.314 6.271 30.927 6.872l12.075.575 2.347 4.424c3.181 5.996 10.992 12.803 16.969 14.789 4.159 1.381 9.07 1.582 32.22 1.32l27.314-.309 5.209-2.746c6.652-3.507 12.657-9.763 16.081-16.754 3.765-7.688 3.931-15.503.854-40.078-13.851-110.607-13.848-217.673.006-311.922 4.175-28.398 2.447-38.023-8.695-48.445-9.36-8.756-10.549-9.022-41.455-9.283-25.465-.216-27.311-.108-32.465 1.9ZM185.244 77.329c5.065 2.968 6.831 4.859 9.677 10.364 2.567 4.965 2.892 13.296.722 18.491-2.105 5.037-7.584 10.859-12.188 12.951-4.791 2.177-14.212 2.435-18.791.517-11.88-4.979-18.067-20.094-12.751-31.152 2.356-4.899 3.554-6.347 8.033-9.706 7.158-5.368 17.606-5.973 25.298-1.465Zm646.99 36.756c1.31.597 3.131 2.354 4.047 3.905 1.528 2.587 1.665 12.612 1.665 122.192 0 110.83-.122 119.55-1.704 121.845-2.519 3.655-4.461 4.906-7.67 4.941-2.012.022-13.871-6.619-39.5-22.119a195648.257 195648.257 0 0 0-70.126-42.387c-18.425-11.13-56.9-34.491-85.5-51.913-28.6-17.423-58.3-34.76-66-38.526-24.6-12.035-42.883-18.134-93-31.024-13.2-3.395-26.925-6.998-30.5-8.006-3.575-1.008-16.4-4.399-28.5-7.535-74.572-19.33-80.938-21.132-83.74-23.699-2.667-2.444-2.76-2.871-2.76-12.721 0-9.931.075-10.267 2.923-13.115l2.923-2.923h247.53c175.848 0 248.22.314 249.912 1.085Z" clip-rule="evenodd"/>
</svg>
