<svg xmlns="http://www.w3.org/2000/svg" width="531" height="878" fill="none" viewBox="0 0 531 878">
  <path fill="#fff" fill-rule="evenodd" d="M436.5.93c-14.144 1.267-54.222 8.012-56.7 9.544-.496.306-5.266 1.61-10.601 2.9-13.048 3.152-24.758 6.633-36.199 10.76-19.531 7.047-21.308 7.725-22.391 8.543-.61.46-2.684 1.44-4.609 2.177-6.109 2.338-28.245 13.118-35.174 17.13l-6.675 3.866H156.81c-102.187 0-107.509.088-110.826 1.835-5.911 3.112-6.981 6.624-6.982 22.915L39 94.85h-4.05c-2.227 0-5.369.683-6.983 1.517-6.152 3.182-5.967.87-5.967 74.361v66.977l-2.635 2.072c-1.449 1.14-4.094 2.073-5.878 2.073-4.356 0-9.999 2.465-11.92 5.208C.328 248.827 0 252.187 0 263.118c0 13.343.085 13.908 2.455 16.277 2.27 2.271 3.188 2.456 12.25 2.463 21.722.016 36.129 5.425 48.026 18.031 9.114 9.656 9.665 10.939 20.392 47.461 1.615 5.5 3.822 12.925 4.905 16.5a781.744 781.744 0 0 1 4.053 14l3.617 13c2.316 8.319 1.305 22.661-2.187 31.027-3.542 8.484-8.157 15.318-14.501 21.473-5.097 4.945-8.01 9.922-8.01 13.684 0 4.103 3.287 11.702 6.342 14.663 2.601 2.52 4.469 3.276 10.057 4.067 7.66 1.085 17.798 4.971 24.601 9.431 12.07 7.912 19.962 19.131 23.52 33.436.919 3.696 2.477 8.744 3.463 11.219 1.714 4.304 3.861 11.223 8.221 26.5 3.632 12.726 2.509 27.039-2.983 38-3.127 6.243-6.215 10.473-12.805 17.545-5.996 6.435-7.179 10.159-5.327 16.773 1.512 5.401 8.289 12.785 12.6 13.729 18.56 4.067 24.452 6.828 34.363 16.099 9.331 8.728 12.804 16.648 20.984 47.854 1.586 6.05 3.821 14.375 4.968 18.5 7.317 26.327 8.29 33.825 5.867 45.201-1.666 7.826-6.493 17.323-12.306 24.211L176.88 812.85c-5.802 6.875-11.073 13.483-11.714 14.684-1.881 3.523-1.333 9.416 1.422 15.316 1.413 3.025 4.607 10.45 7.099 16.5 4.911 11.921 7.999 15.652 14.481 17.492 2.485.705 50.663.955 149.5.774 134.164-.245 146.02-.399 148.182-1.93 1.293-.916 10.518-9.691 20.5-19.5 12.235-12.023 18.879-19.33 20.387-22.419 5.634-11.545 5.252-38.97-1.177-84.417-3.001-21.215-13.639-76.779-15.508-81-.487-1.1-1.389-4.925-2.005-8.5-.616-3.575-1.996-9.425-3.067-13-2.202-7.354-4.848-17.657-8.472-33-1.365-5.775-2.923-11.4-3.463-12.5-.539-1.1-1.864-5.375-2.942-9.5-1.079-4.125-3.353-12-5.054-17.5-4.096-13.246-8.729-28.478-11.101-36.5-1.058-3.575-2.36-7.4-2.894-8.5-1.291-2.659-5.605-15.292-8.195-24-1.145-3.85-2.435-7.45-2.866-8-.431-.55-1.713-3.925-2.849-7.5-2.517-7.92-6.53-18.734-9.035-24.342-1.021-2.287-2.422-5.958-3.113-8.158-.691-2.2-1.589-4.45-1.996-5-.407-.55-1.31-2.8-2.007-5-.697-2.2-2.072-5.8-3.055-8-2.129-4.765-6.226-14.876-9.118-22.5-1.147-3.025-2.479-5.999-2.958-6.609-.48-.61-1.721-3.574-2.758-6.588-1.037-3.014-2.375-6.34-2.975-7.391-.599-1.052-3.159-6.637-5.687-12.412-2.529-5.775-5.688-12.835-7.02-15.688-1.332-2.854-2.422-5.414-2.422-5.691 0-.439-2.188-5.189-12.495-27.121-1.293-2.75-4.224-9.275-6.513-14.5-2.29-5.225-4.777-10.85-5.526-12.5-8.693-19.146-16.962-42.151-20.49-57-4.109-17.299-5.142-25.018-5.219-39-.087-15.907 1.014-23.606 5.177-36.188 5.994-18.115 14.567-32.039 29.172-47.376 4.131-4.338 17.451-15.131 20.894-16.929 1.375-.719 2.727-1.649 3.004-2.067.953-1.44 23.504-12.607 29.996-14.854 3.575-1.237 10.222-3.307 14.772-4.6 12.092-3.436 17.862-7.22 23.328-15.3 4.298-6.352 4.853-10.398 4.832-35.186-.022-24.484-.48-27.236-5.495-32.937-5.072-5.767-9.286-7.035-22.937-6.904-6.6.064-16.05.479-21 .922ZM300.575 364.616c2.034 1.39 4.287 6.767 8.898 21.235 2.542 7.975 5.235 15.85 5.984 17.5.75 1.65 1.894 5.025 2.543 7.5.649 2.475 1.757 5.85 2.462 7.5.705 1.65 3.386 9.75 5.959 18 2.572 8.25 5.041 15.68 5.488 16.512.446.832 1.588 4.207 2.538 7.5.95 3.293 2.306 7.338 3.014 8.988.708 1.65 4.71 13.35 8.893 26a7113.995 7113.995 0 0 0 14.221 42.5c3.639 10.725 7.441 22.2 8.449 25.5 2.481 8.119 5.766 17.948 8.022 24 1.025 2.75 3.891 11.3 6.37 19 2.478 7.7 4.987 15.35 5.576 17 .589 1.65 4.408 13.125 8.487 25.5s7.892 23.85 8.473 25.5C412.871 694.01 431 750.879 431 752.924c0 3.401-2.101 5.16-5.669 4.748-2.736-.316-3.008-.986-14.145-34.822-6.245-18.975-12.175-36.75-13.179-39.5-2.575-7.056-5.735-16.672-8.542-26-1.324-4.4-2.847-8.743-3.384-9.652-.536-.908-1.711-4.508-2.611-8-.899-3.491-2.238-7.698-2.974-9.348-.737-1.65-2.067-5.7-2.956-9-.889-3.3-2.04-6.9-2.556-8-.517-1.1-3.184-8.75-5.926-17-2.743-8.25-5.461-16.35-6.04-18-.58-1.65-4.383-13.125-8.453-25.5-4.07-12.375-7.904-23.85-8.519-25.5-.616-1.65-4.451-13.125-8.522-25.5-9.41-28.599-28.039-83.95-30.46-90.5-1.017-2.75-3.918-11.3-6.448-19-2.53-7.7-5.259-15.8-6.064-18-1.902-5.196-1.898-7.011.019-8.929 1.672-1.671 4.234-2.015 6.004-.806ZM272 368.85c1.1 1.1 2 2.494 2 3.099 0 .604.632 2.517 1.404 4.25.773 1.733 3.551 9.901 6.174 18.151s5.097 15.675 5.498 16.5c.4.825 2.833 8.25 5.407 16.5s5.303 16.575 6.064 18.5c.761 1.925 4.358 12.725 7.993 24 3.635 11.275 7.187 21.85 7.894 23.5.708 1.65 2.064 5.7 3.013 9 .95 3.3 2.306 7.35 3.013 9 1.693 3.951 6.063 17.229 8.558 26 1.094 3.85 2.415 7.743 2.933 8.652.519.908 1.678 4.488 2.577 7.956.898 3.467 2.202 7.448 2.896 8.848.694 1.399 2.052 5.469 3.018 9.044.965 3.575 2.337 7.85 3.049 9.5.712 1.65 4.302 12.45 7.979 24 3.676 11.55 7.527 23.25 8.559 26 1.031 2.75 2.389 7.025 3.016 9.5.628 2.475 1.935 6.525 2.904 9 .969 2.475 3.447 9.9 5.506 16.5 2.06 6.6 4.572 14.25 5.583 17 1.011 2.75 7.09 21.091 13.51 40.758 11.267 34.518 11.615 35.844 10.039 38.25-2.103 3.209-5.85 3.265-7.912.119-.855-1.305-2.297-5.242-3.205-8.75-.908-3.507-2.51-8.265-3.561-10.572-1.05-2.307-1.909-4.72-1.909-5.362 0-.642-3.767-12.479-8.371-26.305-4.604-13.826-13.865-42.013-20.579-62.638-6.715-20.625-12.811-39.075-13.548-41-.736-1.925-3.449-10.25-6.029-18.5-2.579-8.25-5.306-16.575-6.06-18.5-.754-1.925-4.342-12.725-7.973-24-3.632-11.275-8.554-26.125-10.938-33-2.384-6.875-7.556-22.4-11.493-34.5-3.937-12.1-7.626-23.125-8.197-24.5-3.361-8.095-26.812-80.776-26.812-83.099 0-4.648 4.589-6.312 8-2.901Zm-26.307 10.5c1.338 3.85 3.254 9.7 4.258 13 1.005 3.3 3.47 10.725 5.478 16.5 2.009 5.775 4.526 13.425 5.594 17 1.067 3.575 2.59 8.075 3.384 10 .794 1.925 3.097 8.9 5.118 15.5 2.021 6.6 4.685 14.7 5.921 18 1.235 3.3 2.835 8.25 3.555 11 .72 2.75 1.635 5.45 2.033 6 .399.55 1.469 3.7 2.38 7 .91 3.3 2.266 7.575 3.014 9.5.748 1.925 3.454 10.25 6.015 18.5 2.56 8.25 5.019 15.68 5.466 16.512.446.832 1.564 4.207 2.485 7.5.921 3.293 2.291 7.563 3.045 9.488.753 1.925 4.61 13.625 8.571 26 3.96 12.375 8.018 24.75 9.018 27.5s3.689 11.075 5.976 18.5c2.287 7.425 4.796 14.918 5.577 16.651.78 1.733 1.419 3.671 1.419 4.307 0 .635 2.413 8.442 5.362 17.349 2.949 8.906 8.382 25.643 12.072 37.193 3.691 11.55 7.527 23.25 8.525 26 .999 2.75 3.487 10.4 5.531 17 2.043 6.6 4.343 13.992 5.112 16.426 1.221 3.87 1.205 4.719-.126 6.75-1.656 2.528-5.614 3.118-7.202 1.074-.787-1.013-11.476-32.384-17.974-52.75-.79-2.475-4.373-13.725-7.963-25s-7.119-22.075-7.842-24c-.723-1.925-2.66-7.775-4.305-13-4.932-15.67-21.784-67.442-32.714-100.5-5.637-17.05-11.017-33.7-11.957-37-.939-3.3-2.046-6.45-2.458-7-.413-.55-1.335-3.25-2.049-6-.713-2.75-2.082-7.025-3.042-9.5-.959-2.475-4.995-14.625-8.968-27s-8.908-27.225-10.966-33c-2.058-5.775-4.726-13.875-5.929-18-1.203-4.125-2.577-8.4-3.051-9.5-1.167-2.701-7.024-20.899-8.54-26.533-1.773-6.586-.561-9.177 4.105-8.778 3.539.302 3.706.504 6.072 7.311Zm-32.665-3.218c.84.67 4.59 10.668 8.332 22.218 3.742 11.55 7.644 23.475 8.671 26.5 1.028 3.025 4.855 14.95 8.506 26.5s7.461 23.25 8.466 26c1.005 2.75 4.613 13.775 8.019 24.5 3.405 10.725 8.329 26.025 10.943 34 2.613 7.975 6.876 21.25 9.472 29.5 2.597 8.25 5.12 15.9 5.606 17 .487 1.1 2.443 6.95 4.347 13a2812.74 2812.74 0 0 0 5.568 17.5c1.159 3.575 3.177 9.875 4.485 14 1.309 4.125 3.765 11.55 5.459 16.5 1.693 4.95 4.628 14.175 6.521 20.5 1.894 6.325 4.614 14.875 6.045 19 1.432 4.125 3.277 9.975 4.1 13 .824 3.025 2.119 7.075 2.879 9 .76 1.925 3.283 9.575 5.607 17a2171.83 2171.83 0 0 0 8.176 25.5c6.778 20.584 7.626 24.154 6.354 26.72-1.287 2.595-5.727 3.562-7.265 1.581-1.213-1.564-5.072-12.834-11.401-33.301a2028.734 2028.734 0 0 0-13.347-41.5c-2.484-7.425-7.259-22.275-10.612-33-3.353-10.725-6.929-21.75-7.946-24.5-1.018-2.75-4.867-14.45-8.554-26-10.569-33.112-19.547-60.82-20.413-63-.848-2.136-12.863-39.388-18.061-56-1.721-5.5-3.738-11.575-4.48-13.5-.743-1.925-2.981-8.9-4.973-15.5-1.991-6.6-4.45-14.25-5.462-17-1.928-5.234-14.473-44.172-15.626-48.5-.367-1.375-1.248-3.85-1.959-5.5-.711-1.65-2.421-6.6-3.8-11l-2.509-8 2.087-2.25c2.315-2.497 4.462-2.804 6.765-.968Zm-28.159 5.473c.89 1.664 3.94 10.893 11.81 35.745 1.916 6.05 4.315 13.475 5.33 16.5 1.015 3.025 2.369 7.525 3.008 10 .64 2.475 1.751 5.85 2.47 7.5.72 1.65 3.431 9.75 6.026 18 2.595 8.25 6.393 20.175 8.44 26.5 2.047 6.325 5.408 16.9 7.47 23.5 2.063 6.6 4.785 15.15 6.05 19 1.265 3.85 3.972 12.4 6.016 19s4.515 14.025 5.491 16.5c.977 2.475 2.352 6.975 3.056 10 .704 3.025 1.94 7.075 2.747 9 .808 1.925 2.342 6.64 3.409 10.478 1.068 3.838 2.296 7.438 2.73 8 .434.562 1.329 3.232 1.989 5.933 1.125 4.608 5.847 19.433 17.07 53.589 2.62 7.975 6.45 19.9 8.511 26.5 8.314 26.629 10.715 34.09 11.586 36 .501 1.1 1.98 5.6 3.287 10s3.807 12.5 5.556 18c4.37 13.738 4.959 16.242 4.36 18.535-.613 2.342-4.909 3.689-7.186 2.253-1.804-1.138-1.685-.813-10.063-27.288-3.394-10.725-7.43-23.325-8.968-28-1.539-4.675-4.464-13.9-6.501-20.5s-4.527-14.25-5.534-17C270.666 682.892 263 658.52 263 657.463c0-.446-.612-2.229-1.36-3.962-.748-1.733-2.12-5.851-3.049-9.151-.929-3.3-2.318-7.575-3.087-9.5-.769-1.925-4.15-12.275-7.513-23-3.363-10.725-7.168-22.65-8.456-26.5-1.288-3.85-5.112-15.775-8.497-26.5s-7.038-22.2-8.119-25.5a1224.34 1224.34 0 0 1-8.824-28c-1.669-5.5-3.481-10.9-4.026-12-.546-1.1-1.712-4.7-2.592-8-.881-3.3-1.991-6.9-2.469-8-.478-1.1-1.319-3.575-1.87-5.5-1.866-6.516-14.305-45.486-15.163-47.5-.468-1.1-1.57-4.7-2.448-8-.877-3.3-2.229-7.575-3.002-9.5-.774-1.925-2.607-7.714-4.074-12.865-2.123-7.454-2.445-9.852-1.58-11.75 1.341-2.944 6.54-3.353 7.998-.63Zm159.859 18.245c2.973 8.525 6.022 17.525 6.775 20 .753 2.475 2.815 8.55 4.582 13.5 4.368 12.234 19.296 55.865 28.911 84.5 4.34 12.925 13.341 39.475 20.002 59s13.184 38.875 14.495 43 5.506 16.725 9.321 28c8.648 25.555 10.648 31.583 13.607 41 1.297 4.125 2.82 8.625 3.385 10s3.106 9.025 5.647 17c2.54 7.975 5.025 15.4 5.521 16.5 1.976 4.379 4.085 13.74 3.506 15.563-.712 2.244-5.124 3.651-7.248 2.311-1.338-.843-7.821-18.321-12.194-32.874-2.699-8.98-8.959-27.72-10.022-30-.513-1.1-1.443-4.025-2.068-6.5-.624-2.475-1.956-6.525-2.959-9-1.003-2.475-3.944-11.25-6.535-19.5s-5.033-15.45-5.426-16c-.393-.55-1.509-3.925-2.479-7.5-.97-3.575-2.117-6.95-2.549-7.5-.431-.55-1.78-4.57-2.996-8.934-1.216-4.363-2.802-9.313-3.523-11-1.22-2.854-2.537-6.748-7.466-22.066-1.061-3.3-4.884-14.55-8.496-25-3.611-10.45-7.405-21.7-8.431-25-1.026-3.3-3.513-10.725-5.527-16.5-2.014-5.775-6.083-17.7-9.042-26.5-2.959-8.8-8.115-23.875-11.46-33.5-3.344-9.625-7.913-23.125-10.154-30-2.24-6.875-4.769-14.3-5.62-16.5-2.574-6.658-5.269-15.875-5.277-18.05-.011-2.962 2.051-4.584 5.398-4.245 2.812.285 3.107.844 8.322 15.795Z" clip-rule="evenodd"/>
</svg>
