<svg xmlns="http://www.w3.org/2000/svg" width="871" height="408" fill="none" viewBox="0 0 871 408">
  <mask id="a" width="871" height="408" x="0" y="0" maskUnits="userSpaceOnUse" style="mask-type:alpha">
    <path fill="#fff" fill-rule="evenodd" d="M296.655 1.223c-4.553 1.648-8.071 4.738-9.602 8.434-.693 1.673-1.004 8.466-.83 18.151l.277 15.477 8.156.29 8.155.288.137-15.203c.075-8.362.369-15.579.653-16.039.284-.46 2.065-.836 3.958-.836H311v32h39.949l.276-15.75.275-15.75h8l.275 15.75.276 15.75h38.898l.276-15.75.275-15.75h8l.276 15.79.275 15.79 8.225-.29 8.224-.29v-16.5c0-15.675-.116-16.663-2.329-19.765C417.193.04 419.718.31 357 .06c-46.179-.186-57.202.026-60.345 1.163ZM777 32.403c-7.425.734-23.625 2.236-36 3.337a17545.669 17545.669 0 0 0-55.495 5.068l-32.995 3.066-31.005 7.911c-122.691 31.305-163.016 41-170.497 40.99-8.773-.01-15.289-2.539-21.868-8.483l-4.082-3.687-.279-12.66-.279-12.66-8.5-.5c-4.675-.275-35.837-.365-69.25-.2l-60.75.3v11.76c0 12.371-.759 14.947-4.5 15.28-1.1.097-10.663.106-21.25.018L241 81.785V69.907c0-8.847-.35-12.168-1.372-13.016-.97-.805-9.258-1.06-28.25-.873l-26.878.267-6.128 11.5c-3.371 6.325-7.421 13.525-9 16l-2.872 4.5-41.869.261-41.868.261-11.939-6.62c-6.567-3.64-12.154-6.405-12.416-6.143-.682.681-.73 187.752-.049 188.433.311.311 5.57-2.162 11.687-5.497 6.117-3.334 12.322-6.14 13.788-6.234 1.466-.095 20.965-.125 43.331-.067l40.665.106 8.435 16.25 8.435 16.25 26.777.267c18.294.182 27.196-.081 28.097-.828.725-.602 1.455-2.972 1.622-5.267l.304-4.172 178.904-.253 178.904-.252 5.467 2.502c3.007 1.377 5.862 2.503 6.346 2.503 1.287 0 1.148-161.716-.14-162.512-.56-.346-15.298.071-32.75.927-65.166 3.196-65.09 3.202-36.231-2.877 9.075-1.912 28.2-6.012 42.5-9.112 31.214-6.767 35.509-7.325 37.539-4.879 1.25 1.506 1.533 15.264 1.961 95.356l.5 93.597 72.5.276c39.875.151 73.5.033 74.721-.262 3.044-.737 3.888-2.636 8.395-18.88 3.581-12.906 5.206-19.34 10.893-43.134 3.162-13.231 9.678-49.792 12.386-69.5 4.349-31.643 5.075-42.261 5.09-74.5.016-33.656-.473-37.622-5.977-48.485-2.534-5-2.555-5.015-7.275-4.875-2.603.077-10.808.741-18.233 1.477Zm37-1.31c0 .188 1.133 3.672 2.517 7.743 3.936 11.573 4.84 23.144 4.175 53.45-1.205 54.838-12.976 128.615-29.656 185.877-1.67 5.731-3.036 10.916-3.036 11.521 0 .769 6.787 1.101 22.477 1.101h22.477l1.56-2.38c4.158-6.347 17.441-60.112 24.489-99.12 9.17-50.754 11.846-77.808 11.63-117.55l-.133-24.55-4-7.95-4-7.95-24.25-.268c-13.338-.147-24.25-.113-24.25.075ZM5.303 73.982C-.129 76.605 0 74.288 0 169.06c0 48.111.28 88.874.622 90.585.342 1.711 1.764 4.252 3.158 5.647l2.537 2.536 18.091-.272 18.092-.272.255-95.891c.186-70.023-.049-96.258-.872-97.25-1.407-1.695-33.118-1.835-36.58-.162Zm363.682 40.36c11.532 2.718 20.432 7.779 29.551 16.806 12.803 12.672 18.794 26.369 18.869 43.136.049 11.219-1.473 17.693-6.679 28.398-7.309 15.031-22.282 27.585-38.647 32.402-8.951 2.635-25.051 2.624-34.158-.024-27.973-8.133-47.484-35.337-45.664-63.668 1.76-27.407 23.694-52.056 51.243-57.586 6.652-1.335 18.613-1.084 25.485.536Zm-24.668 10.88c-22.054 5.027-37.245 21.388-40.448 43.562-2.092 14.488 3.979 31.887 14.865 42.6 6.919 6.81 18.823 12.749 28.766 14.352 30.886 4.978 58.985-19.585 58.858-51.452-.041-10.345-2.677-18.622-8.93-28.042-11.023-16.608-33.479-25.495-53.111-21.02Zm-85.65 169.229c-1.225 1.224-.662 21.715.662 24.099.692 1.247 5.053 5.409 9.691 9.25l8.431 6.984H665v-4.481c0-3.812-.336-4.565-2.25-5.047-1.237-.311-14.157-3.582-28.71-7.269l-26.46-6.703-4.412-5.5c-2.427-3.025-5.719-6.962-7.315-8.75l-2.902-3.25H426.142c-91.745 0-167.109.3-167.475.667Zm22.118 52.887c-4.146 2.25-4.74 6.512-4.501 32.283l.216 23.337 2.806 2.413 2.806 2.413h83.118l2.377-2.75c1.307-1.513 3.865-4.775 5.686-7.25l3.309-4.5 94.949-.275c52.222-.151 95.849-.049 96.949.226 1.1.276 3.748 3.228 5.884 6.561 2.136 3.333 4.693 6.494 5.684 7.024 1.07.573 18.234.964 42.31.964h40.51l2.806-2.412 2.806-2.411.318-23.339c.369-27.053-.158-30.247-5.349-32.416-5.222-2.181-378.658-2.053-382.684.132Zm53.005 12.354c9.776 5.029 13.593 14.454 9.662 23.86-3.458 8.278-10.63 12.677-19.608 12.027-7.023-.508-12.142-4.058-15.594-10.815-2.718-5.32-2.83-10.129-.36-15.48 4.613-9.995 16.533-14.409 25.9-9.592Zm293.51-.287c7.2 3.646 10.703 9.407 10.695 17.589-.007 6.639-2.965 11.844-9.083 15.98-3.944 2.667-5.062 2.944-10.543 2.607-13.122-.806-21.47-12.87-17.413-25.164 3.254-9.86 17.149-15.668 26.344-11.012Z" clip-rule="evenodd"/>
  </mask>
  <g mask="url(#a)">
    <path fill="#fff" d="M-201-423.215h1254v1254H-201z"/>
  </g>
</svg>
