<svg xmlns="http://www.w3.org/2000/svg" width="756" height="544" fill="none" viewBox="0 0 756 544">
  <mask id="a" width="756" height="544" x="0" y="0" maskUnits="userSpaceOnUse" style="mask-type:alpha">
    <path fill="#fff" fill-rule="evenodd" d="M413.561 1.49c-40.619 8.017-74.514 37.822-87.495 76.936-1.643 4.95-7.094 23.85-12.114 42-5.02 18.15-10.874 39.3-13.01 47-21.371 77.063-19.877 69.369-19.955 102.75-.048 20.38-.177 21.876-2.051 23.75-1.9 1.9-3.333 2-28.684 2-24.945 0-26.963-.135-30.963-2.071-6.21-3.006-8.599-7.463-9.156-17.079l-.454-7.85H46.936v7.04c0 13.894-5.25 18.914-20.924 20.001-13.65.947-19.849 4.474-23.676 13.473-1.513 3.559-1.74 10.481-2.13 64.624-.483 66.889-.634 65.071 5.697 68.345 2.607 1.348 44.086 1.517 372.233 1.513 364.279-.003 369.343-.03 372.496-1.952 2.113-1.289 3.571-3.234 4.305-5.746.792-2.711 1.018-35.282.789-113.798l-.32-110-4.658-22c-2.561-12.1-5.345-25.6-6.185-30-9.422-49.333-16.088-81.329-18.228-87.5-12.957-37.345-44.875-64.84-82.982-71.487C635.812.124 619.492-.075 527.506.02c-85.761.09-108.438.382-113.945 1.47Zm207.401 36.458c9.4 1.134 20.335 4.112 26.462 7.207 18.7 9.445 34.335 26.316 41.423 44.697 3.277 8.497 5.091 17.41 24.332 119.574 1.808 9.599 2.125 15.934 2.496 49.747.379 34.683.244 39.289-1.295 43.921-2.171 6.538-8.414 13.419-14.944 16.474l-5 2.338h-349l-5-2.367c-5.901-2.795-10.823-7.443-13.83-13.06-2.056-3.839-2.186-5.544-2.477-32.316-.371-34.149.422-39.955 10.353-75.737 3.663-13.2 7.92-28.725 9.46-34.5 2.641-9.9 7.02-25.52 16.047-57.235 7.5-26.348 18.075-41.939 37.31-55.009 11.962-8.128 24.82-12.53 40.137-13.743 14.592-1.154 173.944-1.147 183.526.01ZM514.393 156.717c-8.756 4.243-13.427 10.308-15.546 20.187-.929 4.333-.788 6.068.96 11.823 3.765 12.394 12.492 19.268 25.431 20.03 8.493.5 14.367-1.563 20.474-7.192 6.561-6.048 8.597-10.67 8.65-19.639.097-16.333-9.736-26.662-26.344-27.674-6.855-.418-8.161-.182-13.625 2.465ZM60.494 196.418c-5.533 1.971-8.592 4.494-10.989 9.065-1.864 3.552-2.099 6.002-2.375 24.693l-.306 20.75h163.112v-20.55c0-22.211-.319-23.842-5.824-29.724-5.27-5.631-6.597-5.73-76.108-5.682-51.958.036-64.288.3-67.51 1.448Zm78.442 127.162c12.242 3.998 24.135 15.45 29.101 28.022 1.906 4.824 2.303 7.713 2.31 16.824.007 9.774-.301 11.742-2.77 17.655-3.079 7.377-11.087 16.992-18.265 21.93-9.548 6.569-22.379 9.031-34.141 6.549-9.874-2.083-17.953-6.629-25.208-14.184-22.366-23.292-16.147-58.825 12.958-74.039 10.652-5.567 24.227-6.607 36.015-2.757Zm-26.409 15.919c-7.354 2.695-13.88 9.091-17.073 16.731l-1.545 3.696h29.514c33.526 0 32.082.443 26.618-8.173-3.29-5.188-7.649-8.813-14.133-11.755-5.388-2.444-17.375-2.699-23.381-.499ZM95.174 379.35c1.693 5.516 7.792 12.615 13.673 15.915 4.492 2.52 6.812 3.11 13.648 3.469 7.184.377 8.921.118 13.589-2.028 2.944-1.353 6.776-3.665 8.517-5.138 3.203-2.709 7.501-9.269 8.775-13.392l.695-2.25H94.123l1.051 3.424Zm-61.57 80.326c-.248.413-.359 17.85-.249 38.75.14 26.372.554 38.645 1.351 40.108.632 1.16 2.276 2.847 3.654 3.75 2.28 1.494 11.142 1.642 98.041 1.642h95.535v-4.345c0-3.371-.897-5.732-4-10.534-5.675-8.78-5.464-11.282 1.664-19.684 3.115-3.672 7.151-7.297 8.968-8.057 2.749-1.148 24.088-1.38 127.101-1.38 140.028 0 125.905-.893 134.443 8.5 8.237 9.062 8.456 10.676 2.666 19.595-2.931 4.515-4.296 7.806-4.627 11.155l-.469 4.75h217.222l3.266-2.917 3.266-2.917.283-39.583.283-39.583H378.028c-189.186 0-344.177.337-344.424.75Z" clip-rule="evenodd"/>
  </mask>
  <g mask="url(#a)">
    <path fill="#fff" d="M-250.062-356.073h1254v1254h-1254z"/>
  </g>
</svg>
