<svg xmlns="http://www.w3.org/2000/svg" width="786" height="573" fill="none" viewBox="0 0 786 573">
  <mask id="a" width="786" height="573" x="0" y="0" maskUnits="userSpaceOnUse" style="mask-type:alpha">
    <path fill="#fff" fill-rule="evenodd" d="M126.065.29c-17.473 2.762-33.729 12.703-42.582 26.04-2.089 3.148-5.075 9.427-6.635 13.954-3.049 8.846-3.435 13.047-11.275 122.857-7.845 109.887-7.406 106.132-13.403 114.847-1.636 2.379-12.58 12.897-24.319 23.375-16.482 14.71-22.021 20.271-24.315 24.414l-2.971 5.364-.282 55.263L0 441.667l2.487 2.487c2.403 2.403 2.942 2.487 15.947 2.487h13.459l.371-26.25c.361-25.655.433-26.431 3.151-34.25 4.617-13.283 10.628-22.207 21.172-31.434 6.813-5.962 19.025-12.286 28.478-14.749 8.805-2.293 24.391-2.268 33.652.056 19.259 4.832 36.254 18.869 44.951 37.127 6.082 12.77 6.68 16.47 7.148 44.25l.426 25.25h608.553l2.635-2.073 2.635-2.072-.022-50.178c-.021-48.249-.1-50.349-2.05-54.649-2.979-6.567-6.427-10.65-11.506-13.627-3.377-1.979-28.718-8.718-100.88-26.826-105.007-26.351-101.485-25.236-107.484-34.021-4.374-6.404-2.345 3.002-25.568-118.554-1.314-6.875-4.673-24.425-7.466-39a33296.03 33296.03 0 0 1-8.022-42c-4.345-22.874-8.336-31.94-19.157-43.506-7.852-8.394-16.07-13.801-26.188-17.23L468.565.14l-170-.122c-93.5-.068-171.125.055-172.5.272Zm295.121 58.262c16.101.995 22.957 3.843 32.253 13.396 9.12 9.374 10.792 13.619 15.641 39.693 2.302 12.375 5.287 28.35 6.633 35.5 1.347 7.15 4.466 24.025 6.932 37.5 2.465 13.475 6.536 35.525 9.045 49 4.932 26.48 5.104 31.303 1.417 39.638-2.72 6.148-10.377 13.888-16.917 17.1l-5.625 2.762H166.523l-6.602-3.25c-7.826-3.853-13.971-10.129-17.696-18.075l-2.66-5.675V87.037l3.778-7.644c5.611-11.353 15.295-18.652 27.502-20.73 6.096-1.037 233.716-1.14 250.341-.111ZM89.743 357.217c-18.665 4.52-33.42 18.819-38.147 36.966-4.232 16.248.752 35.141 12.505 47.399 6.414 6.689 12.848 10.611 22.464 13.693 6.955 2.229 9.176 2.494 17 2.03 18.165-1.077 31.497-8.81 41.405-24.018 4.502-6.91 8.095-18.787 8.095-26.757 0-12.244-5.103-24.729-13.968-34.176-7.402-7.887-14.487-12.144-24.46-14.695-9.067-2.319-16.591-2.452-24.894-.442ZM34.065 483.731v14.09l3.166 2.66c1.741 1.463 5.097 4.387 7.456 6.497l4.291 3.838.294 28.333.293 28.334 2.429 2.584 2.43 2.585 88.57-.256 88.571-.255.306-5.362.306-5.362-6.556-6.791c-6.482-6.714-6.556-6.854-6.556-12.377 0-5.288.28-5.916 5.259-11.777 3.193-3.76 6.398-6.497 8.162-6.968 1.596-.427 74.2-.684 161.342-.57l158.438.207 5.9 6.277c5.862 6.236 5.899 6.315 5.899 12.347v6.07l-6.5 6.733c-6.026 6.243-6.5 7.059-6.5 11.203 0 2.459.54 5.01 1.2 5.67 1.656 1.656 177.514 1.743 181.143.09 1.34-.611 2.936-2.207 3.547-3.547.764-1.678 1.11-17.376 1.11-50.39v-47.953h-704v14.09Zm725 7.44v21.53l12.75-.28 12.75-.28.27-21.25.27-21.25h-26.04v21.53Z" clip-rule="evenodd"/>
  </mask>
  <g mask="url(#a)">
    <path fill="#fff" d="M-241.934-317.359h1254v1254h-1254z"/>
  </g>
</svg>
