<svg xmlns="http://www.w3.org/2000/svg" width="309" height="780" fill="none" viewBox="0 0 309 780">
  <mask id="a" width="309" height="780" x="0" y="0" maskUnits="userSpaceOnUse" style="mask-type:alpha">
    <path fill="#fff" fill-rule="evenodd" d="M33.534 3.75 29.836 7.5 28.13 23.383c-.939 8.736-1.948 16.273-2.243 16.75-.295.477-3.379.867-6.855.867-3.86 0-6.702.486-7.305 1.25-1.338 1.694-2.23 21.381-1.417 31.25l.66 8 4.723 2.257c4.221 2.017 4.673 2.548 4.25 5-2.017 11.669-8.797 68.576-12.42 104.243-10.19 100.321-10.032 189.35.505 284 9.665 86.816 23.794 155.244 53.921 261.142 9.564 33.615 10.825 36.275 18.95 39.965 7.255 3.296.04 4.782 126.57-26.076 25.025-6.103 54.95-13.389 66.5-16.191 11.55-2.802 22.711-5.958 24.802-7.014 2.259-1.141 4.997-3.805 6.75-6.568 4.177-6.587 3.935-11.727-1.485-31.547-38.899-142.26-53.022-242.726-51.269-364.711.622-43.255 2.409-72.211 7.332-118.804.589-5.57.405-6.658-1.582-9.345l-2.248-3.041 1.672-11.655c1.47-10.238 2.019-12.02 4.514-14.655 2.656-2.805 2.981-4.105 4.994-20 1.185-9.35 3.924-29.552 6.087-44.893 4.412-31.288 4.633-34.781 2.326-36.696-1.221-1.013-1.492-2.533-1.127-6.33.264-2.748.981-5.163 1.594-5.368 3.88-1.293 5.114-3.821 5.714-11.713.887-11.665 1.318-11.356-19.681-14.107-9.566-1.253-19.941-2.582-23.055-2.955l-5.663-.677-.337-10.469c-.324-10.043-.452-10.567-3.144-12.88L227.356 0H37.233l-3.699 3.75Zm34.39 169.871c3.13 1.201 4.368 5.43 3.48 11.879-2.113 15.353-6.015 59.581-7.402 83.914-1.757 30.833-2.034 96.357-.528 125.086 5.378 102.57 20.014 191.161 49.633 300.431 4.949 18.259 4.871 20.787-.719 23.102-2.416 1.001-3.326.931-5.379-.414-3.399-2.227-3.814-3.211-8.053-19.119C69.893 589.443 57.302 517.457 49.893 418c-2.17-29.133-3.006-104.644-1.5-135.5 1.702-34.85 6.517-91.462 8.716-102.453 1.015-5.077 6.24-8.181 10.814-6.426Zm69.202 11.761 2.77 2.383-1.78 18.367c-5.84 60.293-7.012 82.482-6.993 132.368.044 112.656 13.86 214.723 44.581 329.351 7.488 27.939 7.714 29.509 4.701 32.716-2.876 3.062-6.939 3.139-9.658.183-4.283-4.655-23.498-82.197-33.197-133.969-22.388-119.49-27.197-232.282-15.044-352.781 2.663-26.395 2.715-26.66 5.684-28.996 3.335-2.623 5.556-2.529 8.936.378Zm68.535 11.368c2.361 2.749 2.583 4.275 1.707 11.75-1.42 12.107-4.775 54.171-5.982 75-.638 11-1.158 37.1-1.157 58 .005 101.804 12.082 192.442 40.44 303.5 10.097 39.543 9.575 36.315 6.387 39.503-3.346 3.346-8.07 3.124-10.71-.503-1.863-2.559-11.632-38.723-18.908-69.99-26.879-115.516-37.113-226.463-30.948-335.51 1.42-25.1 5.049-67.5 6.533-76.306.306-1.818 1.431-4.18 2.501-5.25 2.461-2.461 8.097-2.569 10.137-.194Z" clip-rule="evenodd"/>
  </mask>
  <g mask="url(#a)">
    <path fill="#fff" d="M-486.531-236h1254v1254h-1254z"/>
  </g>
</svg>
