<svg xmlns="http://www.w3.org/2000/svg" width="223" height="674" fill="none" viewBox="0 0 223 674">
  <mask id="a" width="223" height="674" x="0" y="0" maskUnits="userSpaceOnUse" style="mask-type:alpha">
    <path fill="#fff" fill-rule="evenodd" d="M26.901 3.106C24.156 6.045 24 6.683 24 14.992v8.781l-4.472.671c-3.105.465-5.093 1.458-6.5 3.248C11.001 30.269 11 30.392 11 336.528c0 278.345-.144 306.313-1.582 306.865-.87.334-2.412.607-3.427.607-1.015 0-2.779 1.186-3.918 2.635C.313 648.872 0 650.675 0 658.579c0 8.399.236 9.584 2.413 12.115l2.413 2.806h213.011l2.582-2.424c2.43-2.283 2.581-2.99 2.581-12.115 0-8.29-.3-10.072-2.073-12.326-1.139-1.449-2.903-2.635-3.918-2.635-1.015 0-2.557-.273-3.427-.607-1.438-.552-1.582-28.559-1.582-307.309 0-258.728-.215-306.996-1.376-308.583-.885-1.211-3.113-2.081-6.25-2.441l-4.874-.56-.5-9.84c-.47-9.256-.667-9.984-3.306-12.25L192.888 0H29.802l-2.901 3.106Z" clip-rule="evenodd"/>
  </mask>
  <g mask="url(#a)">
    <path fill="#fff" d="M-518-273H736V981H-518z"/>
  </g>
</svg>
