<svg xmlns="http://www.w3.org/2000/svg" width="560" height="803" fill="none" viewBox="0 0 560 803">
  <mask id="a" width="560" height="804" x="0" y="0" maskUnits="userSpaceOnUse" style="mask-type:alpha">
    <path fill="#fff" fill-rule="evenodd" d="M180.656 1.829c-1.37 1.513-1.655 4.179-1.655 15.465 0 16.006-.209 15.706 10.934 15.706h7.066v45.075l4.485 4.359c2.467 2.398 4.942 5.56 5.5 7.028.558 1.467 1.015 8.263 1.015 15.1v12.432l-3.5 3.874c-3.214 3.558-3.5 4.385-3.5 10.132s.286 6.574 3.5 10.132l3.5 3.874v29.988l-3.5 3.874c-3.214 3.558-3.5 4.385-3.5 10.132s.286 6.574 3.5 10.132l3.5 3.874v29.988l-3.511 3.886-3.511 3.887-.167 16.218-.168 16.218-3.071 1.365c-1.69.75-8.001 3.25-14.025 5.553-44.483 17.013-87.221 49.369-116.66 88.322-20.577 27.229-38.024 64.61-45.298 97.057l-2.242 10-7.764.5c-11.919.768-11.583-.079-11.583 29.177 0 13.962.415 24.729.994 25.812.547 1.022 3.359 3.234 6.25 4.917 2.89 1.682 5.795 3.416 6.454 3.853.678.45 1.857 6.419 2.718 13.768C22.344 604.101 40.3 647.963 71.879 689c9.003 11.7 32.419 34.844 45.334 44.808 32.851 25.345 75.933 44.911 112.788 51.226 4.125.707 8.017 1.681 8.65 2.165.632.484 2.155 3.449 3.383 6.59 3.806 9.733 1.679 9.211 37.522 9.211 36.094 0 34.251.487 38.393-10.145l2.199-5.645 9.677-1.729c32.602-5.825 67.522-20.193 97.09-39.95 17.141-11.454 27.499-19.912 41.086-33.552 34.463-34.597 57.39-74.71 69.523-121.638 3.483-13.473 7.462-37.486 7.472-45.098.005-4.165.151-4.35 6.86-8.65 3.77-2.417 7.145-5.15 7.5-6.075.355-.925.645-12.465.645-25.645v-23.964l-2.455-2.454c-2.123-2.124-3.371-2.456-9.25-2.46l-6.795-.004-3.302-13.643c-17.442-72.078-68.891-137.078-136.332-172.241-12.688-6.615-27.039-12.766-38.616-16.551l-5.25-1.717v-29.717l-4-4.622-4-4.622v-29.872l3.75-4.151c3.41-3.774 3.75-4.668 3.75-9.855s-.34-6.081-3.75-9.855l-3.75-4.151v-29.988l3.5-3.874c3.214-3.558 3.5-4.385 3.5-10.132s-.286-6.574-3.5-10.132l-3.5-3.874.004-12.747c.004-14.158.71-16.282 7.557-22.74l3.439-3.243V33h7.066c11.206 0 10.934.41 10.934-16.5 0-13.243-.159-14.515-1.934-15.465C375.772.342 343.268 0 278.722 0c-92.131 0-96.484.081-98.066 1.829Z" clip-rule="evenodd"/>
  </mask>
  <g mask="url(#a)">
    <path fill="#fff" d="M-348-212H906v1254H-348z"/>
  </g>
</svg>
