<svg xmlns="http://www.w3.org/2000/svg" width="600" height="337" fill="none" viewBox="0 0 600 337">
  <path fill="#fff" fill-rule="evenodd" d="m134.789.749-29.621.28-.618 3.736c-.339 2.054-.604 8.46-.587 14.235.028 9.965.168 10.662 2.754 13.681l2.725 3.182 16.674.859c14.167.73 16.988 1.143 18.757 2.744 1.145 1.036 5.266 6.561 9.157 12.278 3.891 5.716 7.704 10.634 8.472 10.929.769.295 1.218.827.999 1.182-.219.355 58.89.82 131.353 1.034l131.751.389 8.989-12.889c4.945-7.089 10.076-13.445 11.403-14.124 1.571-.804 7.479-1.255 16.914-1.291 14.29-.054 14.546-.095 17.642-2.765l3.141-2.709.73-15.75.729-15.75-160.871.235c-88.479.129-174.201.36-190.493.514Zm25.266 92.275c-4.037 8.862-7.033 16.42-6.659 16.795.375.374 64.551.841 142.614 1.036l141.932.356-.929-2.442c-1.485-3.906-13.331-29.206-13.997-29.894-.333-.344-57.984-.926-128.113-1.294l-127.508-.67-7.34 16.113Zm-71.644 34.345c-2.75 1.842-6.011 4.743-7.247 6.446l-2.247 3.096-.246 92.794c-.225 84.827-.104 93.053 1.41 95.795 1.882 3.403 7.257 8.71 10.514 10.38 1.594.817 64.499 1.12 232.6 1.12h230.416l3.9-2.854c2.145-1.569 4.766-3.828 5.824-5.02 2.21-2.49 4.525-12.381 4.555-19.465l.021-4.839 3.077 2.589c2.488 2.094 4.121 2.589 8.54 2.589 9.34 0 17.403-5.819 19.093-13.779.435-2.047.79-32.332.79-67.3v-63.579l-3-4.83c-3.806-6.128-8.681-8.759-16.5-8.904-4.759-.088-6.27.305-8.229 2.142-1.32 1.237-2.644 2.25-2.943 2.25-.298 0-.785-3.487-1.083-7.75-.859-12.324-5.23-20.079-12.322-21.859-1.333-.334-2.423-.941-2.423-1.349 0-.407-103.388-.804-229.75-.881l-229.75-.141-5 3.349ZM3.66 163.08c-.962.561-1.75 1.672-1.75 2.47 0 .797-.342 1.45-.76 1.45C.1 167-.447 254.144.456 277.828l.736 19.328 2.61 1.065c1.54.629 14.856 1.263 32.524 1.549l29.914.484-.664-40.791c-.366-22.435-.665-53.542-.665-69.127V162l-29.75.03c-18.34.019-30.421.422-31.5 1.05Zm483.494 6.855c22.769 5.823 40.344 23.249 46.186 45.795 1.972 7.61 2.018 22.986.091 30.27-4.325 16.349-18.772 34.177-33.521 41.369-29.084 14.181-63.057 4.373-81.632-23.567-6.748-10.151-9.54-19.735-9.556-32.802-.01-8.617.46-11.973 2.62-18.715 10.14-31.64 43.915-50.508 75.812-42.35Zm-3.075 27.528c-5.251 1.666-7.76 3.819-10.339 8.872-2.672 5.235-2.568 10.61.303 15.75 4.185 7.492 11.006 10.576 19.773 8.938 8.248-1.541 15.288-12.119 13.547-20.357-2.248-10.641-12.692-16.564-23.284-13.203Z" clip-rule="evenodd"/>
</svg>
