<svg xmlns="http://www.w3.org/2000/svg" width="622" height="252" fill="none" viewBox="0 0 622 252">
  <path fill="#fff" fill-rule="evenodd" d="M48.235 12.264 36 24.53v98.992L18 141.5 0 159.479v60.044l16.261 16.238L32.522 252h556.956l16.261-16.239L622 219.523v-60.044L604 141.5l-18-17.979V24.47l-12.264-12.235L561.471 0h-56.215c-63.567 0-62.634-.1-66.3 7.086-1.872 3.67-1.956 6.224-1.956 59.327 0 37.77-.347 56.254-1.085 57.875-.597 1.31-2.406 3.161-4.02 4.115-2.738 1.617-10.812 1.735-120.939 1.764-110.878.029-118.17-.075-120.73-1.725-1.5-.966-3.176-2.473-3.726-3.349-.621-.989-1.19-23.281-1.5-58.77-.488-55.853-.548-57.244-2.571-60-4.755-6.48-3.086-6.32-65.444-6.32L60.47 0 48.235 12.264Z" clip-rule="evenodd"/>
</svg>
