<svg xmlns="http://www.w3.org/2000/svg" width="686" height="408" fill="none" viewBox="0 0 686 408">
  <path fill="#fff" fill-rule="evenodd" d="M299.222 1.47c-5.973 1.865-6.059 1.93-41.505 30.312-27.723 22.2-32.555 25.69-37.839 27.334-5.691 1.771-10.316 1.886-76.219 1.902-74.988.02-78.299.21-88.332 5.066-7.433 3.598-15.24 11.57-18.984 19.381-1.84 3.84-3.345 7.694-3.345 8.567 0 .873-.639 2.46-1.419 3.528-1.196 1.636-3.09 2.033-12.037 2.524-11.881.651-14.696 1.915-17.792 7.988C.136 111.237.001 116.728 0 179.291c-.002 65.24.071 67.933 1.948 71.612 2.791 5.47 6.872 7.098 17.796 7.098 10.414 0 11.506.698 13.247 8.47 2.638 11.77 11.049 22.315 21.832 27.37l5.675 2.66 190 .5c104.5.275 191.35.362 193 .192l3-.307-6.305-6.642c-7.503-7.903-14.5-21.203-16.7-31.743-1.224-5.866-1.462-23.201-1.471-107-.01-96.749.055-100.273 2.001-108.387 4.079-17.015 15.17-32.684 29.591-41.804 2.924-1.849-148.461-1.692-154.392.16Zm190.455 1.618c-20.35 5.802-34.612 20.312-41.692 42.413l-2.242 7-.304 91.5c-.193 57.742.068 94.448.708 99.492 3.218 25.39 20.893 45.856 45.058 52.172 5.532 1.446 14.579 1.653 74.793 1.71 62.399.059 69.078-.092 74.992-1.696 7.576-2.055 17.365-7.21 23.675-12.468 9.01-7.508 17.738-22.187 20.22-34.009.772-3.677 1.113-34.454 1.113-100.54 0-81.789-.214-96.083-1.515-101.2-4.196-16.506-16.061-31.902-30.277-39.285-14.21-7.38-11.761-7.184-88.852-7.105-65.08.067-69.23.178-75.677 2.016Zm98.703 68.514c14.539 3.015 29.112 11.207 40.996 23.044 23.478 23.387 30.88 57.76 19.305 89.648-12.776 35.197-52.137 59.111-88.533 53.789-34.454-5.038-63.154-30.943-71.127-64.201-2.266-9.454-2.709-25.803-.955-35.289 2.83-15.31 13.355-34.206 25.209-45.256 8.36-7.794 14.009-11.676 23.048-15.843 17.526-8.077 33.05-9.834 52.057-5.892Zm-11.382 26.741c-17.173 3.982-31.708 19.271-37.013 38.93-1.81 6.71-2.119 10.036-1.779 19.173.5 13.407 3.4 22.57 10.371 32.773 18.459 27.016 52.015 28.57 71.163 3.296 11.999-15.838 15.831-35.937 10.658-55.899-6.805-26.263-30.857-43.5-53.4-38.273Zm-353.781 20.702c4.795 1.332 9.358 5.207 11.825 10.042 1.817 3.561 1.956 6.039 1.956 34.809 0 19.454-.396 32.022-1.064 33.79-1.432 3.792-5.626 8.081-10.2 10.434-3.627 1.866-6.172 1.926-70.586 1.658l-66.822-.277-3.988-2.764c-2.193-1.52-4.967-4.506-6.164-6.636-2.107-3.75-2.176-4.87-2.176-35.518 0-34.521.158-35.643 5.764-40.911 5.996-5.635 5.269-5.58 74.236-5.622 40.733-.024 64.833.332 67.219.995ZM89.921 321.924l-2.923 2.923v46.122l2.918 3.266 2.918 3.266 111.267.263c127.201.301 114.897-.752 114.897 9.827 0 10.021 2.805 14.968 10.5 18.52 3.643 1.681 7.106 1.848 38.782 1.868 39.181.025 40.657-.194 43.254-6.41 1.649-3.947 1.955-15.147.516-18.93-.521-1.371-2.887-3.629-5.259-5.019-5.605-3.285-10.238-8.259-11.659-12.518-.704-2.11-1.134-11.498-1.134-24.75v-21.351H92.844l-2.923 2.923Zm323.268 16.475c.283 17.745.479 19.586 2.309 21.614 1.1 1.22 3.125 2.665 4.5 3.212 1.507.599 22.767 1.108 53.5 1.282 60.666.342 54.999.136 56.929 2.065 2.853 2.854 1.661 5.447-6.833 14.851-10.173 11.264-11.596 13.844-11.596 21.028v5.55l19.25-.022c16.511-.019 19.825-.283 23.291-1.858 4.932-2.24 9.033-6.927 10.415-11.901.61-2.195 1.034-16.624 1.035-35.219.001-29.724-.111-31.685-1.995-34.775-1.098-1.801-3.151-3.714-4.562-4.25-1.579-.601-30.209-.975-74.559-.975h-71.994l.31 19.398Z" clip-rule="evenodd"/>
</svg>
