<svg xmlns="http://www.w3.org/2000/svg" width="755" height="337" fill="none" viewBox="0 0 755 337">
  <path fill="#fff" fill-rule="evenodd" d="M290.155 1.915c-6.499 2.951-7.316 5.471-7.316 22.557 0 15.994.719 18.774 5.699 22.04 2.686 1.762 9.471 1.847 164.77 2.061 173.648.24 165.827.451 168.501-4.546 2.225-4.157 1.047-8.082-6.556-21.834-8.254-14.93-12.162-19.502-18.07-21.142-2.647-.735-50.395-1.063-153.344-1.05-144.708.014-149.634.076-153.684 1.914Zm61.613 63.033c-1.965 1.04-4.193 2.637-4.952 3.552-1.959 2.36-19.977 38.555-19.977 40.129 0 .718 1.237 1.602 2.75 1.966 8.652 2.079 17.229 10.201 19.755 18.705 1.063 3.581 1.496 9.82 1.499 21.604.003 14.549.236 16.95 1.915 19.703 4.157 6.818-5.208 6.444 153.758 6.139 142.835-.273 143.183-.279 145.938-2.336 6.691-4.996 6.854-5.628 7.208-27.975l.324-20.396-53.489-.283-53.488-.284-4.287-3.014c-7.725-5.431-8.314-7.351-8.883-28.986-.467-17.743-.656-19.25-2.851-22.78-1.293-2.08-4.087-4.668-6.21-5.75-3.752-1.915-6.238-1.969-89.649-1.926-82.119.043-85.943.125-89.361 1.932Zm208.046.274c-3.892 2.637-5.434 6.49-4.529 11.314.516 2.75 2.236 4.77 8.401 9.87 8.586 7.104 12.765 13.453 13.793 20.96l.632 4.606h76.845l-.309-19.93c-.344-22.238-.673-23.383-7.825-27.219-3.195-1.713-6.435-1.85-43.57-1.85-39.952 0-40.131.008-43.438 2.25ZM8.25 99.853c-9.93 6.088-10.94 18.421-2.425 29.619 2.092 2.75 4.618 7.327 5.615 10.17l1.812 5.17-4.194 14.83c-5.515 19.506-6.849 26.252-8.272 41.83-2.353 25.77.452 47.942 10.082 79.679 2.825 9.309 2.274 12.02-4.554 22.411C.745 312.036-.633 316.34.278 322.415c.853 5.69 5.145 10.933 10.361 12.659 2.782.921 23.292 1.249 82.7 1.323 77.259.096 79.088.053 83-1.914 2.786-1.401 4.683-3.365 6.25-6.473l2.25-4.462-.002-107.038c-.001-99.929-.117-107.266-1.75-110.467-.961-1.886-3.018-4.361-4.571-5.5-2.794-2.05-3.66-2.074-85-2.327-79.123-.247-82.292-.186-85.266 1.637Zm418.089 7.99c5.912 2.7 10.343 7.78 12.12 13.895 1.395 4.797 1.392 5.749-.025 9.908-2.203 6.468-5.75 10.709-11.032 13.192-12.767 6.001-28.031-2.272-29.34-15.902-1.492-15.525 14.443-27.412 28.277-21.093Zm-226.723 2.148c-1.613.983-1.724 7.719-1.743 105.266-.015 82.506.246 104.736 1.256 106.715l1.274 2.5h33.309l14.314-7.459c7.872-4.102 15.761-8.152 17.53-9l3.218-1.541.032-89.513.033-89.514-17.75-8.975-17.75-8.976-16-.277c-9.921-.172-16.655.122-17.723.774Zm83.951 23.731c-.307 5.362-.43 47.523-.274 93.69l.284 83.94 2.881 2.362c4.525 3.712 7.746 5.135 13.521 5.977 2.948.43 90.41.556 194.36.281l189-.5 5.288-2.389c3.044-1.376 6.936-4.263 9.175-6.806 7.369-8.372 7.037-3.706 7.037-98.983v-85.322h-30.858l-.321 21.25c-.298 19.704-.486 21.585-2.588 25.85-2.734 5.549-8.302 11.326-13.733 14.248l-4 2.152-147.882.263-147.881.263-5.125-2.346c-2.818-1.29-6.597-3.819-8.397-5.619-6.337-6.336-6.654-7.638-7.211-29.561-.738-29.053-.121-28.5-31.762-28.5h-20.956l-.558 9.75Zm440.772 10.969c-1.1.268-2.788 1.186-3.75 2.039-1.635 1.45-1.75 6.085-1.75 70.326 0 61.188.173 68.946 1.571 70.345 1.259 1.258 4.023 1.571 13.866 1.571 11.096 0 12.562-.211 15.049-2.168 5.581-4.39 5.514-3.533 5.514-70.34 0-59.136-.077-61.723-1.956-65.406-2.682-5.256-7.582-7.121-18.314-6.97-4.527.064-9.13.335-10.23.603Z" clip-rule="evenodd"/>
</svg>
