<svg xmlns="http://www.w3.org/2000/svg" width="512" height="160" fill="none" viewBox="0 0 512 160">
<g transform="rotate(180 256 80)">
  <path fill="#fff" d="m242.44 41.053-1.406 4.218c-.402 1.206-1.406 2.01-2.612 2.01h-20.49c-.602 0-1.004.4-1.004 1.004 0 .602.402 1.004 1.004 1.004h51.828c1.406 0 2.411-1.205 2.411-2.41v-3.014c0-1.406-1.005-2.812-2.411-2.812h-27.32Zm-26.315 29.931h-42.788c-.402 0-.804.201-1.005.603a1.28 1.28 0 0 0 0 1.205l7.031 13.46h16.272c3.214 0 8.236.2 8.839-2.813.602-2.611 2.009-5.022 3.214-6.629.603-.803 1.406-1.607 2.41-2.21.402-.401.804-.602 1.407-.803l4.62-2.813Zm-21.093 13.861h-10.848c-3.615 0-6.629-2.812-6.629-6.428s3.014-6.428 6.629-6.428h10.848c3.616 0 6.629 2.812 6.629 6.428s-3.013 6.428-6.629 6.428Zm251.907-20.088h3.215V58.33h-3.215v6.428Zm-71.915-9.04h-3.415v17.879h3.415v-17.88Zm66.091 9.04h3.817V58.33h-3.817v6.428Zm14.663-6.427h-3.415v6.427h3.415V58.33Zm-16.673-2.613h-45.199v11.048h45.199V55.717Zm-47.206 0h-14.665v11.048h14.665V55.717Zm-110.889-.2-2.209 1.004v17.075h2.209v-18.08Z"/>
  <path fill="#A1A1A1" d="M359.354 50.495h-68.502l-7.633 4.018v19.084h17.678V60.94h2.008v12.656h4.219V60.94h2.009v12.656h4.218V60.94h2.009v12.656h4.219V60.94h2.009v12.656h4.218V60.94h2.009v12.656h4.219V60.94h2.008v12.656h4.219V60.94h2.009v12.656h4.218V60.94h2.009v12.656h23.102V55.718l-10.245-5.223Zm-88.589-15.871v1.406h-2.21v-1.406h-4.42v1.406h-2.209v-1.406h-4.42v1.406h-2.209v-1.406h-4.621v1.406h-2.009v-1.406h-4.62v1.406h-2.009v-1.406l-4.62.2v1.206h-2.009v-1.205h-4.62v1.205h-2.009v-1.205h-4.62v1.205h-2.009v-1.205h-4.621v1.205h-2.008v-1.205h-4.018v4.218h65.287v-4.419h-6.026ZM487.519 29h-2.812c-.402 0-.804.2-1.005.603l-3.214 5.624c0 .201 0 .201-.201.402v3.214c0 .201.201.201.201.201h17.276v-.2l-2.611-3.818-7.031-5.825c-.201 0-.402-.201-.603-.201Zm8.035 9.04h-14.062v-2.41l12.254.2"/>
  <path fill="#fff" d="M205.879 33.219h-13.057l-2.612-2.813c-.402-.401-1.004-.602-1.406-.602h-1.607c-.804 0-1.607.402-1.808 1.205l-3.013 7.03c-.603.403-.201 1.005.201 1.005h23.302V33.22Zm-17.075 3.214c0 .2-.201.402-.402.402h-1.607a.432.432 0 0 1-.402-.402v-3.817c0-.2.201-.402.402-.402h1.607c.201 0 .402.201.402.402v3.817Z"/>
  <path fill="#A1A1A1" d="M189.004 73.998h-4.62c-.201 1.808 0 8.035 5.223 8.035 1.808 0-5.424-1.808-.603-8.035Z"/>
  <path fill="#fff" d="M457.787 66.967h23.704c2.009-5.625.402-9.241-.602-11.049h-22.901v11.049h-.201Z"/>
  <path fill="#fff" d="M496.358 52.302v-1.406h8.638c.603 0 1.004-.402 1.004-1.004v-7.835c0-.602-.401-1.004-1.004-1.004H278.801V54.31l11.651-5.826h69.506l9.843 5.223h22.298v-2.812h83.367v1.406h7.232v2.813c1.004 2.008 2.41 6.428.603 11.852h15.066c2.611 0 4.62-2.01 4.62-4.62v-2.612c0-2.612-2.009-4.62-4.62-4.62h-8.236v-2.813h6.227Zm-222.981-11.25c.603.804 1.005 1.808 1.005 2.813v5.223c0 1.406-1.206 2.41-2.411 2.41h-53.636c-1.406 0-3.013-1.004-3.214-2.41-.402-2.009 1.004-3.817 3.013-3.817h19.084c1.205 0 2.21-.803 2.612-2.009l.602-2.41h-57.854c-1.206 0-2.411.2-3.415.602l-15.067 5.826c-.401 4.017-.201 12.856 6.228 19.686.602-.602 1.004-.401 1.808-.401h81.559c2.209 0 4.218.2 6.428.602l7.432 1.607c.603.201 1.206.201 1.808.201l7.634.603V41.052h-3.616Zm-7.633 22.901c-2.21 0-4.219-1.808-4.219-4.218 0-2.21 1.808-4.219 4.219-4.219 2.209 0 4.218 1.808 4.218 4.219-.201 2.21-2.009 4.218-4.218 4.218Z"/>
  <path fill="#fff" d="M264.939 57.726c-.803.2-1.607 1.004-1.607 2.008a2.23 2.23 0 0 0 2.21 2.21l-.603-4.218Zm1.004-.2.603 4.018c.804-.402 1.205-1.004 1.205-2.009 0-1.004-.803-1.808-1.808-2.009Z"/>
  <path fill="#A1A1A1" d="M167.912 72.39c-.401-.602-.401-1.406-.401-2.008-6.83-6.83-7.835-16.07-7.634-21.093l-6.428 2.612c-2.009.803-4.219 1.406-6.429 1.807L8.41 70.785C7.005 70.984 6 72.19 6 73.797l6.027 50.824c.2 2.008 2.21 3.214 4.017 2.41l115.508-49.016 1.808-.602c8.036-.804 13.058 6.428 10.848 13.057l-11.651 37.566c-.402 1.205.602 2.41 1.808 2.41l24.508-.201a1.16 1.16 0 0 0 .803-2.009l-2.009-2.209c-2.209-2.21 0-6.228.603-9.241l8.437-25.11c.804-2.813 5.625-4.018 8.035-5.223l-6.83-14.062Zm-13.66 45.2c-.401-.201-1.004-.201-1.406-.402-3.214-.804-6.629-1.808-9.843-2.612-1.206-.401-.804-2.209.602-2.009.402.201 1.005.201 1.407.402 3.214.804 6.629 1.808 9.843 2.612 1.205.401.603 2.209-.603 2.009Zm1.607-5.826c-.401-.201-1.004-.201-1.406-.402-3.214-.803-6.629-1.808-9.843-2.611-1.205-.402-.804-2.21.603-2.009.401.201 1.004.201 1.406.402 3.214.803 6.629 1.808 9.843 2.611 1.004.402.603 2.411-.603 2.009Zm1.407-5.625c-.402-.201-1.005-.201-1.407-.402-3.214-.803-6.629-1.808-9.843-2.611-1.205-.402-.803-2.21.603-2.009.401.201 1.004.201 1.406.402 3.214.803 6.629 1.808 9.843 2.611 1.206.402.603 2.411-.602 2.009Zm1.607-5.625c-.402-.2-1.005-.2-1.407-.401-3.214-.804-6.629-1.808-9.843-2.612-1.205-.402-.803-2.21.603-2.009.402.201 1.004.201 1.406.402 3.214.804 6.629 1.808 9.843 2.612 1.206.401.603 2.209-.602 2.008Zm1.406-5.825c-.402-.201-1.005-.201-1.406-.402-3.215-.803-6.63-1.808-9.844-2.611-1.205-.402-.803-2.21.603-2.01.402.202 1.004.202 1.406.403 3.214.803 6.629 1.807 9.843 2.611 1.206.402.603 2.41-.602 2.009Z"/>
</g>
</svg>
