<svg xmlns="http://www.w3.org/2000/svg" width="512" height="160" fill="none" viewBox="0 0 512 160">
  <path fill="#fff" d="m379.545 12.484-.31-1.036.471-.323 9.592-5.502h-5.596l-8.825 4.533H237.449v10.291h188.197v-7.963h-46.101ZM276.084 17.73h-23.178v-4.036h23.178v4.036Zm33.63 0h-23.178v-4.036h23.178v4.036Zm32.73 0h-23.178v-4.036h23.178v4.036Zm33.186 0h-23.178v-4.036h23.178v4.036Zm32.729 0h-23.178v-4.036h23.178v4.036ZM215.118 42.065h-42.024v23.569h41.971l-.108-4.682h-24.712a4.921 4.921 0 0 1-4.385-4.735 6.88 6.88 0 0 1 3.807-6.174 3.574 3.574 0 0 1 1.735-.444h23.609l.107-7.534Zm-33.549 12.39h-4.319c-.914 0-.995.08-.968-.673 0-.336.753-.08.968-1.237v-.848a2.151 2.151 0 0 1 1.157-2.404 2.141 2.141 0 0 1 3.014 1.452c.071.314.071.639 0 .952.013.284.044.567.094.848.255 1.183.995.82 1.009 1.237.013.417.121.727-.955.673Z"/>
  <path fill="#A1A1A1" d="M157.167 80.068c-5.381-.673-8.704-6.376-11.852-12.672-2.919-5.838-5.946-14.313-12.941-17.824-2.421-1.211-11.77-1.05-16.6-.337a8.638 8.638 0 0 0-4.318 1.843c-5.071 4.265-1.628 11.26-2.031 14.421a20.672 20.672 0 0 1-3.108 8.677C94.52 92.363 87 121.945 87 151.647c0 7.237 7.331 7.789 10.573 7.681 1.469-.029 2.938.03 4.399.175 18.941 1.682 31.505-1.116 31.505-5.166 0-8.286-5.892-18.335-3.538-22.761 1.628-3.04 6.215-6.457 6.928-8.004.514-1.186.823-2.45.915-3.739a33.901 33.901 0 0 0-.202-6.969 4.424 4.424 0 0 1 2.691-4.762c5.017-2.058 5.206-6.067 5.206-6.067a6.443 6.443 0 0 1 3.255-4.103 5.284 5.284 0 0 1 2.516-.672l13.721-.175a2.515 2.515 0 0 0 1.735-.767.454.454 0 0 0 .121-.323c0-1.049 0-2.058.108-3.013.323-8.583-4.829-12.295-9.766-12.914Zm-26.851-57.952a22.419 22.419 0 0 1 8.071 5.744 2.962 2.962 0 0 1 .78 2.421c-.618 4.79.915 6.619 2.193 7.318 1.345-.982 9.255-10.049 10.883-15.645-3.619 0-4.91 2.368-6.403 3.229a8.841 8.841 0 0 0-5.206-4.036c-4.48-1.493-9.08-.915-10.506 0a.535.535 0 0 0 .188.969Z"/>
  <path fill="#fff" d="M187.219 28.788a3.655 3.655 0 0 0 3.134 3.134l24.766-.08v-6.43h-24.766c-1.197 0-3.188.282-3.134 3.376Zm0 27.698a3.64 3.64 0 0 0 3.134 3.134l24.658-.08v-6.404h-24.658c-1.197-.04-3.188.256-3.134 3.35Z"/>
  <path fill="#A1A1A1" d="M412.893 0h-17.515v4.264h17.515V0Z"/>
  <path fill="#fff" d="m425.322 11.138-1.842-5.515h-10.587v-.014h-17.515v.014h-3.377l-9.605 5.515h42.926Z"/>
  <path fill="#A1A1A1" d="M263.278 33.145h-45.294v4.4h45.294v-4.4Zm10.708 2.193a2.21 2.21 0 0 0-2.206-2.193h-7.211v4.372h7.117a2.2 2.2 0 0 0 1.611-.602 2.212 2.212 0 0 0 .689-1.577Z"/>
  <path fill="#fff" d="M215.118 17.246h-42.024V40.72h41.971v-7.533h-24.631a5.475 5.475 0 0 1-4.52-4.533 6.722 6.722 0 0 1 2.852-6.31 3.321 3.321 0 0 1 1.816-.538h24.536v-4.56ZM181.73 29.81h-4.318c-.915 0-.996 0-.969-.672 0-.337.754-.08.969-1.238v-.847a2.137 2.137 0 1 1 4.17-.952c.072.313.072.638 0 .952.014.284.045.567.094.847.256 1.184.996.807 1.009 1.238.014.43.121.713-.955.672Zm-13.493 30.765h2.166V22.304h-2.166a1.683 1.683 0 0 0-1.668 1.681v34.976a1.682 1.682 0 0 0 1.668 1.614ZM156.683 6.43a1.346 1.346 0 1 0-2.693.001 1.346 1.346 0 0 0 2.693 0Zm80.901 38.703h-19.6v6.457h19.587v-3.807H414.4l.498-2.65H237.584Z"/>
  <path fill="#A1A1A1" d="M154.812 11.959h4.736V8.555h17.609a8.64 8.64 0 0 0-5.731-3.767h-10.762V1.52h-10.641v10.439h4.789Zm-2.219-5.583a2.695 2.695 0 0 1 1.661-2.486 2.688 2.688 0 0 1 3.668 1.96 2.686 2.686 0 0 1-1.144 2.763 2.69 2.69 0 0 1-4.185-2.183v-.054Zm33.685 85.893c5.609 1.143 8.152-.35 9.201-1.21 1.049-.862-6.592-.176-9.888-6.081-3.295-5.906 2.422-9.888 2.422-9.888v-3.282c-1.224-.134-10.95-.995-15.147 2.69a5.546 5.546 0 0 0-1.884 4.345h4.197s4.48 12.08 11.099 13.426Z"/>
  <path fill="#fff" d="M236.104 21.792V10.13l-7.802-.229h-67.409v3.404h-5.811a14.493 14.493 0 0 1-1.346 8.69c-1.466 5.542-8.797 14.367-11.205 16.425-7.412 7.574-18.766 6.793-23.219 6.793a5.168 5.168 0 0 0-4.318 2.69c6.161-.309 13.224-1.143 17.999.337 7.318 2.274 10.883 12.995 13.614 18.443 2.973 5.96 6.04 11.354 10.762 11.946 5.515.686 11.286 4.802 10.95 14.286v1.345c1.103.215 2.825 2.193 2.825 2.193a9.415 9.415 0 0 0 6.537 2.69h17.017a12.106 12.106 0 0 0 9.538-4.452l4.964-6.847a6.577 6.577 0 0 0 1.345-3.902V73.84a3.265 3.265 0 0 1 1.008-2.422 3.266 3.266 0 0 1 2.463-.901h17.649l.175-.135 5.798-17.407h-19.654v14.004h-47.58V61.92h-2.516a2.69 2.69 0 0 1-2.69-2.69V23.622a2.689 2.689 0 0 1 2.69-2.69h2.516V15.9h47.58v15.928h54.482a2.302 2.302 0 0 1 1.748.793c2.422 2.946.364 6.282-2.475 6.282H217.93l-.08 4.91h197.451l10.345-21.954-189.542-.067Zm-66.48 57.118c0-.659.565-3.888 2.098-5.152 4.722-3.888 14.555-3.484 16.304-3.31h15.564a2.3 2.3 0 0 1 2.301 2.301v10.345a6.833 6.833 0 0 1-.888 3.403c-1.453 2.597-4.574 7.372-8.314 8.368-5.206 1.345-15.618 0-18.039 0-2.421 0-9.591-5.543-9.026-15.955Z"/>
</svg>
