<svg xmlns="http://www.w3.org/2000/svg" width="512" height="160" fill="none" viewBox="0 0 512 160">
  <path fill="#A1A1A1" d="M236.448 36.887c1.588 0 3.573-2.58 5.36-2.58 1.985 0 7.939 2.58 13.497 2.58s9.726-2.58 11.711-2.58c1.985 0 3.176 2.778 4.565 3.97.596.396 1.588.396 1.787.396h1.985V22h-1.985c-.596 0-1.39.198-1.787.596-1.19.992-2.977 3.374-4.565 3.374-1.985 0-6.352-2.184-11.711-2.184-5.161 0-11.909 2.184-13.299 2.184-1.985 0-3.374-2.184-5.359-2.184-1.985 0-1.588 13.1-.199 13.1Z"/>
  <path fill="#fff" d="M152.288 54.553h-36.721c0 1.588-.199 5.558 0 9.13h36.721v-9.13Zm0-1.985v-3.97h-26.399v-3.97c-.794 0-1.588 0-2.382.198-1.389.397-2.382 1.588-2.382 2.978 0 1.985-.198 3.176 0 4.565h31.163v.199Zm249.305 19.848V62.69h-14.489v9.727h14.489ZM277.934 27.558v5.558h2.381c.397 0 .993.397.993.992V54.95c0 .794.397 1.786.794 2.382l2.382 2.779.198 12.703h11.711V61.103c0-.992-.794-2.382-2.183-2.977-1.191-.397-4.764-1.985-6.947-2.978-1.191-.595-1.985-1.786-1.985-3.176V28.55c0-.595-.596-1.19-1.191-1.19h-6.153v.198Z"/>
  <path fill="#A1A1A1" d="M376.783 56.14v2.383h-3.97V56.14h-5.558v2.382h-3.97V56.14h-5.557v2.382h-3.97V56.14H348.2v2.382h-3.97V56.14h-5.558v2.382h-3.969V56.14h-5.558v2.382h-3.97V56.14h-5.558v2.382h-3.97V56.14h-5.557v2.382h-3.97V56.14h-6.749v16.276h85.748V56.14h-8.336Zm-71.457 11.712c-.794 0-1.588-.794-1.588-1.588s.794-1.588 1.588-1.588 1.588.794 1.588 1.588-.794 1.588-1.588 1.588Zm7.939 0c-.793 0-1.587-.794-1.587-1.588s.794-1.588 1.587-1.588c.794 0 1.588.794 1.588 1.588s-.794 1.588-1.588 1.588Zm7.94 0c-.794 0-1.588-.794-1.588-1.588s.794-1.588 1.588-1.588 1.588.794 1.588 1.588-.794 1.588-1.588 1.588Zm7.94 0c-.794 0-1.588-.794-1.588-1.588s.794-1.588 1.588-1.588 1.588.794 1.588 1.588-.794 1.588-1.588 1.588Zm7.939 0c-.793 0-1.587-.794-1.587-1.588s.794-1.588 1.587-1.588c.794 0 1.588.794 1.588 1.588s-.794 1.588-1.588 1.588Zm7.94 0c-.794 0-1.588-.794-1.588-1.588s.794-1.588 1.588-1.588 1.588.794 1.588 1.588-.794 1.588-1.588 1.588Zm7.94 0c-.794 0-1.588-.794-1.588-1.588s.794-1.588 1.588-1.588 1.588.794 1.588 1.588-.794 1.588-1.588 1.588Zm7.939 0c-.794 0-1.588-.794-1.588-1.588s.794-1.588 1.588-1.588 1.588.794 1.588 1.588-.794 1.588-1.588 1.588Zm7.94 0c-.794 0-1.588-.794-1.588-1.588s.794-1.588 1.588-1.588 1.588.794 1.588 1.588-.794 1.588-1.588 1.588Zm7.94 0c-.794 0-1.588-.794-1.588-1.588s.794-1.588 1.588-1.588 1.588.794 1.588 1.588-.794 1.588-1.588 1.588Z"/>
  <path fill="#fff" d="M484.761 61.897h-5.954v11.512h5.954V61.896Zm-21.238 1.389h-40.095v8.932h40.095v-8.932Zm28.782-1.389v11.512h13.696V61.896h-13.696Zm9.924 9.726h-5.954c-.596 0-.993-.397-.993-.993 0-.595.397-.992.993-.992h5.954c.596 0 .993.397.993.992 0 .596-.397.993-.993.993Zm0-5.161h-5.954c-.596 0-.993-.397-.993-.993 0-.595.397-.992.993-.992h5.954c.596 0 .993.397.993.992 0 .596-.397.993-.993.993Zm-11.91-2.978h-3.573v8.535h3.573v-8.535ZM282.498 88.892c-1.588 0-2.779 1.19-2.779 2.779 0 1.587 1.191 2.778 2.779 2.778 1.588 0 2.779-1.19 2.779-2.778 0-1.589-1.191-2.78-2.779-2.78Zm136.959-9.131h-5.359v7.742h5.359s3.573 2.382 4.168 1.389c1.588-2.183 1.39-9.13 0-10.718-.595-.993-4.168 1.587-4.168 1.587Zm-17.666-3.573h-6.352v14.49h6.352v-14.49Zm-8.336-1.787h-6.351v18.262l6.351-.199V74.401Zm-190.551 8.337a2.202 2.202 0 0 0-2.183 2.184c0 1.19.992 2.183 2.183 2.183a2.203 2.203 0 0 0 2.184-2.183 2.203 2.203 0 0 0-2.184-2.184Zm216.752-20.841h-7.543v-2.779l-8.535-.198v17.269h8.535v-2.58h7.94l1.389-1.39v-8.932l-1.786-1.39Zm-7.543 16.276h-8.535V88.89h8.535V78.173Zm64.709-15.681h-11.314v10.52h11.314v-10.52Zm-455.935.992c-1.588-3.175-2.58-6.55-6.947-7.74C7.985 54.154 6 57.727 6 61.3c0 3.771 7.741 8.932 10.322 12.902 1.985 3.374 5.557 26.002 6.55 33.942.198 1.588 1.588 2.58 3.176 2.382.794 0 1.786-.199 2.779-.199l-7.94-46.844Z"/>
  <path fill="#A1A1A1" d="M111.399 56.736S98.497 66.86 94.527 68.844c-3.97 1.787-22.23 6.55-31.758 4.566-9.33-2.184-39.699-8.734-39.699-8.734l7.741 45.852c13.696-1.39 41.287-4.367 42.28-4.566 1.389-.397 3.572-11.115 9.924-13.894 6.352-2.78 20.643.992 24.216 1.19 2.382.2 5.359-.793 7.344-1.389-3.176-18.658-3.176-35.133-3.176-35.133ZM39.942 104.97c0 .198 0 .198 0 0-.595 0-.992-.397-1.19-.794l-3.97-22.628c0-.596.198-.993.793-1.191.596 0 .993.198 1.191.794l3.97 22.628c.199.595-.198 1.191-.794 1.191Zm3.97-.199c-.596 0-.992-.397-1.191-.794l-3.771-21.04c0-.595.198-.992.794-1.19.595 0 .992.198 1.19.793l3.772 21.04c.198.397-.199.993-.794 1.191Zm3.97-.397c-.596 0-.993-.397-1.191-.794l-3.375-19.055c0-.595.199-.992.794-1.19.596 0 .993.198 1.191.793l3.375 19.055c.198.596-.199.993-.794 1.191Zm3.97-.397c-.596 0-.993-.397-1.191-.794l-2.978-17.07c0-.595.199-.992.794-1.19.596 0 .993.198 1.191.793l2.977 16.872c.199.794-.198 1.191-.793 1.389Z"/>
  <path fill="#fff" d="M160.426 102.389s.199 0 .199-.199c-3.771 0-5.756.794-6.947 1.588 0 4.367 5.954 7.146 8.138 7.146 0 0 .198-.198 0-.198-4.962-3.573-3.97-6.352-1.39-8.337Z"/>
  <path fill="#A1A1A1" d="M126.484 96.235c0 .794.198 2.382.397 3.176.397 1.191 5.756 2.581 5.756 6.352 0 3.176-7.344 14.49-9.527 17.467-.397.596-.596 1.191-.397 1.787v12.505c0 .794 1.191 1.389 1.786 1.389h14.688c2.382 0-.794-7.94 0-9.925.794-1.786 9.925-15.879 9.925-15.879s2.779 1.985 4.962 2.581c3.573.793 9.131.793 11.314.198 3.97-1.191 8.138-3.573 8.138-7.741v-11.91h-47.042Zm38.904 17.468c-6.153 1.191-11.909-.397-14.093-4.963-2.183-4.367 1.39-6.351 1.39-6.351 2.779-1.985 8.138-3.176 14.49-.993 6.748 2.581 5.954 10.917-1.787 12.307Z"/>
  <path fill="#fff" d="M322.594 77.18h-5.16v12.704h5.16V77.181Zm-7.145-2.58h-32.751V61.103c0-.794-.596-1.191-1.191-1.191h-6.352v-2.78c0-.992-.397-1.786-1.191-2.381l-4.764-3.374c-.397-.397-.992-.596-1.588-.596h-31.56s-.992-2.183-3.97-2.183h-7.939v5.954h29.972v9.131h9.924v25.01h11.116s-.397 6.947 4.168 8.932c4.367 1.787 8.734.199 13.299-4.962h23.025V74.6h-.198Zm-32.95 21.437c-2.58 0-4.565-1.985-4.565-4.565s1.985-4.566 4.565-4.566 4.565 1.985 4.565 4.566c0 2.58-1.985 4.565-4.565 4.565Zm84.16-21.437h-3.97v8.536h3.97V74.6Zm-6.154 0h-3.97v8.536h3.97V74.6Zm-11.908 0h-3.97v8.536h3.97V74.6Zm-6.155 0h-3.969v8.536h3.969V74.6Zm12.11 0h-3.97v8.536h3.97V74.6Zm30.567 0h-4.367v8.536h4.367V74.6Zm-12.505 0h-3.969v8.536h3.969V74.6Zm-36.126 0h-3.771v8.536h3.771V74.6Zm42.279 0h-3.97v8.536h3.97V74.6Z"/>
  <path fill="#fff" d="M330.731 84.922V74.601h-6.153v18.062h60.54v-7.74h-54.387Z"/>
  <path fill="#A1A1A1" d="M221.959 56.537v-7.741h-4.565v1.588h-1.39v-1.588h-2.58v1.588h-1.39v-1.588h-2.58v1.588h-1.389v-1.588h-2.581v1.588h-1.389v-1.588h-2.581v1.588h-1.389v-1.588h-2.58v1.588h-1.39v-1.588h-2.58v1.588h-1.39v-1.588h-2.58v1.588h-1.39v-1.588h-2.58v1.588h-1.389v-1.588h-2.581v1.588h-1.389v-1.588h-2.581v1.588h-1.389v-1.588h-2.58v1.588h-1.39v-1.588h-2.58v1.588h-1.39v-1.588h-2.58v1.588h-1.389v-1.588h-10.124v14.887h97.658v-7.146h-29.972Z"/>
  <path fill="#fff" d="M115.566 65.668c.199 6.153.993 14.887 2.978 26.4 1.985.198 138.15-.398 138.15-.398l2.58-2.977h2.382V65.668h-146.09Zm10.123 23.223c-.992 0-1.587-.794-1.587-1.588 0-.793.794-1.587 1.587-1.587.993 0 1.588.794 1.588 1.588 0 .793-.595 1.587-1.588 1.587Zm5.955-9.924c-.992 0-1.588-.794-1.588-1.588s.794-1.588 1.588-1.588c.993 0 1.588.794 1.588 1.588s-.595 1.588-1.588 1.588Zm7.94 9.924c-.993 0-1.588-.794-1.588-1.588 0-.793.794-1.587 1.588-1.587s1.588.794 1.588 1.588c0 .793-.794 1.587-1.588 1.587Zm5.955-9.924c-.993 0-1.588-.794-1.588-1.588s.794-1.588 1.588-1.588 1.588.794 1.588 1.588-.794 1.588-1.588 1.588Zm7.741 9.924c-.993 0-1.588-.794-1.588-1.588 0-.793.794-1.587 1.588-1.587s1.588.794 1.588 1.588c0 .793-.596 1.587-1.588 1.587Zm5.955-9.924c-.993 0-1.588-.794-1.588-1.588s.794-1.588 1.588-1.588c.793 0 1.587.794 1.587 1.588s-.595 1.588-1.587 1.588Zm7.939 9.924c-.992 0-1.588-.794-1.588-1.588 0-.793.794-1.587 1.588-1.587.993 0 1.588.794 1.588 1.588 0 .793-.794 1.587-1.588 1.587Zm5.955-9.924c-.993 0-1.588-.794-1.588-1.588s.794-1.588 1.588-1.588c.992 0 1.588.794 1.588 1.588s-.794 1.588-1.588 1.588Zm7.741 9.924c-.992 0-1.588-.794-1.588-1.588 0-.793.794-1.587 1.588-1.587s1.588.794 1.588 1.588c0 .793-.595 1.587-1.588 1.587Zm5.955-9.924c-.993 0-1.588-.794-1.588-1.588s.794-1.588 1.588-1.588 1.588.794 1.588 1.588-.596 1.588-1.588 1.588Zm16.078 10.123c-2.382 0-4.169-1.787-4.169-4.168 0-2.382 1.787-4.169 4.169-4.169 2.382 0 4.168 1.787 4.168 4.169 0 2.382-1.786 4.168-4.168 4.168Zm15.879-10.123c-.794 0-1.588-.596-1.588-1.588 0-.794.595-1.588 1.588-1.588.794 0 1.588.596 1.588 1.588 0 .794-.794 1.588-1.588 1.588Zm5.955 9.924c-.993 0-1.588-.794-1.588-1.588 0-.793.794-1.587 1.588-1.587.992 0 1.588.794 1.588 1.588 0 .793-.596 1.587-1.588 1.587Zm7.939-9.924c-.794 0-1.588-.596-1.588-1.588 0-.794.596-1.588 1.588-1.588.794 0 1.588.596 1.588 1.588 0 .794-.794 1.588-1.588 1.588Zm5.955 9.924c-.992 0-1.588-.794-1.588-1.588 0-.793.794-1.587 1.588-1.587s1.588.794 1.588 1.588c0 .793-.794 1.587-1.588 1.587Zm7.94-9.924c-.794 0-1.588-.596-1.588-1.588 0-.794.595-1.588 1.588-1.588.794 0 1.588.596 1.588 1.588 0 .794-.794 1.588-1.588 1.588Zm5.756 9.924c-.992 0-1.588-.794-1.588-1.588 0-.793.794-1.587 1.588-1.587s1.588.794 1.588 1.588c0 .793-.596 1.587-1.588 1.587Z"/>
</svg>
