<svg xmlns="http://www.w3.org/2000/svg" width="512" height="160" fill="none" viewBox="0 0 512 160">
<g transform="rotate(180 256 80)">
  <path fill="#A1A1A1" d="M143.056 28.849a.608.608 0 0 1 .92.128c1.296 2.197 2.132 5.847 8.604 9.129 1.673.845 5.892-1.36 5.892-1.36l-4.421 4.972 3.144 5.948s-6.316 1.59-9.8-1.112c-3.484-2.703-6.766-5.93-6.361-12.456a8.034 8.034 0 0 1 2.022-5.25Z"/>
  <path fill="#fff" d="M213.067 106.131c.248-.919.488-1.839.727-2.758h-6.334c-.23.919-.469 1.839-.708 2.758h6.315Zm1.976-7.354c.258-.919.497-1.838.736-2.758h-6.435c-.239.92-.469 1.84-.717 2.758h6.416Zm-1.01 3.677c.257-.919.496-1.838.735-2.758h-6.361c-.23.92-.469 1.839-.708 2.758h6.334Zm-1.93 7.354c.239-.92.487-1.839.726-2.758h-6.315c-.23.919-.469 1.838-.708 2.758h6.297Zm-.957 3.677.717-2.757h-6.288c-.239.919-.478 1.838-.708 2.757h6.279Zm-1.912 7.354.717-2.758h-6.269c-.23.919-.469 1.839-.699 2.758h6.251Zm.956-3.677.717-2.758h-6.278c-.239.92-.469 1.839-.708 2.758h6.269Zm-12.456 41.367h-4.385c-.129.506-.257.984-.368 1.444a8.129 8.129 0 0 0 4.753-1.444Z"/>
  <path fill="#A1A1A1" d="m200.547 6.933-2.565-3.318a2.76 2.76 0 0 0-1.59-.993L184.285.048a2.033 2.033 0 0 0-2.17.92l-3.539 5.965h21.971Zm160.66-.165-1.664-1.839a2.84 2.84 0 0 0-2.123-.92h-5.258a2.651 2.651 0 0 0-2.344 1.417l-.763 1.443 12.152-.101Z"/>
  <path fill="#fff" d="M198.709 157.61a10.072 10.072 0 0 0 1.673-2.757h-6.095l-.708 2.757h5.13Zm18.302-66.187c.276-1.011.533-1.93.772-2.758h-6.517l-.717 2.758h6.462Zm-1.047 3.677c.266-.92.514-1.894.753-2.758h-6.435c-.226.9-.465 1.82-.717 2.758h6.399Zm-7.677 29.417c.239-.92.478-1.839.708-2.758h-6.251c-.239.919-.469 1.838-.708 2.758h6.251Zm-13.063 26.658c-.248.919-.478 1.838-.707 2.758h6.223c.322-.903.592-1.824.809-2.758h-6.325Zm6.555-.919.68-2.758h-6.297c-.239.919-.478 1.839-.708 2.758h6.325Z"/>
  <path fill="#A1A1A1" d="M199.149 44.54a15.37 15.37 0 0 0-18.826 10.407l-23.975 78.799a2.345 2.345 0 0 0 .183 1.839 2.353 2.353 0 0 0 1.454 1.14l28.065 7.721a2.368 2.368 0 0 0 2.518-.858 2.38 2.38 0 0 0 .405-.842l21.051-79.36a15.472 15.472 0 0 0-10.875-18.845Zm-24.452 90.153a4.85 4.85 0 0 1-4.494-2.998 4.856 4.856 0 0 1 3.557-6.62 4.853 4.853 0 1 1 .937 9.618Zm20.803-74.46a4.858 4.858 0 0 1-4.501-2.992 4.85 4.85 0 0 1 3.552-6.625 4.851 4.851 0 0 1 5.784 4.8 4.846 4.846 0 0 1-4.835 4.844v-.027Z"/>
  <path fill="#fff" d="M207.34 128.193c.239-.919.478-1.838.708-2.757h-6.251c-.23.919-.469 1.838-.698 2.757h6.241ZM195.501 51.48a3.934 3.934 0 1 0-.037 7.869 3.934 3.934 0 0 0 .037-7.868Zm-20.804 74.434a3.933 3.933 0 1 0-.017 7.867 3.933 3.933 0 0 0 .017-7.867Zm192.825-94.62h-36.899V42.61h36.899V31.294Z"/>
  <path fill="#A1A1A1" d="m247.025 33.73-8.669-.055a3.51 3.51 0 0 0 0 7.014h8.678c.598 0 1.986-1.839 1.977-3.558-.01-1.719-1.379-3.42-1.986-3.401Z"/>
  <path fill="#fff" d="M204.537 139.225c.22-.92.459-1.839.698-2.758h-6.26c-.23.919-.469 1.838-.699 2.758h6.261Zm1.865-7.355.708-2.758h-6.251c-.239.92-.469 1.839-.708 2.758h6.251Zm-2.794 11.031.69-2.757h-6.26l-.699 2.757h6.269Zm1.857-7.353.708-2.758h-6.251c-.239.919-.478 1.839-.708 2.758h6.251Zm-2.776 11.031.689-2.758h-6.279l-.707 2.758h6.297Z"/>
  <path fill="#A1A1A1" d="M371.658 14.095h-3.677V35.89h3.677V14.095Z"/>
  <path fill="#fff" d="m344.66 14.968-6.178 14.478h28.589V7.67l-189.037.211h-11.031a1.065 1.065 0 0 0-1.03.79l-5.515 20.307c-.046.157-.065.322-.102.479h22.513l6.178-14.488.202-.46.193-.46h2.758l.211.093-.156.367-.193.46-6.187 14.488h2.51l6.177-14.488.203-.46.193-.46h2.757l.212.093-.157.367-.193.46-6.186 14.488h2.509l6.178-14.488.202-.46.193-.46h2.758l.211.093-.156.367-.193.46-6.187 14.488h2.51l6.177-14.488.203-.46.193-.46h2.758l.211.093-.156.367-.193.46-6.187 14.488h2.51l6.177-14.488.202-.46.193-.46h2.758l.212.093-.157.367-.193.46-6.186 14.488h2.509l6.178-14.488.202-.46.193-.46h2.758l.211.093-.156.367-.193.46-6.187 14.488h2.51l6.177-14.488.202-.46.193-.46h2.758l.212.093-.157.367-.193.46-6.186 14.488h83.405l6.177-14.488.202-.46.193-.46h2.758l.212.093-.157.367-.193.46-6.177 14.478h2.5l6.178-14.478.202-.46.193-.46h2.758l.211.093-.156.367-.193.46-6.178 14.478h2.501l6.177-14.478.202-.46.193-.46h2.758l.212.093-.157.367-.193.46-6.177 14.478h2.5l6.178-14.478.202-.46.193-.46h2.758l.211.093-.156.367-.193.46-6.177 14.478h2.5l6.177-14.478.203-.46.193-.46h2.757l.212.093-.156.367-.193.46-6.178 14.478h2.501l6.177-14.478.202-.46.193-.46h2.758l.211.093-.156.367-.193.46-6.177 14.478h2.5l6.178-14.478.202-.46.193-.46h2.758l.211.093-.156.367-.193.46ZM160.219 31.294v4.725l-5.277 5.718 3.3 6.37s9.009 1.986 8.568 13.633c-.441 11.647-24.388 77.163-24.388 77.163s-2.638 7.032 2.859 8.568c5.497 1.535 39.786 12.529 44.842 12.529h1.939c4.468-17.521 17.016-66.702 20.766-80.812 4.45-16.694 8.54-21.144 16.225-26.025 9.101-5.819 27.486-3.263 27.781-3.171 2.206.597 8.218 1.94 8.806 5.993.644 4.422.634 8.816 0 11.032-.487 1.682-2.215 5.828-6.848 6.526-6.941 1.04-16.207 1.839-21.723 0-4.743-1.517-10.865-4.1-10.948-10.112-.064-4.265 2.693-8.944 7.29-11.352a18.557 18.557 0 0 0-3.824 1.838c-7.465 4.771-11.455 9.036-15.83 25.482-.552 2.078-1.296 4.927-2.179 8.273h6.536c.295-1.143.66-2.266 1.094-3.364 1.094-1.756 2.638-3.98 5.938-3.953H257.9A14.403 14.403 0 0 0 272.406 65.4c0-4.312.11-9.248.073-12.925a5.518 5.518 0 0 1 5.516-5.516h51.801V31.294H160.219Zm50.697 32.395-21.06 79.314c-.109.42-.301.813-.565 1.157a3.23 3.23 0 0 1-.97.847 3.3 3.3 0 0 1-1.637.441c-.31.005-.62-.036-.919-.119l-28.065-7.713a3.298 3.298 0 0 1-2.395-2.837 3.323 3.323 0 0 1 .124-1.3l24.012-78.799a16.367 16.367 0 0 1 20.242-11.233 16.37 16.37 0 0 1 11.233 20.242Zm44.778-22.063h-17.466a4.431 4.431 0 0 1-.056-8.852h17.319c1.434-.055 5.424.772 5.415 4.238-.019 3.695-3.852 4.614-5.212 4.614Z"/>
  <path fill="#A1A1A1" d="M251.906 67.293c5.066.083 7.437-.166 8.531-.45a.517.517 0 0 0 .314-.77.51.51 0 0 0-.24-.205c-2.813-1.204-12.217-3.236-13.339-15.627a45.322 45.322 0 0 0-12.952 1.636s7.014 15.26 17.686 15.416Z"/>
</g>
</svg>
