<svg xmlns="http://www.w3.org/2000/svg" width="512" height="160" fill="none" viewBox="0 0 512 160">
  <path fill="#A1A1A1" d="M260.677 62.324c.383.916 5.604 11.166 14.047 8.402a.366.366 0 0 0 0-.666c-2.065-1.008-5.395-1.5-7.91-7.012-1.349-2.956 0-9.626 0-9.626l-12.2 2.881a9.046 9.046 0 0 0 1.025 5.121c.741 1.116 4.28-.874 5.038.9ZM341.979 3.92a1.761 1.761 0 0 0-1.357-.65h-5.987a1.244 1.244 0 0 0-1.154.764 1.238 1.238 0 0 0-.095.476v2.057l10.892.242-2.299-2.89Zm-183.806 20.7c.583 1.532.541 2.89 1.94 4.064 0 0 3.989-6.104 5.621-11.9a5.829 5.829 0 0 0-3.506 1.574 1.545 1.545 0 0 1-1.324.308c-1.998-.441-7.253-1.19-8.868 2.556a.402.402 0 0 0 .037.401.409.409 0 0 0 .363.174c3.888-.283 5.029.966 5.737 2.823Z"/>
  <path fill="#fff" d="M162.02 159.997c2.682 0 4.763-1.765 5.688-2.706h-9.16a3.397 3.397 0 0 0 3.472 2.706Z"/>
  <path fill="#A1A1A1" d="M188.724 1.021c-.716-.491-2.756-1.774-4.163-.416l-1.915 2.231a2.82 2.82 0 0 0-.633 1.716v1.074l13.248.125c-1.016-.658-3.322-2.498-6.537-4.73Zm47.597 50.069a1.664 1.664 0 0 0 1.665-1.665V43.03h-19.985v6.395a1.663 1.663 0 0 0 1.665 1.666h16.655Z"/>
  <path fill="#fff" d="M354.952 15.593a91.449 91.449 0 0 1-.099 16.238h4.921c.591-6.462.599-11.259-.416-16.197l-4.406-.041Zm-175.238 4.505h-14.03c-1.416 3.48-6.412 11.815-6.595 12.232h33.099c1.299 0 6.245.474 8.535-2.906 1.299-1.915 1.316-6.72.733-9.326h-3.955a6.25 6.25 0 0 1 1.548 4.113v1.35a4.559 4.559 0 0 1-4.571 4.605h-11.741a4.56 4.56 0 0 1-4.563-4.564v-1.39a6.252 6.252 0 0 1 1.54-4.114Zm173.69-11.924-182.408-1.25a1.472 1.472 0 0 0-1.399.975l-1.49 4.163a50.57 50.57 0 0 1-1.074 4.93c-.042.166-.1.333-.15.5H353.97c.225-3.148-.3-5.962-.566-9.318ZM239.26 49.45a2.957 2.957 0 0 1-2.948 2.948h-16.728a2.954 2.954 0 0 1-2.948-2.948v-6.387h-61.527a22.474 22.474 0 0 0-.108 7.786c.042.248.172.473.366.633l2.923 2.34c.272.22.608.348.957.366 2.981.15 17.562 1.582 15.588 15.73-2.19 15.746-19.768 42.841-20.867 64.116-1.099 21.275.083 21.65 4.388 21.975h12.641a21.77 21.77 0 0 1 1.748-3.264 6.965 6.965 0 0 1 5.787-3.031h35.498s3.897-.15 4.388-5.405c.733-7.685 6.661-46.513 7.327-49.061 1.424-5.438 6.595-12.083 14.647-12.49 6.762-.309 36.705-3.448 46.181-4.447a3.231 3.231 0 0 0 2.889-3.223V58.102s-.558-7.494 5.305-7.82c5.862-.324 21.383-.832 24.314-2.314 2.498-1.24 2.864-4.055 2.914-4.88h-82.768l.033 6.362Zm-16.554 24.206c-.699 4.005-6.528 63.85-7.91 66.415-2.548 4.746-8.852 4.796-9.16 4.796-1.016 0-40.019.1-41.076 0a6.975 6.975 0 0 1-4.871-2.714c-1.749-2.298-2.257-5.771-1.507-10.325 1.199-7.37 19.309-52.693 20.459-56.623a38.554 38.554 0 0 0 1.448-7.41c.458-4.647.833-8.66 7.794-8.969 2.69-.133 22.691.325 28.428.675a6.2 6.2 0 0 1 4.721 2.74c2.265 3.138 2.265 8.051 1.674 11.415Zm6.12 8.652a4.315 4.315 0 0 1-4.22-5.163 4.309 4.309 0 0 1 3.395-3.382 4.315 4.315 0 0 1 3.878 7.287 4.328 4.328 0 0 1-3.053 1.258Zm44.824-30.976c9.542-1.665 12.19-1.074 12.731 10.65.213 2.967.028 5.95-.549 8.868a3.233 3.233 0 0 1-2.865 2.498l-37.312 3.33a7.496 7.496 0 0 1-3.256-.399c-2.381-.832-5.829-3.247-5.121-9.634 1.033-9.6 27.878-13.797 36.372-15.313Z"/>
  <path fill="#A1A1A1" d="M173.827 153.444a18.405 18.405 0 0 0-1.407 2.498l39.378-.042a2.081 2.081 0 0 0 2.081-2.09v-2.822h-35.356a5.615 5.615 0 0 0-4.696 2.456Z"/>
  <path fill="#fff" d="M228.834 74.988a3.015 3.015 0 1 0 3.006 3.015 3.022 3.022 0 0 0-3.006-3.015Z"/>
  <path fill="#A1A1A1" d="M216.228 60.807c-4.921-.3-21.5-.707-26.871-.707h-1.424c-5.828.266-6.078 3.097-6.553 7.794a30.148 30.148 0 0 1-1.474 7.668c-.508 1.4-1.707 4.489-3.397 8.777-5.521 14.156-15.821 40.418-16.995 47.654-.683 4.164-.267 7.336 1.266 9.335a5.717 5.717 0 0 0 3.971 2.206c2.998.342 40.536 0 40.919 0 .066 0 5.828-.066 7.977-4.096 1.365-2.548 3.522-25.206 5.104-41.743 1.149-11.965 2.423-22.249 2.69-24.406.474-3.838.324-7.835-1.466-10.3a4.843 4.843 0 0 0-3.747-2.182Zm-26.271 59.587a9.715 9.715 0 0 1-8.967-6.012 9.718 9.718 0 1 1 18.701-3.697 9.724 9.724 0 0 1-9.734 9.709Z"/>
  <path fill="#fff" d="M189.965 102.267a8.421 8.421 0 0 0-7.761 5.216 8.418 8.418 0 1 0 7.761-5.216Z"/>
  <path fill="#A1A1A1" d="M187.491 28.832h7.003a3.265 3.265 0 0 0 3.081-2.381 3.32 3.32 0 0 0 .117-.558 3.471 3.471 0 0 0 0-.408v-1.357a3.253 3.253 0 0 0-3.256-3.248l-5.829.067h-1.116a3.27 3.27 0 0 0-3.239 3.272v1.35a3.265 3.265 0 0 0 3.239 3.263Z"/>
  <path fill="#fff" d="M353.97 20.098H202.772c.699 2.315.624 7.702-.966 10.059-2.498 3.747-7.944 3.48-9.618 3.48H158.44a38.34 38.34 0 0 0-2.707 6.811h49.054v-.091l4.629-15.363a1.309 1.309 0 0 1 2.499.7l-4.464 14.754h3.864v-.091l4.63-15.363a1.307 1.307 0 1 1 2.498.7l-4.463 14.754h3.838v-.091l4.63-15.363a1.297 1.297 0 0 1 1.096-1.1 1.311 1.311 0 0 1 1.036.29 1.302 1.302 0 0 1 .468.969c.005.185-.03.37-.102.54l-4.463 14.755h3.839v-.091l4.629-15.363a1.309 1.309 0 0 1 2.302-.204c.173.267.243.588.196.903l-4.463 14.755h3.897v-.091l4.63-15.363a1.307 1.307 0 1 1 2.498.7l-4.463 14.754h3.838v-.091l4.63-15.363a1.297 1.297 0 0 1 1.096-1.1 1.311 1.311 0 0 1 1.036.29 1.305 1.305 0 0 1 .366 1.51l-4.463 14.754h113.386c.05-2.264.916-17.977.533-20.35Z"/>
</svg>
