<svg xmlns="http://www.w3.org/2000/svg" width="512" height="160" fill="none" viewBox="0 0 512 160">
  <path fill="#A1A1A1" d="M250.744 65.8c-.307-3.823-.596-11.398-.693-14.15h-7.478v12.37c0 1.338.335 2.655.973 3.83 1.631 3.008 5.664 8.101 14.457 8.89a.637.637 0 0 0 .654-.4.64.64 0 0 0-.198-.74c-2.762-2.05-7.443-6.355-7.715-9.8Zm27.721-60.756h-37.356V15.1h37.356V5.044Zm.605 33.244c2.122 2.07 5.462 2.858 11.546 2.727h73.976c.123-.654.184-1.317.184-1.982V27.05h-88.844c.079 5.725 1.06 9.214 3.138 11.24Z"/>
  <path fill="#fff" d="M264.587 36.236a2.482 2.482 0 0 0 1.755-4.235 2.48 2.48 0 1 0-1.755 4.236Z"/>
  <path fill="#A1A1A1" d="m193.348 16.222-8.399-5.374a3.312 3.312 0 0 0-2.568-.792 3.3 3.3 0 0 0-2.308 1.377 3.312 3.312 0 0 0 .055 3.884c.277.37.63.679 1.034.905l8.398 5.4a3.282 3.282 0 0 0 2.464.553 3.295 3.295 0 0 0 2.51-4.446 3.295 3.295 0 0 0-1.186-1.507Zm161.39-13.799a2.15 2.15 0 0 0-1.753-1.464L344.937.02a2.525 2.525 0 0 0-2.63 1.481l-1.184 2.63h14.027l-.412-1.71Z"/>
  <path fill="#fff" d="M362.155 5.044h-82.804v10.932h-39.118V5.044h-71.574l-13.422 12.73a3.138 3.138 0 0 0-.877 2.121c0 1.306-.087 3.437-.061 5.4h52.181l2.253-15.78h1.867l-2.235 15.78h4.252l2.253-15.78h1.867l-2.235 15.78h4.252l2.253-15.78h1.867l-2.236 15.78h4.252l2.254-15.78h1.867l-2.236 15.78h4.217l2.253-15.78h1.903l-2.236 15.78h72.284l1.753-15.78h1.754l-1.754 15.78h4.384l1.753-15.78h1.753l-1.753 15.78h4.383l1.754-15.78h1.753l-1.753 15.78h4.383l1.754-15.78h1.753l-1.753 15.78h4.383l1.754-15.78h1.753l-1.753 15.78h33.244V9.516l-2.586-4.471ZM194.881 21.315a4.145 4.145 0 0 1-2.7 1.754 4.19 4.19 0 0 1-.737.07 4.145 4.145 0 0 1-2.384-.78l-8.408-5.366a4.184 4.184 0 0 1-.917-5.745 4.181 4.181 0 0 1 5.713-1.102l8.407 5.374a4.182 4.182 0 0 1 1.026 5.795Z"/>
  <path fill="#A1A1A1" d="M191.436 2.528a4.268 4.268 0 0 0-3.735-2.192h-9.389a1.696 1.696 0 0 0-1.421.771l-1.63 3.016h17.06l-.885-1.595Zm-12.65 148.398c-2.201-.052-5.541-.14-6.435 2.139a38.91 38.91 0 0 0-1.535 6.935h42.248a3.329 3.329 0 0 0 3.323-3.331v-5.488c-10.31-.062-35.068-.22-36.734-.22l-.867-.035Z"/>
  <path fill="#fff" d="M290.625 41.891h-1.28c-5.54 0-8.767-.877-10.888-2.99-2.122-2.112-3.314-5.89-3.402-11.87H154.282c0 .465.043.877.079 1.289.263 3.139-2.631 9.161-5.497 12.037a5.698 5.698 0 0 0-1.57 6.023c8.636.263 25.126 15.438 17.534 29.308-7.592 13.87-16.227 67.014-16.753 75.65-.526 8.635 5.54 8.662 5.54 8.662h16.316a39.62 39.62 0 0 1 1.604-7.242c1.113-2.84 4.971-2.744 7.277-2.691h37.575c-1.412-9.977-.877-26.477-.368-30.167.068-.476.195-.941.377-1.386a69.263 69.263 0 0 0 4.628-23.486 7.893 7.893 0 0 1 9.592-7.426 59.324 59.324 0 0 0 9.319 1.21h31.859a5.314 5.314 0 0 0 5.313-5.313V57.847a7.794 7.794 0 0 1 7.785-7.785h68.864c1.784 0 3.541-.433 5.12-1.262a11.146 11.146 0 0 0 3.954-3.507 10.82 10.82 0 0 0 1.561-3.402h-73.766ZM183.668 64.685l17.07-8.767a9.77 9.77 0 0 1 2.507 1.675l-21.961 11.274a52.928 52.928 0 0 1 2.402-4.2l-.018.018Zm-5.321 10.626 27.59-14.203c.422.79.783 1.61 1.078 2.455l-30.071 15.43a90.746 90.746 0 0 1 1.403-3.682Zm-3.393 9.643 33.315-17.078c.353.814.646 1.652.876 2.508l-35.366 18.095c.43-1.306.824-2.49 1.175-3.542v.017Zm-3.752 12.537.473-1.753 38.364-21.04c.132.876.255 1.814.351 2.805l-39.635 21.733c.149-.605.298-1.175.447-1.745Zm33.796 34.902a92.103 92.103 0 0 1-.604 1.832l-16.658 9.179-2.472-.132-2.411-.184 22.707-12.501c-.22.622-.377 1.218-.562 1.806Zm2.56-10.179c-.114.57-.236 1.14-.359 1.701l-32.885 18.112a11.177 11.177 0 0 1-1.648-.587 7.95 7.95 0 0 1-1.359-.763l36.576-20.129a56.909 56.909 0 0 1-.325 1.666Zm1.649-9.644a49.035 49.035 0 0 1-.237 1.622l-40.451 22.268a4.882 4.882 0 0 1-.088-1.052 24.51 24.51 0 0 1-.42-1.674l41.432-22.794c-.082.526-.16 1.061-.236 1.604v.026Zm1.025-9.336c0 .526-.087 1.052-.14 1.578l-42.853 23.574a45.1 45.1 0 0 1-.131-2.928l43.247-23.811c-.035.491-.079 1.034-.123 1.56v.027Zm.456-7.522-43.396 23.881c0-.517.079-1.044.123-1.57.043-.526.105-1.06.166-1.595l43.212-23.794a141.34 141.34 0 0 1-.105 3.051v.027Zm-42.239 14.474c.184-1.122.395-2.236.605-3.34l41.739-22.987.053 2.98-42.397 23.347Zm93.684-78.903c3.577-2.744 7.653 1.333 4.9 4.9-3.568 2.771-7.644-1.305-4.9-4.873v-.027Zm8.96 49.656a3.194 3.194 0 0 1-3.192 3.191h-28.317s-9.644-.06-15.894-4.436a9.586 9.586 0 0 1-4.068-7.89v-9.328a12.371 12.371 0 0 1 1.753-6.523c1.543-2.507 4.191-5.26 8.364-5.4 5.26-.131 23.127-.079 33.551 0a7.785 7.785 0 0 1 7.803 7.75v22.636Z"/>
</svg>
