<svg xmlns="http://www.w3.org/2000/svg" width="512" height="160" fill="none" viewBox="0 0 512 160">
  <path fill="#fff" d="M423.341 18.234c-.04-4.923-.869-6.675-2.046-6.568-.963.08-4.268.963-4.268.963-.548.187-.989.32-1.364.428v11.517c2.421.896 5.525 1.458 5.525 1.458 2.849 2.18 2.193-2.876 2.153-7.785v-.013Zm-9.136 7.864-.04-1.418V12.962c-.295-3.09-2.662-4.027-3.291-4.214h-12.119c.401 3.411.629 7.29.629 11.29a97.64 97.64 0 0 1-.442 9.497c6.18 0 10.327-.013 11.103 0 0 0 2.956-.026 3.611-1.377.656-1.325.549-2.047.549-2.047v-.013Zm-17.309-17.35h-3.036l-.027.054-4.575-.027-39.501-.28h-.134c.401 3.477.615 7.423.615 11.476 0 3.385-.147 6.635-.428 9.685 13.417-.04 27.864-.067 39.261-.094 2.488 0 5.886 0 8.039-.013.281-2.85.442-6.073.442-9.51 0-4.174-.241-8.04-.642-11.29h-.014Zm-243 32.814c6.634-.99 20.319-7.197 25.362-14.166 1.953-2.688 3.651-5.591 5.364-8.4 1.752-2.876 2.622-4.87 3.397-6.796l-.495-.254a6.923 6.923 0 0 0-1.056-.508c-4.147-1.699-6.02 1.953-6.02 1.953-4.508 5.19-10.086 1.873-10.086 1.873-4.066-3.064-9.618-3.813-9.618-3.813-3.892-.334-5.778 1.485-5.778 1.485-1.351 2.02.775 2.234.775 2.234 4.174-1.084 13.203 5.525 13.203 5.525 1.659 1.123 2.769 2.167 3.532 3.143 2.742 3.491 1.364 5.471 1.364 5.471-.201 1.338-2.127 3.09-3.652 2.97-1.525-.12-4.253.348-5.524 1.23-4.013 2.796-8.722 6.89-8.722 6.89m140.201-28.051h8.32c.442 0 .843.294.95.735.388 1.525 1.083 5.11.053 8.12-.133.401-.535.642-.949.642h-8.374a1.279 1.279 0 0 1-1.271-1.27v-6.957c0-.695.575-1.27 1.271-1.27Zm20.961 0h-7.21v9.497h7.21v-9.497Z"/>
  <path fill="#fff" d="m347.683 8.481-76.408-.307V29.87h31.743c1.472-.04 6.996-.107 6.996-.107s17.912-.04 37.856-.094c.281-2.903.442-6.193.442-9.698 0-4.24-.228-8.173-.629-11.49Zm-41.16 13.966-.388.856h-11.932a.782.782 0 0 1-.789-.79V12.16a1.25 1.25 0 0 1 1.244-1.244h11.584l.321 1.003c.08.241 1.926 6.073-.053 10.541l.013-.013Zm11.036.856h-8.227a.882.882 0 0 1-.883-.883V12.36c0-.802.656-1.457 1.458-1.457h7.665c.535 0 .977.441.977.976V22.3c0 .549-.442.99-.99.99v.014Zm14.366-.923-.361.91h-11.838V10.902h11.945l.308 1.03c.067.24 1.739 5.952-.04 10.447h-.014Z"/>
  <path fill="#fff" d="M322.173 12.348h7.464c.562 0 1.057.388 1.177.936.335 1.512.83 4.615.134 7.397a1.542 1.542 0 0 1-1.485 1.164h-6.46c-1.271 0-1.833-.562-1.833-1.257V13.35c0-.562.455-1.003 1.003-1.003Zm-123.105 5.016c0-.214.04-.402.067-.602-6.501 4.521-10.715 11.677-10.715 19.757 0 8.08 4.24 15.263 10.768 19.784a5.132 5.132 0 0 1-.107-1.017V17.364h-.013Z"/>
  <path fill="#fff" d="m191.256 8.174-1.512 3.745c-.776 1.926-2.087 4.856-3.906 7.839l-.722 1.177c-1.472 2.435-2.996 4.95-4.709 7.317-4.909 6.796-18.673 12.895-26.057 14.674 3.718 5.405 9.751 12.735 16.092 14.287 4.641 1.15 8.012 4.374 9.484 9.11 1.525 4.895-.174 10.62-2.783 14.058 4.013 1.27 7.973 6.046 9.257 8.842 1.806-10.38 7.411-16.788 17.082-16.788 1.271 0 2.609.094 4 .281.24.04.495.054.735.027 1.191-.08 4.308-.535 7.679-2.956l.227-.16.268-.068c.08-.026 2.086-.508 4.882-.508 5.739 0 16.039 1.726 16.266 16.493 3.237-5.51 11.598-6.715 11.598-6.715 3.972.495 3.812-1.819 3.812-1.819l7.705-21.87c5.003-6.341 6.902-10.876 7.625-13.31V8.174h-77.037.014Zm-16.132 46.791a4.065 4.065 0 0 1-4.776-4.775c.308-1.578 1.605-2.876 3.184-3.184a4.065 4.065 0 0 1 4.775 4.776c-.307 1.578-1.605 2.876-3.183 3.183ZM162.63 42.967c-.977.16-2.074.548-2.997.508 1.739-.776 3.826-1.124 5.632-1.913 9.163-3.424 17.176-9.912 22.045-18.46 2.073-3.37 3.223-7.116 4.949-10.661.04-.067.161-.027.12.053v.027c-3.692 15.357-13.938 27.168-29.763 30.432l.014.014Zm25.75 33.883a2.552 2.552 0 0 1-2.274 1.39c-.415 0-.816-.093-1.177-.293a2.503 2.503 0 0 1-1.258-1.499 2.538 2.538 0 0 1 .161-1.953 2.55 2.55 0 0 1 2.274-1.39c.401 0 .816.093 1.177.28a2.608 2.608 0 0 1 1.271 1.498 2.484 2.484 0 0 1-.174 1.953v.014Zm54.751-3.505a4.065 4.065 0 0 1-4.776-4.775c.308-1.579 1.605-2.876 3.184-3.184a4.065 4.065 0 0 1 4.775 4.775c-.308 1.579-1.605 2.876-3.183 3.184Zm6.822-18.072a6 6 0 0 1-5.993 5.993h-39.568a5.93 5.93 0 0 1-4.669-2.274l-2.073-1.525c-6.782-5.016-10.675-12.641-10.675-20.948s3.88-15.905 10.635-20.908l1.645-1.217c1.03-1.793 2.93-2.996 5.137-2.996h39.568a6 6 0 0 1 5.993 5.992V55.3v-.027ZM410.7 7.304V2.247c-.026-1.35-1.297-1.846-1.297-1.846h-10.3c-1.311 1.432-3.344 4.923-4.455 6.916H410.7v-.013Z"/>
  <path fill="#A1A1A1" d="M214.785 72.863c-2.448 1.86-5.136 2.341-6.153 2.462a3.109 3.109 0 0 1-.789-.014c-15.664-2.207-19.142 6.769-19.958 15.103a.319.319 0 0 1 .027.107c.414 5.711 4.467 10.032 4.467 10.032 6.542 7.705 24.199 2.488 24.199 2.488s16.359-4.922 20.051-14.58c.201-.535.134-.87.201-1.499.04-.414-.094-1.364-.147-1.765-1.445-12.013-7.959-14.14-13.564-14.621-2.956-.254-5.966.508-8.334 2.287Zm17.377 18.313s-2.315 3.398-7.866 6.461c-5.752 3.184-15.744 4.722-19.142 4.227-3.398-.495-7.705.495-12.012-5.297-4.307-5.806-1.164-18.473 3.478-17.644 0 0 3.478 4.882 8.614 4.388 0 0-1.819 13.336 13.591 13.015 0 0-11.865-6.073-7.785-13.751 0 0 3.812-3.237 3.652-7.13 0 0 1.244-2.314 5.056-2.154 0 0 8.374-.91 11.357 4.722 2.983 5.632 3.063 8.95 1.083 13.176l-.026-.013Z"/>
  <path fill="#fff" d="M266.888 6.809c-1.953-1.485-8.735-.95-8.735-.95-5.939.321-9.564-1.471-11.237-2.595a5.118 5.118 0 0 0-2.795-.883l-41.067-.655c-.882-.027-1.685.575-1.832 1.458-.161.976-.602 1.993-1.806 1.484-1.15-.494-1.699-1.805-1.966-2.916A2.304 2.304 0 0 0 195.216 0h-2.06a1.82 1.82 0 0 0-1.82 1.886l.148 4.441-.214.508h77.036l-1.405-.013-.013-.013Zm-72.421-1.23A2.175 2.175 0 0 1 192.3 3.41c0-1.19.976-2.167 2.167-2.167 1.19 0 2.167.977 2.167 2.167s-.977 2.167-2.167 2.167Zm49.962 65.318a2.603 2.603 0 0 0-2.1-4.147c-.495 0-.95.147-1.351.388l3.451 3.759Zm-4.201-3.077a2.603 2.603 0 0 0 2.1 4.147c.495 0 .95-.147 1.351-.388l-3.451-3.759Zm-63.792-15.288a2.603 2.603 0 0 0-2.101-4.147 2.61 2.61 0 0 0-1.351.388l3.452 3.758Zm-4.201-3.078a2.603 2.603 0 0 0 2.1 4.147c.495 0 .95-.147 1.351-.388l-3.451-3.759Zm138.568-14.648c-.468-1.605-3.504-2.046-3.504-2.046h-31.596v6.996h31.636c4.789-.12 3.464-4.95 3.464-4.95Zm-4.655 1.953a1.373 1.373 0 0 1-1.859.589 1.375 1.375 0 0 1-.589-1.86 1.375 1.375 0 0 1 1.86-.588c.682.348.936 1.177.588 1.86Zm-31.89-3.999h-2.983v6.996h2.983V32.76Z"/>
  <path fill="#fff" d="M195.684 4.052c.107-.2.174-.4.174-.642 0-.775-.628-1.404-1.404-1.404-.201 0-.375.04-.549.107l1.766 1.926.013.013Zm-2.488-1.217c-.08.174-.134.361-.134.575 0 .776.629 1.405 1.405 1.405.161 0 .308-.04.455-.094l-1.726-1.873v-.013Zm-5.858 73.505c.107-.2.187-.428.187-.669 0-.789-.642-1.43-1.431-1.43-.201 0-.402.053-.575.12l1.819 1.98Zm-2.542-1.257c-.08.174-.134.375-.134.589 0 .789.642 1.43 1.431 1.43.161 0 .321-.04.469-.093l-1.766-1.926Zm229.409-48.985-.04-1.418V12.962c-.295-3.09-2.662-4.027-3.291-4.214h-12.119c.401 3.411.629 7.29.629 11.29a97.64 97.64 0 0 1-.442 9.497c6.18 0 10.327-.013 11.103 0 0 0 2.956-.026 3.611-1.377.656-1.325.549-2.047.549-2.047v-.013Zm-17.309-17.35h-3.036l-.027.054-4.575-.027-39.501-.28h-.134c.401 3.477.615 7.423.615 11.476 0 3.385-.147 6.635-.428 9.685 13.417-.04 27.864-.067 39.261-.094 2.488 0 5.886 0 8.039-.013.281-2.85.442-6.073.442-9.51 0-4.174-.241-8.04-.642-11.29h-.014Z"/>
  <path fill="#A1A1A1" d="M153.896 41.562c6.634-.99 20.319-7.197 25.362-14.166 1.953-2.688 3.651-5.591 5.364-8.4 1.752-2.876 2.622-4.87 3.397-6.796l-.495-.254a6.923 6.923 0 0 0-1.056-.508c-4.147-1.699-6.02 1.953-6.02 1.953-4.508 5.19-10.086 1.873-10.086 1.873-4.066-3.064-9.618-3.813-9.618-3.813-3.892-.334-5.778 1.485-5.778 1.485-1.351 2.02.775 2.234.775 2.234 4.174-1.084 13.203 5.525 13.203 5.525 1.659 1.123 2.769 2.167 3.532 3.143 2.742 3.491 1.364 5.471 1.364 5.471-.201 1.338-2.127 3.09-3.652 2.97-1.525-.12-4.253.348-5.524 1.23-4.013 2.796-8.722 6.89-8.722 6.89m140.201-28.051h8.32c.442 0 .843.294.95.735.388 1.525 1.083 5.11.053 8.12-.133.401-.535.642-.949.642h-8.374a1.279 1.279 0 0 1-1.271-1.27v-6.957c0-.695.575-1.27 1.271-1.27Zm20.961 0h-7.21v9.497h7.21v-9.497Z"/>
  <path fill="#fff" d="m347.683 8.481-76.408-.307V29.87h31.743c1.472-.04 6.996-.107 6.996-.107s17.912-.04 37.856-.094c.281-2.903.442-6.193.442-9.698 0-4.24-.228-8.173-.629-11.49Zm-41.16 13.966-.388.856h-11.932a.782.782 0 0 1-.789-.79V12.16a1.25 1.25 0 0 1 1.244-1.244h11.584l.321 1.003c.08.241 1.926 6.073-.053 10.541l.013-.013Zm11.036.856h-8.227a.882.882 0 0 1-.883-.883V12.36c0-.802.656-1.457 1.458-1.457h7.665c.535 0 .977.441.977.976V22.3c0 .549-.442.99-.99.99v.014Zm14.366-.923-.361.91h-11.838V10.902h11.945l.308 1.03c.067.24 1.739 5.952-.04 10.447h-.014Z"/>
  <path fill="#A1A1A1" d="M322.173 12.348h7.464c.562 0 1.057.388 1.177.936.335 1.512.83 4.615.134 7.397a1.542 1.542 0 0 1-1.485 1.164h-6.46c-1.271 0-1.833-.562-1.833-1.257V13.35c0-.562.455-1.003 1.003-1.003Z"/>
  <path fill="#fff" d="M216.404 69.56c.08-.027 2.087-.509 4.882-.509 5.739 0 16.039 1.726 16.266 16.493 3.238-5.51 11.598-6.715 11.598-6.715 3.973.495 3.812-1.819 3.812-1.819l7.705-21.87c5.003-6.341 6.903-10.876 7.625-13.31V8.174h-77.036l-1.512 3.745c-.776 1.926-2.087 4.856-3.906 7.839l-.722 1.177c-1.472 2.435-2.996 4.95-4.709 7.317-4.909 6.796-18.673 12.895-26.057 14.674 3.718 5.405 9.751 12.735 16.092 14.287 4.641 1.15 8.012 4.374 9.484 9.11 1.525 4.895-.174 10.62-2.783 14.058 4.013 1.27 7.973 6.046 9.257 8.842 1.806-10.38 7.411-16.788 17.082-16.788 1.271 0 2.609.094 4 .281.24.04.495.054.735.027 1.191-.08 4.227-.762 7.679-2.956l.495-.228h.013Zm-41.28-14.595a4.065 4.065 0 0 1-4.776-4.775c.308-1.578 1.605-2.876 3.184-3.184a4.065 4.065 0 0 1 4.775 4.776c-.307 1.578-1.605 2.876-3.183 3.183ZM162.63 42.967c-.977.16-2.074.548-2.997.508 1.739-.776 3.826-1.124 5.632-1.913 9.163-3.424 17.176-9.912 22.045-18.46 2.073-3.37 3.223-7.116 4.949-10.661.04-.067.161-.027.12.053v.027c-3.692 15.357-13.938 27.168-29.763 30.432l.014.014Zm25.75 33.883a2.552 2.552 0 0 1-2.274 1.39c-.415 0-.816-.093-1.177-.293a2.503 2.503 0 0 1-1.258-1.499 2.538 2.538 0 0 1 .161-1.953 2.55 2.55 0 0 1 2.274-1.39c.401 0 .816.093 1.177.28a2.608 2.608 0 0 1 1.271 1.498 2.484 2.484 0 0 1-.174 1.953v.014Zm54.751-3.505a4.065 4.065 0 0 1-4.776-4.775c.308-1.579 1.605-2.876 3.184-3.184a4.065 4.065 0 0 1 4.775 4.775c-.308 1.579-1.605 2.876-3.183 3.184Zm6.822-18.072a6 6 0 0 1-5.993 5.993h-39.568a5.93 5.93 0 0 1-4.669-2.274l-2.073-1.525c-6.782-5.016-10.675-12.641-10.675-20.948s3.88-15.905 10.635-20.908l1.645-1.217c1.03-1.793 2.93-2.996 5.137-2.996h39.568a6 6 0 0 1 5.993 5.992V55.3v-.027ZM410.7 7.304V2.247c-.026-1.35-1.297-1.846-1.297-1.846h-10.3c-1.311 1.432-3.344 4.923-4.455 6.916H410.7v-.013Zm-143.812-.495c-1.953-1.485-8.735-.95-8.735-.95-5.939.321-9.564-1.471-11.237-2.595a5.118 5.118 0 0 0-2.795-.883l-41.067-.655c-.882-.027-1.685.575-1.832 1.458-.161.976-.602 1.993-1.806 1.484-1.15-.494-1.699-1.805-1.966-2.916A2.304 2.304 0 0 0 195.216 0h-2.06a1.82 1.82 0 0 0-1.82 1.886l.148 4.441-.214.508h77.036l-1.405-.013-.013-.013Zm-72.421-1.23A2.175 2.175 0 0 1 192.3 3.41c0-1.19.976-2.167 2.167-2.167 1.19 0 2.167.977 2.167 2.167s-.977 2.167-2.167 2.167Z"/>
  <path fill="#fff" d="M244.429 70.897a2.603 2.603 0 0 0-2.1-4.147c-.495 0-.95.147-1.351.388l3.451 3.759Zm-4.201-3.077a2.603 2.603 0 0 0 2.1 4.147c.495 0 .95-.147 1.351-.388l-3.451-3.759Zm-63.792-15.288a2.603 2.603 0 0 0-2.101-4.147 2.61 2.61 0 0 0-1.351.388l3.452 3.758Zm-4.201-3.078a2.603 2.603 0 0 0 2.1 4.147c.495 0 .95-.147 1.351-.388l-3.451-3.759Z"/>
  <path fill="#A1A1A1" d="M310.803 34.806c-.468-1.605-3.504-2.046-3.504-2.046h-31.596v6.996h31.636c4.789-.12 3.464-4.95 3.464-4.95Zm-4.655 1.953a1.373 1.373 0 0 1-1.859.589 1.375 1.375 0 0 1-.589-1.86 1.375 1.375 0 0 1 1.86-.588c.682.348.936 1.177.588 1.86Zm-31.89-3.999h-2.983v6.996h2.983V32.76Z"/>
  <path fill="#fff" d="M195.684 4.052c.107-.2.174-.4.174-.642 0-.775-.628-1.404-1.404-1.404-.201 0-.375.04-.549.107l1.766 1.926.013.013Zm-2.488-1.217c-.08.174-.134.361-.134.575 0 .776.629 1.405 1.405 1.405.161 0 .308-.04.455-.094l-1.726-1.873v-.013Zm-5.858 73.505c.107-.2.187-.428.187-.669 0-.789-.642-1.43-1.431-1.43-.201 0-.402.053-.575.12l1.819 1.98Zm-2.542-1.257c-.08.174-.134.375-.134.589 0 .789.642 1.43 1.431 1.43.161 0 .321-.04.469-.093l-1.766-1.926Zm26.552-57.8h35.501v5.123h-35.501a2.57 2.57 0 0 1 0-5.136v.013Z"/>
  <path fill="#fff" d="M211.883 48.61a5.16 5.16 0 0 1-5.15-5.15 5.16 5.16 0 0 1 5.15-5.15h34.966V24.4h-35.501a4.553 4.553 0 0 1-4.548-4.548 4.561 4.561 0 0 1 4.548-4.548h34.953c-.575-1.017-1.538-2.582-2.649-2.823h-39.153c-1.766 0-3.197 1.499-3.197 3.358v40.973c0 1.846 1.431 3.357 3.197 3.357h39.153c1.86-.495 3.197-1.498 3.197-3.357v-8.2h-34.966Z"/>
  <path fill="#fff" d="M211.882 40.304h34.94v6.327h-34.94a3.163 3.163 0 0 1-3.156-3.157 3.163 3.163 0 0 1 3.156-3.157v-.013Z"/>
  <path fill="#A1A1A1" d="M148.291 72.45c.829 4.748-2.475 9.23-7.357 9.23-4.749 0-8.107-4.268-7.679-8.816.362-3.92 3.492-6.862 7.104-7.036 3.611-.174 7.236 2.568 7.945 6.622h-.013Zm-22.807 12.412c3.625 2.89 8.976 5.672 16.052 7.532a3.85 3.85 0 0 1 2.809 4.4c-1.659 9.217-5.565 33.803-3.05 49.334.254 1.551-.95 2.956-2.568 2.956-7.411.013-26.045-.415-35.208-4.869a2.352 2.352 0 0 1-1.337-2.194c.281-6.956 1.806-36.144 14.259-55.3 1.806-2.782 6.421-3.945 9.043-1.859Z"/>
  <path fill="#fff" d="M169.038 58.442c-7.772-1.86-14.822-10.62-18.741-16.56-.428-.415-.843-.883-.843-.883s-2.715-2.635-5.083-4.602c-2.368-1.98-5.939 0-5.939 0 .441 7.96-1.432 13.926-3.692 18.113-2.916 5.417-6.474 7.878-6.474 7.878-16.2 14.434-24.159 33.308-27.757 44.745-1.538 4.909-2.421 10.019-2.796 15.143-1.244 16.734-7.745 23.516-7.745 23.516l-.361.441c-.843 1.164-.75 3.023-.08 4.428l.08.174c1.699 3.304 6.782 4.775 6.782 4.775l47.393 4.361c13.845.549 8-6.929 8-6.929l.816-2.194-3.304-19.811c-2.034-11.677-.683-24.332-.683-24.332.723-12.092 9.993-19.57 15.303-22.887 2.167-1.351 3.679-2.02 3.679-2.02 3.09-1.806 5.725-2.314 7.959-2.047 4.602-5.003 4.361-18.7-6.528-21.309h.014Zm-23.236 38.592c-1.739 9.618-5.511 33.656-3.05 48.865a3.926 3.926 0 0 1-.936 3.237c-.776.883-1.899 1.378-3.09 1.391h-.334c-7.572 0-26.192-.495-35.529-5.016-1.364-.669-2.207-2.047-2.153-3.532.24-6.153 2.113-37.869 14.861-57.48 1.579-2.42 4.481-3.678 7.478-3.102 1.123.214 2.167.749 3.063 1.458 3.451 2.742 8.989 6.367 15.811 8.173 2.662.695 4.361 3.344 3.879 6.033v-.027Zm1.806-16.935c-1.699 1.94-4.066 3.01-6.688 3.01s-4.856-1.017-6.595-2.85c-1.886-2.006-2.822-4.762-2.568-7.53.428-4.535 4.08-8.12 8.507-8.334h.402c4.387 0 8.293 3.37 9.069 7.825.495 2.876-.281 5.752-2.14 7.879h.013Zm-.588-29.215c-1.779-4-1.485-8.387-4.415-11.865-.455-.441-1.07-.802-1.779-.575l-.067-.134c.709-.36 1.552-.08 2.114.375 1.672 1.431 2.541 3.505 3.331 5.47 2.167 8.361 8.28 16.133 15.757 20.681l.107.094c-6.701-2.274-12.6-7.866-15.062-14.046h.014Z"/>
</svg>
