<svg xmlns="http://www.w3.org/2000/svg" width="478" height="413" fill="none" viewBox="0 0 478 413">
  <path fill="#fff" fill-rule="evenodd" d="M306.247 1.779c-5.362 1.852-12.638 7.834-13.736 11.294-.474 1.493-1.691 1.8-7.126 1.8-24.788 0-72.728 12.587-103.187 27.09-23.539 11.21-38.512 23.604-50.631 41.91-17.517 26.46-26.05 51.634-41.02 121.001-9.977 46.238-8 40.404-17.684 52.169-12.551 15.25-26.64 30.812-48.981 54.101-12.55 13.083-20.634 22.336-21.844 25-3.973 8.753-1.994 19.662 4.694 25.866 6.802 6.309 14.507 7.382 28.175 3.925 20.408-5.162 46.72-6.981 67.802-4.685 26.54 2.89 47.327 8.427 81.509 21.71 51.152 19.878 63.527 24.015 82.356 27.531 10.778 2.012 32.212 2.281 41.5.521 23.341-4.424 43.929-16.491 58.832-34.48 3.117-3.763 14.218-19.471 24.668-34.907l19-28.065 15.025-6.621c28.874-12.722 40.734-20.96 46.713-32.449 1.921-3.689 2.217-6.399 2.859-26.116.393-12.1 1.287-36.22 1.986-53.601 1.395-34.684 1.041-40.308-3.551-56.399-5.375-18.84-21.477-46.892-36.73-63.992-16.001-17.94-37.652-32.662-66.486-45.21-6.695-2.913-7.269-3.411-8.439-7.314-1.699-5.67-8.819-13.34-15.175-16.343-11.501-5.437-30.525-7.191-40.529-3.736Zm30.439 14.527c8.918 2.728 13.388 8.033 13.388 15.888 0 3.36.081 3.42 11.75 8.547 26.854 11.797 46.295 24.069 59.611 37.628 19.482 19.839 35.108 46.814 40.842 70.505 2.392 9.882 2.478 15.947.863 61-.601 16.775-1.202 36.35-1.334 43.5-.225 12.118-.415 13.252-2.805 16.715-1.41 2.043-4.276 5.076-6.369 6.739-4.535 3.604-25.087 14.165-39.058 20.071-5.5 2.325-10.818 4.943-11.817 5.817-1 .874-9.325 12.855-18.5 26.624-20.329 30.506-26.478 38.77-33.93 45.601-26.552 24.338-58.145 29.349-102.253 16.22-9.009-2.681-24.48-8.421-55.5-20.59-47.524-18.643-71.855-24.083-108-24.145-22.043-.038-35.446 1.403-50.635 5.442-4.051 1.077-8.581 1.97-10.068 1.982-6.375.056-10.641-4.763-9.223-10.416.417-1.661 7.999-10.324 19.172-21.904 29.769-30.855 62.254-68.601 62.254-72.336 0-1.614 8.255-39.592 14.632-67.32 13.014-56.578 25.374-85.035 45.841-105.543 9.342-9.36 18.828-15.534 35.245-22.937 28.682-12.934 72.945-24.281 96.111-24.638 11.955-.185 13.16-.656 16.105-6.3 3.861-7.398 7.253-8.862 19.066-8.226 5.225.282 11.801 1.216 14.612 2.076Z" clip-rule="evenodd"/>
</svg>
