<svg xmlns="http://www.w3.org/2000/svg" width="361" height="865" fill="none" viewBox="0 0 361 865">
  <path fill="#fff" fill-rule="evenodd" d="M145.484.617c-2.081.56-2.833 2-5.029 9.627-1.421 4.933-3.695 10.96-5.054 13.395-2.329 4.172-2.959 4.582-10.971 7.143-66.89 21.385-67.612 21.672-72.06 28.684-3.841 6.058-11.482 25.876-18.892 49-13.644 42.579-19.201 67.008-31.22 137.246-2.094 12.247-2.304 16.471-2.251 45.5.067 36.791 2.194 68.291 6.923 102.5 4.072 29.458 5.687 40.325 6.19 41.633 1.263 3.293 6.588 4.785 18.49 5.183 12.21.408 17.286-.562 26.098-4.988l3.777-1.897-.493 2.285c-.271 1.256-1.172 8.134-2.003 15.284-5.261 45.299-6.002 59.008-5.594 103.5.199 21.725.376 50.075.394 63l.03 23.5-4.632 19.5c-8.06 33.922-8.251 35.435-8.121 64 .11 24.1 1.05 42.11 5.318 101.947l1.815 25.447 3.922 3.659c9.994 9.322 31.845 11.679 45.362 4.891 5.02-2.52 9.832-7.762 10.441-11.372.285-1.689 2.53-16.62 4.988-33.179 2.458-16.559 7.161-46.484 10.451-66.5 3.29-20.016 6.718-41.568 7.617-47.893 1.819-12.789 2.082-13.988 9.437-43 4.553-17.958 6.879-30.795 11.054-61 4.24-30.672 5.279-35.705 11.928-57.755 3.787-12.561 8.753-29.793 11.035-38.292 2.282-8.499 4.485-16.563 4.895-17.919.583-1.929 1.467.472 4.052 11 1.818 7.406 7.068 26.066 11.667 41.466 8.082 27.066 8.496 28.951 12.398 56.5 5.884 41.541 6.574 45.349 12.555 69.268 3.497 13.986 7.581 34.719 11.424 58 3.29 19.927 6.662 40.057 7.494 44.732 2.817 15.836 4.49 26.513 8.886 56.702 2.61 17.924 4.967 30.949 5.823 32.171 2.113 3.017 6.079 5.91 11.505 8.393 4.015 1.838 6.59 2.196 15.797 2.194 13.196-.002 20.765-2.422 26.623-8.511 4.305-4.475 4.078-3.054 6.846-42.949 3.138-45.234 4.255-68.923 4.338-92 .086-24.043-.301-26.938-8.077-60.5l-4.634-20 .066-23c.036-12.65.22-41.675.408-64.5.228-27.67-.078-46.499-.919-56.5-1.46-17.387-4.798-50.882-5.743-57.639l-.65-4.64 6.211 3.079c5.558 2.755 7.385 3.123 17.371 3.5 12.334.467 18.239-.624 22.102-4.084 2.253-2.018 2.743-4.093 5.488-23.216 7.161-49.884 8.937-71.567 9.747-119l.581-34-3.196-21c-9.722-63.892-20.961-113.679-34.734-153.86-7.029-20.506-9.468-25.631-14.258-29.957-3.358-3.035-7.997-4.838-35.219-13.693-17.243-5.608-33.826-10.96-36.851-11.893-5.281-1.628-5.627-1.951-8.686-8.146-1.752-3.548-3.941-9.5-4.864-13.227-.982-3.964-2.357-7.114-3.314-7.592-1.946-.97-70.544-1.18-74.082-.227Zm69.897 15.345c1.163 3.438 3.787 9.375 5.832 13.193l3.717 6.944 11.5 3.73c6.325 2.053 22.975 7.409 37 11.902 14.952 4.79 26.805 9.156 28.654 10.553 2.271 1.716 4.048 4.7 6.348 10.656 15.373 39.814 28.315 94.399 39.435 166.32 3.175 20.537 3.563 25.168 3.558 42.5-.007 29.895-4.251 88.859-7.985 110.952-.512 3.025-1.215 8.2-1.564 11.5-1.547 14.633-3.243 24.697-4.349 25.803-.787.787-5.034 1.197-12.397 1.197-10.328 0-11.659-.225-17.104-2.895l-5.904-2.896.663-24.104c.623-22.636.278-35.019-2.386-85.605-2.821-53.579-2.068-47.71-10.009-78a39403.903 39403.903 0 0 1-10.334-39.492c-2.462-9.442-3.521-12.066-4.982-12.343-1.021-.194-2.259.05-2.751.542-1.977 1.977-11.199 49.903-12.926 67.182-1.332 13.323-.974 15.694 9.535 63.111 8.988 40.551 13.762 65.67 17.011 89.5.3 2.2.733 4.9.963 6 .23 1.1 1.352 9.875 2.493 19.5 1.14 9.625 2.273 19.075 2.515 21 .243 1.925 1.422 14.075 2.62 27 2.316 24.98 2.962 68.733 1.927 130.5-.433 25.88-.31 28.681 1.629 37 12.887 55.292 12.828 54.684 10.322 106.178-2.676 54.972-5.295 93.402-6.499 95.349-2.288 3.702-16.898 7.526-24.923 6.524-7.303-.913-15.37-4.826-15.954-7.739-.255-1.272-1.882-12.662-3.616-25.312-6.378-46.513-21.741-134.858-27.908-160.481-5.422-22.527-8.514-38.757-11.067-58.095-2.893-21.901-6.087-41.22-7.842-47.424-1.088-3.85-4.915-16.953-8.502-29.118-6.043-20.491-15.269-56.344-19.204-74.632-1.132-5.259-2.126-7.75-3.092-7.75-1.891 0-2.751 2.5-5.342 15.536-4.086 20.557-11.085 47.479-20.007 76.964-7.354 24.302-7.635 25.659-12.545 60.5-4.737 33.617-6.597 43.309-14.015 73.028-2.406 9.641-5.316 23.816-6.466 31.5-1.15 7.685-4.81 30.397-8.133 50.472-3.323 20.075-7.939 49.622-10.257 65.659-2.668 18.463-4.746 29.803-5.662 30.913-2.241 2.713-9.152 5.375-15.745 6.065-4.596.48-7.602.133-12.972-1.498-12.05-3.66-11.254-1.746-13.32-32.066-3.463-50.842-5.152-91.159-4.611-110.045.563-19.645.597-19.85 9.85-58.528l3.35-14-.5-28c-1.604-89.8-.242-120.922 8.048-184 5.89-44.823 10.608-70.726 22.357-122.779 7.669-33.98 8.391-40.692 6.183-57.485-2.322-17.66-10.543-58.491-12.105-60.123-1.46-1.525-4.29-.887-4.946 1.114-.23.7-4.898 18.823-10.374 40.273l-9.956 39-1.12 19.5a6471.586 6471.586 0 0 1-2.048 34 24501.76 24501.76 0 0 0-2.083 33c-.733 11.743-.902 28.189-.463 45.027l.69 26.527-4.341 2.136c-7.397 3.639-12.06 4.539-21.585 4.166-5.001-.196-9.375-.638-9.72-.984-.635-.637-7.884-53.984-8.95-65.872-.32-3.575-1.018-11.45-1.551-17.5-1.908-21.632-3.163-57.248-2.521-71.5.736-16.341 9.866-73.982 15.997-101 9.53-41.993 29.865-105.235 36.026-112.042 1.863-2.058 9.063-4.657 46.914-16.93 15.373-4.984 28.909-9.69 30.079-10.457 2.374-1.555 8.579-12.908 10.424-19.071.658-2.2 1.374-4.562 1.59-5.25.303-.965 7.558-1.25 31.842-1.25h31.45l2.114 6.25ZM86.851 225.74c2.883 14.085 4.579 27.965 4.579 37.475 0 10.132.038 9.929-10.507 55.996-6.305 27.541-13.493 64.776-13.493 69.892 0 1.434-.443 2.608-.985 2.608-.585 0-.798-2.332-.526-5.75.253-3.163.7-14.3.997-24.75.295-10.45 1.205-28.675 2.02-40.5.817-11.825 1.753-28.025 2.082-36 .537-12.995 1.097-16.42 5.4-33 2.642-10.175 5.632-21.956 6.645-26.179 1.013-4.224 1.935-7.586 2.05-7.471.115.114.896 3.57 1.738 7.679Zm194.096 13.471c8.217 29.999 8.214 29.983 8.89 52 .337 11 1.274 31.25 2.082 45 .808 13.75 1.657 31.635 1.886 39.745.419 14.8-.527 18.964-1.784 7.853-1.064-9.398-5.737-32.514-15.007-74.221-9.444-42.494-9.827-45.977-7.078-64.377 1.665-11.147 4.717-27.629 5.046-27.247.117.136 2.801 9.697 5.965 21.247Zm13.483 153c0 .275-.225.5-.5.5a.501.501 0 0 1-.5-.5c0-.275.225-.5.5-.5s.5.225.5.5Z" clip-rule="evenodd"/>
</svg>
