<svg xmlns="http://www.w3.org/2000/svg" width="592" height="466" fill="none" viewBox="0 0 592 466">
  <path fill="#fff" fill-rule="evenodd" d="M200.71 1.285c-2.898.787-6.653 2.147-8.344 3.021-8.833 4.568-57.835 35.025-60.564 37.644-4.054 3.891-8.726 12.778-10.322 19.638-.941 4.044-1.079 14.482-.567 43 1.014 56.416 2.195 69.46 8.237 90.925l1.763 6.265-10.4 10.436-10.399 10.435-3.928-3.548c-5.401-4.88-10.084-6.659-17.628-6.697-6.367-.032-6.737.127-42.837 18.364C8.128 249.76 6.696 250.693 2.182 259.131c-9.013 16.848 11.115 96.357 37.947 149.895 6.838 13.642 17.22 30.623 21.684 35.467 10.38 11.261 18.447 12.326 40.667 5.369 55.124-17.258 56.899-17.918 62.068-23.088 6.181-6.181 8.44-13.133 7.651-23.554l-.538-7.125 7.388-2.174c17.143-5.044 22.677-1.537 30.067 19.049 7.386 20.577 18.969 33.99 36.864 42.688 16.025 7.79 32.65 10.69 56 9.771 23.925-.942 40.631-6.164 55.514-17.352 11.478-8.628 18.63-19.076 24.994-36.515 6.918-18.956 12.858-22.519 29.484-17.688l7.319 2.126-.12 9.624c-.144 11.411 1.97 16.965 8.624 22.661 4.224 3.615 3.197 3.248 56.185 20.083 22.197 7.052 28.764 7.557 37.356 2.869 6.337-3.459 8.561-6.018 17.016-19.585 24.066-38.617 44.147-94.903 51.676-144.852 2.288-15.177 1.97-20.698-1.606-27.853-1.682-3.366-4.324-7.185-5.871-8.486-5.027-4.231-72.181-37.458-77.236-38.216-6.643-.996-14.42 1.504-20.026 6.439l-4.516 3.975-10.269-10.435c-8.651-8.792-10.163-10.793-9.6-12.706 2.8-9.508 5.618-21.773 6.523-28.391 1.602-11.709 3.017-49.198 3.036-80.473.015-24.516-.195-28.209-1.88-33.107-4.189-12.177-8.271-16.29-28.103-28.312a7163.964 7163.964 0 0 1-28.067-17.119C390.887-1.098 403.931.277 297.98.05c-77.154-.165-92.85.034-97.27 1.235Zm193.77 13.058c24.746 14.82 54.099 33.196 56.343 35.273 1.564 1.447 4.039 4.881 5.5 7.631l2.657 5-.167 32c-.296 56.552-1.479 74.353-6.08 91.5-5.054 18.834-4.86 19.483 10.449 35.122l11.385 11.63-7.357 14.374c-13.107 25.609-23.26 51.882-32.653 84.498-5.327 18.498-11.367 43.311-12.261 50.376-.368 2.905-.378 2.905-11.864-.036-7.475-1.914-9.234-2.044-14-1.032-11.348 2.411-17.493 9.18-24.363 26.838-7.075 18.189-12.651 25.844-24.457 33.577-11.864 7.772-25.234 11.812-43.632 13.187-10.062.752-28.808-.808-38-3.161-8.39-2.148-21.034-8.287-27.228-13.221-7.116-5.667-14.477-16.478-18.17-26.683-6.091-16.835-11.434-24.515-19.907-28.616-5.957-2.885-15.12-2.878-24.143.016-3.547 1.137-6.578 1.939-6.736 1.781-.158-.158-1.195-4.7-2.304-10.093-9.49-46.121-26.383-94.926-45.156-130.458l-6.023-11.4 10.983-11.1c6.04-6.104 11.703-12.539 12.583-14.299 2.114-4.226 2.009-8.417-.405-16.3-5.09-16.616-6.764-38.097-7.208-92.5l-.286-35 2.728-5.555c1.501-3.056 3.751-6.512 5-7.68 1.25-1.169 11.497-7.7 22.772-14.514 11.275-6.813 23.582-14.338 27.348-16.72 3.766-2.384 8.491-4.926 10.5-5.649 2.936-1.057 21.976-1.273 97.152-1.099 92.957.216 93.52.23 97 2.313ZM96.582 226.031c9.973 6.704 31.952 53.264 45.421 96.216 7.939 25.318 15.981 59.854 19.047 81.792.777 5.557-1.293 12.17-4.845 15.48-2.247 2.095-4.496 2.865-48.805 16.714-22.539 7.044-24.907 7.594-28.5 6.62-2.156-.584-5.213-2.267-6.793-3.739-10.537-9.815-32.274-53.797-43.674-88.367-8.432-25.571-16.987-63.68-17.285-77-.29-12.975-1.216-12.208 39.198-32.501 37.92-19.04 39.682-19.62 46.236-15.215Zm443.756 14.8c18.503 9.397 34.413 17.777 35.356 18.623 3.384 3.036 5.115 9.765 4.386 17.048-1.564 15.625-10.401 53.954-16.771 72.745-12.114 35.728-33.245 78.763-43.916 89.433-5.395 5.395-8.983 5.747-20.973 2.056-26.932-8.29-60.059-18.982-61.95-19.994-6.542-3.502-7.433-12.048-3.485-33.426 8.727-47.251 25.605-98.407 45.059-136.569 11.344-22.252 15.598-27 24.192-27 3.794 0 9.489 2.554 38.102 17.084ZM292.88 315.512c-3.013 2.012-3.4 5.543-3.4 30.996v25.893l-8.25 1.248c-10.265 1.553-21.329 5.172-29.534 9.66-6.556 3.586-9.108 4.101-12.178 2.458-1.984-1.062-11.419-16.161-27.819-44.52-5.725-9.9-10.871-18.562-11.436-19.25-.565-.687-2.312-1.25-3.882-1.25-3.389 0-6.323 3.692-5.252 6.609 1.546 4.213 28.521 50.251 35.472 60.54 7.305 10.814 16.406 13.13 27.341 6.959 14.329-8.087 35.325-12.248 51.22-10.151 10.045 1.326 24.403 5.828 31.797 9.972 9.52 5.335 16.823 4.769 23.405-1.813 5.26-5.26 40.116-63.714 40.116-67.275 0-2.521-3.567-5.02-6.662-4.666-2.565.294-4.295 2.82-18.014 26.308-20.18 34.548-23.136 38.937-26.484 39.325-1.57.181-5.554-1.15-9.717-3.246-9.597-4.833-19.996-8.175-29.873-9.601l-8.25-1.191v-26.885c0-25.552-.099-26.984-2-28.885-2.05-2.05-4.65-2.537-6.6-1.235Z" clip-rule="evenodd"/>
</svg>
