<svg xmlns="http://www.w3.org/2000/svg" width="489" height="511" fill="none" viewBox="0 0 489 511">
  <path fill="#fff" fill-rule="evenodd" d="M311.992 1.25c-2.679 1.378-2.726 1.45-7.196 11.235-4.129 9.037-14.437 19.459-24.418 24.688-30.978 16.228-72.644 8.862-91.568-16.188-2.7-3.575-5.661-8.525-6.58-11-2.723-7.339-5.021-9.278-10.336-8.717-3.732.393-100.238 39.215-110.194 44.327C56.214 48.412 46.753 57.261 42.02 64c-6.133 8.733-7.198 11.494-17.16 44.485-4.484 14.85-11.007 36.225-14.495 47.5C.361 188.321-.407 191.541.125 198.948c.567 7.891 3.063 13.089 8.936 18.608 25.25 23.724 62.372 40.618 79.973 36.395 3.971-.952 6.24-2.308 9.535-5.7l4.325-4.45-.007 17.842c-.004 9.813-.686 54.177-1.515 98.587-1.315 70.473-1.323 81.625-.063 87.668 1.845 8.85 5.612 16.509 11.341 23.058 3.887 4.444 6.702 6.24 19.641 12.534 26.27 12.778 52.356 21.248 77.603 25.196 16.041 2.509 51.861 2.491 67.964-.035 25.852-4.054 52.064-12.512 77.725-25.078 12.613-6.177 15.559-8.07 19.661-12.632 5.757-6.403 8.913-12.338 11.181-21.027 1.549-5.935 1.593-12.621.573-86.929-.608-44.275-1.261-87.7-1.45-96.5-.19-8.8-.065-17.575.278-19.5.614-3.456.639-3.471 1.916-1.183.712 1.275 3.375 3.637 5.919 5.25 4.01 2.543 5.58 2.933 11.817 2.933 18.595 0 46.269-13.055 69.635-32.849 10.488-8.885 13.31-14.363 13.211-25.651-.062-7.058-1.026-11.121-8.187-34.5a39641.417 39641.417 0 0 1-16.185-53c-4.438-14.575-9.018-28.75-10.178-31.5-4.996-11.844-15.474-24.264-25.306-29.998-4.551-2.654-18.675-8.605-73.818-31.103C333.891 6.915 316.341-.008 315.65 0c-.691.008-2.337.57-3.658 1.25ZM172.574 18.235c8.561 17.501 27.295 31.943 48.82 37.632 13.483 3.563 32.214 3.349 47-.538 19.972-5.251 38.554-19.676 47.119-36.579 1.328-2.621 2.566-4.765 2.75-4.765.185 0 5.24 2.061 11.233 4.579 5.994 2.519 17.873 7.419 26.398 10.891 41.24 16.791 62.864 25.904 66.6 28.066 5.351 3.096 14.152 12.686 17.757 19.348 2.626 4.853 11.797 33.861 29.755 94.116 8.532 28.631 8.547 29.818.476 37.5-17.768 16.912-50.113 33.5-65.322 33.5-6.414 0-9.981-6.534-12.183-22.318-1.13-8.101-2.222-9.682-6.682-9.682-4.154 0-5.354 1.723-8.723 12.524-4.994 16.011-5.068 18.135-3.797 109.449 1.654 118.847 1.696 112.474-.789 119.08-4.165 11.075-8.213 14.597-26.592 23.139-25.194 11.709-50.535 19.316-74.441 22.345-17.97 2.278-49.371 1.628-66.059-1.367-21.736-3.901-47.495-12.555-69.43-23.327-11.878-5.833-16.395-9.899-20.239-18.217l-2.831-6.126v-25.5c0-14.025.45-52.275 1-85 1.681-100.002 1.645-100.831-5.149-118.963-2.635-7.033-3.532-7.999-7.446-8.022-3.843-.022-5.605 2.72-6.417 9.985-1.033 9.248-4.123 18.631-6.739 20.464-6.937 4.858-32.78-3.637-52.086-17.121-19.569-13.669-24.663-19.213-24.663-26.847 0-1.354 2.972-12.258 6.605-24.229a40516.19 40516.19 0 0 0 16.913-55.972c5.67-18.813 11.585-36.551 13.145-39.419 3.481-6.398 10.216-14.015 15.717-17.775 3.523-2.408 24.041-11.183 71.62-30.627 5.775-2.36 15.675-6.536 22-9.28 6.325-2.744 11.748-5.035 12.051-5.091.303-.057 1.486 1.81 2.629 4.147Z" clip-rule="evenodd"/>
</svg>
