<svg xmlns="http://www.w3.org/2000/svg" width="752" height="830" fill="none" viewBox="0 0 752 830">
  <path fill="#fff" fill-rule="evenodd" d="M375.999 3.668c.001 3.928 4.731 83.976 8.025 135.832l2.985 47c4.442 69.987 7.066 115.276 6.735 116.268-.588 1.764-8.133-12.984-71.847-140.434L263.573 45.668l-3.036 2.125c-6.798 4.758-63.159 47.061-64.717 48.575-1.568 1.523-.581 3.967 14.809 36.632 9.07 19.25 21.468 45.575 27.553 58.5 15.362 32.635 55.816 121.452 77.754 170.708l11.228 25.208-19.142 23.792c-10.527 13.086-24.852 31.04-31.831 39.899L263.5 467.214l-16 .63c-8.8.347-43.675 1.33-77.5 2.184-33.825.855-66.438 1.873-72.474 2.263L86.552 473l-15.073 21.5a37490.704 37490.704 0 0 1-27.276 38.846C37.491 542.886 32 551.006 32 551.39c0 .384 6.413 1.727 14.25 2.983 7.837 1.257 48.018 7.882 89.289 14.723l75.039 12.437 51.461 24.581c28.304 13.52 56.186 26.744 61.961 29.386 5.775 2.643 14.315 6.656 18.978 8.918l8.478 4.112 5.841 10.735c20.95 38.501 33.168 60.906 37.481 68.735 2.728 4.95 8.556 15.525 12.953 23.5a8928.967 8928.967 0 0 1 33.731 61.75c4.831 8.938 9.009 16.25 9.285 16.25.569 0 28.933-15.178 40.253-21.54 7.453-4.189 29.694-16.23 113-61.179 23.925-12.909 43.68-23.645 43.899-23.858.22-.214-9.871-21.433-22.423-47.155C584.271 591.328 567 555.388 567 554.08c0-1.198 3.502-10.562 27.148-72.58a12986.479 12986.479 0 0 0 13.438-35.384c2.463-6.536 5.477-13.11 6.696-14.61 20.547-25.254 51.113-62.517 70.138-85.506 13.199-15.95 33.8-40.841 45.779-55.314l21.781-26.313-3.379-5.283c-3.092-4.834-13.176-21.049-27.418-44.09-3.06-4.95-5.851-9.35-6.202-9.779-.351-.428-15.903 16.876-34.56 38.453-18.656 21.577-39.096 45.135-45.421 52.35-6.325 7.216-22.033 25.327-34.908 40.247l-23.407 27.127-4.277-3.072c-2.352-1.689-5.662-4.253-7.355-5.698L561.975 352l5.4-18c15.06-50.199 34.581-112.31 60.189-191.5 7.025-21.725 12.81-40.577 12.855-41.893.07-2.079-3.982-4.943-30.919-21.853-17.05-10.702-31.504-19.664-32.121-19.914-1.379-.56-1.224-.936-8.906 21.66-3.459 10.175-11.314 32.9-17.456 50.5-23.257 66.646-28.632 82.239-43.608 126.5-8.468 25.025-15.86 45.384-16.427 45.242-.566-.142-4.169-2.345-8.006-4.897-6.481-4.31-6.976-4.894-6.982-8.242-.003-1.982-.66-15.078-1.459-29.103-.8-14.025-1.933-36.525-2.519-50-.586-13.475-1.729-38.675-2.541-56-1.312-28.004-4.207-93.063-6.108-137.25l-.678-15.75-13.594-.122c-7.477-.067-26.983-.404-43.346-.75L375.997 0l.002 3.668ZM60.562 187.84c-.366 2.285-.616 12.93-.557 23.657.06 10.727.083 23.215.052 27.753L60 247.5H0v41.97l59.5.53.529 61.5h43.581l-.145-21.75c-.08-11.962.074-25.913.342-31l.487-9.25H164v-41.971L103.5 247l-.139-62.994-42.135-.321-.664 4.155Z" clip-rule="evenodd"/>
</svg>
