<svg xmlns="http://www.w3.org/2000/svg" width="1383" height="830" fill="none" viewBox="0 0 1383 830">
  <path fill="#fff" d="M1036.53.878c16.36.346 35.87.683 43.35.75l13.59.122.68 15.75c1.9 44.187 4.79 109.246 6.11 137.25.81 17.325 1.95 42.525 2.54 56 .58 13.475 1.72 35.975 2.52 50 .8 14.024 1.45 27.119 1.46 29.103 0 3.347.5 3.932 6.98 8.242 3.83 2.552 7.44 4.755 8 4.897.57.131 7.96-20.224 16.43-45.242 14.98-44.261 20.35-59.854 43.61-126.5 6.14-17.6 13.99-40.325 17.45-50.5 7.69-22.595 7.53-22.22 8.91-21.66.62.25 15.07 9.212 32.12 19.914 26.94 16.91 30.99 19.774 30.92 21.853-.05 1.32-5.83 20.17-12.85 41.893-25.61 79.19-45.13 141.301-60.19 191.5l-5.4 18 3.07 2.628c1.7 1.445 5.01 4.009 7.36 5.698l4.28 3.072 23.4-27.127c12.88-14.919 28.59-33.03 34.91-40.247 6.33-7.215 26.77-30.773 45.42-52.35 18.66-21.577 34.21-38.881 34.56-38.453.35.429 3.14 4.829 6.2 9.779 14.25 23.041 24.33 39.255 27.42 44.09l3.38 5.283-21.78 26.313c-11.98 14.473-32.58 39.364-45.78 55.314-19.02 22.989-49.59 60.252-70.14 85.506-1.22 1.5-4.23 8.074-6.69 14.61-2.47 6.536-8.51 22.459-13.44 35.384-23.65 62.018-27.15 71.382-27.15 72.58 0 1.309 17.27 37.249 58.48 121.688 12.54 25.711 22.63 46.924 22.42 47.155-.22.213-19.97 10.949-43.9 23.858-83.3 44.949-105.55 56.99-113 61.179-11.32 6.362-39.68 21.539-40.25 21.54-.28 0-4.46-7.312-9.29-16.25a8561.06 8561.06 0 0 0-33.73-61.75c-4.39-7.975-10.22-18.55-12.95-23.5-4.31-7.829-16.53-30.234-37.482-68.735l-5.841-10.735-8.477-4.112c-4.663-2.262-13.204-6.275-18.979-8.918-5.775-2.642-33.657-15.866-61.961-29.386l-51.461-24.581-75.039-12.437c-41.271-6.841-81.452-13.466-89.289-14.723-7.837-1.256-14.25-2.599-14.25-2.983.004-.389 5.493-8.507 12.203-18.044 6.711-9.54 18.986-27.021 27.277-38.846l15.072-21.5 10.975-.709c6.037-.39 38.649-1.408 72.473-2.263 33.825-.854 68.7-1.837 77.5-2.184l16-.63 12.692-16.107c6.979-8.859 21.304-26.813 31.831-39.899l19.141-23.792-11.228-25.208c-21.938-49.256-62.392-138.073-77.754-170.708-6.085-12.925-18.483-39.25-27.553-58.5-15.39-32.665-16.376-35.109-14.808-36.632 1.559-1.515 57.918-43.817 64.716-48.575l3.036-2.125 58.325 116.666c63.711 127.45 71.261 142.198 71.851 140.434.33-1.005-2.3-46.291-6.74-116.268-.54-8.525-1.88-29.675-2.98-47-3.3-51.856-8.03-131.904-8.03-135.832V.25l29.75.628ZM405.749.628c16.363.346 35.869.683 43.346.75l13.594.122.678 15.75c1.901 44.187 4.796 109.246 6.108 137.25.812 17.325 1.955 42.525 2.541 56 .586 13.475 1.719 35.975 2.519 50 .799 14.024 1.456 27.119 1.459 29.103.006 3.347.501 3.932 6.982 8.242 3.837 2.552 7.44 4.755 8.006 4.897.571.131 7.961-20.224 16.427-45.242 14.976-44.261 20.351-59.854 43.608-126.5 6.142-17.6 13.997-40.325 17.456-50.5 7.681-22.595 7.527-22.22 8.906-21.66.617.25 15.071 9.212 32.121 19.914 26.937 16.91 30.989 19.774 30.919 21.853-.046 1.32-5.83 20.17-12.855 41.893-25.608 79.19-45.129 141.301-60.189 191.5l-5.4 18 3.078 2.628c1.693 1.445 5.003 4.009 7.355 5.698l4.277 3.072 23.407-27.127c12.875-14.919 28.583-33.03 34.908-40.247 6.325-7.215 26.765-30.773 45.421-52.35 18.657-21.577 34.209-38.881 34.56-38.453.352.429 3.142 4.829 6.202 9.779 14.241 23.041 24.325 39.255 27.418 44.09l3.379 5.283-21.781 26.313A930822.81 930822.81 0 0 0 684.42 346c-19.025 22.989-49.591 60.252-70.138 85.506-1.219 1.5-4.233 8.074-6.696 14.61s-8.51 22.459-13.438 35.384C570.502 543.518 567 552.882 567 554.08c.001 1.309 17.271 37.249 58.476 121.688 12.546 25.711 22.635 46.924 22.423 47.155-.219.213-19.974 10.949-43.899 23.858-83.306 44.949-105.547 56.99-113 61.179-11.32 6.362-39.682 21.539-40.253 21.54-.276 0-4.454-7.312-9.285-16.25a8928.967 8928.967 0 0 0-33.731-61.75c-4.397-7.975-10.225-18.55-12.953-23.5-4.313-7.829-16.531-30.234-37.481-68.735l-5.841-10.735-8.477-4.112c-4.663-2.262-13.204-6.275-18.979-8.918-5.775-2.642-33.657-15.866-61.961-29.386l-51.461-24.581-75.039-12.437c-41.27-6.841-81.452-13.466-89.289-14.723-7.837-1.256-14.25-2.599-14.25-2.983.004-.389 5.493-8.507 12.203-18.044A37151.32 37151.32 0 0 0 71.48 494.5L86.553 473l10.974-.709c6.037-.39 38.65-1.408 72.474-2.263 33.825-.854 68.7-1.837 77.5-2.184l16-.63 12.691-16.107c6.979-8.859 21.304-26.813 31.831-39.899l19.142-23.792-11.228-25.208c-21.938-49.256-62.392-138.073-77.754-170.708-6.085-12.925-18.483-39.25-27.553-58.5-15.39-32.665-16.377-35.109-14.809-36.632 1.56-1.515 57.919-43.817 64.717-48.575l3.036-2.125 58.324 116.666c63.714 127.45 71.259 142.198 71.847 140.434.33-1.005-2.294-46.291-6.735-116.268l-2.985-47C380.73 87.644 376 7.596 375.999 3.668L375.997 0l29.752.628ZM103.361 184.006 103.5 247l60.5.529V289.5h-59.706l-.487 9.25c-.268 5.087-.422 19.038-.342 31l.145 21.75H60.03L59.5 290 0 289.47V247.5h60l.057-8.25c.03-4.538.008-17.026-.052-27.753s.191-21.372.557-23.657l.664-4.155 42.135.321Z"/>
</svg>
