<svg xmlns="http://www.w3.org/2000/svg" width="560" height="480" viewBox="0 0 560 480">
<rect width="100%" height="100%" fill="none"/>
<path d="M 473 161 L 473 162 L 473 163 L 473 164 L 473 165 L 473 166 L 473 167 L 473 168 L 473 169 L 473 170 L 473 171 L 473 172 L 473 173 L 473 174 L 473 175 L 473 176 L 473 177 L 473 178 L 473 179 L 473 180 L 473 181 L 472 182 L 472 183 L 472 184 L 472 185 L 472 186 L 472 187 L 472 188 L 472 189 L 472 190 L 472 191 L 472 192 L 472 193 L 472 194 L 472 195 L 472 196 L 472 197 L 472 198 L 472 199 L 471 200 L 471 201 L 471 202 L 471 203 L 471 204 L 471 205 L 471 206 L 471 207 L 471 208 L 471 209 L 471 210 L 470 211 L 470 212 L 470 213 L 470 214 L 470 215 L 469 216 L 469 217 L 469 218 L 469 219 L 468 220 L 468 221 L 468 222 L 467 223 L 467 224 L 466 225 L 466 226 L 465 227 L 464 228 L 464 229 L 463 230 L 462 231 L 461 232 L 460 233 L 459 233 L 458 234 L 457 235 L 456 235 L 455 236 L 454 236 L 453 237 L 452 237 L 451 238 L 450 238 L 449 238 L 448 238 L 447 239 L 446 239 L 445 239 L 444 239 L 443 240 L 442 240 L 441 240 L 440 240 L 439 240 L 438 240 L 437 240 L 436 241 L 435 241 L 434 241 L 433 241 L 432 241 L 431 241 L 430 241 L 429 241 L 428 241 L 427 241 L 426 241 L 425 242 L 424 242 L 423 242 L 422 242 L 421 242 L 420 242 L 419 242 L 418 242 L 417 242 L 416 242 L 415 242 L 414 242 L 413 242 L 412 242 L 411 242 L 410 242 L 409 242 L 408 242 L 407 242 L 406 242 L 405 242 L 404 243 L 403 243 L 402 243 L 401 243 L 400 243 L 399 243 L 398 243 L 397 243 L 396 243 L 395 243 L 394 243 L 393 243 L 392 243 L 391 243 L 390 243 L 389 243 L 388 243 L 389 243 L 390 243 L 391 243 L 392 243 L 393 243 L 394 243 L 395 243 L 396 243 L 397 243 L 398 243 L 399 243 L 400 243 L 401 243 L 402 243 L 403 243 L 404 243 L 405 243 L 406 243 L 407 243 L 408 243 L 409 243 L 410 244 L 411 244 L 412 244 L 413 244 L 414 244 L 415 244 L 416 244 L 417 244 L 418 244 L 419 244 L 420 244 L 421 244 L 422 244 L 423 244 L 424 244 L 425 244 L 426 244 L 427 244 L 428 244 L 429 245 L 430 245 L 431 245 L 432 245 L 433 245 L 434 245 L 435 245 L 436 245 L 437 245 L 438 245 L 439 245 L 440 246 L 441 246 L 442 246 L 443 246 L 444 246 L 445 247 L 446 247 L 447 247 L 448 247 L 449 248 L 450 248 L 451 248 L 452 248 L 453 249 L 454 249 L 455 250 L 456 250 L 457 251 L 458 252 L 459 253 L 460 253 L 461 254 L 462 255 L 463 256 L 464 257 L 464 258 L 465 259 L 466 260 L 466 261 L 467 262 L 467 263 L 468 264 L 468 265 L 469 266 L 469 267 L 469 268 L 469 269 L 470 270 L 470 271 L 470 272 L 470 273 L 470 274 L 470 275 L 471 276 L 471 277 L 471 278 L 471 279 L 471 280 L 471 281 L 471 282 L 471 283 L 471 284 L 471 285 L 472 286 L 472 287 L 472 288 L 472 289 L 472 290 L 472 291 L 472 292 L 472 293 L 472 294 L 472 295 L 472 296 L 472 297 L 472 298 L 472 299 L 472 300 L 471 301 L 472 302 L 473 303 L 473 304 L 473 305 L 473 306 L 473 307 L 473 308 L 473 309 L 473 310 L 473 311 L 473 312 L 473 313 L 473 314 L 473 315 L 473 316 L 473 317 L 473 318 L 473 319 L 473 320 L 473 321 L 473 322 L 473 321 L 473 320 L 473 319 L 473 318 L 473 317 L 473 316 L 473 315 L 473 314 L 474 313 L 474 312 L 474 311 L 474 310 L 474 309 L 474 308 L 474 307 L 474 306 L 474 305 L 474 304 L 474 303 L 474 302 L 474 301 L 474 300 L 474 299 L 474 298 L 474 297 L 474 296 L 474 295 L 474 294 L 475 293 L 475 292 L 475 291 L 475 290 L 475 289 L 475 288 L 475 287 L 475 286 L 475 285 L 475 284 L 475 283 L 475 282 L 476 281 L 476 280 L 476 279 L 476 278 L 476 277 L 476 276 L 476 275 L 476 274 L 477 273 L 477 272 L 477 271 L 477 270 L 477 269 L 478 268 L 478 267 L 478 266 L 479 265 L 479 264 L 479 263 L 480 262 L 480 261 L 481 260 L 482 259 L 482 258 L 483 257 L 484 256 L 485 255 L 486 254 L 487 253 L 488 252 L 489 252 L 490 251 L 491 250 L 492 250 L 493 249 L 494 249 L 495 248 L 496 248 L 497 248 L 498 247 L 499 247 L 500 247 L 501 247 L 502 246 L 503 246 L 504 246 L 505 246 L 506 246 L 507 246 L 508 245 L 509 245 L 510 245 L 511 245 L 512 245 L 513 245 L 514 245 L 515 245 L 516 245 L 517 244 L 518 244 L 519 244 L 520 244 L 521 244 L 522 244 L 523 244 L 524 244 L 525 244 L 526 244 L 527 244 L 528 244 L 529 244 L 530 244 L 531 244 L 532 244 L 533 244 L 534 244 L 535 243 L 536 243 L 537 243 L 538 243 L 539 243 L 540 243 L 541 243 L 542 243 L 543 243 L 544 243 L 545 243 L 546 243 L 547 243 L 548 243 L 549 243 L 550 243 L 551 243 L 552 243 L 553 243 L 554 243 L 555 243 L 554 243 L 553 243 L 552 243 L 551 243 L 550 243 L 549 243 L 548 243 L 547 243 L 546 243 L 545 243 L 544 243 L 543 243 L 542 242 L 541 242 L 540 242 L 539 242 L 538 242 L 537 242 L 536 242 L 535 242 L 534 242 L 533 242 L 532 242 L 531 242 L 530 242 L 529 242 L 528 242 L 527 242 L 526 242 L 525 242 L 524 242 L 523 242 L 522 242 L 521 241 L 520 241 L 519 241 L 518 241 L 517 241 L 516 241 L 515 241 L 514 241 L 513 241 L 512 241 L 511 241 L 510 240 L 509 240 L 508 240 L 507 240 L 506 240 L 505 240 L 504 240 L 503 240 L 502 239 L 501 239 L 500 239 L 499 239 L 498 238 L 497 238 L 496 238 L 495 237 L 494 237 L 493 237 L 492 236 L 491 236 L 490 235 L 489 235 L 488 234 L 487 233 L 486 232 L 485 231 L 484 230 L 483 229 L 482 228 L 481 227 L 481 226 L 480 225 L 480 224 L 479 223 L 479 222 L 479 221 L 478 220 L 478 219 L 478 218 L 477 217 L 477 216 L 477 215 L 477 214 L 477 213 L 476 212 L 476 211 L 476 210 L 476 209 L 476 208 L 476 207 L 476 206 L 476 205 L 475 204 L 475 203 L 475 202 L 475 201 L 475 200 L 475 199 L 475 198 L 475 197 L 475 196 L 475 195 L 475 194 L 475 193 L 475 192 L 475 191 L 474 190 L 474 189 L 474 188 L 474 187 L 474 186 L 474 185 L 474 184 L 474 183 L 474 182 L 474 181 L 474 180 L 474 179 L 474 178 L 474 177 L 474 176 L 474 175 L 474 174 L 474 173 L 474 172 L 474 171 L 473 170 L 473 169 L 473 168 L 473 167 L 473 166 L 473 165 L 473 164 L 473 163 L 473 162 Z" fill="currentColor"/>
<path d="M 230 0 L 229 1 L 228 1 L 227 1 L 226 1 L 225 1 L 224 1 L 223 1 L 222 1 L 221 1 L 220 1 L 219 1 L 218 1 L 217 1 L 216 1 L 215 2 L 214 2 L 213 2 L 212 2 L 211 2 L 210 2 L 209 2 L 208 2 L 207 3 L 206 3 L 205 3 L 204 3 L 203 3 L 202 3 L 201 3 L 200 3 L 199 4 L 198 4 L 197 4 L 196 4 L 195 4 L 194 5 L 193 5 L 192 5 L 191 5 L 190 5 L 189 6 L 188 6 L 187 6 L 186 6 L 185 7 L 184 7 L 183 7 L 182 7 L 181 7 L 180 8 L 179 8 L 178 8 L 177 9 L 176 9 L 175 9 L 174 9 L 173 10 L 172 10 L 171 10 L 170 10 L 169 11 L 168 11 L 167 11 L 166 12 L 165 12 L 164 12 L 163 13 L 162 13 L 161 13 L 160 14 L 159 14 L 158 14 L 157 15 L 156 15 L 155 16 L 154 16 L 153 16 L 152 17 L 151 17 L 150 18 L 149 18 L 148 18 L 147 19 L 146 19 L 145 20 L 144 20 L 143 21 L 142 21 L 141 21 L 140 22 L 139 22 L 138 23 L 137 23 L 136 24 L 135 24 L 134 25 L 133 25 L 132 26 L 131 26 L 130 27 L 129 27 L 128 28 L 127 28 L 126 29 L 125 29 L 124 30 L 123 31 L 122 31 L 121 32 L 120 32 L 119 33 L 118 33 L 117 34 L 116 35 L 115 35 L 114 36 L 113 36 L 112 37 L 111 38 L 110 38 L 109 39 L 108 40 L 107 40 L 106 41 L 105 42 L 104 42 L 103 43 L 102 44 L 101 44 L 100 45 L 99 46 L 98 47 L 97 47 L 96 48 L 95 49 L 94 50 L 93 50 L 92 51 L 91 52 L 90 53 L 89 53 L 88 54 L 87 55 L 86 56 L 85 57 L 84 58 L 83 59 L 82 59 L 81 60 L 80 61 L 79 62 L 78 63 L 77 64 L 76 65 L 75 66 L 74 67 L 73 68 L 72 68 L 71 69 L 70 70 L 69 71 L 69 72 L 68 73 L 67 73 L 67 74 L 66 75 L 65 76 L 64 77 L 63 78 L 62 79 L 61 80 L 60 81 L 59 82 L 58 83 L 57 84 L 57 85 L 56 86 L 55 87 L 54 88 L 53 89 L 52 90 L 52 91 L 51 92 L 50 93 L 49 94 L 49 95 L 48 96 L 47 97 L 46 98 L 46 99 L 45 100 L 44 101 L 43 102 L 43 103 L 42 104 L 41 105 L 41 106 L 40 107 L 39 108 L 39 109 L 38 110 L 37 111 L 37 112 L 36 113 L 36 114 L 35 115 L 34 116 L 34 117 L 33 118 L 33 119 L 32 120 L 31 121 L 31 122 L 30 123 L 30 124 L 29 125 L 29 126 L 28 127 L 28 128 L 27 129 L 27 130 L 26 131 L 26 132 L 25 133 L 25 134 L 24 135 L 24 136 L 23 137 L 23 138 L 22 139 L 22 140 L 21 141 L 21 142 L 20 143 L 20 144 L 20 145 L 19 146 L 19 147 L 18 148 L 18 149 L 17 150 L 17 151 L 17 152 L 16 153 L 16 154 L 16 155 L 15 156 L 15 157 L 15 158 L 14 159 L 14 160 L 13 161 L 13 162 L 13 163 L 12 164 L 12 165 L 12 166 L 11 167 L 11 168 L 11 169 L 10 170 L 10 171 L 10 172 L 10 173 L 9 174 L 9 175 L 9 176 L 8 177 L 8 178 L 8 179 L 8 180 L 7 181 L 7 182 L 7 183 L 7 184 L 6 185 L 6 186 L 6 187 L 6 188 L 5 189 L 5 190 L 5 191 L 5 192 L 5 193 L 4 194 L 4 195 L 4 196 L 4 197 L 4 198 L 3 199 L 3 200 L 3 201 L 3 202 L 3 203 L 3 204 L 2 205 L 2 206 L 2 207 L 2 208 L 2 209 L 2 210 L 2 211 L 1 212 L 1 213 L 1 214 L 1 215 L 1 216 L 1 217 L 1 218 L 1 219 L 1 220 L 1 221 L 1 222 L 1 223 L 0 224 L 0 225 L 0 226 L 0 227 L 0 228 L 0 229 L 0 230 L 0 231 L 0 232 L 0 233 L 0 234 L 0 235 L 0 236 L 0 237 L 0 238 L 0 239 L 0 240 L 0 241 L 0 242 L 0 243 L 0 244 L 0 245 L 0 246 L 0 247 L 0 248 L 0 249 L 0 250 L 0 251 L 0 252 L 0 253 L 1 254 L 1 255 L 1 256 L 1 257 L 1 258 L 1 259 L 1 260 L 1 261 L 1 262 L 1 263 L 1 264 L 1 265 L 2 266 L 2 267 L 2 268 L 2 269 L 2 270 L 2 271 L 2 272 L 2 273 L 3 274 L 3 275 L 3 276 L 3 277 L 3 278 L 3 279 L 4 280 L 4 281 L 4 282 L 4 283 L 4 284 L 5 285 L 5 286 L 5 287 L 5 288 L 5 289 L 6 290 L 6 291 L 6 292 L 6 293 L 7 294 L 7 295 L 7 296 L 7 297 L 8 298 L 8 299 L 8 300 L 8 301 L 9 302 L 9 303 L 9 304 L 9 305 L 10 306 L 10 307 L 10 308 L 11 309 L 11 310 L 11 311 L 12 312 L 12 313 L 12 314 L 13 315 L 13 316 L 13 317 L 14 318 L 14 319 L 14 320 L 15 321 L 15 322 L 15 323 L 16 324 L 16 325 L 17 326 L 17 327 L 17 328 L 18 329 L 18 330 L 19 331 L 19 332 L 19 333 L 20 334 L 20 335 L 21 336 L 21 337 L 22 338 L 22 339 L 23 340 L 23 341 L 24 342 L 24 343 L 25 344 L 25 345 L 26 346 L 26 347 L 27 348 L 27 349 L 28 350 L 28 351 L 29 352 L 29 353 L 30 354 L 30 355 L 31 356 L 31 357 L 32 358 L 33 359 L 33 360 L 34 361 L 34 362 L 35 363 L 35 364 L 36 365 L 37 366 L 37 367 L 38 368 L 39 369 L 39 370 L 40 371 L 41 372 L 41 373 L 42 374 L 43 375 L 43 376 L 44 377 L 45 378 L 45 379 L 46 380 L 47 381 L 48 382 L 48 383 L 49 384 L 50 385 L 51 386 L 51 387 L 52 388 L 53 389 L 54 390 L 55 391 L 55 392 L 56 393 L 57 394 L 58 395 L 59 396 L 60 397 L 61 398 L 62 399 L 62 400 L 63 401 L 64 402 L 65 403 L 66 404 L 67 405 L 68 406 L 69 407 L 70 408 L 71 409 L 72 410 L 73 411 L 74 412 L 75 413 L 76 414 L 77 415 L 78 416 L 79 417 L 80 417 L 81 418 L 82 419 L 83 420 L 84 421 L 85 422 L 86 423 L 87 424 L 88 424 L 89 425 L 90 426 L 91 427 L 92 428 L 93 428 L 94 429 L 95 430 L 96 431 L 97 432 L 98 432 L 99 433 L 100 434 L 101 434 L 102 435 L 103 436 L 104 437 L 105 437 L 106 438 L 107 439 L 108 439 L 109 440 L 110 441 L 111 441 L 112 442 L 113 443 L 114 443 L 115 444 L 116 444 L 117 445 L 118 446 L 119 446 L 120 447 L 121 447 L 122 448 L 123 449 L 124 449 L 125 450 L 126 450 L 127 451 L 128 451 L 129 452 L 130 452 L 131 453 L 132 453 L 133 454 L 134 454 L 135 455 L 136 455 L 137 456 L 138 456 L 139 457 L 140 457 L 141 458 L 142 458 L 143 459 L 144 459 L 145 459 L 146 460 L 147 460 L 148 461 L 149 461 L 150 462 L 151 462 L 152 462 L 153 463 L 154 463 L 155 464 L 156 464 L 157 464 L 158 465 L 159 465 L 160 465 L 161 466 L 162 466 L 163 466 L 164 467 L 165 467 L 166 467 L 167 468 L 168 468 L 169 468 L 170 469 L 171 469 L 172 469 L 173 470 L 174 470 L 175 470 L 176 470 L 177 471 L 178 471 L 179 471 L 180 472 L 181 472 L 182 472 L 183 472 L 184 473 L 185 473 L 186 473 L 187 473 L 188 473 L 189 474 L 190 474 L 191 474 L 192 474 L 193 475 L 194 475 L 195 475 L 196 475 L 197 475 L 198 475 L 199 476 L 200 476 L 201 476 L 202 476 L 203 476 L 204 476 L 205 477 L 206 477 L 207 477 L 208 477 L 209 477 L 210 477 L 211 477 L 212 478 L 213 478 L 214 478 L 215 478 L 216 478 L 217 478 L 218 478 L 219 478 L 220 478 L 221 478 L 222 478 L 223 479 L 224 479 L 225 479 L 226 479 L 227 479 L 228 479 L 229 479 L 230 479 L 231 479 L 232 479 L 233 479 L 234 479 L 235 479 L 236 479 L 237 479 L 238 479 L 239 479 L 240 479 L 241 479 L 242 479 L 243 479 L 244 479 L 245 479 L 246 479 L 247 479 L 248 479 L 249 479 L 250 479 L 251 479 L 252 479 L 253 479 L 254 479 L 255 479 L 256 479 L 257 479 L 258 479 L 259 479 L 260 479 L 261 478 L 262 478 L 263 478 L 264 478 L 265 478 L 266 478 L 267 478 L 268 478 L 269 478 L 270 478 L 271 478 L 272 477 L 273 477 L 274 477 L 275 477 L 276 477 L 277 477 L 278 477 L 279 476 L 280 476 L 281 476 L 282 476 L 283 476 L 284 476 L 285 475 L 286 475 L 287 475 L 288 475 L 289 475 L 290 475 L 291 474 L 292 474 L 293 474 L 294 474 L 295 473 L 296 473 L 297 473 L 298 473 L 299 473 L 300 472 L 301 472 L 302 472 L 303 472 L 304 471 L 305 471 L 306 471 L 307 471 L 308 470 L 309 470 L 310 470 L 311 469 L 312 469 L 313 469 L 314 468 L 315 468 L 316 468 L 317 467 L 318 467 L 319 467 L 320 467 L 321 466 L 322 466 L 323 465 L 324 465 L 325 465 L 326 464 L 327 464 L 328 464 L 329 463 L 330 463 L 331 462 L 332 462 L 333 462 L 334 461 L 335 461 L 336 460 L 337 460 L 338 460 L 339 459 L 340 459 L 341 458 L 342 458 L 343 457 L 344 457 L 345 456 L 346 456 L 347 455 L 348 455 L 349 455 L 350 454 L 351 454 L 352 453 L 353 452 L 354 452 L 355 451 L 356 451 L 357 450 L 358 450 L 359 449 L 360 449 L 361 448 L 362 448 L 363 447 L 364 446 L 365 446 L 366 445 L 367 445 L 368 444 L 369 443 L 370 443 L 371 442 L 372 441 L 373 441 L 374 440 L 375 440 L 376 439 L 377 438 L 378 438 L 379 437 L 380 436 L 381 435 L 382 435 L 383 434 L 384 433 L 385 433 L 386 432 L 387 431 L 388 430 L 389 429 L 390 429 L 391 428 L 392 427 L 393 426 L 394 425 L 395 425 L 396 424 L 397 423 L 398 422 L 399 421 L 400 420 L 401 419 L 402 419 L 403 418 L 404 417 L 405 416 L 406 415 L 407 414 L 408 413 L 409 412 L 410 411 L 411 410 L 412 409 L 413 408 L 414 407 L 415 406 L 416 405 L 417 404 L 418 403 L 418 402 L 419 401 L 420 400 L 421 399 L 422 398 L 423 397 L 424 396 L 424 395 L 425 394 L 426 393 L 427 392 L 428 391 L 428 390 L 429 389 L 430 388 L 431 387 L 432 386 L 432 385 L 433 384 L 434 383 L 434 382 L 435 381 L 436 380 L 437 379 L 437 378 L 438 377 L 439 376 L 439 375 L 440 374 L 441 373 L 441 372 L 442 371 L 443 370 L 443 369 L 444 368 L 444 367 L 445 366 L 445 365 L 446 364 L 447 363 L 447 362 L 448 361 L 448 360 L 449 359 L 449 358 L 450 357 L 450 356 L 451 355 L 451 354 L 452 353 L 452 352 L 453 351 L 453 350 L 454 349 L 454 348 L 455 347 L 455 346 L 456 345 L 456 344 L 457 343 L 457 342 L 458 341 L 458 340 L 458 339 L 459 338 L 459 337 L 460 336 L 460 335 L 460 334 L 461 333 L 461 332 L 462 331 L 462 330 L 462 329 L 463 328 L 463 327 L 463 326 L 464 325 L 464 324 L 464 323 L 465 322 L 465 321 L 465 320 L 466 319 L 466 318 L 466 317 L 467 316 L 467 315 L 467 314 L 468 313 L 468 312 L 468 311 L 468 310 L 469 309 L 469 308 L 469 307 L 469 308 L 469 309 L 468 310 L 468 311 L 468 312 L 467 313 L 467 314 L 467 315 L 466 316 L 466 317 L 466 318 L 465 319 L 465 320 L 464 321 L 464 322 L 464 323 L 463 324 L 463 325 L 462 326 L 462 327 L 462 328 L 461 329 L 461 330 L 460 331 L 460 332 L 459 333 L 459 334 L 458 335 L 458 336 L 457 337 L 457 338 L 456 339 L 456 340 L 455 341 L 454 342 L 454 343 L 453 344 L 453 345 L 452 346 L 452 347 L 451 348 L 450 349 L 450 350 L 449 351 L 449 352 L 448 353 L 447 354 L 447 355 L 446 356 L 445 357 L 445 358 L 444 359 L 443 360 L 443 361 L 442 362 L 441 363 L 440 364 L 440 365 L 439 366 L 438 367 L 437 368 L 437 369 L 436 370 L 435 371 L 434 372 L 433 373 L 433 374 L 432 375 L 431 376 L 430 377 L 429 378 L 428 379 L 427 380 L 426 381 L 425 382 L 425 383 L 424 384 L 423 385 L 422 386 L 421 387 L 420 388 L 419 389 L 418 390 L 417 391 L 416 392 L 415 393 L 414 394 L 413 395 L 412 395 L 411 396 L 410 397 L 409 398 L 408 399 L 407 400 L 406 400 L 405 401 L 404 402 L 403 403 L 402 404 L 401 404 L 400 405 L 399 406 L 398 407 L 397 407 L 396 408 L 395 409 L 394 409 L 393 410 L 392 411 L 391 411 L 390 412 L 389 413 L 388 413 L 387 414 L 386 415 L 385 415 L 384 416 L 383 417 L 382 417 L 381 418 L 380 418 L 379 419 L 378 419 L 377 420 L 376 421 L 375 421 L 374 422 L 373 422 L 372 423 L 371 423 L 370 424 L 369 424 L 368 425 L 367 425 L 366 426 L 365 426 L 364 427 L 363 427 L 362 427 L 361 428 L 360 428 L 359 429 L 358 429 L 357 430 L 356 430 L 355 430 L 354 431 L 353 431 L 352 431 L 351 432 L 350 432 L 349 433 L 348 433 L 347 433 L 346 434 L 345 434 L 344 434 L 343 435 L 342 435 L 341 435 L 340 435 L 339 436 L 338 436 L 337 436 L 336 436 L 335 437 L 334 437 L 333 437 L 332 438 L 331 438 L 330 438 L 329 438 L 328 438 L 327 439 L 326 439 L 325 439 L 324 439 L 323 439 L 322 440 L 321 440 L 320 440 L 319 440 L 318 440 L 317 440 L 316 441 L 315 441 L 314 441 L 313 441 L 312 441 L 311 441 L 310 441 L 309 441 L 308 441 L 307 441 L 306 442 L 305 442 L 304 442 L 303 442 L 302 442 L 301 442 L 300 442 L 299 442 L 298 442 L 297 442 L 296 442 L 295 442 L 294 442 L 293 442 L 292 442 L 291 442 L 290 442 L 289 442 L 288 442 L 287 442 L 286 442 L 285 442 L 284 442 L 283 442 L 282 442 L 281 442 L 280 442 L 279 442 L 278 441 L 277 441 L 276 441 L 275 441 L 274 441 L 273 441 L 272 441 L 271 441 L 270 441 L 269 441 L 268 440 L 267 440 L 266 440 L 265 440 L 264 440 L 263 440 L 262 439 L 261 439 L 260 439 L 259 439 L 258 439 L 257 438 L 256 438 L 255 438 L 254 438 L 253 438 L 252 437 L 251 437 L 250 437 L 249 437 L 248 436 L 247 436 L 246 436 L 245 435 L 244 435 L 243 435 L 242 435 L 241 434 L 240 434 L 239 434 L 238 433 L 237 433 L 236 433 L 235 432 L 234 432 L 233 432 L 232 431 L 231 431 L 230 430 L 229 430 L 228 430 L 227 429 L 226 429 L 225 429 L 224 428 L 223 428 L 222 427 L 221 427 L 220 426 L 219 426 L 218 425 L 217 425 L 216 424 L 215 424 L 214 424 L 213 423 L 212 422 L 211 422 L 210 422 L 209 421 L 208 420 L 207 420 L 206 419 L 205 419 L 204 418 L 203 418 L 202 417 L 201 416 L 200 416 L 199 415 L 198 415 L 197 414 L 196 413 L 195 413 L 194 412 L 193 411 L 192 411 L 191 410 L 190 409 L 189 409 L 188 408 L 187 407 L 186 407 L 185 406 L 184 405 L 183 404 L 182 404 L 181 403 L 180 402 L 179 401 L 178 401 L 177 400 L 176 399 L 175 398 L 174 397 L 173 396 L 172 395 L 171 395 L 170 394 L 169 393 L 168 392 L 167 391 L 166 390 L 165 389 L 164 388 L 163 387 L 162 386 L 161 385 L 160 384 L 159 383 L 158 382 L 157 381 L 156 380 L 155 379 L 154 378 L 153 377 L 153 376 L 152 375 L 151 374 L 150 373 L 149 372 L 148 371 L 148 370 L 147 369 L 146 368 L 145 367 L 145 366 L 144 365 L 143 364 L 142 363 L 142 362 L 141 361 L 140 360 L 139 359 L 139 358 L 138 357 L 137 356 L 137 355 L 136 354 L 135 353 L 135 352 L 134 351 L 133 350 L 133 349 L 132 348 L 132 347 L 131 346 L 130 345 L 130 344 L 129 343 L 129 342 L 128 341 L 127 340 L 127 339 L 126 338 L 126 337 L 125 336 L 125 335 L 124 334 L 124 333 L 123 332 L 123 331 L 122 330 L 122 329 L 121 328 L 121 327 L 120 326 L 120 325 L 120 324 L 119 323 L 119 322 L 118 321 L 118 320 L 117 319 L 117 318 L 117 317 L 116 316 L 116 315 L 115 314 L 115 313 L 115 312 L 114 311 L 114 310 L 114 309 L 113 308 L 113 307 L 113 306 L 112 305 L 112 304 L 112 303 L 111 302 L 111 301 L 111 300 L 110 299 L 110 298 L 110 297 L 109 296 L 109 295 L 109 294 L 109 293 L 108 292 L 108 291 L 108 290 L 108 289 L 107 288 L 107 287 L 107 286 L 107 285 L 107 284 L 106 283 L 106 282 L 106 281 L 106 280 L 105 279 L 105 278 L 105 277 L 105 276 L 105 275 L 105 274 L 104 273 L 104 272 L 104 271 L 104 270 L 104 269 L 104 268 L 104 267 L 103 266 L 103 265 L 103 264 L 103 263 L 103 262 L 103 261 L 103 260 L 103 259 L 103 258 L 103 257 L 103 256 L 103 255 L 103 254 L 102 253 L 102 252 L 102 251 L 102 250 L 102 249 L 102 248 L 102 247 L 102 246 L 102 245 L 102 244 L 102 243 L 102 242 L 102 241 L 102 240 L 102 239 L 102 238 L 102 237 L 102 236 L 102 235 L 102 234 L 102 233 L 102 232 L 102 231 L 102 230 L 102 229 L 102 228 L 102 227 L 103 226 L 103 225 L 103 224 L 103 223 L 103 222 L 103 221 L 103 220 L 103 219 L 103 218 L 103 217 L 104 216 L 104 215 L 104 214 L 104 213 L 104 212 L 104 211 L 104 210 L 104 209 L 105 208 L 105 207 L 105 206 L 105 205 L 105 204 L 106 203 L 106 202 L 106 201 L 106 200 L 106 199 L 107 198 L 107 197 L 107 196 L 107 195 L 107 194 L 108 193 L 108 192 L 108 191 L 108 190 L 109 189 L 109 188 L 109 187 L 110 186 L 110 185 L 110 184 L 110 183 L 111 182 L 111 181 L 111 180 L 112 179 L 112 178 L 112 177 L 113 176 L 113 175 L 113 174 L 114 173 L 114 172 L 114 171 L 115 170 L 115 169 L 115 168 L 116 167 L 116 166 L 117 165 L 117 164 L 117 163 L 118 162 L 118 161 L 119 160 L 119 159 L 120 158 L 120 157 L 120 156 L 121 155 L 121 154 L 122 153 L 122 152 L 123 151 L 123 150 L 124 149 L 124 148 L 125 147 L 125 146 L 126 145 L 126 144 L 127 143 L 127 142 L 128 141 L 129 140 L 129 139 L 130 138 L 130 137 L 131 136 L 131 135 L 132 134 L 133 133 L 133 132 L 134 131 L 135 130 L 135 129 L 136 128 L 136 127 L 137 126 L 138 125 L 138 124 L 139 123 L 140 122 L 141 121 L 141 120 L 142 119 L 143 118 L 143 117 L 144 116 L 145 115 L 146 114 L 147 113 L 147 112 L 148 111 L 149 110 L 150 109 L 151 108 L 151 107 L 152 106 L 153 105 L 154 104 L 155 103 L 156 102 L 157 101 L 158 100 L 159 99 L 160 98 L 160 97 L 161 96 L 162 95 L 163 94 L 164 93 L 165 92 L 166 91 L 167 91 L 168 90 L 169 89 L 170 88 L 171 87 L 172 86 L 173 85 L 174 84 L 175 83 L 176 83 L 177 82 L 178 81 L 179 80 L 180 79 L 181 79 L 182 78 L 183 77 L 184 76 L 185 75 L 186 75 L 187 74 L 188 73 L 189 73 L 190 72 L 191 71 L 192 71 L 193 70 L 194 69 L 195 68 L 196 68 L 197 67 L 198 67 L 199 66 L 200 65 L 201 65 L 202 64 L 203 64 L 204 63 L 205 62 L 206 62 L 207 61 L 208 61 L 209 60 L 210 60 L 211 59 L 212 59 L 213 58 L 214 58 L 215 57 L 216 57 L 217 56 L 218 56 L 219 55 L 220 55 L 221 54 L 222 54 L 223 53 L 224 53 L 225 53 L 226 52 L 227 52 L 228 51 L 229 51 L 230 51 L 231 50 L 232 50 L 233 50 L 234 49 L 235 49 L 236 48 L 237 48 L 238 48 L 239 47 L 240 47 L 241 47 L 242 47 L 243 46 L 244 46 L 245 46 L 246 45 L 247 45 L 248 45 L 249 45 L 250 44 L 251 44 L 252 44 L 253 43 L 254 43 L 255 43 L 256 43 L 257 43 L 258 42 L 259 42 L 260 42 L 261 42 L 262 42 L 263 41 L 264 41 L 265 41 L 266 41 L 267 41 L 268 41 L 269 41 L 270 40 L 271 40 L 272 40 L 273 40 L 274 40 L 275 40 L 276 40 L 277 40 L 278 40 L 279 39 L 280 39 L 281 39 L 282 39 L 283 39 L 284 39 L 285 39 L 286 39 L 287 39 L 288 39 L 289 39 L 290 39 L 291 39 L 292 39 L 293 39 L 294 39 L 295 39 L 296 39 L 297 39 L 298 39 L 299 39 L 300 39 L 301 39 L 302 39 L 303 39 L 304 39 L 305 39 L 306 39 L 307 40 L 308 40 L 309 40 L 310 40 L 311 40 L 312 40 L 313 40 L 314 40 L 315 40 L 316 41 L 317 41 L 318 41 L 319 41 L 320 41 L 321 41 L 322 42 L 323 42 L 324 42 L 325 42 L 326 42 L 327 43 L 328 43 L 329 43 L 330 43 L 331 43 L 332 44 L 333 44 L 334 44 L 335 44 L 336 45 L 337 45 L 338 45 L 339 45 L 340 46 L 341 46 L 342 46 L 343 47 L 344 47 L 345 47 L 346 48 L 347 48 L 348 48 L 349 49 L 350 49 L 351 49 L 352 50 L 353 50 L 354 51 L 355 51 L 356 51 L 357 52 L 358 52 L 359 53 L 360 53 L 361 54 L 362 54 L 363 54 L 364 55 L 365 55 L 366 56 L 367 56 L 368 57 L 369 57 L 370 58 L 371 58 L 372 59 L 373 59 L 374 60 L 375 60 L 376 61 L 377 61 L 378 62 L 379 63 L 380 63 L 381 64 L 382 64 L 383 65 L 384 66 L 385 66 L 386 67 L 387 67 L 388 68 L 389 69 L 390 69 L 391 70 L 392 71 L 393 72 L 394 72 L 395 73 L 396 74 L 397 74 L 398 75 L 399 76 L 400 77 L 401 77 L 402 78 L 403 79 L 404 80 L 405 81 L 406 81 L 407 82 L 408 83 L 409 84 L 410 85 L 411 86 L 412 87 L 413 88 L 414 89 L 415 90 L 416 90 L 417 91 L 418 92 L 419 93 L 420 94 L 421 95 L 422 96 L 422 97 L 423 98 L 424 99 L 425 100 L 426 101 L 427 102 L 428 103 L 429 104 L 430 105 L 431 106 L 431 107 L 432 108 L 433 109 L 434 110 L 435 111 L 435 112 L 436 113 L 437 114 L 438 115 L 438 116 L 439 117 L 440 118 L 441 119 L 441 120 L 442 121 L 443 122 L 443 123 L 444 124 L 445 125 L 445 126 L 446 127 L 447 128 L 447 129 L 448 130 L 449 131 L 449 132 L 450 133 L 450 134 L 451 135 L 452 136 L 452 137 L 453 138 L 453 139 L 454 140 L 454 141 L 455 142 L 455 143 L 456 144 L 456 145 L 457 146 L 457 147 L 458 148 L 458 149 L 459 150 L 459 151 L 460 152 L 460 153 L 461 154 L 461 155 L 461 156 L 462 157 L 462 158 L 463 159 L 463 160 L 463 161 L 464 162 L 464 163 L 465 164 L 465 165 L 465 166 L 466 167 L 466 168 L 466 169 L 467 170 L 467 171 L 467 172 L 467 171 L 467 170 L 466 169 L 466 168 L 466 167 L 465 166 L 465 165 L 465 164 L 464 163 L 464 162 L 464 161 L 463 160 L 463 159 L 463 158 L 462 157 L 462 156 L 462 155 L 461 154 L 461 153 L 460 152 L 460 151 L 460 150 L 459 149 L 459 148 L 458 147 L 458 146 L 458 145 L 457 144 L 457 143 L 456 142 L 456 141 L 455 140 L 455 139 L 454 138 L 454 137 L 453 136 L 453 135 L 452 134 L 452 133 L 451 132 L 451 131 L 451 130 L 450 129 L 450 128 L 449 127 L 449 126 L 448 125 L 447 124 L 447 123 L 446 122 L 446 121 L 445 120 L 445 119 L 444 118 L 444 117 L 443 116 L 442 115 L 442 114 L 441 113 L 441 112 L 440 111 L 439 110 L 439 109 L 438 108 L 437 107 L 437 106 L 436 105 L 435 104 L 435 103 L 434 102 L 433 101 L 433 100 L 432 99 L 431 98 L 430 97 L 430 96 L 429 95 L 428 94 L 427 93 L 427 92 L 426 91 L 425 90 L 424 89 L 424 88 L 423 87 L 422 86 L 421 85 L 420 84 L 419 83 L 418 82 L 418 81 L 417 80 L 416 79 L 415 78 L 414 77 L 413 76 L 412 75 L 411 74 L 410 73 L 409 72 L 408 71 L 407 70 L 406 69 L 405 68 L 404 67 L 403 66 L 402 65 L 401 64 L 400 63 L 399 62 L 398 61 L 397 60 L 396 59 L 395 59 L 394 58 L 393 57 L 392 56 L 391 55 L 390 54 L 389 54 L 388 53 L 387 52 L 386 51 L 385 50 L 384 50 L 383 49 L 382 48 L 381 47 L 380 47 L 379 46 L 378 45 L 377 44 L 376 44 L 375 43 L 374 42 L 373 42 L 372 41 L 371 41 L 370 40 L 369 39 L 368 38 L 367 38 L 366 37 L 365 37 L 364 36 L 363 35 L 362 35 L 361 34 L 360 33 L 359 33 L 358 32 L 357 32 L 356 31 L 355 31 L 354 30 L 353 29 L 352 29 L 351 28 L 350 28 L 349 27 L 348 27 L 347 26 L 346 26 L 345 25 L 344 25 L 343 24 L 342 24 L 341 23 L 340 23 L 339 22 L 338 22 L 337 21 L 336 21 L 335 20 L 334 20 L 333 20 L 332 19 L 331 19 L 330 18 L 329 18 L 328 17 L 327 17 L 326 17 L 325 16 L 324 16 L 323 15 L 322 15 L 321 15 L 320 14 L 319 14 L 318 14 L 317 13 L 316 13 L 315 13 L 314 12 L 313 12 L 312 11 L 311 11 L 310 11 L 309 11 L 308 10 L 307 10 L 306 10 L 305 9 L 304 9 L 303 9 L 302 9 L 301 8 L 300 8 L 299 8 L 298 7 L 297 7 L 296 7 L 295 7 L 294 6 L 293 6 L 292 6 L 291 6 L 290 6 L 289 5 L 288 5 L 287 5 L 286 5 L 285 5 L 284 4 L 283 4 L 282 4 L 281 4 L 280 4 L 279 3 L 278 3 L 277 3 L 276 3 L 275 3 L 274 3 L 273 3 L 272 2 L 271 2 L 270 2 L 269 2 L 268 2 L 267 2 L 266 2 L 265 2 L 264 1 L 263 1 L 262 1 L 261 1 L 260 1 L 259 1 L 258 1 L 257 1 L 256 1 L 255 1 L 254 1 L 253 1 L 252 1 L 251 1 L 250 1 L 249 0 L 248 0 L 247 0 L 246 0 L 245 0 L 244 0 L 243 0 L 242 0 L 241 0 L 240 0 L 239 0 L 238 0 L 237 0 L 236 0 L 235 0 L 234 0 L 233 0 L 232 0 L 231 0 Z" fill="currentColor"/>
</svg>
