<svg xmlns="http://www.w3.org/2000/svg" viewBox="0 0 512 512">
  <defs>
    <linearGradient id="bg" x1="0" y1="0" x2="1" y2="1">
      <stop offset="0%" stop-color="#18181b"/>
      <stop offset="100%" stop-color="#09090b"/>
    </linearGradient>
    <linearGradient id="lime" x1="0" y1="0" x2="0" y2="1">
      <stop offset="0%" stop-color="#d4ff52"/>
      <stop offset="55%" stop-color="#c8f542"/>
      <stop offset="100%" stop-color="#92c020"/>
    </linearGradient>
    <linearGradient id="page" x1="0" y1="0" x2="0" y2="1">
      <stop offset="0%" stop-color="#1c1c21"/>
      <stop offset="100%" stop-color="#131316"/>
    </linearGradient>
    <filter id="glow">
      <feGaussianBlur stdDeviation="10" result="b"/>
      <feMerge><feMergeNode in="b"/><feMergeNode in="SourceGraphic"/></feMerge>
    </filter>
  </defs>
  <rect width="512" height="512" rx="96" fill="url(#bg)"/>
  <rect x="8" y="8" width="496" height="496" rx="92" fill="none" stroke="rgba(200,245,66,.2)" stroke-width="2"/>
  <g filter="url(#glow)" opacity=".55">
    <polygon points="272,96 176,240 232,240 208,400 344,216 272,216 296,96" fill="url(#lime)"/>
  </g>
  <g transform="translate(256 276)">
    <path d="M -144 -96 Q -144 -112 -128 -112 L -16 -112 Q 0 -112 0 -96 L 0 96 Q 0 104 -16 104 L -128 104 Q -144 104 -144 96 Z" fill="url(#page)" stroke="#c8f542" stroke-width="6" stroke-linejoin="round"/>
    <path d="M 144 -96 Q 144 -112 128 -112 L 16 -112 Q 0 -112 0 -96 L 0 96 Q 0 104 16 104 L 128 104 Q 144 104 144 96 Z" fill="url(#page)" stroke="#c8f542" stroke-width="6" stroke-linejoin="round"/>
    <line x1="0" y1="-112" x2="0" y2="104" stroke="#c8f542" stroke-width="6"/>
    <line x1="-112" y1="-64" x2="-32" y2="-64" stroke="#c8f542" stroke-width="4" opacity=".7"/>
    <line x1="-112" y1="-32" x2="-32" y2="-32" stroke="#c8f542" stroke-width="4" opacity=".5"/>
    <line x1="-112" y1="0" x2="-56" y2="0" stroke="#c8f542" stroke-width="4" opacity=".4"/>
    <line x1="32" y1="-64" x2="112" y2="-64" stroke="#c8f542" stroke-width="4" opacity=".7"/>
    <line x1="32" y1="-32" x2="112" y2="-32" stroke="#c8f542" stroke-width="4" opacity=".5"/>
    <line x1="32" y1="0" x2="88" y2="0" stroke="#c8f542" stroke-width="4" opacity=".4"/>
  </g>
</svg>
