<svg xmlns="http://www.w3.org/2000/svg" viewBox="0 0 4096 4096"><rect width="4096" height="4096" rx="768" fill="#0c0c0e"/><g fill="#dc2626" transform="translate(2048 2048) scale(0.82) translate(-2048 -2048)"><path fill-rule="evenodd" d="M 1954 3655.5 L 1942.5 3645 L 1928.5 3582 L 1913.5 3539 L 1911.5 3517 L 1894.5 3467 L 1892.5 3448 L 1884.5 3433 L 1783.5 3055 L 1771 3027.5 L 1738.5 3013 L 1738.5 2999 L 1745.5 2993 L 1757.5 2963 L 1783.5 2919 L 1793.5 2860 L 1785 2859.5 L 1768 2871.5 L 1728 2905.5 L 1655 2955.5 L 1637 2974.5 L 1625 2979.5 L 1609 2977.5 L 1542 2946.5 L 1439 2883.5 L 1425 2885.5 L 1024 3145.5 L 1009 3152.5 L 1001 3150.5 L 999.5 3137 L 1050.5 3010 L 1071.5 2945 L 1100.5 2880 L 1110.5 2845 L 1120.5 2829 L 1175.5 2675 L 1177.5 2656 L 1153.5 2618 L 1151.5 2602 L 1156.5 2582 L 1153 2575.5 L 1136 2575.5 L 825 2619.5 L 807.5 2616 L 807.5 2602 L 841 2579.5 L 897 2529.5 L 999 2450.5 L 1083.5 2373 L 1083.5 2367 L 1062.5 2349 L 1045.5 2317 L 1040.5 2303 L 1043.5 2267 L 1038.5 2257 L 809 2183.5 L 458 2085.5 L 420.5 2070 L 420.5 2061 L 429 2055.5 L 527 2029.5 L 607 2002.5 L 626 2000.5 L 698 1973.5 L 910 1911.5 L 946 1896.5 L 999 1882.5 L 1035 1868.5 L 1043.5 1860 L 1043.5 1816 L 1062.5 1765 L 1079.5 1737 L 1076.5 1725 L 999 1654.5 L 800.5 1495 L 803 1483.5 L 826 1483.5 L 1032 1516.5 L 1061 1516.5 L 1124 1526.5 L 1151 1526.5 L 1153.5 1523 L 1153.5 1487 L 1170.5 1451 L 1168.5 1422 L 1071.5 1179 L 1007.5 999 L 999.5 987 L 994.5 972 L 999 958.5 L 1018 963.5 L 1289 1136.5 L 1427 1216.5 L 1439 1213.5 L 1487 1177.5 L 1583 1132.5 L 1602 1105.5 L 1612 1105.5 L 1684 1163.5 L 1761 1216.5 L 1785 1230.5 L 1793.5 1228 L 1774.5 1162 L 1747.5 1105 L 1745.5 1080 L 1774.5 1054 L 1786.5 1018 L 1805.5 938 L 1834.5 845 L 1836.5 825 L 1853.5 778 L 1855.5 756 L 1863.5 741 L 1884.5 650 L 1892.5 635 L 1894.5 616 L 1911.5 566 L 1932.5 472 L 1940.5 447 L 1948 439.5 L 1955.5 443 L 1964.5 462 L 1993.5 585 L 2027.5 695 L 2089.5 929 L 2097.5 944 L 2125.5 1047 L 2134 1059.5 L 2204 1069.5 L 2259 1086.5 L 2278 1086.5 L 2332 1052.5 L 2348 1035.5 L 2363 1033.5 L 2371.5 1042 L 2385.5 1110 L 2396 1127.5 L 2488 1165.5 L 2514 1180.5 L 2531 1182.5 L 2558 1170.5 L 2983 910.5 L 3007 898.5 L 3015.5 899 L 3013.5 918 L 2859.5 1181 L 2780.5 1331 L 2760.5 1360 L 2720.5 1444 L 2706 1462.5 L 2689 1457.5 L 2620 1394.5 L 2548 1341.5 L 2435 1281.5 L 2365 1252.5 L 2298 1233.5 L 2175 1211.5 L 2031 1211.5 L 1925 1228.5 L 1836 1252.5 L 1758 1284.5 L 1648 1346.5 L 1561 1414.5 L 1500.5 1475 L 1426.5 1568 L 1375.5 1653 L 1334.5 1740 L 1296.5 1862 L 1276.5 1997 L 1279.5 2118 L 1284.5 2134 L 1286.5 2178 L 1305.5 2261 L 1356.5 2404 L 1423.5 2519 L 1493.5 2611 L 1593 2705.5 L 1662 2755.5 L 1709 2782.5 L 1787 2822.5 L 1841 2842.5 L 1973 2873.5 L 2115 2883.5 L 2216 2873.5 L 2314 2854.5 L 2382 2832.5 L 2469 2796.5 L 2526 2765.5 L 2596 2717.5 L 2697 2625.5 L 2712 2623.5 L 2720.5 2632 L 2796.5 2781 L 2806.5 2792 L 2890.5 2945 L 3013.5 3153 L 3015.5 3162 L 3002 3167.5 L 2832 3066.5 L 2534 2900.5 L 2521 2900.5 L 2479 2926.5 L 2401 2960.5 L 2388.5 2980 L 2373.5 3044 L 2368 3051.5 L 2348 3047.5 L 2281 3001.5 L 2264 3001.5 L 2187 3025.5 L 2148 3030.5 L 2128.5 3053 L 2113.5 3084 L 2085.5 3195 L 2060.5 3272 L 2027.5 3409 L 2000.5 3493 L 1974.5 3614 L 1962.5 3650 Z"/><path d="M 2953 2582.5 L 2940.5 2567 L 2919.5 2445 L 2878.5 2300 L 2851.5 2249 L 2822.5 2208 L 2774 2159.5 L 2697 2106.5 L 2591 2065.5 L 2533 2053.5 L 2500.5 2041 L 2507 2033.5 L 2627 2002.5 L 2706 1969.5 L 2776 1923.5 L 2822.5 1877 L 2856.5 1831 L 2883.5 1778 L 2919.5 1646 L 2938.5 1530 L 2945.5 1511 L 2951 1507.5 L 2958.5 1514 L 2963.5 1531 L 2962.5 1544 L 2984.5 1660 L 3015.5 1759 L 3056.5 1829 L 3113 1882.5 L 3159 1911.5 L 3216 1930.5 L 3361 1964.5 L 3375 1971.5 L 3402 1973.5 L 3419 1981.5 L 3448 1983.5 L 3568 2012.5 L 3643 2024.5 L 3674.5 2037 L 3666 2044.5 L 3640 2051.5 L 3296 2125.5 L 3168 2164.5 L 3120 2190.5 L 3054.5 2256 L 3020.5 2319 L 2986.5 2423 L 2962.5 2563 Z"/></g></svg>