<svg xmlns="http://www.w3.org/2000/svg" width="80" height="256" fill="none" viewBox="0 0 80 256">
<g transform="translate(0 256) rotate(-90)">
  <path fill="#fff" d="M63.645 36.843a25.337 25.337 0 0 0 4.117-.466 4.226 4.226 0 0 0 3.383-4.117v-1.508l-2.381-3.72-2.42.585a.853.853 0 0 0-.665.734 9.604 9.604 0 0 1-2.123 5.12l.089 3.372Zm5.476 7.411v-7.302a4.65 4.65 0 0 1-1.101.387c-1.433.283-2.886.45-4.345.496l.208 8.085 2.172-1.845 3.066.179Zm-6.548-10.595-6.16.466.307 12.857 6.19-.278-.337-13.045Zm32.292 9.028a1.547 1.547 0 1 0-3.085 0 1.547 1.547 0 0 0 1.478 1.537 1.55 1.55 0 0 0 1.481-.934c.082-.19.125-.396.126-.603ZM71.82 34.026a5.308 5.308 0 0 1-1.707 2.321v7.937l3.532.208 2.52-6.627-4.346-3.84Zm71.636-2.212h-1.875v.813h1.875v-.814Zm67.282-5.1h4.673v-6.527l-1.459-1.469h-4.087l-1.805 1.806v3.512l2.678 2.678Z"/>
  <path fill="#A1A1A1" d="M78.655 32.627h49.256l5.039-2.996v-2.093H78.357l-2.37 1.27 2.668 3.819Zm76.349-5.407v6.945h47.024V27.22h-47.024Zm5.198 2.976a.296.296 0 0 1-.357 0l-1.637-1.527a.212.212 0 0 1-.073-.16.203.203 0 0 1 .073-.158.243.243 0 0 1 .174-.075.235.235 0 0 1 .173.075l1.647 1.518a.239.239 0 0 1 0 .317v.01Zm.457 3.086a.235.235 0 0 1-.226-.138.22.22 0 0 1-.022-.09V30.9a.25.25 0 0 1 .072-.176.25.25 0 0 1 .351 0c.047.047.073.11.073.176v2.153a.24.24 0 0 1-.248.198v.03Zm2.42-4.613-1.647 1.527a.274.274 0 0 1-.178.06.27.27 0 0 1-.169-.06.21.21 0 0 1-.054-.074.215.215 0 0 1 .054-.253l1.637-1.518a.258.258 0 0 1 .357 0 .19.19 0 0 1 .05.07.203.203 0 0 1 0 .168.192.192 0 0 1-.05.07v.01Zm4.068 2.976-1.647 1.607a.24.24 0 0 1-.179.07.226.226 0 0 1-.168-.07.213.213 0 0 1-.074-.164.214.214 0 0 1 .074-.163l1.637-1.518a.266.266 0 0 1 .357 0 .238.238 0 0 1 0 .277v-.04Zm.416-.804a.233.233 0 0 1-.171-.062.237.237 0 0 1-.077-.166V28.46a.25.25 0 0 1 .248-.248.25.25 0 0 1 .176.073.25.25 0 0 1 .072.175v2.153a.238.238 0 0 1-.248.268v-.04Zm2.461 2.322a.242.242 0 0 1-.179.07.257.257 0 0 1-.198.019l-1.637-1.518a.227.227 0 0 1-.055-.074.23.23 0 0 1-.019-.09.23.23 0 0 1 .019-.09.256.256 0 0 1 .402-.074l1.647 1.519a.218.218 0 0 1 .02.327v-.09Zm4.067-2.976a.296.296 0 0 1-.357 0l-1.637-1.528a.212.212 0 0 1-.073-.159.204.204 0 0 1 .073-.159.233.233 0 0 1 .174-.075.238.238 0 0 1 .173.075l1.647 1.518a.237.237 0 0 1 0 .327Zm.457 3.085a.235.235 0 0 1-.172-.063.235.235 0 0 1-.076-.166v-2.152a.25.25 0 0 1 .072-.175.25.25 0 0 1 .351 0 .25.25 0 0 1 .073.175v2.153a.242.242 0 0 1-.084.153.236.236 0 0 1-.164.055v.02Zm2.42-4.613-1.647 1.527a.276.276 0 0 1-.178.06.268.268 0 0 1-.169-.06.21.21 0 0 1-.054-.073.215.215 0 0 1 .054-.254l1.637-1.518a.258.258 0 0 1 .357 0 .2.2 0 0 1 .054.072.205.205 0 0 1-.054.246Zm4.068 2.976-1.647 1.617a.241.241 0 0 1-.179.07.226.226 0 0 1-.168-.07.213.213 0 0 1-.074-.164.214.214 0 0 1 .074-.163l1.636-1.518a.27.27 0 0 1 .358 0 .238.238 0 0 1 0 .277v-.05Zm.416-.804a.24.24 0 0 1-.171-.062.236.236 0 0 1-.077-.166V28.45a.248.248 0 1 1 .496 0v2.153a.237.237 0 0 1-.057.199.24.24 0 0 1-.191.079v-.05Zm2.461 2.322a.24.24 0 0 1-.179.07.254.254 0 0 1-.198.029l-1.637-1.518a.214.214 0 0 1-.074-.164.214.214 0 0 1 .074-.163.256.256 0 0 1 .347 0l1.647 1.518a.231.231 0 0 1 .059.07.217.217 0 0 1-.039.257v-.1Zm4.067-2.976a.296.296 0 0 1-.357 0l-1.637-1.528a.213.213 0 0 1-.073-.159.203.203 0 0 1 .073-.159.234.234 0 0 1 .174-.075.236.236 0 0 1 .173.075l1.647 1.518a.242.242 0 0 1 .07.169.238.238 0 0 1-.07.168v-.01Zm.456 3.085a.234.234 0 0 1-.226-.138.256.256 0 0 1-.022-.09V30.88a.25.25 0 0 1 .248-.248.25.25 0 0 1 .176.073.25.25 0 0 1 .072.175v2.153a.237.237 0 0 1-.248.218v.01Zm2.421-4.613-1.647 1.528a.278.278 0 0 1-.178.06.268.268 0 0 1-.169-.06.227.227 0 0 1-.055-.074.23.23 0 0 1-.019-.09.23.23 0 0 1 .019-.09.227.227 0 0 1 .055-.074l1.637-1.518a.258.258 0 0 1 .357 0 .21.21 0 0 1 .08.164.21.21 0 0 1-.08.164v-.01Zm4.068 2.976-1.647 1.627a.24.24 0 0 1-.179.07.226.226 0 0 1-.169-.07.224.224 0 0 1-.073-.164.214.214 0 0 1 .073-.163l1.637-1.518a.269.269 0 0 1 .358 0 .238.238 0 0 1 0 .277v-.059Zm.416-.804a.24.24 0 0 1-.171-.062.236.236 0 0 1-.077-.166v-2.152c0-.066.026-.13.073-.176a.25.25 0 0 1 .351 0 .25.25 0 0 1 .072.175v2.153a.236.236 0 0 1-.14.27.239.239 0 0 1-.108.018v-.06Zm2.461 2.322a.24.24 0 0 1-.179.07.26.26 0 0 1-.198.039l-1.637-1.518a.213.213 0 0 1-.074-.164.214.214 0 0 1 .074-.163.256.256 0 0 1 .347 0l1.647 1.518a.231.231 0 0 1 .059.07.217.217 0 0 1-.039.257v-.11Z"/>
  <path fill="#fff" d="M77.127 38.212 75.5 42.478h15.308a2.53 2.53 0 1 1 2.976 2.738v.546h12.738l.674-.625a2.982 2.982 0 0 1-2.142-1.75 2.972 2.972 0 0 1 .223-2.758 2.982 2.982 0 0 1 2.397-1.382 2.98 2.98 0 0 1 2.499 1.188l3.64-2.401-36.686.178Zm66.329-9.087h-1.875v.853h1.875v-.853Zm-2.867 3.502v-5.09h-6.646v2.66l-4.088 2.43h10.734Zm2.867-2.153h-1.875v.853h1.875v-.853Zm0-2.936h-1.875v1.09h1.875v-1.09Zm14.693 13.055a.685.685 0 0 0 0-1.36.685.685 0 0 0 0 1.36Z"/>
  <path fill="#fff" d="M107.782 40.196a1.987 1.987 0 0 0-1.833 1.225c-.151.363-.19.762-.113 1.147a1.981 1.981 0 0 0 3.595.715 1.985 1.985 0 0 0-1.649-3.087Zm55.823.397a.685.685 0 1 0 .02-1.37.685.685 0 0 0-.02 1.37Z"/>
  <path fill="#A1A1A1" d="M155.302 44.84v17.856h6.408a.89.89 0 0 0 .675-.317l3.214-3.909V44.85h-10.297v-.01Z"/>
  <path fill="#fff" d="M168.486 38.093h-1.766v1.667h1.766v-1.667Z"/>
  <path fill="#fff" d="M231.76 30.98h-14.177v3.82h-9.603v-5.615h-5.456v5.982h-58.076v4.623h10.179V37.1h60.476v-1.657h16.657V30.98Zm-70.03 11.379h-2.559v1.984h2.559v-1.984Z"/>
  <path fill="#A1A1A1" d="M155.867 41.863h9.603a.257.257 0 0 0 .258-.248v-3.522h-10.109v3.522a.247.247 0 0 0 .248.248Zm7.738-3.125a1.183 1.183 0 0 1 1.098.722 1.175 1.175 0 0 1-.25 1.29 1.178 1.178 0 0 1-1.819-.174 1.181 1.181 0 0 1 .971-1.838Zm-5.456 0a1.177 1.177 0 0 1 1.098.722 1.183 1.183 0 0 1-.854 1.616 1.184 1.184 0 0 1-1.215-.5 1.182 1.182 0 0 1-.113-1.108 1.164 1.164 0 0 1 .634-.64c.142-.06.295-.09.45-.09Z"/>
  <path fill="#fff" d="M175.599 38.093h-1.875v1.667h1.875v-1.667Zm-2.371 0h-1.875v1.667h1.875v-1.667Zm-14.573 4.266h-1.885v1.984h1.885v-1.984Zm19.325-4.266h-1.875v1.667h1.875v-1.667Zm-13.75 4.266h-1.984v1.984h1.984v-1.984Zm6.627-4.266h-1.875v1.667h1.875v-1.667Zm-27.411-4.474H78.139l-3.036-4.335-2.976 1.607v1.369a5.312 5.312 0 0 1-.06.694l4.792 4.266 38.482-.188h28.105v-3.413ZM11.67 62.518l-3.52-18.69 1.885-1.985-.685-3.908a7.13 7.13 0 0 0-6.35.724l.308 5.109.099.238 1.736 1.925a.744.744 0 0 1 .178.307c.725 2.312 2.47 13.988 3.235 17.699.29 1.595.749 3.154 1.369 4.652a7.708 7.708 0 0 0 5.396-1.537 12.94 12.94 0 0 0-.069-2.768l-3.581-1.766Zm60.15-32.589 5.793-3.115-1.696-4.316-3.086-1.538-3.234 1.538v3.968l2.222 3.463Z"/>
  <path fill="#A1A1A1" d="m10.857 41.347 44.663-3.115-.1-4.028-2.32.169v1.22l-42.8 2.58.556 3.174Z"/>
  <path fill="#fff" d="M98.476 16.943h1.3V8.282a1.498 1.498 0 0 0-1.3-.268v8.929Z"/>
  <path fill="#A1A1A1" d="M128.635 42.974v28.572l4.286-.883a.416.416 0 0 0 .337-.407V46.992l-4.623-4.018Z"/>
  <path fill="#fff" d="M97.98 8.183a5.27 5.27 0 0 0-1.567 1.26v7.55h1.567v-8.81Zm112.55 24.573a.686.686 0 1 0-.262-1.317.684.684 0 0 0 .262 1.317Z"/>
  <path fill="#A1A1A1" d="M115.897 49.561h1.528v4.594h-1.528v5.327h1.528v4.593h-1.528v4.336h1.528v4.593h-1.528v1.16l11.746-2.42V42.379h-11.746v7.182Z"/>
  <path fill="#fff" d="M116.929 68.907h-1.032v3.591h1.032v-3.591Zm0-8.929h-1.032v3.591h1.032v-3.591Zm0-9.92h-1.032v3.59h1.032v-3.59ZM70.083 59.84l-2.291 1.983a1.101 1.101 0 0 0 .109 1.766l11.567 7.58a.883.883 0 0 0 1.111-.12l.883-.882V68.39l-11.379-8.552Zm22.719-13.374v-1.31a2.54 2.54 0 0 1-1.489-.922 2.389 2.389 0 0 1-.416-.803H75.123l-.437 1.15 4.127.239 1.876 2.648v3.393l-9.832 8.324L81.77 67.31l9.603-12.59h1.478l-.05-8.254Zm.992-.139v6.111a2.153 2.153 0 0 0 .635 1.528c.385.387.902.614 1.448.635 2.322.07 4.792.06 6.2 0a2.905 2.905 0 0 0 2.342-1.12c1.726-2.362.873-6.132.109-7.193l-10.734.04Zm9.385 6.766a2.554 2.554 0 0 1-1.092.576 29.523 29.523 0 0 1-6.23-.11 1.984 1.984 0 0 1-1.29-2.063v-2.5h.923c0 2.52 1.389 3.303 1.756 3.512.367.208 1.736.476 1.984.129.11-.199-1.785-.536-1.607-2.867a2.847 2.847 0 0 1 1.835-2.391c3.086-.774 4.375.397 4.643.873.358.785.489 1.654.377 2.51a3.327 3.327 0 0 1-1.299 2.331Z"/>
  <path fill="#A1A1A1" d="M114.895 43.62c-.556.882-.992 1.557-1.369 2.063l.307 28.908 1.062-.218V43.62Z"/>
  <path fill="#fff" d="M162.206 63.649h-6.944v1.081a.464.464 0 0 0 .466.467h9.385a.477.477 0 0 0 .476-.477v-4.89l-2.728 3.482a.896.896 0 0 1-.655.337Zm90.278-33.641h-19.732v6.22h19.732s1.161-2.133 0-6.22Zm-74.018 8.085v1.667h1.34l12.49 3.552h6.25a1.14 1.14 0 0 0 1.141-1.131v-4.088h-21.221Zm-35.019-.109h-27.778l-4.961 3.313c.089.28.136.57.139.864a2.974 2.974 0 0 1-1.18 2.36L113 44.8a88.002 88.002 0 0 0 2.044-3.174l.139-.238h13.214l5.555 4.831 2.143-.595V39.8h7.421l-.069-1.815ZM123.605 11.14a2.24 2.24 0 0 1-1.736-.844h-1.647v7.698h3.383V11.14Z"/>
  <path fill="#fff" d="m122.127 9.8.069.099a1.807 1.807 0 0 0 1.657.744h.248v7.351h.675V9.383a1.113 1.113 0 0 0-.883-1.081c-1.409-.308-1.766.863-1.865 1.498h.099Z"/>
  <path fill="#A1A1A1" d="m55.56 39.204-22.818 1.548a.11.11 0 0 0-.11.073.108.108 0 0 0 .04.125 2.917 2.917 0 0 1 .467 3.71L17.335 57.924l-3.67-2.103-2.748-13.571-1.727 1.825 3.344 17.768 2.896 1.429c2.213-1.905 17.46-15.14 19.296-16.131 1.836-.992 17.976-.992 20.953-.933l-.12-7.004Z"/>
  <path fill="#fff" d="M109.071 7.2a1.14 1.14 0 0 0-1.13-1.14L101.383 6a.628.628 0 0 0-.615.625v10.754a.58.58 0 0 0 .36.543.573.573 0 0 0 .225.042h2.49a1.916 1.916 0 0 0 1.736-1.081l.318-.655a1.517 1.517 0 0 1 1.359-.853h1.815V7.2Zm7.242 1.429-6.746.07v2.708h6.746V8.629Zm.497 1.537v7.828h2.43v-7.828h-2.43Zm93.72 17.044-2.709-2.708h-2.896l-1.221 2.312-1.398-1.23v-1.985h-4.157l-.457 1.846h-2.331v-2.113h-2.341v2.073h-1.548v-2.073h-2.381v2.053h-1.587v-2.053h-2.341v1.984h-1.578v-1.984h-2.351v1.984h-1.567v-1.984h-2.342v1.984h-1.587v-1.984h-2.341v1.984h-1.578v-1.984h-2.341v1.924h-1.587v-1.924h-2.341v1.904h-1.578v-1.904h-2.351v1.875h-1.577v-1.875h-2.302v1.855h-1.577v-1.855h-2.391v1.835h-1.578v-1.835h-2.341v1.805h-1.984l-.804-1.518h-17.996a1.657 1.657 0 0 0-1.458 1.806h-1.905v-2.153h-2.341v2.153h-1.577v-2.153h-2.351v2.153h-1.578v-2.153h-2.341v2.153h-1.587v-2.153h-2.342v2.153h-2.073V22.34c.615-1.697 9.405-2.46 9.405-2.46v-.894h-12.58c-2.758 3.086-9.196 2.054-9.196 2.054 0 2.857-4.742 4.385-4.742 4.385h-.308v-2.093h-2.331v2.142h-1.587v-2.142h-2.342v2.142h-.674L84.08 23.63h-5.545s-1.4.318-.248 2.976h66.151v7.63h10.069v-7.451l48.016-.06v1.985h5.952v5.615h8.611V27.23l-6.557-.02Zm0 6.042a1.183 1.183 0 0 1-1.098-.722 1.175 1.175 0 0 1 .25-1.29 1.177 1.177 0 0 1 1.287-.26 1.178 1.178 0 0 1 .389 1.923 1.18 1.18 0 0 1-.828.35Z"/>
  <path fill="#fff" d="m143.447 22.607-.784-1.805a.458.458 0 0 0-.427-.288h-9.176s-2.838-.268-3.413 2.093h13.8ZM109.071 15.9h-1.726a1.31 1.31 0 0 0-1.081.685l-.526 1.082h3.333V15.9Zm.496-3.997v3.869h.01v2.222h6.736v-6.091h-6.746Z"/>
</g>
</svg>
