<svg xmlns="http://www.w3.org/2000/svg" width="160" height="512" fill="none" viewBox="0 0 160 512">
<g transform="translate(160 0) rotate(90)">
  <path fill="#A1A1A1" d="M348.929 31.54c0-1.233-1.335-2.568-2.567-2.568h-5.135v2.875h-4.313v-2.875h-5.443v2.875h-4.314v-2.875h-5.443v2.875h-4.313v-2.875h-5.443v2.875h-4.313v-2.875h-5.443v2.875h-4.314v-2.875h-5.442v2.875h-4.314v-2.875h-5.956v38.1h63.57c1.54 0 3.08-1.232 3.08-2.875V31.539h.103Zm-40.052 11.193h11.913v2.157h-11.913v-2.157Zm-19.718-.205h12.119v1.848h-12.119v-1.848Zm52.992 12.22a2.06 2.06 0 0 1-2.054 2.055h-48.884a2.06 2.06 0 0 1-2.054-2.054v-.616a2.06 2.06 0 0 1 2.054-2.054H340.2a2.06 2.06 0 0 1 2.054 2.054v.616h-.103Zm-12.734-10.474-.103-1.849h12.734l.103 1.849h-12.734Z"/>
  <path fill="#fff" fill-rule="evenodd" d="M196.218 23.22h83.391V9.768c0-1.13-.822-2.054-1.952-2.156-8.318-.72-75.071-5.957-96.535-7.6-3.595-.205-6.778 2.465-7.292 6.06-.308 2.361-.719 4.415-1.438 4.415h-1.335c-1.027 0-1.848.72-2.156 1.643l-2.773 11.092h30.09Zm9.14-14.274 63.057 3.8c1.54.102 3.286 1.335 3.183 2.978v1.951c-.205 1.54-1.54 2.773-3.183 2.567l-61.311-.205c-1.027-.103-1.951-.513-2.773-1.13-.924-.718-1.54-1.643-1.745-2.772l-.206-1.233c-.103-.821-.103-1.643.206-2.362.41-1.643 1.437-2.875 2.772-3.594Zm-20.026-4.724a4.711 4.711 0 0 1 4.724 4.724 4.711 4.711 0 0 1-4.724 4.724 4.712 4.712 0 0 1-4.724-4.724c0-2.568 2.157-4.724 4.724-4.724Zm10.887 34.096a1.14 1.14 0 0 1-1.13-1.13v-11.81h84.52V38.42h-83.39v-.102Zm-10.271 39.024h-25.777c9.038 12.94-24.955 47.446-32.555 55.251-.821.822-.821 2.259 0 3.081l.103.103c9.345 8.215 28.652 9.242 32.966 9.242.513 0 1.129 0 1.232-.616.206-1.951-1.643-3.8-1.643-5.545.103-3.698 2.67-6.162 6.367-6.984a1.407 1.407 0 0 0 1.027-1.746c0-.102 0-.102-.102-.205a9.668 9.668 0 0 1 .308-7.189 9.14 9.14 0 0 1 5.956-5.032 1.318 1.318 0 0 0 .924-1.643c-.308-1.849-.102-3.8.719-5.546 1.233-2.875 3.903-4.827 7.086-5.237.822-1.438 1.952-2.26 3.492-2.979l-.103-24.955Zm-46.214 61.618-6.778-7.189 10.784-14.069-8.319 13.864 4.313 7.394Z" clip-rule="evenodd"/>
  <path fill="#A1A1A1" fill-rule="evenodd" d="M213.471 47.046h-56.278c-.513 0-1.027.41-1.13.924v6.573c0 .513.411 1.027.925 1.13h56.381c.513 0 1.027-.411 1.129-.925v-6.572c.103-.617-.41-1.13-1.027-1.13Z" clip-rule="evenodd"/>
  <path fill="#fff" d="M152.366 63.273c.924 0 1.643.718 1.643 1.643 0 .924-.719 1.643-1.643 1.643a1.622 1.622 0 0 1-1.643-1.643c0-.925.719-1.643 1.643-1.643Z"/>
  <path fill="#fff" fill-rule="evenodd" d="M224.87 83.298a5.96 5.96 0 0 0-5.956-5.956h-30.809l-.103 24.955h36.868V83.298Zm-2.054 10.68a5.96 5.96 0 0 1-5.956 5.957h-21.361a5.961 5.961 0 0 1-5.957-5.956v-8.421a5.961 5.961 0 0 1 5.957-5.957h21.258a5.96 5.96 0 0 1 5.957 5.957l.102 8.42Z" clip-rule="evenodd"/>
  <path fill="#A1A1A1" d="M260.609 80.629c2.054 0 3.8 1.746 3.8 3.8s-1.746 3.8-3.8 3.8-3.799-1.746-3.799-3.8a3.79 3.79 0 0 1 3.799-3.8Z"/>
  <path fill="#fff" d="M279.608 147.28c-.924-2.876-1.951-5.649-2.772-8.422l-38.409 11.297c1.129 4.211 2.362 6.881 3.081 8.524a2.113 2.113 0 0 0 2.567 1.232l33.993-9.756c1.13-.205 1.849-1.335 1.643-2.362 0-.205-.103-.411-.103-.513Zm-78.46-64.494c.103-.411.205-1.335.205-2.157h-6.572c-.822 3.902-.719 10.27 11.502 13.042 4.005-4.416-7.086-1.027-5.135-10.885Z"/>
  <path fill="#fff" fill-rule="evenodd" d="M220.865 62.76v12.529c3.492.41 6.162 3.389 6.162 6.983v19.307c-.103.617.205.719.616.617l43.544-8.73c-.308-8.01.103-16.02 1.335-23.928.205-1.027 1.13-1.849 2.157-1.849h4.827v-4.826h-58.641v-.103Zm39.847 26.496c-2.773 0-4.93-2.157-4.93-4.827a4.821 4.821 0 0 1 4.827-4.827 4.821 4.821 0 0 1 4.827 4.827c.103 2.67-2.054 4.827-4.724 4.827Z" clip-rule="evenodd"/>
  <path fill="#fff" d="M363.821 41.192h-3.389v12.53h3.389v-12.53Zm-4.519 0h-3.389v12.53h3.389v-12.53Zm24.237 0h-18.691v12.53h18.588c1.232 0 2.157-.925 2.157-2.157v-8.113c.102-1.233-.822-2.157-2.054-2.26Zm-8.627 2.568a1.36 1.36 0 0 1 1.335-1.335h5.546a1.36 1.36 0 0 1 1.335 1.335 1.36 1.36 0 0 1-1.335 1.335h-5.546c-.719 0-1.335-.514-1.335-1.335 0 .102 0 .102 0 0Zm6.881 8.01h-5.546a1.36 1.36 0 0 1-1.335-1.335 1.36 1.36 0 0 1 1.335-1.335h5.546a1.36 1.36 0 0 1 1.335 1.335c0 .822-.616 1.335-1.335 1.335Zm-26.907-10.578h-3.8v12.53h3.8v-12.53Z"/>
  <path fill="#A1A1A1" fill-rule="evenodd" d="M146.718 40.269h-6.778c-1.233 0-2.157 1.13-2.157 2.362v15.918c0 1.232.924 2.156 2.157 2.156h6.778V40.27Z" clip-rule="evenodd"/>
  <path fill="#fff" fill-rule="evenodd" d="M196.218 39.447c-1.232 0-2.156-.924-2.156-2.156V25.378h-35.431c-1.232 0-2.157.924-2.157 2.157v6.47c0 1.232-.924 2.156-2.156 2.156h-4.314c-1.129 0-2.156.822-2.156 1.951v32.864c.41.513 1.027.821 1.746.821h2.156c6.059-.102 5.34.72 6.984 2.67.308.411.821.617 1.437.617h59.77V61.63h59.77V39.447h-83.493Zm-36.252-9.961h28.55l-26.188 2.156-2.362 3.081v-5.237Zm-7.6 38.1c-1.54 0-2.772-1.232-2.772-2.67 0-1.437 1.232-2.67 2.67-2.67 1.54 0 2.67 1.233 2.67 2.67.102 1.438-1.13 2.67-2.568 2.67Zm63.365-12.94c0 1.233-.925 2.157-2.157 2.157h-56.381c-1.232 0-2.157-.924-2.157-2.156v-6.47c0-1.233.925-2.157 2.157-2.157h56.278c1.233 0 2.157.924 2.157 2.157v6.47h.103Zm52.17-5.545h-39.436c-1.54 0-2.67-1.232-2.67-2.67 0-1.54 1.232-2.67 2.67-2.67h39.436c1.54 0 2.67 1.232 2.67 2.67s-1.13 2.67-2.67 2.67Z" clip-rule="evenodd"/>
  <path fill="#A1A1A1" d="m270.366 96.238-42.106 8.216c.102.514 3.491 29.372 9.448 44.365l38.409-11.399c-5.135-22.491-5.032-28.242-5.751-41.182Zm-23.929 43.749c-.102.103-.308.103-.411.103-.41 0-.718-.205-.924-.616-5.854-12.426-6.162-27.626-6.162-28.242 0-.616.411-1.027 1.027-1.027.514 0 1.027.411 1.027 1.027 0 .103.308 15.405 5.957 27.42.205.411 0 1.027-.514 1.335Zm9.859-2.875c-.103.103-.308.103-.411.103-.41 0-.718-.206-.924-.617-5.854-12.426-5.751-26.906-5.751-27.523a1.03 1.03 0 0 1 1.027-1.027 1.03 1.03 0 0 1 1.027 1.027c0 .103 0 14.584 5.546 26.599.205.616 0 1.232-.514 1.438Zm9.654-2.568c-.103.103-.308.103-.411.103-.411 0-.719-.205-.924-.616-5.854-12.426-5.135-26.496-5.135-27.009 0-.617.513-1.027 1.129-.925.617 0 1.027.514.925 1.13 0 .103-.719 14.069 4.929 26.085.206.411 0 1.027-.513 1.232Z"/>
</g>
</svg>
