<svg xmlns="http://www.w3.org/2000/svg" width="160" height="512" fill="none" viewBox="0 0 160 512">
<g transform="translate(160 0) rotate(90)">
  <path fill="#A1A1A1" d="M410.044 59.036h-24.841v7.037h24.841v-7.037Z"/>
  <path fill="#fff" d="M384.357 54.986h-2.295v33.739h2.295V54.986Zm-28.891 0h-2.294v33.739h2.294V54.986Zm-28.824 0h-11.107v33.739h11.107V54.986ZM83.615 61.13h3.624v20.062a1.811 1.811 0 1 1-3.624 0V61.131Zm8.345 0h3.625v26.134a1.811 1.811 0 1 1-3.624 0V61.132Z"/>
  <path fill="#A1A1A1" d="M410.044 68.339h-24.841v7.037h24.841v-7.037Zm0 9.359h-24.841v7.037h24.841v-7.037Zm-28.825-18.577h-24.84v7.037h24.84v-7.037Zm0 9.218h-24.84v7.037h24.84v-7.037Zm0 9.441h-24.84v7.036h24.84V77.78Zm-28.89-18.659h-24.841v7.037h24.841v-7.037Zm0 9.218h-24.841v7.037h24.841v-7.037Zm0 9.441h-24.841v7.036h24.841V77.78Z"/>
  <path fill="#fff" d="M440.884 54.986h-28.821a.813.813 0 0 0-.811.811v32.117c0 .446.365.81.811.81h28.821a.812.812 0 0 0 .803-.689c.271-1.84.96-7.34.96-16.177s-.685-14.338-.96-16.179a.812.812 0 0 0-.803-.689v-.004Zm-5.777 25.315h-17.385a2.019 2.019 0 0 1 0-4.037h17.385a2.019 2.019 0 1 1 0 4.037Zm0-12.85h-17.385a2.019 2.019 0 1 1 0-4.037h17.385a2.019 2.019 0 0 1 0 4.037Z"/>
  <path fill="#A1A1A1" d="M79.233 14.778c.483-1.102-2.404-2.35-2.566-3.92-.162-1.568.701-4.118.701-4.118l-1.791-1.87 2.31-3.028 2.416 1.277S82.2.497 84.442.015c2.242-.482 19.457 10.851 17.905 13.957-6.595 13.186-10.714 8.382-12.056 12.627-.547 1.73 1.399 3.105 1.14 5.225-.224 1.836-2.684 2.61-3.053 4.09-.567 2.278 1.236 2.837 1.374 4.909.138 2.071-2.047 2.647-2.1 5.545-.028 1.573 2.931 3.174 3.105 4.605.086.697.053 3.624-.932 3.624h-20.77s-1.415-23.803 10.178-39.81v-.009Z"/>
  <path fill="#fff" d="M231.495 109.402h-3.332a1.216 1.216 0 0 1-1.05-1.832c3.069-5.217 11.736-20.361 14.464-29.66 4.28-14.581 4.941-35.332 4.941-35.332h5.485s.105 17.743-4.244 35.218c-2.656 10.681-13.154 27.723-15.234 31.039a1.211 1.211 0 0 1-1.03.567ZM126.838 80.317h-14.743s-1.013-2.716-.973-7.086c.041-4.37.973-7.645.973-7.645h14.743s-.324 2.943-.336 7.365c-.012 4.763.336 7.366.336 7.366ZM69.002 56.032a4.504 4.504 0 0 0 4.504 4.504h50.143a2.25 2.25 0 0 0 2.189-1.735l3.133-13.365a7.066 7.066 0 0 1 6.932-5.452l116.1.904-.714-24.042a2.846 2.846 0 0 0-2.846-2.765 2.85 2.85 0 0 0-2.837 2.607l-.884 10.434a6.458 6.458 0 0 1-6.279 5.91l-104.997 2.493a9.3 9.3 0 0 0-8.423 5.865l-4.366 10.986a4.986 4.986 0 0 1-4.572 3.141l-47.083.515Z"/>
  <path fill="#A1A1A1" d="M91.32 68.043h-3.44v9.822h3.441v-9.822Zm-8.524 0h-6.02s-.62 2.185-.648 5.1c-.029 2.914.648 4.722.648 4.722h6.02v-9.822Zm127.755 45.603h-2.197s1.629-6.311 1.71-16.49c.081-10.179-1.71-17.832-1.71-17.832h2.197s1.872 5.335 1.71 17.163c-.162 11.829-1.71 17.163-1.71 17.163v-.004Zm-100.125-40.41c.02-2.047.231-3.851.45-5.193H96.348v9.822h14.439a25.763 25.763 0 0 1-.361-4.63Z"/>
  <path fill="#fff" d="M146.196 83.41h-6.624v25.185h6.624V83.41Zm-28.928 19.044h-5.918s-.92-2.201-.88-5.744c.041-3.543.88-6.198.88-6.198h5.918s-.345 1.856-.422 5.97c-.077 4.115.422 5.972.422 5.972Zm21.31-16.839h-19.514s-1.374 4.836-1.435 11.281c-.061 6.446 1.435 10.455 1.435 10.455h19.514V85.615Zm36.183 0h-27.529v21.736h27.529V85.615Z"/>
  <path fill="#A1A1A1" d="M235.217 77.772a92.455 92.455 0 0 1-2.684 7.037h5.456c1.071-2.477 1.974-4.84 2.583-6.912l.036-.126h-5.391Zm13.648-.106s-.004.008-.004.012c-.531 2.14-1.378 4.536-2.412 7.025h68.239v-7.037h-65.823Zm-11.216-9.34a157.853 157.853 0 0 1-1.212 5.282 48.307 48.307 0 0 1-.474 1.755h5.302c.58-2.274 1.082-4.65 1.52-7.037h-5.136Zm13.169-.106a131.123 131.123 0 0 1-1.382 7.038h65.255V68.22h-63.873Zm-11.504-9.112a159.767 159.767 0 0 1-1.224 7.038h5.063a170.89 170.89 0 0 0 1.005-7.038h-4.844Zm12.782-.101a160.798 160.798 0 0 1-.924 7.037h63.516v-7.037h-62.592Zm-44.477 20.317h-31.683v34.322h2.27v-2.845h.429l.426.369.482-.369h12.733l4.126.742h4.103s4.402.802 4.402 1.751c0 .121.044.17 0 .352h2.704s1.52-5.334 1.678-17.163c.158-11.828-1.678-17.163-1.678-17.163l.008.004Zm-7.11 29.369h-4.103l-4.126.742h-12.733l-.482-.369-.426.369h-.429v-4.986h.429l.426.369.482-.369h12.733l4.126.742h4.103s4.402.802 4.402 1.751c0 .948-4.402 1.751-4.402 1.751Zm0-6.348h-4.103l-4.126.742h-12.733l-.482-.369-.426.369h-.429v-4.986h.429l.426.369.482-.37h12.733l4.126.743h4.103s4.402.802 4.402 1.751c0 .948-4.402 1.751-4.402 1.751Zm-.546 20.77-4.086-.357-4.18.377-12.684-1.111-.449-.409-.459.332-.429-.036.434-4.966.429.037.393.405.511-.328 12.684 1.111 4.05 1.098 4.086.357s4.317 1.183 4.236 2.128c-.081.944-4.54 1.362-4.54 1.362h.004Zm-1.216 7.678-4.038-.714-4.195.012-12.538-2.209-.41-.45-.486.292-.426-.073.868-4.909.425.073.357.438.539-.28 12.538 2.209 3.936 1.448 4.038.713s4.199 1.557 4.033 2.489c-.166.932-4.641.961-4.641.961Zm-1.842 7.503-3.96-1.062-4.179-.352-12.299-3.296-.369-.482-.511.247-.417-.113 1.289-4.816.417.113.317.471.563-.236 12.299 3.296 3.794 1.784 3.96 1.062s4.046 1.917 3.803 2.829c-.244.912-4.707.551-4.707.551v.004Zm-2.542 7.219-3.855-1.403-4.135-.713-11.966-4.354-.328-.514-.527.202-.406-.146 1.707-4.686.405.146.276.495.58-.183 11.966 4.354 3.624 2.108 3.855 1.402s3.863 2.262 3.539 3.154c-.325.892-4.739.138-4.739.138h.004Zm-3.107 6.92-3.717-1.735-4.054-1.074-11.541-5.38-.279-.539-.543.154-.39-.182 2.108-4.52.389.183.232.514.591-.133 11.541 5.379 3.429 2.416 3.718 1.735s3.652 2.59 3.251 3.449c-.402.86-4.731-.275-4.731-.275l-.004.008Zm-3.593 6.64-3.551-2.051-3.944-1.423-11.026-6.368-.231-.563-.556.105-.373-.215 2.493-4.317.373.215.187.535.604-.081 11.026 6.368 3.206 2.708 3.551 2.051s3.413 2.899 2.939 3.717c-.474.819-4.69-.685-4.69-.685l-.008.004Z"/>
  <path fill="#fff" d="M201.992 42.578a3.45 3.45 0 0 0-1.589.385l-8.439 4.321a3.497 3.497 0 0 1-1.589.386h-50.172a3.488 3.488 0 0 0-3.417 2.788 66.832 66.832 0 0 0-.608 3.418l58.125.02s2.407 6.178 2.205 18.411c-.041 2.481-.093 3.864-.243 5.805l15.115-.048s1.606 3.246 2.019 12.627c.069 1.544.114 8.415.053 9.74l10.641.11s8.37-15.035 11.325-26.908c4.346-17.475 4.415-31.043 4.415-31.043h-37.841v-.012Zm18.124 8.184h-16.794a1.747 1.747 0 0 1 0-3.494h16.794a1.747 1.747 0 0 1 0 3.494Zm9.7 22.259a1.465 1.465 0 0 1-1.463-1.464c0-.806.657-1.463 1.463-1.463.807 0 1.464.657 1.464 1.463 0 .807-.657 1.464-1.464 1.464Zm1.946-7.35a1.465 1.465 0 0 1-1.463-1.463c0-.806.656-1.463 1.463-1.463s1.463.657 1.463 1.463c0 .807-.656 1.464-1.463 1.464Zm.981-7.349a1.465 1.465 0 0 1-1.463-1.463c0-.807.656-1.463 1.463-1.463s1.463.656 1.463 1.463-.656 1.463-1.463 1.463Zm.993-7.349a1.465 1.465 0 0 1-1.463-1.463c0-.807.657-1.463 1.463-1.463.807 0 1.464.656 1.464 1.463 0 .806-.657 1.463-1.464 1.463Z"/>
  <path fill="#A1A1A1" d="M193.617 54.548h-63.978s-2.242 7.896-2.343 18.428c-.049 5.12.499 8.723 1.078 11.662h10.203v-2.355l8.634-.04.017 2.375h27.528v-6.652h20.742c.15-1.942.195-3.19.235-5.671.203-12.234-2.116-17.751-2.116-17.751v.004Zm-59.479 14.277 2.08-10.503h1.362l-2.079 10.503h-1.363Zm4.269 0h-1.362l2.079-10.503h1.362l-2.079 10.503Zm1.544 0 2.08-10.503h1.362l-2.08 10.503h-1.362Zm2.907 0 2.079-10.503h1.362l-2.079 10.503h-1.362Zm4.268 0h-1.362l2.08-10.503h1.362l-2.08 10.503Zm1.545 0 2.079-10.503h1.362l-2.079 10.503h-1.362Zm4.268 0h-1.362l2.08-10.503h1.362l-2.08 10.503Zm25.268 47.313h.43l.425-.368.483.368h12.732l4.127-.741h4.102s4.402-.803 4.402-1.751h-26.705v2.492h.004Z"/>
</g>
</svg>
