<svg xmlns="http://www.w3.org/2000/svg" width="512" height="160" fill="none" viewBox="0 0 512 160">
  <path fill="#A1A1A1" d="m169.323 155.839-.478 4.161c13.15 0 30.182-.488 36.762-.695a2.868 2.868 0 0 0 2.771-2.861v-.605h-39.055Z"/>
  <path fill="#fff" d="M280.457 40.823V30.21H151.389v8.25s-.298 4.35-7.519 5.316c-3.348.451-1.805 6.58 1.517 6.58 3.321 0 13.926 2.536 18.223 6.588 4.296 4.053 5.316 8.602 1.272 22.023-4.043 13.422-11.697 32.953-14.694 53.92-2.978 20.597-2.789 24.55 2.022 26.328 1.544.569 7.871.768 15.759.786l.587-5.064h39.822v-1.038a7.113 7.113 0 0 0 3.032-3.8c.758-2.536-2.527-12.401-2.022-17.212 1.084-10.325 4.513-12.148 6.075-17.465 1.561-5.316 2.022-19.748 2.022-22.79 0-3.041 2.03-9.107 9.368-7.843 4.513.785 10.434 2.274 14.27 3.294a32.322 32.322 0 0 0 8.259 1.083h28.341c2.617-.072 4.314-1.805 4.314-3.863l.108-20.317a9.159 9.159 0 0 1 1.86-5.478 9.143 9.143 0 0 1 7.265-3.61h5.479l-16.292-15.074Zm-121.243 85.881h43.035a24.675 24.675 0 0 0-.55 2.707h-42.738c.082-.92.172-1.823.253-2.707Zm-.605 7.22h43.117c.117.903.27 1.805.424 2.708h-43.622c.027-.876.063-1.787.118-2.708h-.037Zm44.227 9.495a1.14 1.14 0 0 1-.659.434h-43.739v-2.708h44.407a10.67 10.67 0 0 1-.009 2.274Zm.785-21.228h-43.649c.175-.909.355-1.811.542-2.708h44.01l-.903 2.708Zm3.43-9.929c-.352.903-.704 1.806-1.047 2.708h-44.227s.316-2.103.47-2.708h44.804Zm1.679-4.513h-45.274c.28-.965.551-1.868.822-2.707h45.129c-.091.623-.551 2.364-.677 2.707Zm1.065-7.22h-43.983c.307-.858.632-1.805.975-2.708h43.098l-.09 2.708Zm-41.293-7.22c.343-.903.704-1.806 1.074-2.709h40.354v2.708h-41.428Zm43.892-7.221h-40.95c.397-.933.794-1.836 1.191-2.708h39.66c.208.888.242 1.807.099 2.708Zm1.399-11.093a5.108 5.108 0 1 1 5.109-5.109 5.12 5.12 0 0 1-5.109 5.109Zm39.073-41.898h13.8a4.967 4.967 0 0 1 5.009 4.342 4.802 4.802 0 0 1-4.765 5.235h-13.828a4.944 4.944 0 0 1-5.009-4.342 4.79 4.79 0 0 1 1.237-3.678 4.801 4.801 0 0 1 3.556-1.557Zm24.18 49.137a2.713 2.713 0 0 1-1.728 2.525 2.708 2.708 0 0 1-1.061.182c-8.123-.216-25.697 1.354-35.76-1.913-6.562-2.13-12.14-5.145-11.68-14.315.208-4.07.307-6.869 1.128-8.764a6.854 6.854 0 0 1 6.319-4.044h7.987v.054h25.616a9.167 9.167 0 0 1 6.94 3.187l.136.171a9.126 9.126 0 0 1 2.211 5.993l-.108 16.924Z"/>
  <path fill="#A1A1A1" d="m282.064 41.067 6.905 6.373h76.891v-6.373h-83.796Z"/>
  <path fill="#fff" d="M357.466 10.76h-185.67l-20.38 15.009v2.708h48.739l2.509-15.29h2.762l-2.491 15.326h2.708l2.509-15.29h2.762l-2.563 15.29h2.707l2.51-15.29h2.761l-2.563 15.29h2.708l2.509-15.29h2.762l-2.563 15.29h2.707l2.509-15.29h2.762l-2.563 15.29h2.708l2.509-15.29h2.762l-2.563 15.29h2.707l2.509-15.29h2.762l-2.518 15.29h61.321l2.518-15.29h2.762l-2.518 15.29h2.654l2.518-15.29h2.762l-2.518 15.29h2.653l2.518-15.29h2.762l-2.518 15.29h2.654l2.518-15.29h2.762l-2.518 15.29h2.653l2.518-15.29h2.762l-2.518 15.29h2.654l2.518-15.29h2.762l-2.519 15.29h2.654l2.518-15.29h2.762l-2.518 15.29h33.856V4.865l-8.439 5.894ZM191.852 25.073a4.752 4.752 0 0 1-2.853 2.284 4.7 4.7 0 0 1-1.317.189 4.811 4.811 0 0 1-2.293-.605l-11.038-6.101a4.781 4.781 0 0 1-1.86-6.508 4.783 4.783 0 0 1 6.499-1.859l11.002 6.101a4.782 4.782 0 0 1 1.86 6.499Z"/>
  <path fill="#A1A1A1" d="M365.86 30.209h-84.5v9.955h84.5V30.21Z"/>
  <path fill="#fff" d="M171.498 9.748h185.679l8.123-5.713h-5.596L356.879.903a1.361 1.361 0 0 0-.993-.434h-7.672a.848.848 0 0 0-.848.849v2.708h-70.311v3.863h-32.457V4.035h-52.169l-3.069-2.708A5.233 5.233 0 0 0 185.894 0h-7.635a1.028 1.028 0 0 0-.993 1.002v2.78h-6.102l-19.748 16.454v4.305l20.082-14.793Z"/>
  <path fill="#A1A1A1" d="M276.107 4.034H245.51v2.96h30.597v-2.96ZM263.85 41.771h2.889a4.006 4.006 0 0 0 4.034-3.502 3.887 3.887 0 0 0-2.29-3.933A3.889 3.889 0 0 0 266.91 34h-3.258a3.887 3.887 0 0 0-3.872 4.242 4.022 4.022 0 0 0 4.07 3.53ZM182.681 24.28l2.419 1.579a4.01 4.01 0 0 0 5.289-.722 3.88 3.88 0 0 0-.902-5.687l-2.708-1.805a3.882 3.882 0 0 0-5.551 1.435 4.027 4.027 0 0 0 1.453 5.2Z"/>
  <path fill="#fff" d="M213.793 65.68a4.207 4.207 0 1 0 0 8.415 4.207 4.207 0 0 0 0-8.414Z"/>
  <path fill="#A1A1A1" d="m289.943 48.342 8.124 7.51 58.866-.172a2.482 2.482 0 0 0 1.751-.713l6.724-6.625h-75.465ZM256.81 76.584a14.97 14.97 0 0 1-5.416-4.91 15.134 15.134 0 0 1-1.579-3.945 6.45 6.45 0 0 1-.226-1.715v-9.152h-7.338c0 2.085.063 6.986.063 8.71a13.44 13.44 0 0 0 4.17 8.936c3.61 3.177 8.439 2.789 10.289 2.49a.232.232 0 0 0 .121-.321.235.235 0 0 0-.084-.093ZM369.37 7.798h-2.825v17.78h2.825V7.799Z"/>
</svg>
