<svg xmlns="http://www.w3.org/2000/svg" width="512" height="160" fill="none" viewBox="0 0 512 160">
<g transform="rotate(180 256 80)">
  <path fill="#A1A1A1" d="M200.675 62.299c.392.914 5.602 11.166 14.052 8.397a.35.35 0 0 0 .219-.326.353.353 0 0 0-.219-.327c-2.063-1.005-5.394-1.502-7.914-7.013-1.306-2.964 0-9.625 0-9.625l-12.211 2.873a9.142 9.142 0 0 0 1.019 5.12c.757 1.123 4.296-.875 5.054.9Zm81.322-58.415a1.732 1.732 0 0 0-1.306-.653h-5.994a1.306 1.306 0 0 0-1.241 1.241v2.064l10.892.235-2.351-2.887ZM98.157 24.583c.575 1.54.535 2.886 1.933 4.074a51.43 51.43 0 0 0 5.629-11.91 5.888 5.888 0 0 0-3.513 1.58 1.53 1.53 0 0 1-1.306.3c-1.999-.43-7.249-1.188-8.868 2.613a.405.405 0 0 0 .405.561c3.866-.326 5.015.927 5.72 2.782Z"/>
  <path fill="#fff" d="M101.997 159.998a8.423 8.423 0 0 0 5.694-2.703h-9.142a3.408 3.408 0 0 0 3.448 2.703Z"/>
  <path fill="#A1A1A1" d="M128.703 1.024c-.718-.497-2.755-1.776-4.152-.418l-1.92 2.246a2.804 2.804 0 0 0-.627 1.71v1.072l13.242.13c-.992-.705-3.33-2.546-6.543-4.74Zm47.616 50.044a1.646 1.646 0 0 0 1.632-1.646v-6.386h-20.02v6.386a1.66 1.66 0 0 0 1.606 1.646h16.782Z"/>
  <path fill="#fff" d="M294.966 15.559a91.636 91.636 0 0 1-.105 16.246h4.924a53.359 53.359 0 0 0-.418-16.207l-4.401-.04Zm-175.273 4.505h-14.026c-1.463 3.487-6.386 11.754-6.608 12.237h33.053c1.306 0 6.256.47 8.541-2.912 1.306-1.907 1.306-6.713.732-9.325h-3.918a6.242 6.242 0 0 1 1.541 4.114v1.306a4.572 4.572 0 0 1-4.571 4.571h-11.754a4.572 4.572 0 0 1-4.57-4.57v-1.307a6.238 6.238 0 0 1 1.58-4.114ZM293.424 8.142 110.982 6.836a1.478 1.478 0 0 0-1.397.98l-1.502 4.179a47.272 47.272 0 0 1-1.071 4.923c0 .17-.092.34-.144.496h187.183c.017-3.102-.192-6.2-.627-9.272Zm-114.167 41.28a2.966 2.966 0 0 1-2.951 2.952h-16.769a2.952 2.952 0 0 1-2.951-2.952v-6.386H95.075a22.866 22.866 0 0 0-.105 7.836c.042.246.172.469.366.627l2.925 2.285c.27.223.604.352.954.366 2.977.144 17.565 1.58 15.593 15.671-2.194 15.75-19.772 42.849-20.896 64.097-1.123 21.248.105 21.731 4.415 22.058h12.641a21.206 21.206 0 0 1 1.75-3.265 6.956 6.956 0 0 1 5.786-3.03h35.509s3.918-.157 4.388-5.407c.731-7.692 6.66-46.518 7.326-49.078 1.424-5.433 6.595-12.08 14.653-12.459 6.765-.3 36.711-3.447 46.192-4.44a3.24 3.24 0 0 0 2.886-3.226V58.094s-.561-7.457 5.302-7.836c5.864-.379 21.379-.849 24.317-2.312a5.873 5.873 0 0 0 2.913-4.884h-82.733v6.36Zm-16.56 24.213c-.705 4.01-6.529 63.861-7.914 66.434-2.612 4.741-8.854 4.793-9.141 4.793-1.019 0-40.028.104-41.086 0a6.975 6.975 0 0 1-4.871-2.717c-1.75-2.298-2.26-5.772-1.515-10.33 1.201-7.365 19.315-52.708 20.464-56.678a37.848 37.848 0 0 0 1.411-7.353c.457-4.65.849-8.658 7.836-8.972 2.69-.13 22.697.327 28.43.68a6.202 6.202 0 0 1 4.728 2.742c2.246 3.121 2.246 8.031 1.658 11.4Zm6.125 8.658a4.327 4.327 0 0 1-3.995-2.671 4.328 4.328 0 0 1 .943-4.713 4.326 4.326 0 0 1 6.653.67c.473.712.725 1.55.722 2.405a4.317 4.317 0 0 1-1.267 3.052 4.304 4.304 0 0 1-3.056 1.257Zm44.834-30.99c9.533-1.698 12.185-1.071 12.733 10.657.214 2.967.03 5.949-.548 8.867a3.264 3.264 0 0 1-2.874 2.507l-37.311 3.33a7.448 7.448 0 0 1-3.252-.391c-2.376-.875-5.811-3.252-5.119-9.638 1.019-9.612 27.869-13.817 36.371-15.332Z"/>
  <path fill="#A1A1A1" d="M113.828 153.442a18.87 18.87 0 0 0-1.397 2.534h39.374a2.089 2.089 0 0 0 2.09-2.09v-2.847h-35.392a5.637 5.637 0 0 0-4.675 2.403Z"/>
  <path fill="#fff" d="M168.822 74.967a3.02 3.02 0 0 0-2.787 1.862 3.014 3.014 0 0 0 .654 3.288 3.019 3.019 0 0 0 4.642-.457 3.02 3.02 0 0 0-.375-3.81 3.017 3.017 0 0 0-2.134-.883Z"/>
  <path fill="#A1A1A1" d="M416.171 6.9H299.784a105.505 105.505 0 0 1 .327 34.608h116.792c2.768-11.466 3.095-24.774-.732-34.608ZM156.22 60.784c-4.924-.3-21.509-.705-26.877-.705h-1.423c-5.812.261-6.086 3.095-6.53 7.836a30.35 30.35 0 0 1-1.476 7.666c-.509 1.397-1.711 4.492-3.395 8.776-5.524 14.13-15.828 40.485-16.978 47.667-.679 4.193-.26 7.34 1.306 9.338a5.744 5.744 0 0 0 3.918 2.207c3.004.34 40.55 0 40.929 0 .065 0 5.798-.065 7.979-4.101 1.372-2.546 3.526-25.205 5.107-41.79a920.078 920.078 0 0 1 2.69-24.409c.483-3.84.326-7.836-1.463-10.304a4.862 4.862 0 0 0-3.787-2.18Zm-26.276 59.604a9.731 9.731 0 0 1-1.89-19.273 9.722 9.722 0 0 1 5.622.559 9.72 9.72 0 0 1 5.997 8.998 9.728 9.728 0 0 1-9.729 9.716Z"/>
  <path fill="#fff" d="M129.944 102.249a8.42 8.42 0 0 0-7.782 5.2 8.42 8.42 0 0 0 6.139 11.485 8.425 8.425 0 0 0 10.066-8.262 8.422 8.422 0 0 0-8.423-8.423Z"/>
  <path fill="#A1A1A1" d="M127.476 28.801h6.986a3.267 3.267 0 0 0 3.135-2.364 4.3 4.3 0 0 0 .117-.561v-1.711a3.263 3.263 0 0 0-3.252-3.252h-7.013a3.265 3.265 0 0 0-3.264 3.265v1.306a3.262 3.262 0 0 0 2.925 3.252l.366.065Z"/>
  <path fill="#fff" d="M294.051 20.064H142.755c.705 2.325.627 7.706-.966 10.056-2.534 3.748-7.94 3.487-9.625 3.487H98.392a38.982 38.982 0 0 0-2.703 6.817h49.077v-.091l4.637-15.371a1.295 1.295 0 0 1 .599-.855 1.301 1.301 0 0 1 1.507.103 1.306 1.306 0 0 1 .401 1.457l-4.453 14.757h3.826v-.091l4.636-15.371a1.306 1.306 0 0 1 2.508.705l-4.454 14.757h3.827v-.091l4.636-15.371a1.308 1.308 0 0 1 1.581-.811 1.307 1.307 0 0 1 .927 1.516l-4.454 14.757h3.827v-.091l4.636-15.371a1.305 1.305 0 0 1 2.507.705l-4.453 14.757h3.826v-.091l4.637-15.371a1.295 1.295 0 0 1 .599-.855 1.301 1.301 0 0 1 1.507.103 1.306 1.306 0 0 1 .401 1.457l-4.453 14.757h3.826v-.091l4.636-15.371a1.313 1.313 0 0 1 1.102-1.035 1.304 1.304 0 0 1 1.482 1.212c.011.18-.015.36-.076.528l-4.454 14.757h113.332c.13-2.311 1.005-17.983.679-20.36Z"/>
</g>
</svg>
