<svg xmlns="http://www.w3.org/2000/svg" width="160" height="512" fill="none" viewBox="0 0 160 512">
<g transform="translate(160 0) rotate(90)">
  <path fill="#A1A1A1" d="m178.139 5.19-8.81-5.02a1.508 1.508 0 0 0-2.202 1.387V5.19h11.012Zm-42.221 44.8a16.797 16.797 0 0 0 5.561-3.734 17.122 17.122 0 0 0 3.953-6.607L135.114 33.8a1.993 1.993 0 0 0-2.599.55l-5.506 7.478a2.024 2.024 0 0 0-.065 2.286c.146.228.337.424.56.577l7.819 5.297h.595ZM288.062 6.314h-62.164v3.92h62.164v-3.92Zm12.521 0h-5.649v3.92h5.649v-3.92Z"/>
  <path fill="#fff" d="M236.734 34.737a9.81 9.81 0 0 1-3.38-.606 13.765 13.765 0 0 1-7.709-6.695 8.9 8.9 0 0 1-.848-3.898V6.314h-59.014a3.489 3.489 0 0 0-2.687 1.278l-13.369 16.144a6.175 6.175 0 0 0-1.354 3.105c-.496 3.777-1.652 12.422-1.916 13.292a18.568 18.568 0 0 1-4.185 6.882 18.253 18.253 0 0 1-6.211 4.064c-4.325.491-8.675.73-13.027.716a2.348 2.348 0 0 0-1.817.793l-3.062 3.502a.668.668 0 0 0 .507 1.101h24.48s14.789-1.289 16.287 15.505l6.728-20.626a3.097 3.097 0 0 1 2.93-2.081l98.239-1.024 93.119-.199v-14.03H236.734Zm-72.757 8.688a1.1 1.1 0 0 1-1.024.716 1.02 1.02 0 0 1-.397-.077 1.1 1.1 0 0 1-.638-1.42l10.098-21.694a1.1 1.1 0 0 1 2.048.793l-10.087 21.683Zm5.583.716a1.01 1.01 0 0 1-.396-.077 1.105 1.105 0 0 1-.71-.997c-.005-.144.02-.288.071-.423l10.098-21.694a1.1 1.1 0 0 1 2.048.793l-10.087 21.683a1.1 1.1 0 0 1-1.024.715Zm6.607 0a1.014 1.014 0 0 1-.396-.077 1.1 1.1 0 0 1-.639-1.42L185.23 20.95a1.107 1.107 0 0 1 1.008-.78 1.106 1.106 0 0 1 .821.317 1.095 1.095 0 0 1 .326.819 1.1 1.1 0 0 1-.106.436l-10.087 21.683a1.107 1.107 0 0 1-1.025.716Zm6.608 0a1.02 1.02 0 0 1-.397-.077 1.1 1.1 0 0 1-.638-1.42l10.098-21.694a1.091 1.091 0 0 1 .571-.67 1.101 1.101 0 0 1 1.477 1.462l-10.087 21.683a1.1 1.1 0 0 1-1.024.716Zm6.607 0a1.01 1.01 0 0 1-.396-.077 1.105 1.105 0 0 1-.71-.997 1.076 1.076 0 0 1 .071-.423l10.098-21.694a1.107 1.107 0 0 1 1.007-.78 1.1 1.1 0 0 1 1.041 1.572l-10.087 21.683a1.1 1.1 0 0 1-1.024.716Zm6.607 0a1.01 1.01 0 0 1-.396-.077 1.1 1.1 0 0 1-.639-1.42l10.098-21.694a1.107 1.107 0 0 1 1.008-.78 1.099 1.099 0 0 1 1.069.692 1.103 1.103 0 0 1-.028.88l-10.088 21.683a1.099 1.099 0 0 1-1.024.716Zm6.608 0a1.02 1.02 0 0 1-.397-.077 1.1 1.1 0 0 1-.639-1.42L211.66 20.95a1.104 1.104 0 0 1 .571-.67 1.101 1.101 0 0 1 1.477 1.462l-10.087 21.683a1.1 1.1 0 0 1-1.024.716Zm17.718-22.398-10.087 21.683a1.1 1.1 0 0 1-1.024.715 1.02 1.02 0 0 1-.397-.077 1.1 1.1 0 0 1-.638-1.42l10.098-21.694a1.091 1.091 0 0 1 .571-.67 1.106 1.106 0 0 1 1.257.207 1.098 1.098 0 0 1 .22 1.256Z"/>
  <path fill="#A1A1A1" d="M392.831 10.234V6.997h-8.545v-4.9a1.426 1.426 0 0 0-1.183-1.398 1.42 1.42 0 0 0-.656.043l-7.885 2.466a3.303 3.303 0 0 0-2.279 3.106h-14.757v3.92h35.305Zm-42.176-3.92h-5.649v3.92h5.649v-3.92Zm-37.552 0h-5.649v3.92h5.649v-3.92Zm80.004 27.322-.265-22.3H225.898v12.201a7.88 7.88 0 0 0 .738 3.425 12.607 12.607 0 0 0 7.103 6.134 8.628 8.628 0 0 0 2.995.54h156.373ZM325.625 6.314h-5.649v3.92h5.649v-3.92Zm12.509 0h-5.638v3.92h5.638v-3.92Z"/>
  <path fill="#fff" d="M251.601 67.52c0 1.817-.187 19.172-.198 19.172a2.43 2.43 0 0 1-.679 2.096 2.422 2.422 0 0 1-2.096.679l-33.455.517a10.307 10.307 0 0 0 .352-4.867h29.513c1.365 0 1.949-.54 1.949-1.927V67.52a5.87 5.87 0 0 0 2.5.594 7.217 7.217 0 0 0 2.114-.595Z"/>
  <path fill="#A1A1A1" d="M192.311 158.062h-48.828V160h48.828v-1.938Zm26.011-95.245v9.328c.057 1.279.348 2.537.859 3.71 1.443 2.478 4.978 7.026 11.376 7.203a.067.067 0 0 0 0-.1c-.738-.792-5.418-4.999-5.969-9.404a89.861 89.861 0 0 1 0-10.737h-6.266Z"/>
  <path fill="#fff" d="M249.178 62.972a1.42 1.42 0 1 0 0-2.841 1.42 1.42 0 0 0 0 2.841Zm18.699-11.992v5.869l11.86-.11v2.51h6.651v-2.576l5.76-.055v2.632h6.651v-2.698l5.759-.055v2.753h6.641v-2.82l5.759-.054v2.874h6.652v-2.94l5.759-.056v2.996h6.64V56.2l5.76-.056v3.106h6.651v-3.172l5.759-.055v3.227h6.652v-3.293l5.759-.055v3.348h6.64l.088-8.193-105.441-.078Zm93.669-16.244v14.04h23.819a1.76 1.76 0 0 0 1.63-1.1c1.509-3.436 6.123-12.874 6.134-12.356v-.617l-31.583.033ZM221.494 54.283a2.094 2.094 0 0 0-.409 4.145 2.092 2.092 0 1 0 .409-4.145Zm27.717 1.553a1.883 1.883 0 0 0 1.883-1.883V51.2h-3.766v2.698a1.876 1.876 0 0 0 1.883 1.938Z"/>
  <path fill="#fff" d="m266.577 50.98-14.382.198v2.775a2.983 2.983 0 1 1-5.968 0v-2.687l-65.655.925-.429 4.548a4.902 4.902 0 0 0 .848 3.304 4.646 4.646 0 0 0 3.821 1.916l57.01-.242c.377 0 .75.071 1.101.209a6.147 6.147 0 0 1 3.392 3.127 3.525 3.525 0 0 0 5.759.97c2.203-2.28 5.738-5.308 9.438-5.11a4.766 4.766 0 0 0 4.713-2.61 11 11 0 0 0 .517-1.454v-5.924a.628.628 0 0 1-.165.055Zm-45.084 8.59a3.193 3.193 0 1 1 0-6.387 3.193 3.193 0 0 1 0 6.386Zm27.674 4.514a2.53 2.53 0 0 1-2.484-3.027 2.536 2.536 0 0 1 1.99-1.99 2.531 2.531 0 0 1 3.027 2.484 2.531 2.531 0 0 1-2.522 2.533h-.011Z"/>
  <path fill="#A1A1A1" d="m203.147 62.762-3.094 15.418-.484 2.422-1.95 9.69-.495 2.424L186.86 143.8a2.124 2.124 0 0 1-2.07 1.773h-54.576l28.632-69.52 8.38-22.465a1.995 1.995 0 0 1 1.883-1.332h10.373l-.407 4.405c-.093.895.005 1.8.286 2.654a5.747 5.747 0 0 0 5.506 3.832l18.28-.386Z"/>
  <path fill="#fff" d="M209.446 86.67a2.682 2.682 0 0 1-1.666 2.474 2.688 2.688 0 1 1 1.666-2.474Z"/>
  <path fill="#fff" d="M209.688 78.301a3.635 3.635 0 0 1-.826-2.742l1.443-12.807h-6.035l-2.962 14.734-.419 2.081-2.444 12.191-.419 2.06-10.087 50.215a3.214 3.214 0 0 1-3.149 2.643h-54.918c-.683 2.632-1.872 9.69 5.065 9.966l8.546.341h48.828s5.506 0 5.121-5.506c-.298-4.801 4.757-44.049 6.034-53.728a2.938 2.938 0 0 1 1.982-2.346c3.007-1.156 7.599-2.61 8.59-7.455.991-4.846-3.172-8.248-4.35-9.647Zm-2.929 12.114a3.799 3.799 0 1 1 3.788-3.789 3.8 3.8 0 0 1-.259 1.48 3.8 3.8 0 0 1-2.056 2.11c-.466.197-.967.199-1.473.199Z"/>
  <path fill="#fff" d="M209.446 86.67a2.682 2.682 0 0 1-1.666 2.474 2.688 2.688 0 1 1 1.666-2.474Z"/>
</g>
</svg>
