<svg xmlns="http://www.w3.org/2000/svg" width="512" height="160" fill="none" viewBox="0 0 512 160">
<g transform="rotate(180 256 80)">
  <path fill="#A1A1A1" d="M219.091 63.097s-.077 7.474 0 8.729c.185 3.055.6 5.15 2.487 7.158 2.183 2.367 8.064 2.782 10.595 2.706a.163.163 0 0 0 .088-.258.164.164 0 0 0-.088-.059c-2.04-.884-5.008-3.83-6.361-5.816a5.673 5.673 0 0 1-1.015-3.273v-9.133l-5.706-.054Z"/>
  <path fill="#fff" d="M279.244 36.494h113.729l.229-.535V14.311l-113.958-.218v22.4Z"/>
  <path fill="#A1A1A1" d="M383.186 3.018a2.191 2.191 0 0 0-.891-1.702 2.186 2.186 0 0 0-1.891-.338l-8.031 2.531a2.523 2.523 0 0 0-1.746 2.39v1.004h12.559V3.018Zm-211.974 97.33a7.898 7.898 0 0 0-7.761 9.434 7.901 7.901 0 0 0 15.649-1.534 7.903 7.903 0 0 0-2.313-5.579 7.904 7.904 0 0 0-5.575-2.321Zm187.729-55.866h30.574l2.51-5.805h-33.084v5.805Z"/>
  <path fill="#A1A1A1" d="m187.829 142.891 16.247-79.424c-4.485.153-19.411.59-21.037-.654-3.645-2.794-3.012-8.119-2.652-10.017h-8.511c-.742 2.182-4.626 13.41-6.546 19.848-1.212 4.157-4.692 6.034-7.584 6.896-4.713 9.896-19.498 40.841-24.561 50.497a30.377 30.377 0 0 0-3.394 14.523h55.987a2.103 2.103 0 0 0 2.051-1.669Zm-11.108-6.012h-26.187a4.506 4.506 0 0 1-4.136-6.296l18.332-42.554a7.783 7.783 0 0 1 2.542-3.274c3.426-2.51 5.543-7.441 6.492-10.158a4.366 4.366 0 0 1 4.081-2.837h10.649a4.371 4.371 0 0 1 3.362 1.609 4.362 4.362 0 0 1 .894 3.618l-11.61 56.291a4.514 4.514 0 0 1-4.419 3.601Z"/>
  <path fill="#fff" d="M227.328 27.579V8.015L181.26 6.924 165.068 7l-14.283 18.08c-.328 3.274-2.259 19.957-8.729 25.38h13.792l8.969-28.468h2.335l-8.991 28.468h4.233l8.97-28.468h2.335l-8.991 28.468h4.233l8.969-28.468h2.881l-9.504 28.468h4.201l8.969-28.468h2.335l-8.991 28.468h4.234l8.969-28.468h2.335l-8.991 28.468h4.234l8.969-28.468h2.335l-8.991 28.468h4.234l8.969-28.468h2.335l-8.991 28.468h4.233l8.97-28.468h2.335l-8.991 28.468h4.233l8.969-28.468h2.335l-8.991 28.468h147.304V38.676H238.436a11.122 11.122 0 0 1-11.108-11.097ZM188.494 72.85h-10.649a3.273 3.273 0 0 0-3.066 2.183c-.993 2.837-3.208 7.998-6.874 10.671a6.722 6.722 0 0 0-2.183 2.794l-18.331 42.554a3.373 3.373 0 0 0 .284 3.273 3.412 3.412 0 0 0 2.848 1.539h26.187a3.44 3.44 0 0 0 3.35-2.728l11.62-56.357a3.269 3.269 0 0 0-1.789-3.606 3.275 3.275 0 0 0-1.397-.322Zm-17.283 44.377a8.988 8.988 0 0 1-1.763-17.81 8.994 8.994 0 0 1 9.232 3.831 8.993 8.993 0 0 1-1.123 11.346 8.992 8.992 0 0 1-6.346 2.633Z"/>
  <path fill="#A1A1A1" d="M383.186 8.026H357.25v2.565h-6.547V8.026h-54.557v2.565h-6.547V8.026h-60.121V27.58a8.921 8.921 0 0 0 8.958 8.915h39.717V13.002l115.05.23V8.025h-10.017Z"/>
  <path fill="#fff" d="M183.693 61.94c.972.72 56.892.186 56.892.186 2.444 0 4.365 1.887 6.002 3.742a8.372 8.372 0 0 1 1.996 5.652l-.327 11.49a2.84 2.84 0 0 1-2.826 2.75l-32.21-.197c.254.7.386 1.438.392 2.182a6.35 6.35 0 0 1-.589 2.695l35.506-.065c2.76 0 4.67-2.553 4.67-5.303V71.247a9.209 9.209 0 0 1 2.018-5.76 8.852 8.852 0 0 1 5.456-3.361c2.532-.459 5.39-1.888 5.39-4.572v-4.91h-84.53c-.262 1.222-1.222 6.7 2.16 9.296Zm63.766.273a3.378 3.378 0 0 1 2.327-2.573 3.372 3.372 0 1 1-2.327 2.573Z"/>
  <path fill="#A1A1A1" d="M358.941 51.552h27.508l2.586-5.98h-30.094v5.98Z"/>
  <path fill="#fff" d="M250.766 65.148a2.28 2.28 0 1 0 0-4.561 2.28 2.28 0 0 0 0 4.56Z"/>
  <path fill="#A1A1A1" d="M181.184 4.797a2.308 2.308 0 0 0-1.571-2.182l-7.398-2.51a2.029 2.029 0 0 0-2.673 1.92V5.91h11.642V4.797Zm-38.637 154.701a.513.513 0 0 0 .502.502h49.101a1.007 1.007 0 0 0 .786-.371l2.389-2.902h-52.778v2.771Z"/>
  <path fill="#fff" d="M148.133 59.932c11.632-.24 11.174 16.52 11.174 16.52l-.819 1.724a9.008 9.008 0 0 0 5.882-5.826c1.822-6.296 5.543-17.11 6.437-19.706h-36.302l-.338.076h-10.104a3.037 3.037 0 0 0-2.182.938l-2.488 2.64a1.432 1.432 0 0 0-.327 1.42l.6 1.942a.379.379 0 0 0 .36.272c2.204.033 17.338.208 28.107 0Z"/>
  <path fill="#A1A1A1" d="M139.056 36.843c5.401 1.091 6.797 3.273 7.136 4.637a77.257 77.257 0 0 0 3.415-15.734 6.337 6.337 0 0 0-3.273 2.826 7.402 7.402 0 0 1-1.408 1.757 4.964 4.964 0 0 1-3.601 1.244c-6.317-.338-8.216-2.063-8.729-3.088a.152.152 0 0 0-.227-.07.154.154 0 0 0-.057.07c-.207 2.182-.381 6.983 6.744 8.358Z"/>
  <path fill="#fff" d="M206.553 85.4a2.305 2.305 0 0 0-2.134 1.413 2.307 2.307 0 0 0 .492 2.513 2.298 2.298 0 0 0 2.51.504 2.301 2.301 0 0 0 1.424-2.128 2.314 2.314 0 0 0-2.292-2.303Z"/>
  <path fill="#fff" d="m208.517 82.06.12-.59 2.848-18.025H205.2l-16.487 80.537a2.083 2.083 0 0 1-2.051 1.67h-56.739v.622c0 3.589 3.077 6.928 4.975 8.62a3.015 3.015 0 0 0 1.986.741h60.689a3.36 3.36 0 0 0 2.183-2.869 2.798 2.798 0 0 0-.284-1.451c-1.953-4.169-.895-9.93-.895-9.93l8.369-47.071.131-.59a5.902 5.902 0 0 0 5.194-3.186 5.853 5.853 0 0 0 .229-4.932 5.875 5.875 0 0 0-3.983-3.546Zm-1.964 9.035a3.395 3.395 0 0 1-.677-6.721 3.397 3.397 0 0 1 3.487 1.44c.374.56.573 1.216.573 1.887a3.406 3.406 0 0 1-3.383 3.394Z"/>
</g>
</svg>
