<svg xmlns="http://www.w3.org/2000/svg" width="512" height="160" fill="none" viewBox="0 0 512 160">
<g transform="rotate(180 256 80)">
  <path fill="#fff" d="M100.099 155.241c.142 1.853-.596 3.264-1.166 4.054-.207.298 0 .7.376.7h48.789c.104 0 .622.013.738 0 5.142-.311 10.543.531 5.751-4.766h-54.488v.012ZM250.819 17.37h-36.446c-.415 2.926-.661 7.278 4.067 10.438h28.273c.182 0 5.103-.259 5.103-6.178v-4.26h-.997Zm-35.592-6.724s.182 2.902-.362 5.168h36.925s-1.204-3.121-.66-5.168h-35.903Zm-28.545 68.425a4.196 4.196 0 1 0 0-8.393 4.196 4.196 0 0 0 0 8.393Z"/>
  <path fill="#A1A1A1" d="M270.143 54.722c-9.131-.065-51.134-.31-62.208 0-12.434.363-16.552 11.993-16.552 11.993 6.333 5.427 2.914 13.237 1.761 15.413 2.098.544 3.601 1.775 3.601 1.775 10.206 12.524 24.518 10.024 24.518 10.024 21.305-2.5 19.337-23.274 19.337-23.274-.752-3.212-.544-6.088 1.567-7.124 5.038-2.474 12.472-1.968 15.438-1.645a2.239 2.239 0 0 0 2.086-.945l1.489-2.111a11.71 11.71 0 0 0 8.471-3.627l.297-.31.195-.195v.026Zm-46.005 35.372c-15.659 4.559-24.609-10.038-24.609-10.038-3.263-7.603-.867-12.887 1.36-15.775.752-.972 2.332-.402 2.267.828-.881 18.47 13.017 21.656 13.017 21.656-3.316-1.878-5.285-7.875-5.285-7.875-4.921-9.934 3.407-17.278 3.407-17.278 15.594-9.74 20.14 4.391 20.14 4.391 8.056 17.446-10.297 24.078-10.297 24.078v.013Z"/>
  <path fill="#fff" d="M395.076 26.228h-52.714c-.647 0-1.165-.738-1.165-1.645 0-.906.518-1.644 1.165-1.644h52.714c.648 0 1.166.738 1.166 1.644 0 .907-.518 1.645-1.166 1.645Z"/>
  <path fill="#A1A1A1" d="m398.301 13.756 2.746-.104h1.748c1.529 2.448 2.552 6.67 2.552 11.488s-1.023 9.04-2.552 11.488h-.725l-2.538-1.101-.026-.194h.026c.932-2.448 1.515-5.725 1.515-9.338 0-4.145-.764-7.81-1.956-10.335l-.79-1.904Z"/>
  <path fill="#A1A1A1" d="M415.54 13.639h-11.035c1.49 2.823 2.383 6.993 2.383 11.487s-.906 8.665-2.383 11.488h9.856s6.838-9.364 1.166-22.975h.013Zm-11.682-1.075h10.322l-3.031-8.768h-6.877l-2.746 8.107 2.332.66Z"/>
  <path fill="#fff" d="M134.24 5.337v-2.81A1.75 1.75 0 0 1 135.548.83l3.005-.777a1.763 1.763 0 0 1 1.373.22l8.975 5.673-14.674-.596.013-.013Zm122.122 5.013h-3.005v11.28c0 5.907-4.312 7.643-6.592 7.733H217.96l-.388-.259c-5.945-3.963-5.103-9.636-4.637-12.68l.104-.66c.233-1.71.142-3.523.077-4.456l-.09-.958h-12.849l-5.491-1.787h-42.858l-18.443-.544-11.76 7.084c-1.257.998-3.977 1.01-5.44.88l-5.453-.556c-.751-.078-1.515 0-2.189.337-2.512 1.178-3.782 3.691-2.564 5.064.673.764 3.458.026 4.455.259 11.968 2.668 11.67 9.675 12.343 14.687h136.487V15.13c-.609-3.341-2.889-4.766-2.889-4.766l-.013-.013ZM143.189 33.987a1.251 1.251 0 0 1-1.178-1.645l4.883-14.636c.22-.647.906-.997 1.58-.79.647.22 1.01.92.79 1.58l-4.883 14.636a1.26 1.26 0 0 1-1.179.855h-.013Zm4.054 0a1.251 1.251 0 0 1-1.178-1.645l4.883-14.636c.22-.647.906-.997 1.58-.79.647.22 1.01.92.79 1.58l-4.883 14.636a1.26 1.26 0 0 1-1.179.855h-.013Zm4.054 0a1.25 1.25 0 0 1-1.178-1.645l4.882-14.636a1.258 1.258 0 0 1 1.581-.79c.647.22 1.01.92.79 1.58l-4.883 14.636a1.26 1.26 0 0 1-1.179.855h-.013Zm4.041 0a1.25 1.25 0 0 1-1.178-1.645l4.882-14.636a1.258 1.258 0 0 1 1.581-.79c.647.22 1.01.92.79 1.58l-4.883 14.636a1.262 1.262 0 0 1-1.179.855h-.013Zm4.054 0a1.25 1.25 0 0 1-1.178-1.645l4.882-14.636a1.257 1.257 0 0 1 1.58-.79c.648.22 1.011.92.791 1.58l-4.883 14.636a1.262 1.262 0 0 1-1.179.855h-.013Zm4.054 0a1.252 1.252 0 0 1-1.179-1.645l4.883-14.636c.22-.647.907-.997 1.58-.79.648.22 1.011.92.79 1.58l-4.882 14.636a1.262 1.262 0 0 1-1.179.855h-.013Zm4.054 0a1.252 1.252 0 0 1-1.179-1.645l4.883-14.636c.22-.647.907-.997 1.58-.79.648.22 1.011.92.79 1.58l-4.882 14.636a1.262 1.262 0 0 1-1.179.855h-.013Zm4.041 0a1.252 1.252 0 0 1-1.179-1.645l4.883-14.636c.22-.647.907-.997 1.58-.79.648.22 1.011.92.79 1.58l-4.882 14.636a1.262 1.262 0 0 1-1.179.855h-.013Zm4.054 0a1.252 1.252 0 0 1-1.179-1.645l4.883-14.636c.22-.647.907-.997 1.58-.79.648.22 1.01.92.79 1.58l-4.883 14.636a1.26 1.26 0 0 1-1.178.855h-.013Zm10.102-15.478-4.883 14.636a1.26 1.26 0 0 1-1.178.855 1.252 1.252 0 0 1-1.179-1.645l4.883-14.636c.22-.647.907-.997 1.58-.79.648.22 1.01.92.79 1.58h-.013Z"/>
  <path fill="#A1A1A1" d="m398.068 17.226-.66-1.554-5.647.039-130.969.984.026 18.625H397.9l.492-1.438c.712-2.253 1.101-5.012 1.101-7.9 0-3.277-.518-6.412-1.425-8.769v.013Zm-2.992 9.856h-52.714a2.501 2.501 0 0 1-2.499-2.5 2.51 2.51 0 0 1 2.499-2.499h52.714c1.386 0 2.5 1.127 2.5 2.5a2.51 2.51 0 0 1-2.5 2.5ZM132.517 43.338a3.55 3.55 0 0 0-1.8-.596c-1.71-.13-4.559.116-4.676 3.264-.168 4.571 3.419 5.322 5.323 5.31 1.904-.013 8.613.75 9.791-.26 1.088-.932 2.772-2.965.272-5.27-.401-.376-1.554-.674-2.098-.596-1.424.22-4.455-.233-6.799-1.852h-.013Zm48.699 3.483a2.03 2.03 0 0 1-1.567-1.916c-.039-1.309.116-3.135 1.23-3.821 1.8-1.127 8.716 1.645 8.716 1.645l-.79 4.196s-4.546.596-7.589-.104Zm15.167-4.182h25.023c.595 0 .971.647.673 1.165l-2.085 3.627c-.246.427-.713.7-1.205.7h-23.145a1.117 1.117 0 0 1-1.088-1.36l.739-3.265a1.12 1.12 0 0 1 1.088-.867Zm30.916.103-1.14 3.251a1.052 1.052 0 0 0 .738 1.373l5.31 1.386a2.642 2.642 0 0 0 2.59-.739c.946-1.01 2.098-2.603 1.995-4.325a1.382 1.382 0 0 0-.674-1.127c-.88-.544-2.966-1.334-7.33-.958a1.709 1.709 0 0 0-1.476 1.14h-.013Z"/>
  <path fill="#fff" d="M260.805 37.329h-138.52c-.077.246-.142.518-.233.751-1.295 3.329-2.15 6.424-5.414 7.888-2.279 1.036-5.18 1.23-5.31 2.707-.078.92.091 2.292 1.684 2.901 1.852.7 5.919 1.658 5.919 1.658 12.149 2.551 9.066 9.74 6.307 13.638-2.176 3.083-4.002 6.385-5.66 9.779-5.465 11.255-15.658 32.483-18.236 39.555-3.574 9.778-7.15 25.178-7.15 25.178-1.605 11.812 7.345 12.356 7.345 12.356l53.231.168c3.096.324 2.435-4.287 2.435-4.287.363-17.187 23.456-59.462 23.456-59.462 3.264-6.216 7.694-9.027 10.906-8.263l.025-.039c.221-.35 5.181-8.626-1.113-14.013l-.816-.7.362-1.01c.039-.13 4.624-12.641 17.99-13.03 3.679-.103 11.139-.155 22.161-.155 17.666 0 38.739.142 41.549.155l1.205-1.256.039.026c-.013-.156-.026-.26-.026-.26l4.598 2.786 5.906.064a37.44 37.44 0 0 1-.415-2.85l4.766 2.89 6.774.064a39.954 39.954 0 0 1-.44-2.966l4.96 3.005 6.593.065c-.324-1.62-.453-3.083-.453-3.083l5.051 3.07-.039.064 6.165.065a34.395 34.395 0 0 1-.479-3.186l5.051 3.07-.091.155c3.717-.142 6.748-2.124 6.748-5.893V36.889l-66.792.453-.039-.013ZM126.3 50.747c-1.139-1.178-1.67-2.797-1.593-4.792.104-2.862 2.099-4.572 5.324-4.572.272 0 .544 0 .79.026.919.078 1.774.363 2.46.829 1.671 1.153 3.847 1.67 5.259 1.67.22 0 .414 0 .583-.038.129-.026.272-.026.414-.026.725 0 2.072.298 2.785.958 1.165 1.075 1.748 2.267 1.722 3.523-.025 1.321-.725 2.616-2.033 3.73-.699.609-1.943.855-4.3.855-1.425 0-3.031-.09-4.313-.168a40.292 40.292 0 0 0-2.046-.091c-1.205 0-3.471-.246-5.065-1.904h.013Zm51.549 15.607c-8.341 9.338-26.383 46.095-30.839 68.748-.803 4.054-3.587 10.103-8.017 10.103l-29.115-.441c-3.51-.026-7.344-.362-9.08-2.784-.958-1.334-1.088-3.044-.414-5.103 6.152-18.496 25.528-60.136 36.187-75.794 1.153-1.697 3.471-4.56 6.062-4.702l27.626-.855c.181 0 .505-.013.919-.013 14.558 0 15.012 1.632 15.154 2.176.13.492.026 1.218-.712 1.658-2.461 1.477-6.295 5.35-7.771 7.007Zm13.975 7.072a5.35 5.35 0 0 1-6.58 6.592c-1.774-.466-3.51-1.865-3.989-3.64-1.075-4.053 2.305-8.107 6.346-7.032 1.775.466 3.743 2.305 4.223 4.08Zm-1.891-25.308-.959.13c-.077 0-1.93.245-4.093.245-1.606 0-2.978-.129-4.066-.388-1.464-.35-2.448-1.645-2.5-3.147-.078-2.5.544-4.184 1.852-5 .505-.31 1.153-.466 1.995-.466 2.875 0 7.719 1.93 7.926 2.008l1.023.401-1.178 6.217Zm33.299-3.64-2.086 3.627a2.729 2.729 0 0 1-2.357 1.36h-23.145a2.42 2.42 0 0 1-1.904-.92c-.466-.583-.634-1.334-.466-2.059l.738-3.264a2.452 2.452 0 0 1 2.384-1.904h25.022c.752 0 1.451.402 1.827 1.062a2.122 2.122 0 0 1 0 2.111l-.013-.013Zm12.498 4.469a3.936 3.936 0 0 1-2.862 1.217c-.337 0-.674-.039-1.01-.13l-5.311-1.385a2.356 2.356 0 0 1-1.502-1.192 2.462 2.462 0 0 1-.155-1.916l1.139-3.251a3.029 3.029 0 0 1 2.578-2.02 29.563 29.563 0 0 1 2.318-.105c3.173 0 4.948.687 5.88 1.257a2.744 2.744 0 0 1 1.308 2.189c.13 2.202-1.23 4.118-2.37 5.336h-.013Z"/>
  <path fill="#A1A1A1" d="m144.044 58.75 27.018-1.255c2.098-.117 15.166-.208 13.638.712-2.629 1.58-6.761 6.372-8.224 8.017-8.199 9.17-25.943 43.868-30.541 67.181-.634 3.212-2.629 9.04-6.346 9.015l-29.077-.441c-4.598-.026-10.064-.66-8.25-6.126 6.061-18.249 24.828-57.35 35.41-72.893.907-1.334 4.339-4.105 6.372-4.222v.013Z"/>
</g>
</svg>
