<svg xmlns="http://www.w3.org/2000/svg" width="512" height="160" fill="none" viewBox="0 0 512 160">
<g transform="rotate(180 256 80)">
  <path fill="#A1A1A1" d="M160.421 55.79c-.202-.403-.404-.605-.807-.403-7.671 3.23-33.307 14.937-37.546 34.114-.202.403.202.807.202 1.009.404.202.606.404 1.009.404h9.286c.605 0 2.22 0 2.422-.808 2.019-6.257 9.286-26.443 27.049-27.25.404 0 .606-.404.404-1.01l-2.019-6.055Zm-46.427 8.48L18.112 79.004l-.202 28.058c0 2.018.606 3.633 2.22 4.643 1.615 1.009 3.836 1.009 5.653.201l48.849-22.81c4.037-2.018 8.478-3.43 12.919-4.44l20.791-5.45c1.009-.202 2.422-1.01 3.028-2.019l4.239-8.074c.606-1.01 1.615-2.624 1.211-3.836-.605-.807-1.817-1.21-2.826-1.009Z"/>
  <path fill="#fff" d="m175.157 70.325 3.432 2.22c.605.808 1.009 2.019 1.009 2.826 0 3.432 2.826 6.258 6.258 6.258h14.937c1.615 0 3.23-.807 4.037-2.22 3.634-5.854 3.835-7.267 10.497-9.891h-40.372c-.605 0-.202.605.202.807Zm7.065 4.643c0-2.423 2.019-4.441 4.441-4.441h12.919c2.422 0 4.441 2.018 4.441 4.44v.808c0 2.422-2.019 4.441-4.441 4.441h-12.919c-2.422 0-4.441-2.019-4.441-4.44v-.808Z"/>
  <path fill="#A1A1A1" d="M216.134 51.149h37.141v-1.615h6.46v1.615h3.633v-3.836h-26.039c-.404 0-1.01.202-1.413.404l-1.817 1.01c-.404.201-1.009.403-1.413.403H215.73c-.606 0-1.009.404-1.009 1.01 0 .605 1.009 1.009 1.413 1.009Zm45.013 6.863a1.81 1.81 0 0 0-1.817 1.816 1.81 1.81 0 0 0 1.817 1.817 1.81 1.81 0 0 0 1.817-1.817 1.81 1.81 0 0 0-1.817-1.816Z"/>
  <path fill="#fff" d="m175.156 45.093-7.872 5.854c-.606.403-.808 1.21-.404 1.816l3.23 7.67c0 .203.202.405.605.405h44.611l2.624 2.826h49.858V45.093h-92.652Zm85.991 17.561c-1.615 0-2.826-1.21-2.826-2.826 0-1.614 1.211-2.826 2.826-2.826s2.826 1.212 2.826 2.826c0 1.615-1.211 2.826-2.826 2.826ZM216.133 47.92h16.956c.404 0 .606 0 1.009-.202l1.817-1.01c.606-.403 1.211-.605 1.817-.605h27.049v5.854h-48.446c-1.211 0-2.019-1.01-2.019-2.019-.201-1.009.808-2.018 1.817-2.018Zm194.388.403H275.883c-1.615 0-2.826 1.211-2.826 2.826v17.36c0 1.211.807 2.422 1.816 2.826h3.634V56.8c0-2.422 2.018-4.643 4.642-4.643h120.105c2.423 0 4.643 2.02 4.643 4.643v14.534h3.835c1.01-.404 1.817-1.615 1.817-2.826v-17.36c-.202-1.615-1.615-2.826-3.028-2.826Zm67.018 6.257h-62.172v11.708h62.172V54.58Z"/>
  <path fill="#A1A1A1" d="M481.98 54.58h-2.625v11.708h2.625c1.614 0 3.027-1.615 3.027-3.23v-5.45c0-1.817-1.413-3.028-3.027-3.028Zm18.166-16.35s-.201-.202-.403-.202h-2.019V35h-8.478v2.624h-5.652c-.605 0-1.211.202-1.817.404l-4.037 2.018h24.021l-1.615-1.816Zm-97.901 15.947H283.957c-1.817 0-3.432 1.413-3.432 3.431v13.727h125.152V57.608c0-2.018-1.615-3.431-3.432-3.431Zm-3.23 12.515H286.379v-2.019h112.636v2.019Zm0-6.258H286.379v-2.018h112.636v2.018ZM286.379 38.432h-2.423V36.01h-4.037v2.624h-7.872v1.211h14.332v-1.413Z"/>
  <path fill="#fff" d="M269.625 41.863v25.232h1.211V51.15c0-2.624 2.221-4.845 4.845-4.845h134.638c2.423 0 4.441 1.817 4.845 4.24H506v-8.68H269.625Zm-55.308 20.792h-44.408c-.606 0-1.212-.202-1.413-.808l-3.634-9.083c-.404-1.01-.202-2.423.808-3.028l8.478-6.46c.403 0 .807-.202 1.009-.202h92.45v-3.23l-92.248.404a7.278 7.278 0 0 0-4.037 1.212c-5.652 3.835-23.618 15.139-35.931 18.167-7.267 5.854-15.543 14.937-21.397 30.48l.202 1.817c.202 2.422 1.817 4.037 4.037 4.037l18.571-.202c1.817 0 3.432-1.413 3.835-3.23 1.615-7.872 8.478-27.856 33.71-25.434l43.4-.403v4.844h34.719v-4.844l15.139.202v-1.615h-50.666l-2.624-2.624Zm-51.675 1.816c-16.553.808-23.819 20.186-25.636 26.04-.202.404-.404.807-.808 1.211l-.403.404c-.606.403-1.615.807-3.23.807h-9.285c-1.01 0-2.019-.404-2.625-1.211-.605-.606-.807-1.615-.807-2.422 2.019-8.478 7.671-15.543 14.332-21.195.605-.404 1.009-1.01 1.615-1.413 8.68-6.863 18.772-11.506 23.213-13.323 1.817-.807 2.423-.202 3.028 1.211l2.624 6.863c1.01 2.22-.807 3.028-2.018 3.028Z"/>
  <path fill="#fff" d="M131.353 60.231c-2.018.202-3.633 0-5.046-.605-1.211-.606-3.23-.808-4.441-.808l-20.388 1.212-92.854 8.276C7.211 68.507 6 69.719 6 71.334v48.445c0 4.441 4.643 7.267 8.68 5.45l50.262-23.011s24.829-15.947 47.033-12.516c5.45-14.331 12.515-23.415 19.378-29.47Zm-13.12 7.67-5.854 10.901c-.606 1.211-1.817 2.019-3.028 2.422l-21.8 5.45a67.189 67.189 0 0 0-12.718 4.24l-49.657 23.415c-.807.404-1.816.606-2.826.606-1.21 0-2.422-.404-3.633-1.01-1.817-1.211-3.028-3.229-3.028-5.652l.202-30.278c0-.404.404-1.01.807-1.01l97.296-14.735c1.413-.202 2.826.404 3.835 1.615 1.009 1.21 1.009 2.826.404 4.037Z"/>
  <path fill="#A1A1A1" d="M191.305 78.803c.404 0-3.633-2.826 0-7.267h-4.44c0 1.817-.202 7.267 4.44 7.267Z"/>
</g>
</svg>
