<svg xmlns="http://www.w3.org/2000/svg" width="160" height="512" fill="none" viewBox="0 0 160 512">
<g transform="translate(160 0) rotate(90)">
  <path fill="#fff" d="M116.826 55.479a4.279 4.279 0 0 1 1-5.4l2.4-2.2v-.2a11.07 11.07 0 0 0-6.4-6h-.2c-69 26.2-86.8 65.6-91.4 82.8a7.06 7.06 0 0 0-.1 3.1 6.7 6.7 0 0 0 1.28 2.82 6.988 6.988 0 0 0 2.4 2c.94.459 1.973.698 3.02.7h32a8.001 8.001 0 0 0 7.6-6.2c11-54.2 60-47 60-47 28.2-.4 48.4-.8 63.2-1v-4a.99.99 0 0 0-.294-.7.98.98 0 0 0-.706-.28l-61.02.56a5.161 5.161 0 0 1-4.58-2.8l-8.2-16.2Zm-7.4 18a4.263 4.263 0 0 1-1.22 1.84 4 4 0 0 1-2 .96c-7 1.6-42.2 11.2-43.2 47.4a4.437 4.437 0 0 1-4.4 4.4h-23.78a3.996 3.996 0 0 1-3.4-1.8 4.42 4.42 0 0 1-.4-4.16c4-11.6 20.2-49.6 70.4-69.8a4.3 4.3 0 0 1 5.4 2c2 3.76 5.2 11.56 2.6 19.16Z"/>
  <path fill="#fff" d="M114.826 39.478a13.198 13.198 0 0 1 7.4 6.6l10.8-9.6c3.1-2.82 2.64-3.36 8.8-3.2h73.6v-4.6h-85.4c-4.6 4.8-19.517 1.519-28.4-2.6-.4-.2-.8 0-.8.4v4a.66.66 0 0 0 .18.42c.12.1.266.163.42.18 11.4 1 13.4 5.8 13.4 8.4Z"/>
  <path fill="#A1A1A1" d="M102.825 53.878a1.162 1.162 0 0 0-.8.2c-49.6 20-65.6 57.8-69.2 68.8a1.76 1.76 0 0 0-.1 1.06c.065.358.24.687.5.94.2.294.467.534.78.7.313.178.662.281 1.02.3h23.8a2.217 2.217 0 0 0 2.2-2.2c1-37.8 37.4-47.8 44.8-49.6a2.224 2.224 0 0 0 1.6-1.6c2.4-6.8-.6-14-2.6-17.6a2.595 2.595 0 0 0-.88-.74 2.42 2.42 0 0 0-1.12-.26Z"/>
  <path fill="#fff" d="M481.627 28.879c.8 1.8 3.6 10.4.8 17.6h9.2v-17.6h-10Zm-73 49c10.2-.8 27.4-2.6 37.4-15.2a34.504 34.504 0 0 0 6.6-13.8h-235.4v30.6h11.2m190.2-14h-166.4a5 5 0 1 1 0-10h166.4a5 5 0 0 1 0 10Zm34.4-19.2h27.2c3.6-7.2-.4-17-.6-17.2l-262.4-.4v18"/>
  <path fill="#A1A1A1" d="M418.626 57.679h-166.4a3.078 3.078 0 0 0-3 3 2.898 2.898 0 0 0 1.84 2.78c.367.151.762.226 1.16.22h166.4a3.001 3.001 0 0 0 0-6Zm-292.42 11.14c2.5 4.56 3.32 3.62 5.78 3.6l60.5-.54a2.24 2.24 0 0 1 2.24 2.16l.18 5.44h20.98v-29.84c-13-.2-26-.2-38.76-.2v-13.56h-36.62a6.72 6.72 0 0 0-4.6 1.8l-14.8 13a4.48 4.48 0 0 0-1 5.6l1.4 3.08m10.2 9.22a3.26 3.26 0 0 1-1.68-.46 2.977 2.977 0 0 1-1.1-1.24 2.577 2.577 0 0 1 .64-3 3.079 3.079 0 0 1 1.54-.74 3.22 3.22 0 0 1 1.74.14c.532.21.995.564 1.34 1.02.333.437.516.97.52 1.52a2.63 2.63 0 0 1-.22 1.06c-.141.35-.368.66-.66.9a2.885 2.885 0 0 1-.98.6 3.18 3.18 0 0 1-1.14.16v.04Zm5.6-23.7c-.44.004-.871-.12-1.24-.36a2.273 2.273 0 0 1-.8-1 2.237 2.237 0 0 1 .48-2.4 2.2 2.2 0 0 1 1.12-.6 2.34 2.34 0 0 1 1.28.12c.397.175.737.46.98.82.244.36.377.785.38 1.22a2.304 2.304 0 0 1-.66 1.56 2.24 2.24 0 0 1-1.54.6v.04Zm37.6 22.8a3.117 3.117 0 0 1-1.78-.54 2.978 2.978 0 0 1-1.18-1.44 3.063 3.063 0 0 1-.18-1.84 3.199 3.199 0 0 1 6.34.62 3.355 3.355 0 0 1-.24 1.24 3.275 3.275 0 0 1-.7 1.04c-.296.296-.65.528-1.04.68-.39.146-.804.214-1.22.2v.04Zm-3.36-12.8.4-12.14.98 10.36 27.36.6-28.74 1.18Zm34.56 21a5.14 5.14 0 0 1-6.12-.88 5.156 5.156 0 0 1-.88-6.12 4.698 4.698 0 0 1 2-2 5.079 5.079 0 0 1 3.2-.58 5.16 5.16 0 0 1 4.36 4.38 5.225 5.225 0 0 1-.56 3.2c-.2.76-1 1.36-2 1.96v.04Z"/>
  <path fill="#fff" d="M179.426 35.478v12h36v-12h-36Zm2 9v-1l30.24 1.88-30.24-.88Zm-47.539 38.601a.401.401 0 0 0-.22.76 24.004 24.004 0 0 1 9.76 15.3 8.835 8.835 0 0 0 8.66 6.82h30.36a7.526 7.526 0 0 0 6.22-3.4c11.46-17.12 23.78-16.46 23.78-16.46-2.2 6.6 8.2-.8 13.4-4.8-8.94.4-32.42.78-91.96 1.78Zm53.24 13.74a7.343 7.343 0 0 1-7.34 7.34h-26.2a7.34 7.34 0 0 1-7.34-7.34v-5.48a7.338 7.338 0 0 1 7.34-7.34h26.2a7.342 7.342 0 0 1 7.34 7.34v5.48Z"/>
  <path fill="#fff" d="M161.246 86.919c0-.2.2-.8.2-1.2h-6.6c-.6 4 .2 9.6 11.6 12 3.8-4.4-7.2-1-5.2-10.8Z"/>
</g>
</svg>
