<svg xmlns="http://www.w3.org/2000/svg" width="160" height="512" fill="none" viewBox="0 0 160 512">
<g transform="translate(160 0) rotate(90)">
  <path fill="#fff" d="M54.406 105.625c-1.58-2.62-.52-6.04 2.28-7.26l12.94-5.56s12.941 6-3.86 15.48c0 0-4 1.46-4.14 5.6 0 0 .94 8.54-6 14.281 0 0-.7.56-1.5 1.52-3.18 3.82.5 9.36 5.3 8.02 4.8-1.34 11.78-5.14 22.621-15.021 0 0 17.04-14.38 71.042-24.78.14-.02.26-.06.4-.1 3.181-.92 45.282-13.04 58.142-15.281.16-.02.28-.04.46-.06 2.541-.2 26.341-2.26 40.342-7.94 0 0 26.421-7.88 47.901-6.28l34.002-.2c1 0 1.94-.3 2.76-.86 2.88-1.94 9.96-6.94 14.16-11.72 1.74-1.98 4.94-6.841 3.24-8.881-.76-.9-3.86-.56-2.66-2.9l-.04-4.04 5.12-.5v2.82s10.681-2.26 4.54 9.08c0 0-10.24 15.12-19.7 21.62-.4.28-.82.48-1.26.62-4.08 1.4-26.101 8.601-58.142 12.561l-58.642 8.78c-.12 0-.24.04-.38.04-2.78.2-37.781 2.76-52.062 8.701-.74.3-1.52.46-2.32.38-5.2-.44-26.301-1.7-40.501 4.7-.32.14-.62.24-.94.3-3.741.74-28.561 6.1-44.082 22.981-.1.1-.18.2-.3.28-2.38 2.06-30.961 26.221-40.041 7.62-.46-.94-.54-2.02-.36-3.04.64-3.44 2.54-11.881 7.18-20.501.26-.5.6-.92 1.02-1.3.76-.7 2.14-2.04 3.28-3.38 1.34-1.62 1.42-3.94.32-5.72 0-.04-.04-.06-.06-.1l-.06.04Z"/>
  <path fill="#A1A1A1" d="M263.611 36.522c1.14 1.38 2 3.32 1.72 6.3v.28l-.12.26c-.08.24-.68 1.84-2.1 3.68l110.024-10.74s2.4-1.84 5.72-3.5l-115.264 3.72h.02Z"/>
  <path fill="#fff" d="M251.852 44.443a2.26 2.26 0 1 0 0-4.52 2.26 2.26 0 0 0 0 4.52Zm-15.862.599a1 1 0 1 0 0-2 1 1 0 0 0 0 2Zm-14.719 1.421a1 1 0 1 0 0-2 1 1 0 0 0 0 2Zm-8.321-28.562c-1.42.18-2.84.4-4.2.68-3.58.76-5.8 4.26-5.8 8.66 0 0-.68 6.52 10.02 8.14v-17.48h-.02Zm175.666 1.701-163.646-2.38s-4.52-.08-9.72.42v17.98c2.2.16 4.74.16 7.78-.1l165.566-5.34c6.46.24 95.583.04 114.064 0 1.84 0 3.34-1.5 3.34-3.34v-3.2c0-1.84-1.48-3.34-3.32-3.34l-114.084-.66.02-.04ZM33.165 46.163c.66-1.44 1.78-2.54 3.1-3.3l-7.06-.1c-2.94-.04-5.64 1.62-6.88 4.3-5.6 11.98-20.061 46.061-15.421 68.242.52 2.44 3.2 3.74 5.44 2.68 1.56-.74 3.52-1.66 5.8-2.72-.14-.28-.34-.52-.4-.86-4.66-22.18 9.82-56.262 15.4-68.263l.02.02Z"/>
  <path fill="#A1A1A1" d="M173.529 58.482c-.48-.3-.9-.62-1.34-.92-3.52-2.4-5.78-5.2-7.18-8.04-.34-.7-.64-1.4-.88-2.1 0-.04-.02-.06-.04-.1-.24-.68-.42-1.34-.58-2 0-.06-.02-.1-.04-.16-.14-.66-.26-1.3-.34-1.94v-.14c-.08-.66-.14-1.32-.16-1.94v-1.86c.06-1.34.2-2.56.4-3.64 0-.1.04-.2.06-.3.06-.32.12-.6.18-.9l.06-.3c.08-.3.14-.58.22-.86.26-.98.52-1.7.64-2.04-2.6-.2-10.541.46-25.961 11.62 0 0-5.98 2.48-13.341 3.9-.88.18-1.8.32-2.72.46-.08 0-.16.02-.26.04-.84.12-1.7.2-2.56.28-.16 0-.32.04-.48.04-.78.06-1.56.08-2.32.1h-.72c-.7 0-1.4-.04-2.08-.08h-.32c-.2 0-.4 0-.6-.02-.64-.06-1.26-.16-1.88-.28-.16-.02-.34-.06-.5-.08-.16-.04-.32-.04-.48-.08-.6-.12-1.16-.32-1.74-.48-.32-.1-.66-.16-.96-.28-.58-.22-1.12-.5-1.66-.78-.26-.14-.56-.24-.82-.38-.78-.46-1.52-.98-2.18-1.58l-62.362-.96-2.78 1.3c-.96.54-2.06 2.22-2.48 3.14-4.74 10.16-19.821 45.002-15.241 66.802l.12.24c.14-.06.28-.14.44-.2h.04c.58-.26 1.18-.54 1.78-.84.16-.08.34-.16.5-.24l.36-.18c.5-.24 1-.46 1.52-.7.54-.26 1.08-.5 1.64-.76.52-.24 1.06-.5 1.62-.76.38-.18.78-.36 1.16-.54.58-.26 1.16-.54 1.76-.82.34-.16.7-.32 1.06-.48.78-.36 1.56-.72 2.36-1.1.14-.06.3-.14.46-.2.86-.4 1.72-.8 2.6-1.2.18-.08.34-.16.52-.24.22-.1.42-.2.64-.3.68-.32 1.34-.62 2.02-.94 3.48-1.62 7.1-3.28 10.761-4.98.28-.12.56-.26.82-.38.46-.2.9-.42 1.36-.62.5-.24 1.02-.46 1.52-.7.42-.2.84-.38 1.24-.58.72-.32 1.44-.66 2.16-.98.52-.24 1.06-.48 1.58-.72.34-.16.68-.3 1.02-.46.44-.2.88-.4 1.3-.6.38-.18.74-.34 1.12-.52.72-.34 1.46-.66 2.18-1 .08-.04.14-.06.22-.1.44-.2.88-.4 1.34-.6l2.64-1.2c.26-.12.52-.24.76-.34.86-.4 1.72-.78 2.58-1.16.36-.16.74-.34 1.1-.5.22-.1.42-.2.64-.28.7-.32 1.4-.64 2.1-.94.2-.08.4-.18.58-.26.5-.22.98-.44 1.46-.66.52-.24 1.06-.48 1.561-.7.08-.04.16-.06.22-.1.02 0 .06-.02.08-.04 2.14-.96 4.22-1.88 6.18-2.74.3-.14.58-.26.88-.38.68-.3 1.34-.58 1.98-.86l.92-.4c.26-.12.5-.22.76-.32.34-.16.7-.3 1.04-.44.26-.12.52-.22.8-.34.56-.24 1.12-.481 1.66-.701.3-.14.6-.26.9-.38.18-.08.36-.16.56-.24.26-.1.5-.22.74-.32.3-.12.6-.24.88-.36.06-.02.12-.06.18-.08.34-.14.68-.28 1-.4.26-.1.501-.2.741-.3.36-.14.68-.26 1-.4.22-.08.46-.18.68-.26.3-.12.58-.22.84-.32.18-.06.38-.14.54-.2.12-.04.2-.06.3-.1.14-.04.28-.1.4-.14.12-.04.26-.1.38-.12.3-.1.56-.16.78-.2 0 0 13.6-3.6 27.621-10.14 0 0 22.34-8.84 32.241-7.48.32.04.68.06.98.14l8.82.12c-.7-.18-1.14-.34-1.18-.36l-.12-.04Z"/>
  <path fill="#fff" d="M190.75 59.743h-1.34c-1.68.18-3.56.3-5.44.3h-.52c-3.42-.04-6.18 0-7.78-.36l-6.46-.26c-.4.68-.6 2.18-.46 2.88.86 4.12 1.98 7.48 6.42 8.98 2.78.96 5.18 1.96 9.92.94 10.08-2.16 11.96-12.8 11.96-12.8l-6.28.32h-.02Zm-5.32 10.82c-8.66 1.58-12.18-1.56-13.58-3.62-1.4-2.06-1.32-5.82-1.32-5.82l4.68.42s-1.56 5.44 4.38 6.9h1.72s-6.4-3.52-3.2-6.9l5.82.52 4.24.14 5.36-.66s.58 7.42-8.08 9l-.02.02Z"/>
  <path fill="#A1A1A1" d="M191.789 53.662c-1.98.92-4.16 1.48-6.48 1.48-8.66 0-15.72-7.24-15.72-16.14s7.06-16.14 15.72-16.14c2.34 0 4.56.56 6.56 1.52l-.18-2.74h-16.8s-6.14 3.64-8.94 9.6c0 0-7.24 16.82 8.4 26.24 0 0 3.46 1.26 9.16 1.34 5.7.08 11.66-1.16 11.66-1.16v-3.56l-3.38.1v-.54Z"/>
  <path fill="#A1A1A1" d="m260.211 36.623-6.5.2-30.601.98c-1.74.16-3.44.24-4.98.24-7.22 0-12.341-1.62-15.221-4.84-2.58-2.88-2.34-5.9-2.3-6.24 0-3.42 1.28-6.44 3.4-8.441l-20.86-.12s-5.741-5.98-9.281-4c0 0-2.94 2 .36 5.68l.26.32.4.4 17.681-.14.28 4.32c4.96 2.72 8.38 8.02 8.38 14.18s-3.3 11.261-8.1 14.021l2.96-.08v5.28l-.74.16s-.88.18-2.08.36l4.16.06s2.8-7.32 47.062-10.64c4.24-.32 8.86-.6 13.9-.84l1.24-.12c2.5-2.22 3.38-4.78 3.38-4.78.3-3.4-1.1-5.1-2.8-5.98v.02Zm-38.941 10.78c-1.06 0-1.94-.86-1.94-1.94s.86-1.94 1.94-1.94 1.94.86 1.94 1.94-.86 1.94-1.94 1.94Zm14.72-1.44c-1.06 0-1.94-.86-1.94-1.94s.86-1.94 1.94-1.94 1.941.86 1.941 1.94a1.93 1.93 0 0 1-1.941 1.94Zm15.861-.58a3.21 3.21 0 0 1-3.2-3.2c0-1.76 1.44-3.2 3.2-3.2 1.76 0 3.2 1.44 3.2 3.2 0 1.76-1.44 3.2-3.2 3.2Z"/>
  <path fill="#fff" d="m502.96 18.221-2.94-2.28h-4.68l-2.92 2.28v1.06h10.54v-1.06Zm-317.451 5.76c-8.16 0-14.78 6.8-14.78 15.2 0 8.4 6.62 15.2 14.78 15.2s14.78-6.8 14.78-15.2c0-8.4-6.62-15.2-14.78-15.2Zm-6.1 7.42.98-.06.28-.34.82-.22c.18 0 .36.04.54.12.38-1.66 2.38-2.78 2.62-2.9l1.38-.28c-.5.48-.58 3.42-.2 4.44.46-.34.96-.42 1.04-.44l1.12-.14c.34-.38.76-.6 1.16-.6h.94l.16 1.14c0 .46.8 2.52 1.42 3.76.52 1.02.28 2.74.1 3.66l2.48 2.32v3.52c0 1.22-.38 3.28-.38 3.28-.56.92-1.12 1.22-1.74 1.22-.34 0-.66-.08-.98-.22l.58 1.32-4.06-1.42c.12.48.16 1.04-.24 1.5-.22.26-.62.58-1.32.58-.64 0-1.26-.26-1.38-.32l-.44-.2-.08-.46c-.02 0-.28-.38-1.16-1.04l-2.12-1.6c-1.58-1.14-.42-3.56-.28-3.84l-.08-1.48-.92-1.3-.54-1.84h-.08c-1.02 0-1.6-.38-1.92-.72-.6-.62-.62-1.38-.62-1.52-.04-3.6 0-3.64.32-3.96l.28-.28h.4c.44 0 .68.2.82.48l.58-.44.3-.62-.98-1.18 1.24.08h-.04Z"/>
  <path fill="#fff" d="m179.769 38.521.62 2.32 1.06 1.52v2.22s-.98 1.96 0 2.66c.98.7.72.54 2.14 1.6 1.42 1.06 1.52 1.6 1.52 1.6s1.16.54 1.6 0c.44-.54-.8-2.04 0-2.32.8-.28 1.52.62 1.52.62l1.78.62-.72-1.6.72-.26s1.86 2.4 2.94.98c0 0 .36-1.96.36-3.12v-3.12l-2.58-2.4s.62-2.5.08-3.56-1.52-3.46-1.52-4.18c0-.72-1.52.44-.88 1.96s-1.52-.26-1.42-1.42c0 0-1.34.18-.88 1.6.46 1.42-2.86-3.64-1-5.42 0 0-3.66 1.96-1.54 3.96 2.26 2.12-.06 2.1-.54 1.34 0 0-1.02-3.26-1.92-2.2-.9 1.06-1.78.36-1.78.36l2.32 1.6s2.2 1.74 1.06 2.22c-1.14.48-4.14-2.66-4.14-2.66l2.04 3.42s-2.9-.08-3.06-2.32c-.16-2.24-.14 2.76-.14 2.76s-.04 1.64 2.36 1.2v.02Z"/>
</g>
</svg>
