<svg xmlns="http://www.w3.org/2000/svg" width="379" height="70" fill="none" viewBox="0 0 379 70">
<g transform="rotate(180 189 35)">
  <path fill="#fff" d="M115.733 29.954a5.104 5.104 0 0 0 3.408-2.375 5.094 5.094 0 0 0 .511-4.123 5.11 5.11 0 0 0-2.726-3.135 5.1 5.1 0 0 0-4.153-.067 5.105 5.105 0 0 0-3.605 4.386 5.107 5.107 0 0 0 6.565 5.394v-.08Zm-97.72 14.999a6.74 6.74 0 0 0 4.5-8.4 6.76 6.76 0 0 0-8.42-4.5 6.74 6.74 0 0 0-1.225 12.398 6.741 6.741 0 0 0 5.145.502Zm153.28-8.999s66.32 2.86 80.86 2.76c0 0 10.96.44 13.8 4a16.82 16.82 0 0 1 3.34 7.16s65.62-.54 89.5-14.18l-105.2-22.36s-25.58 10-76.22-8.2c0 0-2.56 6.48-3.28 8.7a108.361 108.361 0 0 0-2.26 12.24 82.351 82.351 0 0 0-.6 9.84l.06.04Z"/>
  <path fill="#A1A1A1" d="M167.653 39.433v-3.44a83.69 83.69 0 0 1 .64-10.4c.515-4.334 1.31-8.63 2.38-12.86.74-2.28 3.26-8.64 3.34-8.9l.34-.84a6.738 6.738 0 0 0-.98-.4c-1.04-.3-.96-.3-2.4-.68-1.44-.38-4.32-1.24-6.16-1.68a7.86 7.86 0 0 0-5.5.64c-.26.14-.72.38-1 .56a16.266 16.266 0 0 0-7.86 11.16.724.724 0 0 0 0 .34c-.12 5.3-.76 8.14.42 14 1.18 5.86 3.74 16.36.66 22.3l-3.14 6c-1.52 2.46-4 4.86-5.3 6.74l-.1.12c-.1.12-.18.3-.42.66-.68 1.08-1.12 4.78.64 5.28l16.72 1.48c2.46-.42 3.38-4 4.64-7.2a104.481 104.481 0 0 0 2.78-12m-11.46 12.6a2.64 2.64 0 1 1 .2-3.7 2.618 2.618 0 0 1-.3 3.82l.1-.12Z"/>
  <path fill="#fff" d="m267.433 52.633-.82-2a24.67 24.67 0 0 0-3.5-6 10.821 10.821 0 0 0-4.22-2.44 19.66 19.66 0 0 0-6.92-.62c-10.72 0-49.38-.96-69.14-1.52l-8.14-.38-3.4-.26v11.16l7.32.76c1.28.12 44.32 2 44.32 2 7.06.62 34.3.3 40.18 11.14l4.32-11.84Zm111.461-24.38-17.82 7.7-7.78 4.3c-24.46 14-80.24 13.34-82.58 13.3h-2.38l-3.48 13.2c29.18 1.06 59.36.36 86.78-9.46l27.26-29.04Z"/>
  <path fill="#fff" d="M266.933 6.354c-3.5-.1-10.28 5.9-10.76 5.9l103.52 22 19.24-6.32-36.54-6.44a1.54 1.54 0 0 0-1.8 1.68l.22 2c.1.96-.48 1.58-1.32 1.42a2.422 2.422 0 0 1-1.7-2l-.4-4-2-.36.34 4a1.246 1.246 0 0 1-.329 1.136 1.238 1.238 0 0 1-1.131.344 2.483 2.483 0 0 1-1.78-2.14l-.28-3.8-2.18-.38.24 3.72a1.33 1.33 0 0 1-.41 1.162 1.313 1.313 0 0 1-1.19.318 2.499 2.499 0 0 1-1.88-2.22l-.18-3.6-2.34-.52.12 3.52a1.445 1.445 0 0 1-.505 1.227 1.448 1.448 0 0 1-1.295.293 2.519 2.519 0 0 1-2-2.3v-3.42l-2.52-.44v3.3a1.603 1.603 0 0 1-1.27 1.596 1.598 1.598 0 0 1-.73-.016 2.544 2.544 0 0 1-2-2.4v-3.18l-2.78-.48v3.08a1.733 1.733 0 0 1-1.459 1.632 1.743 1.743 0 0 1-.781-.052 2.621 2.621 0 0 1-2.16-2.48l.12-2.94-2.96-.5-.18 2.84a2.007 2.007 0 0 1-.888 1.368 2.003 2.003 0 0 1-1.612.252 2.698 2.698 0 0 1-2.28-2.62l.2-2.68-3.24-.56-.26 2.58a2.184 2.184 0 0 1-1.892 1.748 2.18 2.18 0 0 1-.908-.088 2.8 2.8 0 0 1-2.42-2.72l.3-2.42-3.58-.62-.32 2.3a2.469 2.469 0 0 1-2.169 1.819 2.46 2.46 0 0 1-.991-.12 2.82 2.82 0 0 1-2.52-2.88l.36-2.12-4-.68-.36 2a2.84 2.84 0 0 1-3.56 1.72c-1.78-.34-2.7-2.3-3.2-3.58l-1.3-2.4-.9-1.1a3.319 3.319 0 0 0-1.4-.3v-.08Z"/>
  <path fill="#A1A1A1" d="M147.573 31.393c-.28-1.28-.5-2.32-.6-2.98a56.295 56.295 0 0 1-.18-15.4c.12-.82.26-1.62.42-2.34a25.11 25.11 0 0 1 4-8.22c-2 .36-4.34.88-5.82 1.24a55.024 55.024 0 0 0-5.7 1.38c-15.06 5.6-38.64.32-38.64.32-19.76-7.14-45.26 1.52-50.94 3.62-.686.278-1.354.599-2 .96a67.58 67.58 0 0 1-32 7.74 2.34 2.34 0 0 0-1.84.82l-13.72 16.3a2.36 2.36 0 0 0-.28 2.62c2.82 5.38 13.08 24.86 16.5 31.34a1.52 1.52 0 0 0 2.58.18c14.14-18.2 25.18-18 29.58-17.02a3.44 3.44 0 0 0 3.46-1.02c10.34-12 24-6.24 28.34-3.84a2.7 2.7 0 0 0 2.88-.24c8.88-6.26 15.68-6 20.3-4a16.442 16.442 0 0 1 8.54 9.24c4.32 10.76 7.32 6.74 7.32 6.74 7.02-26.44 26.92-14 26.92-14a3.302 3.302 0 0 1 1.46 4c.12-.22.6-1.14.74-1.36 1.22-1.86.82-7.3-1.14-16.2l-.18.12Zm-124.6 14.86a10.42 10.42 0 0 1-9.82 2.24 10.42 10.42 0 0 1-6.884-6.517 10.36 10.36 0 0 1-.576-4.003 10.28 10.28 0 0 1 3.44-7.16 10.34 10.34 0 0 1 9.82-2.24 10.381 10.381 0 0 1 4.84 3.02 10.38 10.38 0 0 1-.8 14.64l-.02.02Zm26.82 2.24a2.16 2.16 0 0 1-3.04-.24 2.16 2.16 0 0 1 .14-3.04 2.22 2.22 0 0 1 3.06.14 2.161 2.161 0 0 1-.16 3.12v.02Zm33.28-4.72a2.16 2.16 0 1 1 .22-3.06 2.16 2.16 0 0 1-.22 3.04v.02Zm37-12.2a8.659 8.659 0 0 1-8.26 1.86 8.82 8.82 0 0 1-4-2.56 8.738 8.738 0 0 1 3.393-13.974 8.741 8.741 0 0 1 5.527-.246 8.977 8.977 0 0 1 4 2.56 8.781 8.781 0 0 1-.68 12.34l.02.02Z"/>
</g>
</svg>
