<svg xmlns="http://www.w3.org/2000/svg" width="512" height="512" fill="none" viewBox="0 0 512 512">
  <path fill="#A1A1A1" d="m427.541 268.139 19.76-8.561v-5.999l-19.76-8.6v23.16Z"/>
  <path fill="#fff" d="M227.999 295.578h41.38c41.94 0 83.62-5.86 123.62-17.38l30.54-8.8v-25.7l-29.18-8.48c-40.26-11.7-82.26-17.64-124.52-17.64h-41.84v78ZM136 219.278v74.46c1.98-2.84 5.26-4.72 9-4.72 3 0 5.72 1.2 7.7 3.16 2.12 2.08 4.86 3.42 7.82 3.42h4.94c2.98 0 5.72-1.34 7.84-3.42 1.98-1.94 4.7-3.14 7.7-3.14s5.72 1.2 7.7 3.16c2.12 2.08 4.86 3.42 7.84 3.42h4.92c2.96 0 5.7-1.34 7.82-3.42 1.98-1.96 4.7-3.16 7.72-3.16 3.74 0 7.02 1.88 9 4.72v-74.46c-1.98 2.84-5.26 4.72-9 4.72-2.96 0-5.64-1.18-7.62-3.08-2.1-2.04-4.8-3.32-7.72-3.32h-5.28c-2.94 0-5.64 1.3-7.76 3.34-1.98 1.9-4.66 3.06-7.6 3.06-2.96 0-5.64-1.16-7.6-3.06-2.1-2.04-4.82-3.32-7.74-3.32h-5.3c-2.92 0-5.64 1.3-7.74 3.32-1.98 1.9-4.66 3.06-7.6 3.06a11.04 11.04 0 0 1-9.04-4.74Zm-2-1.66c-17.66 0-33.12.02-42 .02-4.42 0-8 3.58-8 8v61.92c0 4.42 3.58 8 8 8 8.88 0 24.34.02 42 .02v-77.96Z"/>
</svg>
