<svg xmlns="http://www.w3.org/2000/svg" width="512" height="512" fill="none" viewBox="0 0 512 512">
  <path fill="#A1A1A1" d="M338.32 296c13.9 0 35.48-5 46.88-14.32l2.1-1.72c6.72-5.48 10.7-14.46 10.7-24.04 0-9.48-3.92-18.36-10.5-23.88l-1.48-1.24c-11.52-9.64-33.3-14.8-47.44-14.8l-.26 80Z"/>
  <path fill="#fff" d="M130.178 223.94v65.72c3.5.3 6.28 3.18 6.38 6.74l198.02-.4v-79.16h-198.02c0 .06.02.1.02.16 0 3.66-2.82 6.64-6.4 6.94Zm-1.998 65.8v-65.88c-3.2-.64-5.6-3.48-5.6-6.86 0-.06.02-.1.02-.16h-8.22c0 1.16-.08 79.6-.08 79.6l8.32-.02a6.95 6.95 0 0 1 5.56-6.68Z"/>
</svg>
