<svg xmlns="http://www.w3.org/2000/svg" width="512" height="512" fill="none" viewBox="0 0 512 512">
  <path fill="#A1A1A1" d="M428 271.68c.7-.1 1.4-.16 2.1-.16h3.56c1.28 0 2.34-1.04 2.34-2.34V242.8c0-1.28-1.04-2.34-2.34-2.34h-3.56c-.7 0-1.42-.06-2.1-.16v31.38Zm-5.74 2.24c1.16-.78 2.42-1.38 3.74-1.8v-32.28c-1.32-.4-2.58-1-3.74-1.8-5.82-3.98-19.62-11.36-40.26-10v55.84c20.64 1.4 34.44-5.98 40.26-9.96Z"/>
  <path fill="#fff" d="M378 284v-56H86v56h292ZM82 222h-4c-2.2 0-4 2.18-4 4.86v58.28c0 2.68 1.8 4.86 4 4.86h4c1.1 0 2-1.08 2-2.42v-63.14c0-1.36-.9-2.44-2-2.44Z"/>
</svg>
