<svg xmlns="http://www.w3.org/2000/svg" width="512" height="512" fill="none" viewBox="0 0 512 512">
  <path fill="#fff" d="M367.98 284.82v-56.94h-60v56.94h60Z"/>
  <path fill="#A1A1A1" d="M371.98 282h57.9c8.7 0 16.74-4.84 20.96-12.66l.06-.1c2.04-3.76 3.1-7.98 3.1-12.28 0-4.26-1.06-8.44-3.08-12.18l-.06-.12c-4.24-7.82-12.26-12.68-20.98-12.68h-57.9V282Z"/>
  <path fill="#fff" d="M305.98 284.82v-56.94l-18-1.88H72.1c0 2.42-1.74 4.44-4.04 4.9v50.8c2.3.46 4.04 2.48 4.04 4.9 0 .04-.02.06-.02.1h215.9l18-1.88ZM66.059 281.7v-50.8c-2.3-.46-4.04-2.48-4.04-4.9h-4.84l.02 60.7h4.82c0-.04-.02-.06-.02-.1.02-2.42 1.76-4.44 4.06-4.9Z"/>
</svg>
