<svg xmlns="http://www.w3.org/2000/svg" width="512" height="512" fill="none" viewBox="0 0 512 512">
  <path fill="#A1A1A1" d="m342.38 281.18 14.94-3.2c7-1.5 13.54-4.74 18.98-9.4l.62-.54c3.22-2.76 5.08-6.8 5.08-11.04v-.46c0-4.18-1.8-8.16-4.94-10.92l-.26-.24a42.983 42.983 0 0 0-19.4-9.78l-15.02-3.2v48.78Z"/>
  <path fill="#fff" d="M138.379 278.1v-42.22c-1.96-.4-3.5-1.92-3.9-3.88h-6.1v49.7h6.2a4.953 4.953 0 0 1 3.8-3.6Zm200-46.1h-194.1a4.986 4.986 0 0 1-3.9 3.88v42.22c1.86.38 3.32 1.78 3.8 3.6h194.2V232Z"/>
</svg>
