<svg xmlns="http://www.w3.org/2000/svg" width="512" height="512" fill="none" viewBox="0 0 512 512">
  <path fill="#A1A1A1" d="M325.5 296.38c14.02 0 36.08-5 47.58-14.32l2.12-1.72c6.76-5.48 10.8-14.46 10.8-24.04 0-9.48-3.94-18.36-10.58-23.88l-1.5-1.24c-11.62-9.64-34.16-14.8-48.42-14.8v80Z"/>
  <path fill="#fff" d="M136.5 292.46v-72.18a6.035 6.035 0 0 1-4.66-4h-6.34v79.98h6.4c.74-1.94 2.48-3.44 4.6-3.8Zm2-72.16v72.18a6 6 0 0 1 4.6 3.82l178.4.08V216l-178.34.28a5.999 5.999 0 0 1-4.66 4.02Z"/>
</svg>
