<svg xmlns="http://www.w3.org/2000/svg" width="512" height="512" fill="none" viewBox="0 0 512 512">
  <path fill="#fff" d="m274.663 228-235.14-1.96c0 3.34-2.74 6.02-6.1 6v49.9c3.36-.02 6.1 2.66 6.1 6l235.14-1.94h.399v-58h-.399Zm68.157 52v-46H300.5v46h42.32Zm-45.398 0v-46l-19-4.8v55.6l19-4.8Z"/>
  <path fill="#A1A1A1" d="M348.822 276h19.8c46.4-1.6 105.8-13.8 124.8-18v-2s-66.8-16-124.8-18h-19.8v38Z"/>
  <path fill="#fff" d="M30.602 281.94v-50c-3.32 0-6-2.68-6-6h-7.06v62h7.06c0-3.32 2.68-6 6-6Z"/>
</svg>
