<svg xmlns="http://www.w3.org/2000/svg" width="512" height="512" fill="none" viewBox="0 0 512 512">
  <path fill="#fff" d="M260.16 282v-49.26l20.66 2.56h49.34v44.14h-49.34L260.16 282Z"/>
  <path fill="#A1A1A1" d="M430.16 264.38c13.78-3.28 19.84-6.04 19.84-6.04v-1.94s-6.06-2.76-19.84-6.04v14.02Zm-2-14.48c-18.1-4.16-48.34-9-94-10.22v35.38c45.66-1.22 75.9-6.06 94-10.22V249.9Z"/>
  <path fill="#fff" d="m77.16 282.14 181-.06v-49.42l-181-.06v49.54Zm-2 2.82v-55.92c-.5-.62-1.34-1.04-2.3-1.04H68.7c-3.06 0-5.54 2.1-5.54 4.68v48.64c0 2.58 2.48 4.68 5.54 4.68h4.16c.96 0 1.8-.42 2.3-1.04Z"/>
</svg>
