<svg xmlns="http://www.w3.org/2000/svg" width="512" height="512" fill="none" viewBox="0 0 512 512">
  <path fill="#fff" d="M130 284.1v-56.2c-3.38-.48-6-3.38-6-6.9 0-.34.06-.68.1-1h-4.28c-1 0-1.82.82-1.82 1.82l.24 68.6c0 1 .82 1.82 1.82 1.82h4.06c-.08-.4-.12-.82-.12-1.24 0-3.52 2.62-6.42 6-6.9Z"/>
  <path fill="#A1A1A1" d="m321 256-.27-34h.27c40.04 0 73 15.34 73 34s-33.23 34-73.27 34l.27-34Z"/>
  <path fill="#fff" d="M273.999 220.28v71.68l18-1.72h24.22l-.24-68.24h-23.98l-18-1.72Zm-1.999-.14c-1.18-.08-2.36-.14-3.56-.14H137.88c.04.32.1.66.1 1 0 3.52-2.62 6.42-6 6.9v56.2c3.38.48 6 3.38 6 6.9 0 .42-.06.84-.12 1.24h130.58c1.18 0 2.36-.08 3.56-.14v-71.96Z"/>
</svg>
