<svg xmlns="http://www.w3.org/2000/svg" width="512" height="512" fill="none" viewBox="0 0 512 512">
  <path fill="#fff" d="M185.818 244.42v24.4h101.42v-24.46l-101.42.06Zm-2.037 24.4v-24.4h-14.74v24.4h14.74Zm-167.46-24.46h-8.36v24.46h8.34c1.86-10.1.9-19.28.02-24.46Zm1.979 24.46c1.8-10.12.88-19.12 0-24.44l148.72.06v24.4l-148.72-.02Z"/>
  <path fill="#A1A1A1" d="M493.578 250.52c0-.3-.22-.56-.52-.62l-57.68-10.38a75.25 75.25 0 0 0-13.24-1.16h-6.82c-.18 0-.32.14-.32.32v36.4c0 .18.14.32.32.32h6.74c4.44 0 8.86-.4 13.24-1.16l57.76-10.4c.3-.06.52-.32.52-.62v-12.7ZM503.9 261.1h-8.34v-8.46H504l-.1 8.46Zm-214.801 14.66c0 .36.24.6.44.46l3.96-2.94c.84-.62 1.76-.94 2.68-.94h7.74c1.84 0 3.56-1.32 4.7-3.52l33.82-.02c4.76 0 9.52.46 14.2 1.38l27.34 5.06c.2.04.38-.12.38-.32v-36.18c0-.2-.16-.32-.34-.28l-27.3 5.04c-4.68.92-9.62.88-14.38.88h-33.8c-1.04-2.24-1.88-3.56-3.98-3.6h-8.18c-.98 0-1.94-.34-2.84-1l-3.96-2.96c-.22-.16-.44.08-.44.46l-.04 38.48Zm121.921 3.74V233c0-.56-.44-1-1-1h-22.48c-.56 0-1 .44-1 1v46.52c0 1.04.44 1.88 1 1.88h22.48c.56-.02 1-.86 1-1.9Z"/>
</svg>
