<svg xmlns="http://www.w3.org/2000/svg" width="512" height="512" fill="none" viewBox="0 0 512 512">
  <path fill="#fff" d="M152 302v-92h-32v92h32Zm-34 6h-4.8c-3.98 0-7.2-3.04-7.2-6.78v-90.44c0-3.74 3.22-6.78 7.2-6.78h4.8v104Zm288-98H156v92h250v-92Zm-96 82c-2.2 0-4-1.8-4-4v-64c0-2.2 1.8-4 4-4h55.5c1.08 0 2.1.42 2.86 1.18 5.2 5.26 5.02 14.4 4.76 17.64-.06.8.16 1.6.54 2.3 7.54 13.28 1.78 26.3-.12 29.9-.34.66-.5 1.38-.44 2.12.26 3.2.48 12.4-4.76 17.68-.76.76-1.8 1.18-2.86 1.18H310Z"/>
  <path fill="#A1A1A1" d="M328.499 241.36h28.38c3.14 0 5.68-2.52 5.68-5.62s-2.54-5.62-5.68-5.62h-28.38c-3.14 0-5.68 2.52-5.68 5.62s2.54 5.62 5.68 5.62Zm-7.058 43.5V222.3h-9.46c-2.1 0-3.78 1.68-3.78 3.74v59.92c0 2.06 1.7 3.74 3.78 3.74h9.46v-4.84Zm7.058-56.94h28.38c3.14 0 5.68-2.52 5.68-5.62h-39.74c0 3.1 2.54 5.62 5.68 5.62Zm43.201 44.12c-.06-.68.08-1.36.4-1.98 1.8-3.38 7.24-15.56.12-28-.38-.66-.58-1.4-.52-2.14.24-3.02.42-11.58-4.5-16.52-.6-.6-1.4-.96-2.24-1.06v67.32c.84-.1 1.64-.46 2.24-1.06 4.96-4.96 4.74-13.56 4.5-16.56Zm-12.941 13.92h-32.16c-2.1 0-3.78 1.68-3.78 3.74h39.74c0-2.06-1.7-3.74-3.8-3.74Zm-30.26-30.78h28.38c3.14 0 5.68-2.52 5.68-5.62s-2.54-5.62-5.68-5.62h-28.38c-3.14 0-5.68 2.52-5.68 5.62s2.54 5.62 5.68 5.62Zm0 13.82h28.38c3.14 0 5.68-2.52 5.68-5.62s-2.54-5.62-5.68-5.62h-28.38c-3.14 0-5.68 2.52-5.68 5.62s2.54 5.62 5.68 5.62Zm0 13.8h28.38c3.14 0 5.68-2.52 5.68-5.62s-2.54-5.62-5.68-5.62h-28.38c-3.14 0-5.68 2.52-5.68 5.62s2.54 5.62 5.68 5.62Z"/>
</svg>
