<svg width="512" height="512" viewBox="0 0 512 512" fill="none" xmlns="http://www.w3.org/2000/svg">
<path d="M181.919 251.961C182.622 251.826 183.289 251.545 183.876 251.136C184.463 250.727 184.958 250.199 185.328 249.586C185.697 248.973 185.934 248.289 186.022 247.579C186.11 246.868 186.047 246.148 185.838 245.463C185.63 244.778 185.279 244.146 184.809 243.605C184.34 243.065 183.762 242.63 183.113 242.328C182.464 242.026 181.759 241.864 181.043 241.852C180.328 241.841 179.617 241.98 178.959 242.261C178.317 242.455 177.719 242.774 177.2 243.199C176.682 243.625 176.252 244.148 175.935 244.739C175.618 245.331 175.421 245.979 175.355 246.647C175.289 247.314 175.355 247.988 175.549 248.631C175.743 249.273 176.062 249.87 176.488 250.389C176.913 250.908 177.436 251.338 178.028 251.655C178.619 251.972 179.267 252.169 179.935 252.235C180.603 252.301 181.277 252.235 181.919 252.041V251.961Z" fill="white"/>
<path d="M84.1991 266.96C85.9095 266.442 87.3444 265.267 88.1882 263.692C89.0321 262.116 89.2158 260.271 88.6991 258.56C88.1772 256.848 86.9977 255.413 85.4193 254.57C83.8409 253.726 81.9924 253.543 80.2791 254.06C78.5687 254.578 77.1339 255.753 76.29 257.328C75.4462 258.904 75.2624 260.749 75.7791 262.46C76.0353 263.309 76.4565 264.099 77.0186 264.785C77.5808 265.471 78.2728 266.04 79.055 266.458C79.8373 266.876 80.6943 267.135 81.577 267.222C82.4598 267.308 83.3508 267.219 84.1991 266.96Z" fill="white"/>
<path d="M237.48 257.961C237.48 257.961 303.8 260.821 318.34 260.721C318.34 260.721 329.3 261.161 332.14 264.721C333.806 266.808 334.951 269.263 335.48 271.881C335.48 271.881 401.1 271.341 424.98 257.701L319.78 235.341C319.78 235.341 294.2 245.341 243.56 227.141C243.56 227.141 241 233.621 240.28 235.841C239.292 239.874 238.538 243.961 238.02 248.081C237.623 251.346 237.423 254.632 237.42 257.921L237.48 257.961Z" fill="white"/>
<path d="M333.62 274.64L332.8 272.64C331.922 270.485 330.743 268.465 329.3 266.64C328.097 265.516 326.653 264.682 325.08 264.2C322.828 263.584 320.485 263.374 318.159 263.58C307.439 263.58 268.779 262.62 249.019 262.06L240.879 261.68L237.479 261.42V272.58L244.799 273.34C246.079 273.46 289.119 275.34 289.119 275.34C296.179 275.96 323.42 275.64 329.3 286.48L333.62 274.64Z" fill="white"/>
<path d="M445.08 250.26L427.26 257.96L419.48 262.26C395.02 276.26 339.24 275.6 336.9 275.56H334.52L331.04 288.76C360.22 289.82 390.4 289.12 417.82 279.3L445.08 250.26Z" fill="white"/>
<path d="M333.119 228.361C329.619 228.261 322.839 234.261 322.359 234.261L425.879 256.261L445.119 249.941L408.579 243.501C408.344 243.459 408.103 243.473 407.874 243.54C407.645 243.608 407.434 243.728 407.26 243.891C407.085 244.054 406.951 244.255 406.868 244.479C406.784 244.703 406.754 244.943 406.779 245.181L406.999 247.181C407.099 248.141 406.519 248.761 405.679 248.601L334.519 228.741C334.08 228.54 333.602 228.438 333.119 228.441V228.361Z" fill="white"/>
<path d="M213.76 253.4C213.48 252.12 213.26 251.08 213.16 250.42C212.394 245.319 212.334 240.137 212.98 235.02C213.1 234.2 213.24 233.4 213.4 232.68C214.219 229.718 215.575 226.932 217.4 224.46C215.4 224.82 213.06 225.34 211.58 225.7C209.656 226.058 207.754 226.519 205.88 227.08C190.82 232.68 167.24 227.4 167.24 227.4C147.48 220.26 121.98 228.92 116.3 231.02C115.613 231.298 114.945 231.618 114.3 231.98C104.434 237.158 93.4412 239.817 82.2996 239.72C81.9512 239.711 81.6052 239.78 81.2868 239.922C80.9685 240.064 80.6859 240.275 80.4596 240.54L66.7396 256.84C66.4377 257.199 66.2498 257.641 66.1999 258.107C66.15 258.574 66.2404 259.045 66.4596 259.46C69.2796 264.84 79.5396 284.32 82.9596 290.8C83.0801 291.029 83.2573 291.224 83.4743 291.366C83.6913 291.507 83.9409 291.591 84.1994 291.609C84.4579 291.627 84.7167 291.579 84.9513 291.469C85.1859 291.359 85.3884 291.19 85.5396 290.98C99.6796 272.78 110.72 272.98 115.12 273.96C115.734 274.127 116.383 274.12 116.994 273.94C117.605 273.76 118.154 273.414 118.58 272.94C128.92 260.94 142.58 266.7 146.92 269.1C147.373 269.337 147.885 269.44 148.394 269.398C148.904 269.355 149.392 269.169 149.8 268.86C158.68 262.6 165.48 262.86 170.1 264.86C174.059 266.686 177.131 270.009 178.64 274.1C182.96 284.86 185.96 280.84 185.96 280.84C192.98 254.4 212.88 266.84 212.88 266.84C213.556 267.227 214.074 267.841 214.341 268.573C214.608 269.305 214.608 270.108 214.34 270.84C214.46 270.62 214.94 269.7 215.08 269.48C216.3 267.62 215.9 262.18 213.94 253.28L213.76 253.4Z" fill="#A1A1A1"/>
</svg>
