<svg width="330" height="170" viewBox="90 210 330 170" fill="none" xmlns="http://www.w3.org/2000/svg">
<path d="M100.099 368.241C100.241 370.094 99.503 371.505 98.9331 372.295C98.7259 372.593 98.9331 372.995 99.3087 372.995H148.098C148.202 372.995 148.72 373.008 148.836 372.995C153.978 372.684 159.379 373.526 154.587 368.229H100.099V368.241Z" fill="white"/>
<path d="M250.819 230.369H214.373C213.958 233.296 213.712 237.648 218.44 240.808H246.713C246.895 240.808 251.816 240.549 251.816 234.63V230.369H250.832H250.819Z" fill="white"/>
<path d="M215.227 223.646C215.227 223.646 215.409 226.548 214.865 228.814H251.79C251.79 228.814 250.586 225.693 251.13 223.646H215.227Z" fill="white"/>
<path d="M186.682 292.071C188.999 292.071 190.878 290.192 190.878 287.875C190.878 285.557 188.999 283.679 186.682 283.679C184.364 283.679 182.485 285.557 182.485 287.875C182.485 290.192 184.364 292.071 186.682 292.071Z" fill="white"/>
<path d="M270.143 267.722C261.012 267.657 219.009 267.411 207.935 267.722C195.501 268.085 191.383 279.715 191.383 279.715C197.716 285.142 194.297 292.952 193.144 295.128C195.242 295.672 196.745 296.902 196.745 296.902C206.951 309.427 221.263 306.927 221.263 306.927C242.568 304.427 240.6 283.653 240.6 283.653C239.848 280.441 240.056 277.565 242.167 276.529C247.205 274.055 254.639 274.561 257.605 274.884C258.421 274.975 259.224 274.612 259.691 273.939L261.18 271.828C264.379 271.828 267.436 270.52 269.651 268.201L269.948 267.89L270.143 267.696V267.722ZM224.138 303.093C208.479 307.652 199.529 293.056 199.529 293.056C196.266 285.453 198.662 280.169 200.889 277.28C201.641 276.309 203.221 276.879 203.156 278.109C202.275 296.579 216.173 299.765 216.173 299.765C212.857 297.887 210.888 291.89 210.888 291.89C205.967 281.956 214.295 274.612 214.295 274.612C229.889 264.873 234.435 279.003 234.435 279.003C242.491 296.449 224.138 303.081 224.138 303.081V303.093Z" fill="#A1A1A1"/>
<path d="M395.076 239.228H342.362C341.715 239.228 341.197 238.49 341.197 237.583C341.197 236.677 341.715 235.938 342.362 235.938H395.076C395.724 235.938 396.242 236.677 396.242 237.583C396.242 238.49 395.724 239.228 395.076 239.228Z" fill="white"/>
<path d="M398.301 226.756L401.047 226.652H402.795C404.324 229.1 405.347 233.322 405.347 238.14C405.347 242.958 404.324 247.18 402.795 249.628H402.07L399.532 248.527L399.506 248.333H399.532C400.464 245.885 401.047 242.608 401.047 238.995C401.047 234.85 400.283 231.185 399.091 228.66L398.301 226.756Z" fill="#A1A1A1"/>
<path d="M415.54 226.639H404.505C405.995 229.462 406.888 233.632 406.888 238.126C406.888 242.62 405.982 246.791 404.505 249.614H414.361C414.361 249.614 421.199 240.25 415.527 226.639H415.54Z" fill="#A1A1A1"/>
<path d="M403.858 225.564H414.18L411.149 216.796H404.272L401.526 224.903L403.858 225.564Z" fill="#A1A1A1"/>
<path d="M134.24 218.337V215.526C134.24 214.724 134.784 214.024 135.548 213.83L138.553 213.053C139.019 212.936 139.524 213.014 139.926 213.273L148.901 218.946L134.227 218.35L134.24 218.337Z" fill="white"/>
<path d="M256.362 223.35H253.357V234.631C253.357 240.537 249.045 242.272 246.765 242.363H246.739H217.96L217.572 242.104C211.627 238.141 212.469 232.468 212.935 229.424L213.039 228.764C213.272 227.054 213.181 225.241 213.116 224.308L213.026 223.35H200.177L194.686 221.563H151.828L133.385 221.019L121.625 228.103C120.368 229.1 117.648 229.113 116.185 228.984L110.732 228.427C109.981 228.349 109.217 228.427 108.543 228.764C106.031 229.942 104.761 232.455 105.979 233.828C106.652 234.592 109.437 233.854 110.434 234.087C122.402 236.755 122.104 243.762 122.777 248.774H259.264V228.129C258.655 224.788 256.375 223.363 256.375 223.363L256.362 223.35Z" fill="white"/>
<path d="M398.068 230.226L397.408 228.672L391.761 228.711L260.792 229.695L260.818 248.32H397.9L398.392 246.882C399.104 244.628 399.493 241.87 399.493 238.982C399.493 235.705 398.975 232.57 398.068 230.213V230.226Z" fill="#A1A1A1"/>
<path d="M132.517 256.338C131.986 255.975 131.364 255.781 130.717 255.742C129.007 255.612 126.158 255.858 126.041 259.006C125.873 263.577 129.46 264.328 131.364 264.316C133.268 264.303 139.977 265.067 141.155 264.056C142.243 263.124 143.927 261.091 141.427 258.785C141.026 258.41 139.873 258.112 139.329 258.19C137.905 258.41 134.874 257.957 132.53 256.338H132.517Z" fill="#A1A1A1"/>
<path d="M181.216 259.821C180.322 259.614 179.675 258.824 179.649 257.904C179.61 256.596 179.765 254.77 180.879 254.084C182.679 252.957 189.595 255.729 189.595 255.729L188.805 259.925C188.805 259.925 184.259 260.521 181.216 259.821Z" fill="#A1A1A1"/>
<path d="M196.383 255.639H221.406C222.001 255.639 222.377 256.286 222.079 256.804L219.994 260.431C219.748 260.858 219.281 261.13 218.789 261.13H195.644C194.932 261.13 194.401 260.47 194.556 259.77L195.295 256.506C195.411 256.001 195.865 255.639 196.383 255.639Z" fill="#A1A1A1"/>
<path d="M227.299 255.742L226.159 258.993C225.952 259.576 226.288 260.21 226.897 260.366L232.207 261.752C233.14 261.998 234.137 261.713 234.797 261.013C235.743 260.003 236.895 258.41 236.792 256.688C236.766 256.222 236.52 255.794 236.118 255.561C235.238 255.017 233.152 254.227 228.788 254.603C228.115 254.654 227.532 255.108 227.312 255.742H227.299Z" fill="#A1A1A1"/>
<path d="M260.805 250.329H122.285C122.208 250.575 122.143 250.847 122.052 251.08C120.757 254.409 119.902 257.504 116.638 258.968C114.359 260.004 111.458 260.198 111.328 261.675C111.25 262.594 111.419 263.967 113.012 264.576C114.864 265.275 118.931 266.234 118.931 266.234C131.08 268.785 127.997 275.974 125.238 279.872C123.062 282.955 121.236 286.257 119.578 289.651C114.113 300.906 103.92 322.134 101.342 329.206C97.7676 338.984 94.1929 354.384 94.1929 354.384C92.5869 366.196 101.537 366.74 101.537 366.74L154.768 366.908C157.864 367.232 157.203 362.621 157.203 362.621C157.566 345.434 180.659 303.159 180.659 303.159C183.923 296.943 188.353 294.132 191.565 294.896L191.59 294.857C191.811 294.508 196.771 286.231 190.477 280.843L189.661 280.144L190.023 279.134C190.062 279.004 194.647 266.493 208.013 266.104C211.692 266.001 219.152 265.949 230.174 265.949C247.84 265.949 268.913 266.091 271.723 266.104L272.928 264.848V249.889L260.844 250.342L260.805 250.329Z" fill="white"/>
<path d="M144.044 271.751L171.062 270.495C173.16 270.378 186.228 270.287 184.7 271.207C182.071 272.787 177.939 277.579 176.476 279.224C168.277 288.394 150.533 323.092 145.935 346.405C145.301 349.617 143.306 355.445 139.589 355.42L110.512 354.979C105.914 354.953 100.448 354.319 102.262 348.853C108.323 330.604 127.09 291.502 137.672 275.96C138.579 274.626 142.011 271.854 144.044 271.738V271.751Z" fill="#A1A1A1"/>
</svg>
