<svg width="512" height="200" viewBox="0 470 512 200" fill="none" xmlns="http://www.w3.org/2000/svg">
<path d="M158.591 639.055C159.641 640.588 159.707 642.18 159.609 643.149C159.578 643.511 159.959 643.755 160.284 643.567L202.537 619.172C202.627 619.12 203.082 618.873 203.176 618.803C207.474 615.963 212.572 613.991 205.773 611.8L158.585 639.044L158.591 639.055Z" fill="white"/>
<path d="M220.183 444.295L188.619 462.518C189.724 465.26 191.687 469.152 197.361 469.525L221.847 455.388C222.004 455.297 226.136 452.612 223.177 447.486L221.046 443.796L220.194 444.288L220.183 444.295Z" fill="white"/>
<path d="M185.998 456.269C185.998 456.269 187.606 458.691 188.268 460.926L220.246 442.463C220.246 442.463 217.643 440.362 217.091 438.318L185.998 456.269Z" fill="white"/>
<path d="M195.489 529.799C197.496 528.64 198.184 526.074 197.025 524.067C195.866 522.06 193.3 521.372 191.293 522.531C189.286 523.69 188.599 526.256 189.757 528.263C190.916 530.27 193.482 530.958 195.489 529.799Z" fill="white"/>
<path d="M255.594 466.982C247.654 471.491 211.155 492.279 201.721 498.085C191.134 504.616 193.383 516.748 193.383 516.748C201.581 518.281 202.525 526.754 202.614 529.215C204.703 528.637 206.62 528.952 206.62 528.952C221.721 534.695 232.865 525.374 232.865 525.374C250.067 512.557 237.974 495.55 237.974 495.55C235.718 493.143 234.46 490.55 235.77 488.597C238.896 483.935 245.587 480.656 248.318 479.453C249.07 479.124 249.584 478.408 249.651 477.592L249.885 475.019C252.656 473.419 254.649 470.758 255.407 467.643L255.51 467.225L255.581 466.959L255.594 466.982ZM233.438 520.617C222.157 532.394 207.108 524.228 207.108 524.228C200.48 519.276 199.913 513.501 200.398 509.886C200.563 508.669 202.216 508.373 202.775 509.471C211.247 525.906 224.876 521.717 224.876 521.717C221.065 521.748 216.362 517.539 216.362 517.539C207.133 511.397 210.673 500.873 210.673 500.873C219.308 484.641 230.31 494.605 230.31 494.605C246.01 505.686 233.432 520.605 233.432 520.605L233.438 520.617Z" fill="#A1A1A1"/>
<path d="M349.543 379.838L303.891 406.195C303.33 406.519 302.513 406.138 302.059 405.353C301.606 404.568 301.685 403.67 302.246 403.346L347.898 376.989C348.459 376.665 349.276 377.045 349.73 377.831C350.183 378.616 350.104 379.514 349.543 379.838Z" fill="white"/>
<path d="M346.1 367.424L348.426 365.961L349.94 365.087C352.487 366.443 355.484 369.588 357.893 373.76C360.302 377.932 361.527 382.1 361.427 384.984L360.799 385.347L358.051 385.663L357.931 385.507L357.953 385.494C357.537 382.908 356.404 379.779 354.597 376.65C352.525 373.061 350.03 370.269 347.736 368.677L346.1 367.424Z" fill="#A1A1A1"/>
<path d="M360.97 358.705L351.414 364.222C354.116 365.922 356.975 369.087 359.222 372.979C361.469 376.871 362.769 380.936 362.902 384.119L371.437 379.191C371.437 379.191 372.677 367.663 360.959 358.711L360.97 358.705Z" fill="#A1A1A1"/>
<path d="M350.315 363.614L359.254 358.453L352.246 352.375L346.29 355.814L347.966 364.208L350.315 363.614Z" fill="#A1A1A1"/>
<path d="M113.206 492.164L111.801 489.73C111.399 489.035 111.521 488.157 112.085 487.607L114.299 485.432C114.644 485.098 115.121 484.912 115.598 484.936L126.207 485.361L113.201 492.182L113.206 492.164Z" fill="white"/>
<path d="M221.474 435.444L218.871 436.947L224.512 446.716C227.465 451.831 224.598 455.491 222.669 456.709L222.646 456.722L197.723 471.111L197.257 471.081C190.127 470.621 188.02 465.288 186.902 462.419L186.661 461.795C186.008 460.198 185.023 458.673 184.501 457.897L183.943 457.113L172.816 463.537L167.167 464.735L130.051 486.163L113.806 494.914L107.164 506.93C106.575 508.421 104.226 509.793 102.893 510.412L97.8928 512.656C97.2034 512.965 96.5804 513.414 96.1656 514.042C94.5788 516.319 94.7359 519.13 96.4767 519.71C97.4421 520.035 99.4845 518.004 100.465 517.707C112.163 514.034 115.408 520.251 118.498 524.255L236.698 456.012L226.376 438.133C224.178 435.543 221.491 435.449 221.491 435.449L221.474 435.444Z" fill="white"/>
<path d="M347.632 370.546L346.283 369.53L341.412 372.387L228.482 438.724L237.817 454.841L356.533 386.3L356.241 384.808C355.731 382.501 354.688 379.917 353.244 377.416C351.606 374.578 349.59 372.123 347.626 370.535L347.632 370.546ZM349.97 380.578L304.318 406.934C303.118 407.627 301.59 407.208 300.903 406.02C300.217 404.831 300.629 403.291 301.818 402.605L347.47 376.248C348.67 375.555 350.198 375.974 350.885 377.163C351.571 378.352 351.159 379.891 349.97 380.578Z" fill="#A1A1A1"/>
<path d="M238.811 456.587L118.849 525.847C118.905 526.099 118.985 526.367 119.023 526.614C119.566 530.144 120.373 533.253 118.278 536.152C116.822 538.189 114.407 539.808 115.033 541.151C115.425 541.987 116.258 543.091 117.942 542.822C119.895 542.502 123.897 541.298 123.897 541.298C135.694 537.434 136.618 545.2 136.178 549.956C135.835 553.713 135.905 557.486 136.166 561.254C137.06 573.734 138.847 597.215 140.15 604.628C141.944 614.884 146.548 630.007 146.548 630.007C151.063 641.04 159.086 637.036 159.086 637.036L205.27 610.566C208.113 609.299 205.235 605.636 205.235 605.636C196.956 590.57 195.818 542.413 195.818 542.413C195.536 535.397 197.967 530.748 201.13 529.804L201.133 529.757C201.149 529.344 201.307 519.697 193.162 518.178L192.106 517.98L191.915 516.924C191.883 516.792 189.598 503.665 200.98 496.645C204.113 494.716 210.548 490.941 220.093 485.43C235.393 476.597 253.714 466.184 256.154 464.79L256.569 463.1L256.616 463.103C256.527 462.975 256.464 462.891 256.464 462.891L261.838 463.004L266.985 460.107C265.974 458.926 265.201 457.847 265.201 457.847L270.773 457.965L276.672 454.634C275.624 453.414 274.808 452.285 274.808 452.285L280.606 452.407L286.348 449.167C285.258 447.927 284.414 446.724 284.414 446.724L290.323 446.857L290.322 446.933L295.693 443.906C294.566 442.628 293.685 441.387 293.685 441.387L299.594 441.519L299.593 441.699C302.741 439.717 304.375 436.486 302.491 433.222L296.468 422.79L238.851 456.579L238.811 456.587Z" fill="white"/>
<path d="M148.404 533.519L171.174 518.922C172.932 517.772 184.205 511.16 183.341 512.72C181.854 515.403 180.672 521.619 180.227 523.775C177.712 535.816 179.694 574.737 187.369 597.226C188.425 600.325 189.612 606.37 186.38 608.206L160.978 622.363C156.984 624.64 151.933 626.823 150.77 621.183C146.895 602.348 143.597 559.101 144.99 540.351C145.108 538.742 146.695 534.626 148.398 533.508L148.404 533.519Z" fill="#A1A1A1"/>
</svg>
