<svg width="276" height="160" viewBox="0 0 276 160" fill="none" xmlns="http://www.w3.org/2000/svg">
<path d="M60.1389 5.19093L51.3292 0.169381C51.0956 0.048242 50.8344 -0.00969592 50.5715 0.00132367C50.3086 0.0123433 50.0531 0.0919382 49.8305 0.2322C49.6078 0.372463 49.4257 0.568515 49.3023 0.800898C49.1789 1.03328 49.1183 1.29392 49.1267 1.55692V5.19093H60.1389Z" fill="#A1A1A1"/>
<path d="M17.9177 49.9891C20.0033 49.1307 21.8946 47.8611 23.4788 46.2559C25.2814 44.3824 26.6334 42.1228 27.4322 39.6486L17.1138 33.8012C16.6887 33.5574 16.1887 33.4788 15.7093 33.5804C15.2299 33.682 14.8047 33.9566 14.5149 34.3518L9.00884 41.829C8.84965 42.0482 8.73602 42.2971 8.67468 42.561C8.61335 42.8249 8.60555 43.0984 8.65175 43.3653C8.69795 43.6323 8.79722 43.8872 8.94367 44.1151C9.09012 44.343 9.28078 44.5393 9.50439 44.6922L17.323 49.9891H17.9177Z" fill="#A1A1A1"/>
<path d="M170.062 6.31445H107.898V10.2348H170.062V6.31445Z" fill="#A1A1A1"/>
<path d="M182.583 6.31445H176.934V10.2348H182.583V6.31445Z" fill="#A1A1A1"/>
<path d="M118.734 34.7369C117.581 34.7353 116.436 34.5303 115.354 34.1312C112.021 32.9701 109.261 30.5733 107.645 27.4358C107.071 26.2172 106.781 24.8843 106.797 23.5375V6.31445H62.0987H47.7829C47.2686 6.31629 46.761 6.43175 46.2965 6.65258C45.832 6.87341 45.4221 7.19414 45.0959 7.59186L31.7272 23.7357C30.9951 24.6244 30.526 25.7 30.3727 26.8411C29.8771 30.6183 28.7209 39.2629 28.4566 40.1328C27.5825 42.7058 26.1539 45.0553 24.2719 47.0154C22.5017 48.7809 20.3877 50.1639 18.0611 51.0789C13.7362 51.5704 9.38636 51.8094 5.03368 51.7947C4.69129 51.7862 4.3512 51.8528 4.03729 51.9897C3.72338 52.1267 3.44328 52.3308 3.21667 52.5876L0.155287 56.0895C0.074217 56.1869 0.0223859 56.3054 0.00578447 56.431C-0.0108169 56.5567 0.00848912 56.6845 0.0614712 56.7997C0.114453 56.9149 0.198948 57.0127 0.305189 57.0819C0.41143 57.1511 0.53508 57.1888 0.661846 57.1907H25.1419C25.1419 57.1907 39.9312 55.9023 41.4289 72.6958L48.1573 52.07C48.3682 51.4614 48.7638 50.9337 49.2889 50.5606C49.814 50.1875 50.4424 49.9876 51.0866 49.9887L149.326 48.9646L242.445 48.7664V34.7369H118.734Z" fill="white"/>
<path d="M274.831 10.2342V6.99665H266.286V2.09624C266.285 1.87413 266.233 1.65524 266.133 1.45712C266.032 1.259 265.887 1.08718 265.708 0.955466C265.529 0.82375 265.322 0.735806 265.103 0.698688C264.884 0.66157 264.659 0.676319 264.447 0.741746L256.562 3.20847C255.905 3.42265 255.332 3.83747 254.923 4.39454C254.514 4.95161 254.29 5.62289 254.283 6.3139H239.526V10.2342H274.831Z" fill="#A1A1A1"/>
<path d="M232.655 6.31445H227.006V10.2348H232.655V6.31445Z" fill="#A1A1A1"/>
<path d="M195.103 6.31445H189.454V10.2348H195.103V6.31445Z" fill="#A1A1A1"/>
<path d="M275.107 33.6356L274.842 11.3359H107.898V23.5374C107.884 24.7199 108.136 25.8904 108.636 26.9622C110.126 29.8446 112.67 32.0415 115.739 33.096C116.697 33.4518 117.711 33.6345 118.734 33.6356H275.107Z" fill="#A1A1A1"/>
<path d="M207.625 6.31445H201.976V10.2348H207.625V6.31445Z" fill="#A1A1A1"/>
<path d="M220.134 6.31445H214.496V10.2348H220.134V6.31445Z" fill="#A1A1A1"/>
<path d="M133.601 67.5195C133.601 69.3365 133.414 86.6917 133.403 86.6917C133.463 87.0699 133.433 87.457 133.315 87.8214C133.197 88.1857 132.995 88.5168 132.724 88.7876C132.453 89.0585 132.122 89.2612 131.757 89.3793C131.393 89.4973 131.006 89.5273 130.628 89.4668L97.1729 89.9844C97.5013 88.963 97.6685 87.8967 97.6684 86.8239C97.6709 86.2518 97.623 85.6806 97.5252 85.117H127.038C128.403 85.117 128.987 84.5774 128.987 83.1899C128.987 80.4478 128.987 71.7152 128.987 67.5195C129.766 67.8999 130.62 68.103 131.487 68.1142C132.218 68.0249 132.931 67.8244 133.601 67.5195Z" fill="white"/>
<path d="M74.3114 158.062H25.4834V160H74.3114V158.062Z" fill="#A1A1A1"/>
<path d="M100.322 62.8174V72.1447C100.379 73.4239 100.67 74.6819 101.181 75.8558C102.624 78.3335 106.159 82.8815 112.557 83.0577C111.819 82.1658 107.139 77.9591 106.588 73.5542C106.374 69.9785 106.374 66.3931 106.588 62.8174H100.322Z" fill="#A1A1A1"/>
<path d="M131.178 62.972C131.963 62.972 132.599 62.336 132.599 61.5514C132.599 60.7669 131.963 60.1309 131.178 60.1309C130.394 60.1309 129.758 60.7669 129.758 61.5514C129.758 62.336 130.394 62.972 131.178 62.972Z" fill="white"/>
<path d="M149.877 50.9795V56.849L161.737 56.7389V59.2496H168.388V56.6728L174.148 56.6177V59.2496H180.799V56.5517L186.558 56.4966V59.2496H193.199V56.4305L198.958 56.3755V59.2496H205.61V56.3094L211.369 56.2543V59.2496H218.009V56.1993L223.769 56.1442V59.2496H230.42V56.0781L236.179 56.0231V59.2496H242.831V55.957L248.59 55.9019V59.2496H255.23L255.318 51.0566L149.877 50.9795Z" fill="white"/>
<path d="M243.546 34.7362V48.7767H267.365C267.716 48.776 268.058 48.6708 268.348 48.4747C268.638 48.2785 268.864 48.0003 268.995 47.6755C270.504 44.2397 275.118 34.8022 275.129 35.3198V34.7031L243.546 34.7362Z" fill="white"/>
<path d="M148.577 50.9799L134.195 51.1781V53.9531C134.195 54.7446 133.881 55.5037 133.321 56.0634C132.762 56.623 132.003 56.9374 131.211 56.9374C130.42 56.9374 129.661 56.623 129.101 56.0634C128.541 55.5037 128.227 54.7446 128.227 53.9531V51.2662L62.5723 52.1912L62.1428 56.7392C62.0207 57.9064 62.3216 59.0787 62.9907 60.0429C63.4278 60.6448 64.003 61.1329 64.668 61.4664C65.3329 61.7998 66.0682 61.9688 66.812 61.959L123.822 61.7167C124.199 61.7173 124.572 61.7883 124.923 61.9259C126.417 62.4883 127.633 63.61 128.315 65.0534C128.554 65.5781 128.918 66.0361 129.375 66.3873C129.832 66.7385 130.369 66.9722 130.937 67.0679C131.506 67.1636 132.089 67.1183 132.636 66.936C133.183 66.7537 133.677 66.44 134.074 66.0225C136.277 63.743 139.812 60.7146 143.512 60.9128C144.469 61.0037 145.431 60.8031 146.272 60.3373C147.113 59.8716 147.794 59.1624 148.225 58.3029C148.431 57.8311 148.604 57.3454 148.742 56.8493V50.9248C148.69 50.9506 148.635 50.9691 148.577 50.9799Z" fill="white"/>
<path d="M85.1475 62.7624L82.053 78.1795L81.5685 80.6022L79.6194 90.2929L79.1238 92.7155L68.8605 143.801C68.7779 144.292 68.5254 144.739 68.147 145.063C67.7686 145.387 67.2883 145.568 66.7902 145.574H12.2139L40.8455 76.0541L49.2258 53.5893C49.3628 53.1994 49.6176 52.8617 49.955 52.623C50.2923 52.3842 50.6956 52.2563 51.1088 52.2568H61.4823L61.0749 56.6617C60.982 57.5566 61.0796 58.4611 61.3612 59.3156C61.7622 60.4504 62.5094 61.4307 63.4972 62.1182C64.4851 62.8058 65.6638 63.1659 66.8673 63.1479L85.1475 62.7624Z" fill="#A1A1A1"/>
<path d="M91.6881 78.3011C91.3719 77.9239 91.1356 77.4863 90.9936 77.0149C90.8517 76.5436 90.8069 76.0483 90.8622 75.5591L92.3048 62.752H86.2701L83.3078 77.4862L82.8894 79.5675L80.4447 91.758L80.0262 93.8173L69.939 144.033C69.8053 144.772 69.4172 145.441 68.8419 145.923C68.2666 146.406 67.5405 146.672 66.7896 146.676H11.8719C11.1891 149.308 9.99981 156.366 16.9375 156.642L25.4829 156.983H74.3109C74.3109 156.983 79.817 156.983 79.4315 151.477C79.1342 146.676 84.1888 107.428 85.4662 97.7486C85.5483 97.213 85.7769 96.7104 86.1267 96.2965C86.4765 95.8826 86.9339 95.5734 87.4484 95.403C90.4547 94.2468 95.0468 92.7932 96.0379 87.9478C97.029 83.1024 92.8664 79.6997 91.6881 78.3011Z" fill="white"/>
</svg>
