<svg width="512" height="512" viewBox="0 0 512 512" fill="none" xmlns="http://www.w3.org/2000/svg">
<path d="M251.744 241.799C251.437 237.977 251.148 230.402 251.051 227.649H243.573V240.02C243.573 241.358 243.908 242.675 244.546 243.851C246.177 246.858 250.21 251.951 259.003 252.74C259.141 252.753 259.279 252.721 259.396 252.649C259.514 252.577 259.606 252.469 259.657 252.341C259.708 252.213 259.717 252.071 259.681 251.938C259.645 251.805 259.567 251.686 259.459 251.601C256.697 249.549 252.016 245.245 251.744 241.799Z" fill="#A1A1A1"/>
<path d="M279.465 181.044H242.109V191.1H279.465V181.044Z" fill="#A1A1A1"/>
<path d="M280.07 214.288C282.192 216.357 285.532 217.146 291.616 217.015H365.592C365.715 216.361 365.776 215.698 365.776 215.033V203.049H276.932C277.011 208.774 277.992 212.263 280.07 214.288Z" fill="#A1A1A1"/>
<path d="M194.348 192.222L185.949 186.848C185.6 186.543 185.191 186.315 184.749 186.179C184.307 186.043 183.84 186.001 183.381 186.056C182.921 186.111 182.478 186.262 182.081 186.499C181.683 186.737 181.34 187.055 181.073 187.433C180.807 187.812 180.622 188.242 180.532 188.696C180.443 189.15 180.449 189.618 180.552 190.07C180.655 190.521 180.851 190.946 181.128 191.317C181.405 191.688 181.758 191.996 182.162 192.222L190.56 197.622C190.914 197.873 191.314 198.05 191.737 198.145C192.16 198.24 192.597 198.25 193.024 198.175C193.668 198.064 194.264 197.763 194.737 197.312C195.211 196.861 195.539 196.28 195.681 195.642C195.823 195.004 195.772 194.338 195.534 193.729C195.297 193.12 194.884 192.596 194.348 192.222Z" fill="#A1A1A1"/>
<path d="M363.155 181.044H356.351H341.719H280.351V191.976H241.233V181.044H193.83H175.796H169.659L156.237 193.774C155.687 194.345 155.374 195.103 155.36 195.895C155.36 197.201 155.273 199.332 155.299 201.296H207.48L209.733 185.515H211.6L209.365 201.296H213.617L215.87 185.515H217.737L215.502 201.296H219.754L222.007 185.515H223.874L221.638 201.296H225.89L228.144 185.515H230.011L227.775 201.296H231.992L234.245 185.515H236.148L233.912 201.296H306.196L307.949 185.515H309.703L307.949 201.296H312.333L314.086 185.515H315.839L314.086 201.296H318.469L320.223 185.515H321.976L320.223 201.296H324.606L326.36 185.515H328.113L326.36 201.296H330.743L332.497 185.515H334.25L332.497 201.296H365.741V185.515L363.155 181.044Z" fill="white"/>
<path d="M192.436 178.528C192.066 177.862 191.524 177.307 190.868 176.922C190.211 176.537 189.463 176.334 188.701 176.336H179.312C179.029 176.336 178.752 176.406 178.503 176.541C178.255 176.676 178.045 176.871 177.891 177.107L176.261 180.123H193.321L192.436 178.528Z" fill="#A1A1A1"/>
<path d="M179.786 326.926C177.585 326.874 174.245 326.786 173.351 329.065C172.629 331.325 172.115 333.647 171.816 336H214.064C214.946 335.998 215.792 335.646 216.414 335.021C217.037 334.397 217.387 333.551 217.387 332.669V327.181C207.077 327.119 182.319 326.961 180.653 326.961L179.786 326.926Z" fill="#A1A1A1"/>
<path d="M291.625 217.891H290.345C284.805 217.891 281.578 217.015 279.457 214.902C277.335 212.789 276.143 209.01 276.055 203.031H155.282C155.282 203.496 155.325 203.908 155.361 204.32C155.624 207.459 152.73 213.481 149.864 216.357C149.046 217.101 148.463 218.066 148.184 219.135C147.905 220.205 147.944 221.332 148.294 222.38C156.93 222.643 173.42 237.819 165.828 251.688C158.236 265.557 149.601 318.702 149.075 327.338C148.549 335.973 154.615 336 154.615 336H170.931C171.238 333.541 171.775 331.117 172.535 328.758C173.648 325.918 177.506 326.014 179.812 326.067H217.387C215.975 316.09 216.51 299.59 217.019 295.9C217.087 295.424 217.214 294.959 217.396 294.514C220.29 287.014 221.856 279.066 222.024 271.028C222.065 269.871 222.36 268.737 222.888 267.707C223.416 266.677 224.164 265.776 225.079 265.067C225.995 264.358 227.055 263.86 228.184 263.607C229.314 263.353 230.485 263.352 231.616 263.602C234.685 264.251 237.801 264.656 240.935 264.812H272.794C274.203 264.812 275.554 264.252 276.551 263.256C277.547 262.26 278.107 260.908 278.107 259.499V233.847C278.109 231.783 278.93 229.804 280.389 228.345C281.849 226.885 283.828 226.064 285.892 226.062H354.756C356.54 226.062 358.297 225.629 359.876 224.8C361.456 223.965 362.812 222.762 363.83 221.293C364.544 220.258 365.072 219.107 365.391 217.891H291.625Z" fill="white"/>
</svg>
