<svg width="512" height="512" viewBox="0 0 512 512" fill="none" xmlns="http://www.w3.org/2000/svg">
<path d="M379.545 188.484L379.235 187.448L379.706 187.125L389.298 181.623H383.702L374.877 186.156H237.449V196.447H425.646V188.484H379.545Z" fill="white"/>
<path d="M215.118 218.065H173.094V241.634H215.065L214.957 236.952H190.245C189.067 236.823 187.974 236.273 187.169 235.404C186.363 234.534 185.898 233.402 185.86 232.217C185.857 230.936 186.212 229.679 186.885 228.588C187.557 227.497 188.521 226.616 189.667 226.043C190.198 225.75 190.795 225.597 191.402 225.599H215.011L215.118 218.065Z" fill="white"/>
<path d="M157.167 256.068C151.786 255.395 148.463 249.691 145.315 243.396C142.396 237.558 139.369 229.083 132.374 225.572C129.953 224.361 120.604 224.522 115.774 225.235C114.192 225.439 112.698 226.077 111.456 227.078C106.385 231.343 109.828 238.338 109.425 241.499C109.055 244.588 107.993 247.554 106.317 250.176C94.5198 268.363 87 297.945 87 327.647C87 334.884 94.3314 335.436 97.5734 335.328C99.0419 335.299 100.511 335.358 101.972 335.503C120.913 337.185 133.477 334.387 133.477 330.337C133.477 322.051 127.585 312.002 129.939 307.576C131.567 304.536 136.154 301.119 136.867 299.572C137.381 298.386 137.69 297.122 137.782 295.833C137.954 293.509 137.887 291.174 137.58 288.864C137.43 287.884 137.614 286.881 138.102 286.018C138.59 285.154 139.354 284.48 140.271 284.102C145.288 282.044 145.477 278.035 145.477 278.035C145.702 277.162 146.108 276.345 146.669 275.638C147.23 274.931 147.933 274.35 148.732 273.932C149.501 273.502 150.366 273.271 151.248 273.26L164.969 273.085C165.625 273.066 166.248 272.79 166.704 272.318C166.785 272.23 166.829 272.115 166.825 271.995C166.825 270.946 166.825 269.937 166.933 268.982C167.256 260.399 162.104 256.687 157.167 256.068Z" fill="#A1A1A1"/>
<path d="M187.219 204.788C187.326 205.581 187.691 206.317 188.257 206.883C188.824 207.45 189.56 207.814 190.353 207.922L215.119 207.841V201.411H190.353C189.156 201.411 187.165 201.694 187.219 204.788Z" fill="white"/>
<path d="M187.219 232.486C187.324 233.28 187.688 234.017 188.255 234.584C188.821 235.15 189.559 235.515 190.353 235.62L215.011 235.539V229.136H190.353C189.156 229.096 187.165 229.392 187.219 232.486Z" fill="white"/>
<path d="M412.893 176H395.378V180.264H412.893V176Z" fill="#A1A1A1"/>
<path d="M425.322 187.138L423.48 181.623H412.893V181.609H395.378V181.623H392.001L382.396 187.138H425.322Z" fill="white"/>
<path d="M263.278 209.146H217.984V213.544H263.278V209.146Z" fill="#A1A1A1"/>
<path d="M273.986 211.338C273.982 210.755 273.748 210.198 273.335 209.787C272.922 209.376 272.362 209.145 271.78 209.146H264.569V213.517H271.686C271.981 213.53 272.276 213.483 272.552 213.38C272.829 213.276 273.083 213.118 273.297 212.915C273.512 212.712 273.683 212.467 273.802 212.196C273.92 211.926 273.983 211.634 273.986 211.338Z" fill="#A1A1A1"/>
<path d="M215.118 193.246H173.094V216.72H215.065V209.187H190.434C189.3 209.001 188.253 208.463 187.442 207.65C186.631 206.836 186.096 205.788 185.914 204.654C185.772 203.442 185.963 202.215 186.465 201.104C186.968 199.993 187.763 199.039 188.766 198.344C189.306 197.993 189.937 197.806 190.582 197.806H215.118V193.246Z" fill="white"/>
<path d="M168.237 236.575H170.403V198.304H168.237C167.794 198.307 167.37 198.486 167.057 198.801C166.745 199.116 166.569 199.542 166.569 199.985V234.961C166.587 235.393 166.77 235.802 167.08 236.102C167.391 236.403 167.805 236.572 168.237 236.575Z" fill="white"/>
<path d="M156.683 182.43C156.683 182.073 156.541 181.731 156.289 181.479C156.036 181.227 155.694 181.085 155.337 181.085C154.981 181.085 154.638 181.227 154.386 181.479C154.134 181.731 153.992 182.073 153.992 182.43C153.992 182.787 154.134 183.129 154.386 183.381C154.638 183.634 154.981 183.775 155.337 183.775C155.694 183.775 156.036 183.634 156.289 183.381C156.541 183.129 156.683 182.787 156.683 182.43Z" fill="white"/>
<path d="M237.584 221.133H237.557H217.984V227.59H237.571V223.783H237.584H414.4L414.898 221.133H237.584Z" fill="white"/>
<path d="M154.812 187.958H159.548V184.555H177.157C176.509 183.569 175.667 182.726 174.681 182.079C173.695 181.431 172.588 180.992 171.426 180.788H160.664V177.52H150.023V187.958H154.786C154.786 187.958 154.799 187.958 154.812 187.958Z" fill="#A1A1A1"/>
<path d="M186.278 268.269C191.887 269.412 194.43 267.919 195.479 267.058C196.528 266.197 188.887 266.883 185.591 260.978C182.296 255.072 188.013 251.09 188.013 251.09V247.808C186.789 247.674 177.063 246.813 172.866 250.499C172.25 251.039 171.762 251.708 171.437 252.46C171.111 253.211 170.956 254.025 170.982 254.844H175.179C175.179 254.844 179.659 266.924 186.278 268.269Z" fill="#A1A1A1"/>
<path d="M236.104 197.792V186.129L228.302 185.9H160.893V189.304H155.082C155.544 192.27 155.074 195.307 153.736 197.994C152.27 203.536 144.939 212.361 142.531 214.419C135.119 221.993 123.765 221.212 119.312 221.212C118.422 221.25 117.556 221.518 116.799 221.989C116.042 222.461 115.421 223.12 114.994 223.903C121.155 223.593 128.218 222.759 132.993 224.239C140.311 226.513 143.876 237.234 146.607 242.682C149.58 248.641 152.647 254.036 157.369 254.628C162.884 255.314 168.655 259.43 168.319 268.914C168.319 269.358 168.319 269.829 168.319 270.259C169.422 270.474 171.144 272.452 171.144 272.452C172.891 274.164 175.235 275.129 177.681 275.142H194.698C196.521 275.166 198.325 274.778 199.976 274.007C201.628 273.236 203.084 272.102 204.236 270.69L209.2 263.842C210.055 262.72 210.527 261.352 210.545 259.941V249.839C210.537 249.387 210.622 248.939 210.796 248.523C210.969 248.106 211.227 247.73 211.553 247.417C211.879 247.105 212.266 246.864 212.69 246.709C213.114 246.554 213.565 246.488 214.016 246.516H231.665L231.84 246.381L237.638 228.974H217.984V242.978H170.404V237.92H167.888C167.175 237.92 166.49 237.637 165.986 237.132C165.481 236.627 165.198 235.943 165.198 235.23V199.622C165.198 198.908 165.481 198.224 165.986 197.719C166.49 197.215 167.175 196.931 167.888 196.931H170.404V191.9H217.984V207.827H272.466C272.797 207.826 273.125 207.896 273.427 208.033C273.729 208.17 273.997 208.371 274.214 208.621C276.636 211.567 274.578 214.903 271.739 214.903H217.93L217.85 219.813H415.301L425.646 197.859L236.104 197.792Z" fill="white"/>
</svg>
