<svg xmlns="http://www.w3.org/2000/svg" width="840" height="852" fill="none" viewBox="0 0 840 852">
  <path fill="#fff" fill-rule="evenodd" d="M206.141.625c3.23.51 6.38 1.333 7 1.831.62.498 2.702 1.238 4.627 1.645 4.741 1.003 16.251 6.875 22.444 11.45 4.875 3.601 16.917 15.606 40.14 40.015a12144.26 12144.26 0 0 0 21.47 22.5c5.805 6.064 15.48 16.2 21.5 22.524 6.02 6.325 16.124 16.9 22.453 23.5 6.329 6.601 16.008 16.727 21.509 22.502 5.5 5.775 18.997 19.91 29.992 31.412a16194.56 16194.56 0 0 1 29.992 31.445c5.5 5.793 16.315 17.083 24.033 25.088 25.177 26.114 38.881 40.382 48.507 50.501a4551.762 4551.762 0 0 0 20.624 21.5c6.141 6.355 13.491 14.029 16.335 17.054 7.776 8.273 20.804 21.879 35.936 37.531 20.858 21.574 38.656 40.083 48.566 50.504 17.661 18.57 52.331 54.507 72.719 75.374 11.395 11.664 22.077 23.081 23.737 25.373 4.963 6.851 9.829 17.277 13.454 28.828 9.508 30.29 30.136 89.557 32.853 94.39 2.157 3.837 13.412 15.934 37.212 40 20.326 20.552 34.549 35.713 35.182 37.5 3.567 10.068 4.283 15.707 2.445 19.264-.494.955-1.707 3.692-2.696 6.082-1.401 3.388-13.267 15.811-53.808 56.335-31.42 31.407-53.612 52.822-56.055 54.095-3.02 1.573-5.942 2.12-11.544 2.16-6.447.046-8.202-.344-12.5-2.776-3.188-1.805-17.138-14.88-38.5-36.087-33.795-33.55-39.376-38.244-50.14-42.177-2.398-.876-11.785-4.226-20.86-7.443a5862.572 5862.572 0 0 1-26-9.282c-5.225-1.888-18.36-6.595-29.19-10.459-19.98-7.131-22.03-8.035-31.81-14.019-3.844-2.352-77.891-75.848-245.863-244.029C127.706 352.391 18.09 242.292 16.313 240.092c-4.373-5.417-8.87-13.618-11.913-21.727-5.93-15.799-5.857-40.737.163-55.802 6.725-16.828 6.159-16.185 72.575-82.607 34.172-34.176 64.155-63.399 66.63-64.94C160.414 4.643 172.612.592 188.768.07c6.325-.204 14.143.045 17.373.554Zm-8.373 132.486c-4.125.943-7.95 2.053-8.5 2.466-.55.413-3.357 1.519-6.238 2.459-2.881.94-5.512 2.152-5.847 2.694-.335.542-1.578 1.407-2.762 1.921-3.093 1.345-5.484 2.923-11.149 7.361-5.683 4.452-18.491 17.608-18.499 19.001-.003.507-.657 1.642-1.454 2.523-2.153 2.378-9.073 15.963-10.472 20.556-.67 2.2-1.623 4.9-2.117 6-1.574 3.505-3.962 18.503-3.958 24.86.005 6.844 2.619 24.434 3.876 26.08.445.583 1.397 3.31 2.116 6.06 1.347 5.157 6.234 14.852 11.183 22.181 3.893 5.768 17.371 19.369 22.821 23.031 37.317 25.077 87.57 20.601 118.858-10.585 9.254-9.224 12.444-13.595 18.132-24.847 6.448-12.756 9.764-25.601 10.703-41.469.857-14.479-7.58-40.645-17.542-54.405-6.009-8.299-24.643-25.406-27.673-25.406-.285 0-2.196-1.053-4.248-2.34-5.068-3.18-20.335-8.344-28.251-9.555-9.083-1.391-30.041-.631-38.979 1.414Zm244 235.813-9.341 2.122c-6.976 1.584-19.951 6.761-22.659 9.042-.825.694-2.902 1.973-4.616 2.84-4.206 2.128-7.516 4.876-15.924 13.219-10.622 10.539-19.697 25.627-22.522 37.445-.723 3.025-1.662 5.975-2.087 6.555-3.136 4.283-3.448 30.714-.482 40.945.797 2.75 2.164 7.528 3.037 10.618 1.676 5.93 4.614 11.82 10.418 20.882 11.584 18.088 30.866 32.016 53.027 38.304 11.193 3.175 35.922 3.077 48.149-.192 16.26-4.347 29.778-12.158 42.253-24.415 6.412-6.3 9.095-9.669 14.502-18.213 3.759-5.941 8.269-16.281 9.69-22.221.89-3.72 1.92-7.888 2.288-9.263 1.735-6.489 2.689-22.757 1.489-25.408-.521-1.151-1.717-6.142-2.657-11.092s-3.027-11.764-4.637-15.143c-1.611-3.379-2.928-6.44-2.928-6.802 0-.363-2.43-4.349-5.401-8.857-12.794-19.419-32.522-32.834-56.771-38.606-4.58-1.09-9.228-2.199-10.328-2.464-2.496-.601-21.12-.066-24.5.704Z" clip-rule="evenodd"/>
</svg>
