<svg xmlns="http://www.w3.org/2000/svg" width="842" height="842" fill="none" viewBox="0 0 842 842">
  <mask id="a" width="792" height="794" x="17" y="16" maskUnits="userSpaceOnUse" style="mask-type:alpha">
    <path fill="#fff" fill-rule="evenodd" d="M741.128 597.031c2.505 13.618-12.223 36.382-47.665 73.67-18.016 18.955-44.961 43.95-56.83 52.717-20.013 14.784-31.768 19.687-40.546 16.918-4.268-1.346-575.779-572.782-577.813-577.737-1.759-4.283-1.164-12.172 1.422-18.858 3.028-7.831 12.695-24.036 21.033-35.265 10.518-14.16 53.773-57.407 67.889-67.876 25.196-18.684 43.242-26.581 52.663-23.044 4.275 1.606 9.692 6.973 291.829 289.079 269.696 269.666 287.509 287.626 288.018 290.396Zm38.064 66.431c0 5.38-3.81 13.257-11.294 23.35-5.027 6.78-13.085 15.29-39.373 41.578-26.288 26.288-34.797 34.346-41.578 39.373-10.093 7.484-17.97 11.294-23.35 11.294h-3.906l-17.594-17.594-17.594-17.595 7.744-4.686c14.688-8.889 23.285-16.648 61.114-55.149 36.49-37.139 38.969-39.995 47.825-55.058l2.749-4.676 17.628 17.628 17.629 17.629v3.906Zm29.235 54.674c-.05 2.09-.944 6.126-1.989 8.971l-1.899 5.172-35.709 35.709-35.709 35.709-8.097 2.863-8.096 2.864-15.123-15.123-15.123-15.123 7.118-5.257c5.118-3.78 16.552-14.691 40.706-38.843 29.857-29.855 38.128-38.808 43.635-47.229l1.537-2.352 14.419 14.42 14.42 14.42-.09 3.799ZM145.578 67.307c-.291.683.268.445 1.24-.527s1.209-1.53.527-1.24c-.683.29-1.478 1.085-1.767 1.767Zm-4.243 5.657c-.291.682.268.445 1.24-.527.973-.973 1.209-1.53.528-1.24-.683.29-1.479 1.085-1.768 1.767Zm-4.615 5.991c-.503.858.199.447 1.56-.914 1.362-1.361 1.772-2.063.915-1.56-.859.502-1.973 1.616-2.475 2.474Zm-21.587-18.758c-15.773 1.077-50.728 35.066-54.453 52.95-.87 4.177 2.989 7.017 7.802 5.745 17.153-4.535 50.935-40.036 50.935-53.526 0-3.998-1.147-5.382-4.284-5.169Zm15.93 25.83c-.503.857.199.446 1.56-.915 1.362-1.361 1.773-2.063.915-1.56-.859.502-1.973 1.616-2.475 2.474Zm-26.947 28.282c-3.644 3.898-.263.723 7.515-7.056 7.777-7.779 10.759-10.969 6.626-7.087-4.133 3.88-10.497 10.245-14.141 14.143Zm-20.43 19.094c-.502.857.2.446 1.561-.915 1.362-1.361 1.772-2.063.915-1.56-.859.502-1.973 1.616-2.475 2.475Zm-7.07 5.656c-.503.858.2.447 1.56-.914 1.361-1.361 1.772-2.063.915-1.56-.859.502-1.973 1.616-2.475 2.474Zm-5.992 4.616c-.29.682.268.445 1.24-.528.973-.972 1.21-1.53.528-1.24-.683.29-1.478 1.085-1.768 1.768Zm-4.92 3.477c-.338.789-.003.789.855-.001.775-.715 1.026-1.299.556-1.299s-1.105.585-1.411 1.3Z" clip-rule="evenodd"/>
  </mask>
  <g mask="url(#a)">
    <path fill="#fff" d="M1301.64 426.809 414.926-459.903l-886.711 886.712 886.711 886.712z"/>
  </g>
</svg>
