<svg xmlns="http://www.w3.org/2000/svg" width="805" height="805" fill="none" viewBox="0 0 805 805">
  <mask id="a" width="744" height="746" x="29" y="29" maskUnits="userSpaceOnUse" style="mask-type:alpha">
    <path fill="#fff" fill-rule="evenodd" d="M660.167 438.86c1.437 5.738.353 10.778-4.207 19.571l-3.461 6.671 17.871 18.579 17.872 18.578-1.549 2.694c-1.683 2.929-22.715 28.41-39.966 48.422-12.142 14.085-73.627 76.136-93.263 94.121-21.543 19.733-49.359 42.341-52.448 42.628-1.179.11-6.415-4.566-19.853-17.726l-18.251-17.873-6.944 2.941c-8.213 3.477-11.749 4.124-17.051 3.116l-3.928-.747-200.588-200.588C49.569 274.416 33.631 258.294 31.499 254.004c-3.242-6.525-3.168-26.017.14-36.41 4.478-14.07 15.574-32.023 35.385-57.246 7.335-9.338 15.162-17.636 41.872-44.394 31.531-31.584 38.354-37.963 54.82-51.246 16.959-13.68 39.669-27.956 49.768-31.288 12.45-4.106 28.416-4.769 37.823-1.57l4.993 1.698 79.627 78.764c43.796 43.321 134.399 133.453 201.343 200.295l121.714 121.53 1.183 4.723Zm98.596 105.063c.877 1.6 1.595 4.86 1.595 7.244 0 4.316-.333 5.1-4.788 11.28-2.968 4.117-3.115 12.313-.309 17.276 1.118 1.975 4.599 6.162 7.735 9.303 4.827 4.834 5.987 6.592 7.549 11.447 3.386 10.515 10.773 1.951-79.922 92.646-76.576 76.576-79.553 79.457-83.382 80.7-6.792 2.202-12.001.007-22.474-9.473-4.904-4.44-9.908-8.355-11.119-8.699-4.201-1.195-8.98-.387-13.591 2.3-5.54 3.228-9.215 4.108-13.457 3.226-2.816-.585-5.574-3.038-25.978-23.094-12.556-12.341-23.046-22.927-23.311-23.523-.343-.769 2.117-2.943 8.465-7.48 29.553-21.127 57.939-46.201 100.134-88.452 41.419-41.474 69.201-72.81 95.036-107.196 4.838-6.44 9.391-12.388 10.118-13.217 1.292-1.476 1.799-1.034 23.712 20.648 12.315 12.185 23.109 23.464 23.987 25.064ZM193.004 60.36c-8.606 3.067-25.445 14.63-44.118 30.295-14.405 12.086-60.018 59.047-71.19 73.294-21.997 28.052-27.518 43.579-13.913 39.121 18.769-6.15 67.121-48.065 103.024-89.309 31.016-35.63 42.602-59.247 26.197-53.401Zm255.602 272.489c-4.286-2.204-13.091-2.517-18.099-.643-3.866 1.446-7.391 4.812-57.719 55.111l-53.602 53.571-1.687 5.153c-3.259 9.957-1.149 17.373 7.368 25.89l5.679 5.68-6.38 6.38-6.38 6.38 12.744 12.358 12.744 12.359 6.392-5.983 6.391-5.983 5.468 5.437c6.469 6.432 11.378 8.623 19.069 8.511 10.164-.149 7.252 2.362 66.524-57.349l53.245-53.64 1.322-5.601c.817-3.464.818-7.736.004-11.198-1.296-5.504-1.506-5.798-12.678-17.69-15.85-16.871-36.64-36.807-40.405-38.743ZM341.967 227.574c-5.063-1.773-10.87-1.535-16.818.688-3.867 1.445-7.35 4.77-57.012 54.402-44.612 44.586-53.118 53.408-54.322 56.341-4.279 10.419-2.135 19.74 6.533 28.408l5.491 5.491-5.983 6.391-5.982 6.392 12.727 12.728 12.728 12.728 6.392-5.983 6.391-5.983 5.406 5.406c6.553 6.553 11.919 8.75 19.864 8.134 10.096-.784 9.046.118 64.831-55.668 56.129-56.129 55.27-55.122 55.786-65.305.151-2.965-.178-6.897-.73-8.737-1.312-4.374-10.123-14.103-32.983-36.419-16.264-15.876-18.293-17.605-22.319-19.014ZM238.018 123.633c-5.056-1.777-10.861-1.541-16.814.684-3.866 1.445-7.35 4.77-57.012 54.403-44.612 44.585-53.118 53.407-54.322 56.34-4.279 10.419-2.135 19.74 6.534 28.409l5.49 5.49-5.982 6.392-5.983 6.391 12.728 12.728 12.728 12.728 6.391-5.983 6.392-5.982 4.663 4.663c2.565 2.565 6.265 5.527 8.224 6.582 5.092 2.745 12.854 3.026 18.744.679 5.075-2.022 5.114-2.058 58.523-55.848l53.445-53.824 1.319-5.596c.727-3.078.913-7.932.416-10.786-.842-4.831-1.427-5.766-8.419-13.469-4.133-4.551-15.418-15.965-25.078-25.361-15.875-15.443-17.989-17.234-21.987-18.64Z" clip-rule="evenodd"/>
  </mask>
  <g mask="url(#a)">
    <path fill="#fff" d="M1287.26 410.438 400.548-476.274l-886.712 886.712 886.712 886.712z"/>
  </g>
</svg>
