<svg xmlns="http://www.w3.org/2000/svg" width="951" height="879" fill="none" viewBox="0 0 951 879">
  <path fill="#fff" fill-rule="evenodd" d="M782.875 540.54c-2.619-.345-12.265 1.264-21.434 3.575l-16.669 4.199-253.046-222.508L238.678 103.3l-5.155 1.512c-4.791 1.407-5.689 2.209-12.76 11.4-25.974 33.771-72.569 86.661-98.752 112.096-7.519 7.304-10.252 12.137-10.025 17.726.089 2.166 55.537 51.614 252.512 225.194l252.399 222.42-1.687 15.265c-1.051 9.509-.946 17.873.279 22.181l1.966 6.915 78.733 69.381c86.899 76.578 81.786 72.842 94.702 69.182 9.323-2.642 18.148-8.013 32.432-19.737 9.913-8.136 17.138-15.665 49.377-51.44 56.691-62.915 73.326-86.258 77.056-108.123 2.104-12.339 6.979-7.244-81.517-85.15-72.554-63.873-81.075-71.017-85.363-71.582ZM165.347 8.118C155.681.659 153.624-.354 149.053.088c-23.148 2.237-69.22 39.445-104.372 84.294-26.645 33.994-41.037 59.54-44.047 78.184-.833 5.158-.847 11.321-.03 13.695 1.166 3.395 8.784 10.745 35.77 34.51 32.453 28.584 34.555 30.205 39.338 30.343 14.128.41 42.802-24.258 88.307-75.969 36.137-41.066 56.703-68.949 63.052-85.483 5.111-13.313 5.544-12.61-24.323-39.392-14.485-12.99-31.316-27.458-37.401-32.152Zm-30.56 33.568c-.314 3.515-6.86 17.338-12.421 26.223-24.061 38.452-78.849 89.883-87.566 82.204-3.106-2.737-.916-10.31 6.927-23.956 5.85-10.18 9.251-14.457 32.136-40.434 22.933-26.033 26.688-29.881 36.129-37.032 17.145-12.985 25.54-15.357 24.795-7.005Z" clip-rule="evenodd"/>
</svg>
