<svg xmlns="http://www.w3.org/2000/svg" width="325" height="878" fill="none" viewBox="0 0 325 878">
  <path fill="#fff" fill-rule="evenodd" d="M101.749 1.675c-9.9.965-24.75 2.297-33 2.96-9.836.79-16.415 1.819-19.108 2.986-4.445 1.925-8.831 6.895-9.914 11.23-.837 3.356-.864 3.363-17.978 4.842-7.7.665-14.35 1.522-14.778 1.905-.428.383.135 8.06 1.25 17.06 1.115 9 2.028 16.504 2.028 16.673 0 .169-1.155.307-2.566.307-3.585 0-6.37 1.698-7.451 4.544-.63 1.658.015 10.072 2.049 26.689C32.72 339.67 42.33 447.978 44.8 570.138c.967 47.821-1.518 115.01-6.085 164.5-2.402 26.025-4.431 46.173-5.062 50.25l-.58 3.75h-7.335c-6.35 0-7.732.333-10.283 2.48-1.62 1.364-3.433 3.726-4.027 5.25-.594 1.523-2.04 12.108-3.211 23.522-2.075 20.208-2.083 20.85-.3 24.472 1.008 2.046 3.182 4.489 4.832 5.428 3.365 1.915 10.2 2.612 165.5 16.871 136.42 12.526 131.783 12.174 135.729 10.302 1.929-.916 4.321-3.003 5.315-4.637 1.982-3.26 2.155-4.379 4.531-29.288 1.515-15.878 1.514-17.328-.02-20.294-1.76-3.403-6.882-7.096-9.85-7.102-1.471-.003-1.697-.592-1.249-3.254.605-3.595 2.822-36.308 4.76-70.25 1.694-29.668 1.684-145.541-.016-181.5-7.085-149.85-18.748-274.158-47.279-503.906-1.667-13.423-3.665-25.632-4.44-27.131-2.012-3.89-7.005-7.795-10.76-8.416-3.066-.507-45.272-7.827-75.221-13.047-54.956-9.577-50.135-9.178-78-6.463Z" clip-rule="evenodd"/>
</svg>
