<svg xmlns="http://www.w3.org/2000/svg" width="428" height="827" fill="none" viewBox="0 0 428 827">
  <path fill="#fff" fill-rule="evenodd" d="M2.073 2.635C.102 5.14 0 6.493 0 30.167 0 49.764.312 55.81 1.464 58.568 3.742 64.02 7.313 65 24.912 65c14.398 0 15.085.093 17.782 2.417 2.716 2.341 2.807 2.733 2.833 12.25.015 5.408.127 15.538.25 22.512L46 114.858l3.252 3.321c1.789 1.826 8.361 7.318 14.604 12.203 28.415 22.231 41.642 39.583 45.824 60.118 1.517 7.449 1.506 9.944-.16 36.224-.985 15.524-1.54 30.091-1.234 32.371.36 2.684 1.595 5.251 3.501 7.276 4.047 4.301 5.217 8.474 5.191 18.528-.022 8.636-2.449 17.101-4.903 17.101-.563 0-1.71 1.328-2.549 2.95-1.253 2.422-1.526 7.591-1.526 28.852v25.902l2.467 3.398c1.357 1.869 3.233 4.448 4.17 5.732 1.133 1.552 1.856 4.964 2.158 10.178.693 11.971-.275 16.266-4.858 21.561L108 405.122v53.756l3.937 4.549c4.542 5.249 5.471 9.273 4.921 21.328-.251 5.486-.892 8.57-2.141 10.289l-4.25 5.854-2.467 3.398v52.698l3.548 3.928c4.436 4.91 5.452 8.412 5.452 18.801 0 8.648-1.942 15.657-4.623 16.686-3.597 1.38-4.377 6.784-4.377 30.315 0 12.534.428 24.283.952 26.108.523 1.825 2.595 5.138 4.603 7.361 3.601 3.985 3.647 4.143 3.285 11.306-.351 6.945-.553 7.466-4.603 11.86-3.938 4.272-4.237 4.995-4.237 10.232 0 11.904 6.025 107.093 6.998 110.564 2.183 7.784 13.214 16.882 24.692 20.364 7.273 2.207 141.569 2.187 149.008-.022 7.348-2.182 13.522-5.927 18.278-11.087 5.64-6.119 6.685-9.131 7.429-21.41 3.98-65.721 5.659-98.159 5.247-101.378-.35-2.737-1.617-5.026-4.306-7.78-3.604-3.691-3.83-4.299-4.181-11.255-.368-7.283-.337-7.391 3.333-11.453 2.038-2.256 4.066-5.7 4.507-7.655.44-1.954.862-13.634.937-25.955.141-23.267-.644-28.705-4.348-30.126-3.084-1.184-4.808-8.608-4.441-19.127.324-9.281.544-10.181 3.347-13.704 5.581-7.016 5.47-6.334 5.485-33.669l.015-25.602-2.467-3.398a6653.24 6653.24 0 0 0-4.21-5.793c-1.266-1.74-1.854-4.923-2.148-11.639-.477-10.924.713-15.409 5.511-20.769l3.404-3.802-.295-27.394-.295-27.393-3.267-3.369C312.168 396.547 311 392.587 311 383c0-9.587 1.168-13.547 5.233-17.739l3.267-3.369.299-26.184c.164-14.401.068-27.089-.214-28.196-.281-1.107-1.859-3.481-3.505-5.277-3.833-4.18-5.073-8.776-5.052-18.735.017-8.443 1.333-12.385 6.479-19.398 3.007-4.098 2.986-3.157.839-38.275-1.545-25.276-1.556-28.362-.127-35.616 4.004-20.322 18.548-38.869 48.987-62.47 6.923-5.368 12.963-10.543 13.422-11.5.46-.958 1.069-11.742 1.354-23.966.67-28.737-1.054-26.576 21.792-27.319 10.795-.351 17.554-1 19.061-1.831C427.436 60.59 428 56.994 428 30.167c0-23.674-.102-25.027-2.073-27.532L423.855 0H4.145L2.073 2.635Z" clip-rule="evenodd"/>
</svg>
