<svg xmlns="http://www.w3.org/2000/svg" width="910" height="582" fill="none" viewBox="0 0 910 582">
  <path fill="#fff" fill-rule="evenodd" d="M139.923 1.203c-.698.698-1.2 4.044-1.2 8v6.8l-4.25-.001c-3.72-.001-5.183-.764-11.724-6.11-4.11-3.36-8.527-6.509-9.815-6.999-3.957-1.504-72.868-1.092-78.71.471-17.22 4.607-30 17.99-33.505 35.083-.95 4.638-.957 8.373-.03 17C2.65 73.71 7.58 114.054 10.776 138.003c8.14 60.966 18.618 140.75 31.392 239 4.183 32.175 9.383 72 11.558 88.5 2.174 16.5 5.341 41.025 7.037 54.5 1.695 13.475 3.687 26.863 4.426 29.75 3.99 15.595 18.424 28.576 34.695 31.203 3.113.502 28.313.942 56 .978 54.805.07 59.71-.322 68.491-5.468 10.08-5.907 15.181-12.248 20.369-25.32 5.525-13.921 9.099-18.427 25.582-32.254 13.313-11.167 27.985-23.502 62.317-52.389 37.205-31.305 62.708-52.818 86.48-72.951a48699.44 48699.44 0 0 1 37.896-32.07c6.851-5.786 12.516-9.721 15.5-10.768 3.976-1.396 10.349-1.694 41.225-1.931l36.523-.28 6.731-3.314c7.696-3.79 13.129-9.932 15.012-16.973.988-3.695 1.455-4.234 3.185-3.676 10.348 3.335 13.149 3.722 19.364 2.678 8.584-1.443 15.047-4.885 25.304-13.477 4.753-3.981 18.928-15.628 31.5-25.882 12.573-10.255 30.959-25.421 40.859-33.704 9.912-8.293 20.696-16.42 24-18.088 11.289-5.698 14.489-6.064 52.96-6.063 32.616 0 35.404.138 40.301 2 13.394 5.091 26.333.202 33.082-12.501 2.603-4.898 2.661-5.419 2.861-25.5.112-11.275.225-22.413.25-24.75l.046-4.25h53.091l2.454-2.455c2.259-2.258 2.455-3.206 2.455-11.877 0-7.333.347-9.711 1.566-10.723 4.392-3.645 4.434-4.204 4.434-58.58 0-50.281-.058-51.854-2.071-56.012-1.216-2.511-3.59-5.222-5.75-6.565-3.598-2.237-4.369-2.295-34.929-2.591-30.085-.291-31.25-.374-31.25-2.229 0-3.969-3.24-9.953-6.469-11.949-2.8-1.73-4.975-2.019-15.199-2.019-7.947 0-12.333.401-13.132 1.2-.698.698-1.2 4.044-1.2 8v6.8h-37v-16h-38v16h-37v-16h-19.5c-10.725 0-19.447.337-19.382.75.066.413.066 4.012 0 8l-.118 7.25h-37v-16h-38v16h-37v-16h-37.916l-.292 7.75-.292 7.75h-37V0l-19.25.001-19.25.002v16h-37v-16h-19.5c-10.725 0-19.447.337-19.382.75.066.413.066 4.012 0 8l-.118 7.25h-37v-16h-38v16h-36v-16H220.33c-17.118 0-16.607-.218-16.607 7.082v3.918h-34v-11h-14.3c-9.789 0-14.679.379-15.5 1.2ZM103.756 130.52c8.226 4.254 7.624 15.506-1.072 20.003-4.063 2.101-45.413 2.153-50.414.064-4.386-1.832-6.82-5.636-6.82-10.657 0-4.217 2.79-8.326 6.773-9.973 1.1-.455 12.485-.856 25.3-.891 18.962-.051 23.845.219 26.233 1.454Zm235.938 35.968c6.979 3.609 9.469 11.476 5.837 18.441-4.423 8.483-.771 8.074-72.141 8.074-69.227 0-67.275.168-71.788-6.17-4.584-6.438-2.828-14.986 4.019-19.56l3.398-2.27h63.902c54.557 0 64.321.217 66.773 1.485Zm-226.991 19.163c3.421 2.02 5.02 5.205 5.02 9.999 0 2.707-.809 4.362-3.4 6.953l-3.4 3.4H86.257c-16.196 0-25.415-.384-26.85-1.117-3.852-1.971-5.638-5.119-5.662-9.987-.026-5.332 2.955-9.405 7.643-10.443 1.56-.345 3.285-.814 3.835-1.041.55-.228 10.817-.197 22.817.069 18.044.4 22.307.774 24.663 2.167Zm513.109 46.223c3.26 2.64 3.188 8.329-.139 10.974-1.348 1.07-11 9.004-21.45 17.629-10.45 8.626-20.107 16.122-21.461 16.66-3.233 1.284-6.174.464-10.055-2.801l-3.171-2.668.344-8.729c.407-10.35-.256-9.401 16.123-23.09l11.78-9.846h12.859c11.074 0 13.18.26 15.17 1.871Zm-138.522 6.664c6.367 3.937 9.395 9.182 9.417 16.314.009 2.969-.731 6.922-1.663 8.886-1.842 3.884-7.971 9.218-84.321 73.387-6.875 5.778-27.361 23.077-45.524 38.442-76.222 64.478-105.742 89.047-109.202 90.886-8.598 4.571-20.723 2.753-28.5-4.273-7.751-7.003-6.977-2.866-19.81-105.895-12.914-103.681-12.63-99.066-6.63-108.044 3.334-4.989 10.756-10.616 16.031-12.155 1.836-.535 57.427-.845 134.214-.748l131.078.165 4.91 3.035Zm-368.602.771c2.008.692 4.461 2.667 5.832 4.694 3.055 4.52 2.43 9.233-1.784 13.45l-3.048 3.05-23.704.303c-13.037.166-24.694.054-25.905-.25-3.603-.904-8.053-5.295-8.714-8.596-1.13-5.651 2.95-11.716 8.9-13.228 4.29-1.089 44.992-.604 48.423.577Zm47.321 54.468c1.533 1.469 2.998 3.583 3.255 4.698.429 1.861 4.475 33.686 20.347 160.028 3.991 31.766 5.521 46.951 4.947 49.074-1.354 5.005-5.044 7.696-11.26 8.211l-5.44.451-.552-3.368c-.722-4.399-20.847-165.289-24.564-196.368-1.579-13.2-2.566-24.294-2.195-24.653 2.799-2.705 11.798-1.584 15.462 1.927Z" clip-rule="evenodd"/>
</svg>
