<svg xmlns="http://www.w3.org/2000/svg" width="795" height="499" fill="none" viewBox="0 0 795 499">
  <path fill="#fff" fill-rule="evenodd" d="M211.497 1.358c-6.309 2.834-6.952 4.502-7.5 19.473l-.5 13.649-99.5.512c-54.725.282-99.62.619-99.765.75-.145.13-1.156 1.7-2.246 3.488C.192 42.172.004 44.303 0 61.761c-.006 29.843-.304 29.492 25.848 30.275 19.79.592 22.514 1.172 31.648 6.74 12.624 7.696 23.858 25.759 37.723 60.654 9.827 24.734 22.609 57.205 27.888 70.849l4.953 12.801-1.886 2.699c-3.559 5.092-3.504 7.624.342 15.949 3.712 8.033 4.728 9.085 10.393 10.758 2.973.877 3.787 1.888 6.302 7.827l2.888 6.82-2.179 4.501-2.178 4.501 2.698 6.877c3.596 9.166 5.819 11.825 10.515 12.575 3.704.593 3.905.842 6.957 8.64 2.77 7.077 2.971 8.22 1.691 9.64-2.934 3.257-2.951 6.821-.066 13.867 3.059 7.474 6.376 11.244 9.892 11.244 3.037 0 3.886 1.144 7.013 9.453l2.617 6.952-2.207 4.161-2.207 4.16 2.925 7.225c3.403 8.403 6.355 12.049 9.756 12.049 3.105 0 3.898 1.027 7.229 9.36 2.621 6.558 2.669 6.984 1.091 9.655-2.312 3.914-2.075 6.772 1.215 14.636 2.45 5.855 3.452 7.139 6.907 8.849 3.937 1.948 4.202 2.416 10.209 18 3.392 8.8 7.336 17.711 8.765 19.803 3.365 4.923 8.64 9.053 15.918 12.463l5.836 2.734 42.722.29c47.335.322 46.198.46 51.275-6.197 2.406-3.154 2.783-5.122 5.038-26.251 2.961-27.76 5.965-46.828 8.637-54.842 3.251-9.749 8.516-18.768 14.1-24.155 2.875-2.774 22.553-17.342 43.728-32.373a34835.642 34835.642 0 0 0 59-41.965c11.275-8.05 37.825-26.938 59-41.975 21.175-15.036 42.325-30.134 47-33.552 13.77-10.063 204.154-145.906 208.205-148.555 7.152-4.68 7.796-7.106 7.796-29.356 0-19.538-.015-19.673-2.455-22.112l-2.454-2.456H624.997v-12.03c0-14.937-1.128-18.218-7.212-20.979-4-1.815-6.795-1.948-41.57-1.968-40.646-.024-42.335.182-45.89 5.593-1.452 2.211-1.931 5.468-2.328 15.834l-.5 13.052-113.25.254-113.25.255V22.885c0-13.373-1.145-17.412-5.836-20.597C292.719.63 289.242.46 253.497.245c-30.948-.186-39.619.044-42 1.113Zm392.1 123.021c3.645 3.645 4.362 7.395 2.285 11.953-.614 1.347-6.126 6.038-12.25 10.427-6.124 4.388-41.285 29.472-78.135 55.742a155719.05 155719.05 0 0 0-96.5 68.839c-59.276 42.349-56.631 40.639-62.851 40.639-6.071 0-12.678-3.106-15.382-7.232-2.365-3.61-48.07-124.072-51.291-135.183-1.21-4.176-1.58-8.145-1.26-13.5 1-16.717 11.911-29.717 28.284-33.699 3.794-.923 38.609-1.236 144.35-1.301l139.35-.085 3.4 3.4Z" clip-rule="evenodd"/>
</svg>
