<svg xmlns="http://www.w3.org/2000/svg" width="773" height="501" fill="none" viewBox="0 0 773 501">
  <mask id="a" width="773" height="501" x="0" y="0" maskUnits="userSpaceOnUse" style="mask-type:alpha">
    <path fill="#fff" fill-rule="evenodd" d="M103.699 1.459C92.147 4.565 85.708 12.819 82.084 29.17c-1.263 5.7-9.445 40.063-18.181 76.363l-22.381 93c-3.574 14.85-9.446 39.15-13.05 54C16.369 302.409 17 298.726 17 319.506c0 20.247.64 23.428 5.803 28.869 1.483 1.562 4.497 3.812 6.697 5l4 2.158h200.75c110.413 0 200.75.061 200.75.136 0 .074-.672 1.424-1.494 3-.821 1.575-1.496 3.615-1.5 4.532-.003.918-.279 2.38-.613 3.25-.551 1.436-20.512 1.582-216 1.582H0v132h144v-15.352c0-14.296.156-15.586 2.27-18.75 4.838-7.242.6-6.895 84.246-6.896 85.047-.002 79.86-.497 84.234 8.034 2.024 3.946 2.25 5.825 2.25 18.676v14.288h455.844l-.172-68.75-.172-68.75-3.25-.313-3.25-.314-.007-15.186c-.008-17.686-1.906-27.594-7.362-38.428-9.261-18.388-24.097-31.624-43.183-38.524l-8.948-3.235-117.15-.274-117.15-.274-.35 21.351-.35 21.352-4.255 8.584c-3.081 6.217-5.701 9.885-9.5 13.301l-5.245 4.718-.523-48.379c-.353-32.589-.891-49.211-1.65-50.929-2.664-6.035-25.082-55.53-30.324-66.95a4006.3 4006.3 0 0 1-11.792-26c-7.9-17.616-34.011-75.327-45.017-99.5-13.605-29.879-16.14-34.502-20.901-38.12-2.347-1.783-6.458-3.679-9.299-4.288-7.913-1.697-222.906-1.384-229.295.334Zm210.134 43.028c6.607 3.66 9.667 7.207 13.415 15.546a1205.83 1205.83 0 0 0 5.247 11.5c1.279 2.75 11.866 25.925 23.526 51.5a59671.5 59671.5 0 0 0 32.195 70.5C423.907 271.444 420 260.26 420 284.523c0 19.351-.097 20.359-2.27 23.612-1.248 1.869-3.836 4.188-5.75 5.153-3.284 1.655-13.217 1.74-175.98 1.5l-172.5-.255-3.172-2.263c-4.606-3.285-6.728-9.576-6.064-17.984.293-3.714 3.476-19.128 7.074-34.253s10.368-43.7 15.044-63.5c4.675-19.8 13.654-57.375 19.952-83.5 6.298-26.125 12.225-51.014 13.172-55.308 1.875-8.509 4.385-12.394 9.717-15.045 2.968-1.475 12.039-1.606 96.277-1.388l93 .241 5.333 2.954Zm317.363 345.111c6.307 3.191 9.666 6.45 12.228 11.866 5.908 12.488 1.4 26.488-10.67 33.144-13.106 7.226-29.325 1.269-35.268-12.955-4.181-10.006.245-23.867 9.597-30.056 7.155-4.735 17.08-5.558 24.113-1.999Z" clip-rule="evenodd"/>
  </mask>
  <g mask="url(#a)">
    <path fill="#fff" d="M-242-377.967h1254v1254H-242z"/>
  </g>
</svg>
