<svg xmlns="http://www.w3.org/2000/svg" width="728" height="470" fill="none" viewBox="0 0 728 470">
  <mask id="a" width="728" height="470" x="0" y="0" maskUnits="userSpaceOnUse" style="mask-type:alpha">
    <path fill="#fff" fill-rule="evenodd" d="M153.5.773c-33.873 5.584-59.707 24.658-73.413 54.201-7.207 15.536-8.084 21.963-8.11 59.468l-.023 32.876-6.587 7.5c-14.641 16.67-42.992 50.365-44.867 53.322-1.93 3.044-2.01 5.131-2.282 59.417l-.282 56.261H710V216.574l-8-8.196-8-8.197V48.627l-2.149-3.018c-3.996-5.613-5.372-5.79-44.67-5.79-24.838 0-36.929.36-39.282 1.171-8.128 2.804-9.585 4.97-20.395 30.328-5.85 13.722-33.387 77.307-50.019 115.5C517.087 233.657 519 226.573 519 255.292c0 13.875-.475 26.717-1.099 29.727-2.101 10.125-8.355 17.773-18.336 22.421-4.899 2.281-5.894 2.359-30.315 2.368l-25.25.01v-24.443c0-29.322.881-27.557-13.751-27.557h-9.305l.233-46.9c.188-37.779-.025-47.212-1.094-48.5-1.126-1.356-4.022-1.6-19.005-1.6-12.416 0-18.035.357-18.878 1.2-.9.9-1.2 13.044-1.2 48.5v47.3h-9.277c-14.604 0-13.723-1.776-13.723 27.665v24.551l-11.25-.361c-10.01-.322-11.746-.654-15.75-3.012-6.086-3.585-11.498-9.191-14.233-14.743-2.201-4.465-2.282-5.684-2.767-41.6-.433-32.048-.729-37.505-2.209-40.773-1.596-3.525-5.961-8.74-38.971-46.564l-12.68-14.529-.394-33.567c-.318-27.179-.72-34.974-2.113-40.963-6.809-29.268-26.188-53.32-52.78-65.509C190.184 1.69 167.979-1.614 153.5.773Zm24 57.17c17.764 4.7 31.818 21.78 33.22 40.375.965 12.809-3.18 23.936-12.595 33.809-6.654 6.977-11.207 9.779-20.48 12.603-8.9 2.711-15.834 2.639-24.955-.257-10.123-3.215-17.974-8.665-23.686-16.445-5.966-8.124-8.363-15.372-8.6-26-.294-13.23 3.142-21.786 12.782-31.825 6.039-6.289 13.199-10.347 22.809-12.927 4.92-1.32 15.197-1.002 21.505.667ZM16 343.512c-.825.295-4.762 3.736-8.75 7.646L0 358.268v111.55h179v-15.096c0-16.361.539-18.431 5.834-22.404 2.639-1.98 4.426-2.003 177.997-2.258 197.021-.291 179.9-.97 184.768 7.337 2.472 4.217 2.518 4.647 1.966 18.37L549 469.818h179V358.165l-7.885-7.674-7.885-7.673-347.365.079c-191.051.043-348.04.32-348.865.615Z" clip-rule="evenodd"/>
  </mask>
  <g mask="url(#a)">
    <path fill="#fff" d="M-263-366.182H991v1254H-263z"/>
  </g>
</svg>
