<svg xmlns="http://www.w3.org/2000/svg" width="1026" height="268" fill="none" viewBox="0 0 1026 268">
  <mask id="a" width="1026" height="268" x="0" y="0" maskUnits="userSpaceOnUse" style="mask-type:alpha">
    <path fill="#fff" fill-rule="evenodd" d="M536.306 2.411c-2.723 2.34-2.816 2.746-3.136 13.763-.302 10.385-.147 11.586 1.822 14.089 1.826 2.321 2.902 2.737 7.081 2.737H547V17h7v16h12V17h7v16h12V17h8v16h11.878l-.189-7.75-.189-7.75 3.75-.31 3.75-.311V33h4.943c7.233 0 8.057-1.616 8.057-15.799 0-11.217-.036-11.39-2.923-14.278L619.154 0h-80.042l-2.806 2.411ZM2.635 28.073 0 30.145v100.273c0 95.872.08 100.345 1.829 101.927 1.532 1.387 4.286 1.655 17 1.655H34V26H19.635c-13.019 0-14.612.194-17 2.073ZM47.25 26.69l-2.25.449V234h87.875l21.058-7.476c30.699-10.899 76.279-28.03 109.145-41.021l28.728-11.355 21.847-.137c12.016-.075 32.309-.402 45.097-.725l23.25-.589V87h-89.167l-24.683-9.92C235.447 63.937 180.984 43.452 145 30.76l-11.5-4.056-42-.231c-23.1-.127-43.012-.03-44.25.217ZM543 52.5V63h73V42h-73v10.5ZM1000 64c-1.958 1.958-2 3.333-2 65.927v63.928l2.64 2.072c2.16 1.701 4.05 2.073 10.55 2.073 8.85 0 13.2-1.599 14.17-5.21.34-1.259.62-30.098.63-64.085l.01-61.796-2.45-2.454c-2.27-2.264-3.2-2.455-12-2.455-8.22 0-9.83.279-11.55 2Zm-118 .911c-2.475 1-14.341 6.604-26.369 12.454L833.763 88H773v84h60.561l25.47 12.25L884.5 196.5l46.5.305c31.082.204 47.72-.051 50.18-.769 2.436-.711 4.38-2.207 5.75-4.423 2.031-3.287 2.07-4.436 2.066-61.731-.003-56.586-.065-58.483-2-61.657-1.098-1.801-3.151-3.714-4.562-4.25-1.539-.585-21.219-.956-49.249-.928-42.742.043-47.065.2-51.185 1.864ZM527.566 80.109 519 88.218v83.67l8.945 9.056 8.944 9.056h84.369l8.871-8.681 8.871-8.681V88.456l-8.271-8.228L622.458 72h-86.325l-8.567 8.109Zm-136.567 19.62V126.5h45V99.865L436 73.23l-22.5-.136-22.5-.137-.001 26.772ZM719 99.463v26.464l22.501.286 22.501.287-.001-26.103L764 74.293l-7.651-.646c-4.208-.356-14.333-.647-22.5-.647H719v26.463Zm-274 31.051v42.513l32.75-.263 32.75-.264.261-42.25.261-42.25H445v42.514ZM648 130v42h62V88h-62v42Zm-60.47-33.45c16.195 4.218 26.635 17.428 26.87 34 .088 6.236-.332 7.923-3.642 14.623-4.104 8.305-9.203 13.299-17.48 17.12-3.893 1.797-6.537 2.198-14.278 2.166-11.314-.047-16.399-1.946-23.83-8.897-14.841-13.882-14.776-36.531.145-50.285 5.296-4.882 8.829-6.819 15.915-8.727 6.9-1.857 9.17-1.857 16.3 0Zm-162.737 13.733.292 7.783-11.292-.283-11.293-.283-.299-6.91c-.21-4.846.089-7.163 1-7.754.714-.463 5.799-.729 11.299-.589l10 .253.293 7.783Zm327.707-.354v7.43l-11 .07-11 .071-.301-6.395c-.166-3.517-.062-7.02.231-7.784.419-1.092 2.838-1.328 11.302-1.105l10.768.284v7.429Zm-358.25 24.884-3.25.314V218h44.8l3.633 3.633c1.999 1.999 3.446 3.821 3.218 4.05-.229.228-16.905.458-37.058.51-20.153.051-37.756.307-39.117.567l-2.476.473v20.134l.001 20.133 11.749-.127c6.463-.07 18.613-.182 27-.25L418 267v-17h314v8.5c0 6.091.354 8.523 1.25 8.58 7.216.462 51.993.011 52.534-.529.394-.393.716-9.565.716-20.383V226.5l-37.352-.185c-20.543-.101-37.612-.446-37.931-.765-.319-.319.94-2.148 2.798-4.065l3.377-3.485H764v-82.927l-22.501-.286-22.501-.287-.124 31-.125 31-15.204 14.767-15.204 14.767-111.617-.025-111.616-.026-14.528-14.741-14.527-14.742-.027-31-.027-31h-19.25c-10.587 0-20.711.141-22.499.313Z" clip-rule="evenodd"/>
  </mask>
  <g mask="url(#a)">
    <path fill="#fff" d="M-114-482h1254V772H-114z"/>
  </g>
</svg>
