<svg xmlns="http://www.w3.org/2000/svg" width="763" height="727" fill="none" viewBox="0 0 763 727">
  <path fill="#fff" fill-rule="evenodd" d="M178.002 2.544c-31.641 7.261-56.933 22.05-85.111 49.77-9.33 9.178-26.234 30.059-34.148 42.181-8.811 13.496-19.894 36.557-25.311 52.669l-4.82 14.331-.726 95c-.4 52.25-.913 104.9-1.141 117l-.415 22-8.028 16c-4.416 8.8-9.633 20.05-11.593 25C-.302 454.203.002 447.631.002 581.563v120.652l3.149 5.908c3.643 6.836 8.697 11.747 15.782 15.337l5.003 2.535H84c64.508 0 64.021.036 68.978-5.14 1.243-1.298 11.849-16.839 23.569-34.536 11.721-17.697 22.355-32.772 23.632-33.499 1.904-1.085 34.619-1.309 181.591-1.243l179.269.081 3.046 2.917c1.675 1.605 10.753 14.844 20.174 29.419 19.098 29.549 23.944 36.353 28.065 39.409 2.781 2.062 3.708 2.096 63.967 2.372l61.146.28 6.217-3.061c7.363-3.625 14.353-10.923 17.004-17.755 1.743-4.492 1.857-10.851 2.145-119.744.206-78.183-.044-118.026-.782-124.451-1.467-12.761-5.382-23.901-16.539-47.049l-9.398-19.5-.941-117-.94-117-2.645-9.485c-16.6-59.545-69.497-120.718-122.762-141.972-4.239-1.691-13.014-4.416-19.5-6.056L577.502 0l-194.5.068-194.5.067-10.5 2.409Zm398.617 104.491c11.647 4.007 17.525 7.982 29.428 19.901 13.28 13.297 21.179 24.043 27.533 37.456l4.474 9.445-.276 88.529c-.221 71.014-.533 88.787-1.576 89.829-1.904 1.904-506.946 2.471-509.403.572-1.503-1.161-1.668-8.976-1.9-89.772l-.254-88.5 3.735-8c6.839-14.647 17.379-29.193 29.756-41.065 8.647-8.294 14.408-12.376 23.636-16.747l6.73-3.188 75.5-.609c41.525-.334 127.629-.408 191.342-.164 109.883.421 116.121.54 121.275 2.313Z" clip-rule="evenodd"/>
</svg>
