<svg xmlns="http://www.w3.org/2000/svg" width="844" height="464" fill="none" viewBox="0 0 844 464">
  <mask id="a" width="844" height="464" x="0" y="0" maskUnits="userSpaceOnUse" style="mask-type:alpha">
    <path fill="#fff" fill-rule="evenodd" d="m252.76 2.935-3.286 2.935v48.666l8.25.29 8.25.291V21.074l2.379-.597c1.309-.328 3.671-.45 5.25-.269l2.871.328.274 17.25.273 17.25h28.953v-16.3c0-17.835.26-18.7 5.618-18.7 6.545 0 6.382-.463 6.382 18.107v16.893h31v-16.3c0-11.344.365-16.665 1.2-17.5 1.552-1.552 8.048-1.552 9.6 0 .835.835 1.2 6.156 1.2 17.5v16.3h28.953l.273-17.25.274-17.25 3.82-.315c6.465-.532 6.68.061 6.68 18.437v16.378h17.099l-.299-24.479-.3-24.479-2.772-2.771-2.773-2.771-77.942-.268L256.046 0l-3.286 2.935Zm208.615 35.803c-2.244 2.42-2.473 3.409-2.203 9.495l.302 6.794 35.75.004 35.75.005v-7.461c0-12.131 1.834-11.539-35.736-11.539h-31.359l-2.504 2.702Zm108.234-.629c-2.424 1.906-2.635 2.667-2.635 9.5v7.427h72v-6.865c0-5.431-.433-7.416-2.073-9.5l-2.072-2.635h-31.293c-30.143 0-31.389.076-33.927 2.073ZM16.8 57.568c-3.061 1.662-7.063 9.444-9.329 18.14-2.041 7.831-5.24 30.884-6.484 46.723C-.336 139.27-.326 274.303.999 292.479c2.619 35.937 7.675 58.03 14.509 63.405 2.415 1.9 3.981 2.149 13.351 2.13 14.585-.03 21.507-3.223 20.549-9.478-4.418-28.853-5.968-68.405-5.86-149.5.077-57.604 1.714-97.732 5.057-123.957l1.588-12.456-2.859-2.302c-1.573-1.266-4.435-2.745-6.36-3.288-5.395-1.52-21.026-1.174-24.174.535Zm216.722 11.718c-1.883 1.788-8.176 8.408-13.986 14.711l-10.562 11.462.003 108.538.003 108.539 10.117 11c5.565 6.05 11.489 12.688 13.165 14.75l3.047 3.75h411.28l1.783-4.04c2.779-6.301 11.88-15.443 18.828-18.915 5.293-2.645 7.163-3.045 14.234-3.045 4.998 0 8.603-.463 9.34-1.2.92-.92 1.2-29.695 1.2-123.429 0-109.783-.16-122.388-1.571-123.8-1.42-1.419-23.445-1.571-227.515-1.571H236.945l-3.423 3.25ZM737.22 204.758l.254 138.778h26.965l-.111-138.5-.111-138.5-13.625-.278-13.625-.278.253 138.778Zm39.216-137.472c-.262.688-.36 63.125-.219 138.75l.257 137.5 23.376.269 23.376.268 10.374-10.208 10.374-10.209.002-119.06.002-119.06-9.967-9.75-9.967-9.75h-23.566c-17.933 0-23.68.299-24.042 1.25ZM63.158 73.314c-1.099 1.324-2.951 21.037-3.78 40.222-.262 6.05-.87 17.3-1.353 25-1.194 19.055-.601 131.689.841 159.5 1.417 27.356 2.982 42.166 4.596 43.5.697.576 6.68.919 14.111.808 7.096-.106 16.911-.218 21.812-.25l8.911-.058 12.339-12.199 12.339-12.199V96.696l-8.75-8.851c-4.812-4.867-10.736-10.416-13.164-12.33l-4.414-3.479H85.432c-16.003 0-21.474.314-22.274 1.278Zm640.816 131.578v122.855l7.56.572c4.158.315 9.108.321 11 .014l3.44-.559V82.036h-22v122.856ZM145.657 96.686c-.375.376-.683 50.284-.683 110.907v110.224l3.25.36c1.788.197 13.375.134 25.75-.141l22.5-.5v-221l-25.067-.267c-13.786-.147-25.374.041-25.75.417Zm505.488 15.005c2.4 2.172 2.325 5.849-.171 8.345-1.983 1.983-3.333 2-162 2s-160.017-.017-162-2c-2.55-2.55-2.538-5.046.039-7.811l2.039-2.189h160.132c147.602 0 160.276.13 161.961 1.655Zm166.451 16.833c5.43 3.558 5.378 2.821 5.378 76.512 0 73.567.042 72.961-5.311 76.468-5.94 3.892-13.967 2.513-18.063-3.104-1.795-2.461-1.867-5.584-1.697-73.717l.179-71.147 2.696-2.854c1.483-1.57 3.596-3.252 4.696-3.738 2.787-1.232 9.083-.411 12.122 1.58Zm-259.945 28.262c4.893 5.362 11.243 12.427 14.11 15.7l5.213 5.949v77.509l-9.352 10.796c-5.143 5.938-11.579 13.158-14.301 16.046l-4.949 5.25H413.107c-79.524 0-135.959-.376-136.949-.912-.926-.501-5.059-4.856-9.184-9.678-4.125-4.822-9.863-11.383-12.75-14.58l-5.25-5.813v-79.258l8.659-10.129c4.762-5.572 10.934-12.492 13.715-15.38l5.058-5.25h272.348l8.897 9.75Zm-281.802 8.5a743.995 743.995 0 0 1-10.099 11.581l-4.776 5.33v69.846l10.209 11.996 10.208 11.997h261.473l3.924-4.25c2.158-2.337 7.122-7.85 11.032-12.25l7.108-8 .023-34.179.023-34.179-10.75-12.066-10.75-12.065-131.151-.006-131.151-.005-5.323 6.25Zm47.925 15.95c.888.888 1.2 10.333 1.2 36.3s-.312 35.412-1.2 36.3c-1.655 1.655-23.945 1.655-25.6 0-.888-.888-1.2-10.367-1.2-36.45 0-32.517.136-35.33 1.75-36.27 2.539-1.479 23.552-1.378 25.05.12Zm43.266-.165c1.856.994 1.934 2.458 1.934 36.3 0 26.095-.312 35.577-1.2 36.465-1.655 1.655-23.945 1.655-25.6 0-.887-.887-1.2-10.194-1.2-35.671 0-30.673.182-34.673 1.655-36.3 1.401-1.549 3.25-1.829 12.066-1.829 5.726 0 11.281.466 12.345 1.035Zm44.734.165c1.886 1.886 1.704 71.137-.192 72.71-.926.769-5.362 1.061-13.25.873l-11.858-.283-.263-35.882c-.188-25.651.061-36.272.873-37.25 1.503-1.812 22.901-1.957 24.69-.168Zm105.523 9.173c5.995 2.836 13.07 9.93 15.353 15.393 2.464 5.898 2.8 15.283.767 21.413-2.577 7.767-11.847 16.779-19.805 19.254-14.244 4.431-29.516-2.484-36.745-16.638-3.293-6.448-3.199-16.566.223-23.795 7.656-16.177 24.888-22.874 40.207-15.627ZM254.396 363.378c-.286.746-.386 4.462-.221 8.257l.299 6.901h123v-16l-61.278-.258c-50.852-.214-61.367-.027-61.8 1.1Zm287.781-.493c-.919.586-1.211 2.987-1 8.239l.297 7.412 57.791.258 57.79.258-.29-8.258-.291-8.258-56.5-.239c-31.075-.132-57.084.133-57.797.588Zm-299.144 28.902c-2.141 1.733-2.163 2.097-2.108 34.75.055 32.305.1 33.036 2.163 34.749 1.946 1.615 5.967 1.75 52.306 1.75 38.648 0 50.561-.288 51.779-1.25.869-.687 2.116-2.941 2.771-5.008.654-2.066 2.025-4.204 3.044-4.75 1.192-.637 37.901-.992 102.698-.992 110.103 0 105.288-.254 105.288 5.557 0 1.344.9 3.343 2 4.443 1.946 1.946 3.333 2 51.811 2 48.747 0 49.859-.044 52-2.039 2.165-2.017 2.189-2.394 2.189-34.5 0-31.128-.082-32.543-2-34.461-1.987-1.987-3.333-2-211.889-2-198.469 0-210.007.095-212.052 1.751Zm78.059 12.042c14.87 7.768 18.618 26.944 7.601 38.896-6.224 6.753-10.751 8.765-19.719 8.765-8.968 0-13.495-2.012-19.719-8.765-11.293-12.252-6.583-32.596 9.219-39.817 6.38-2.916 16.025-2.523 22.618.921Zm289.397-.693c12.493 6.584 18.532 20.301 13.881 31.528-2.417 5.835-7.594 11.617-13.066 14.596-9.829 5.349-25.121 1.983-32.007-7.045-9.776-12.817-5.74-30.916 8.559-38.386 6.922-3.616 16.528-3.91 22.633-.693ZM303.07 415.301c-6.186 3.179-8.712 11.824-5.127 17.545 2.226 3.551 7.242 6.192 11.749 6.186 6.127-.008 12.289-6.64 12.278-13.214-.005-3.333-3.458-8.452-6.902-10.233-3.591-1.857-8.701-1.978-11.998-.284Zm290.934.014c-3.443 1.743-7.031 7.419-7.026 11.119.008 6.596 6.487 12.602 13.596 12.602 5.883 0 12.406-6.92 12.396-13.151-.005-3.393-3.431-8.506-6.902-10.3-3.602-1.863-8.691-1.976-12.064-.27Z" clip-rule="evenodd"/>
  </mask>
  <g mask="url(#a)">
    <path fill="#fff" d="M-205.027-394.964h1254v1254h-1254z"/>
  </g>
</svg>
