<svg xmlns="http://www.w3.org/2000/svg" width="669" height="505" fill="none" viewBox="0 0 669 505">
  <mask id="a" width="669" height="505" x="0" y="0" maskUnits="userSpaceOnUse" style="mask-type:alpha">
    <path fill="#fff" fill-rule="evenodd" d="M424.391 1.718c-4.72 2.206-7.477 5.104-18.078 18.996a2030.583 2030.583 0 0 1-15.491 20c-4.163 5.29-15.154 19.518-24.425 31.618-9.271 12.1-19.182 24.925-22.024 28.5-2.842 3.575-15.131 19.616-27.31 35.647-17.425 22.937-22.818 29.383-25.307 30.25-1.74.607-9.292 1.103-16.783 1.103h-13.62l-9.962-10-9.962-10H133.603l-7.653 8-7.653 8h-95.73l-11.088 10.965L.391 185.763l-.195 71.243L0 328.25l11.14 11.291c8.669 8.786 11.733 11.291 13.81 11.291h2.669l-2.364-4.669-2.364-4.67.001-44.58.001-44.581 2.934-6c3.366-6.884 5.17-9.17 10.064-12.748 8.107-5.928 4.384-5.752 121.5-5.752 116.43 0 112.61-.172 121.403 5.481 1.979 1.271 14.899 13.721 28.713 27.665 31.066 31.36 28.943 26.992 28.606 58.854-.131 12.375.033 24.638.364 27.25l.602 4.75h108.972c77.831 0 109.596-.317 111.156-1.109 1.201-.611 6.796-5.665 12.434-11.233l10.25-10.122v-78.536H460.859c-99.187 0-119.585-.231-122.349-1.386-1.865-.779-14.328-12.216-28.468-26.124-20.644-20.305-25.151-25.226-25.151-27.459 0-3.442 2.813-6.031 6.552-6.031 2.444 0 6.644 3.738 26.968 24l24.074 24h237.406v-77.987l-6.064-24.756c-17.33-70.754-24.17-98.79-26.533-108.757-3.275-13.81-5.911-19.16-11.335-23l-4.238-3L480.056.09c-48.663-.228-51.897-.133-55.665 1.628Zm75.25 37.235c5.279 2.556 8.87 7.636 10.179 14.402.908 4.695 18.824 79.271 21.16 88.077 2.754 10.385.46 18.685-6.422 23.239l-4.021 2.661h-77.75c-77.322 0-77.765-.011-80.573-2.092-4.461-3.306-7.323-8.238-7.323-12.622 0-4.7.742-6.218 7.468-15.286 30.081-40.554 70.65-94.35 72.174-95.706 4.864-4.326 7.701-4.714 34.792-4.755 24.428-.037 26.189.084 30.316 2.082Zm94.057 141.338.307 12.541h25.769c25.642 0 25.779.011 27.943 2.314 2.772 2.951 2.766 6.056-.015 8.647-2.085 1.943-3.406 2.039-28 2.039h-25.811v25.5h25.895c24.062 0 26.044.135 28 1.905 2.591 2.345 2.726 6.723.276 8.94-1.603 1.451-5.05 1.655-28 1.655h-26.171v26h25.066c24.618 0 28.166.4 30.169 3.4 1.358 2.033.781 5.584-1.235 7.6-1.897 1.897-3.333 2-28 2h-26v26h26c24.667 0 26.103.103 28 2 2.791 2.791 2.532 6.437-.635 8.927-2.508 1.973-3.854 2.073-27.931 2.073h-25.297l-.318 9.588c-.176 5.273-.132 9.773.098 10 .942.932 58.807.339 62.33-.64 4.897-1.36 10.213-6.928 11.67-12.226.844-3.07 1.082-23.722.872-75.722-.326-80.649.096-76.399-8.12-81.839l-4.019-2.661-31.575-.291-31.575-.29.307 12.54Zm-548.584 62.65c-2.783 1.384-5.141 3.601-6.75 6.347l-2.473 4.22.002 43.412c.001 49.555-.147 48.574 7.96 52.662l4.462 2.25h275.576V325.3c0-21.719-.282-27.207-1.552-30.25-1.941-4.649-44.013-47.216-50.448-51.042l-4.5-2.676-109-.259-109-.258-4.277 2.126Zm63.314 32.558c9.739 3.319 16.484 12.964 16.453 23.526-.023 8.021-8.472 19.142-16.609 21.863-13.335 4.46-28.083-3.343-32.039-16.951-2.232-7.677-.675-14.309 4.826-20.559 7.747-8.801 16.916-11.44 27.369-7.879Zm146.591-.139c13.327 4.541 20.176 18.921 14.877 31.239-4.393 10.211-15.779 17.134-25.734 15.645-6.208-.929-14.242-6.134-17.896-11.595-5.963-8.909-5.26-19.257 1.856-27.342 7.565-8.595 16.901-11.353 26.897-7.947ZM95.391 287.187c-6.531 2.986-9.062 9.552-6.093 15.807 4.678 9.859 18.867 8.662 22.548-1.903 1.305-3.746 1.283-4.536-.211-7.669-2.934-6.153-10.267-8.968-16.244-6.235Zm147 .048c-6.654 2.936-9.07 9.485-5.937 16.088 3.749 7.9 15.729 8.642 20.876 1.292 2.003-2.859 2-9.033-.005-12.911-1.543-2.983-6.637-5.91-10.152-5.833-.98.022-3.132.635-4.782 1.364Zm-143.5 92.599v15.003l205.75-.253 205.75-.252v-23l-43.807-.261-43.807-.26-5.72 6.01-5.719 6.011h-69.601l-2.673-2.783c-1.47-1.53-5.292-5.58-8.494-9l-5.821-6.217H98.891v15.002Zm-35 73.442v45.444l2.413 2.806 2.413 2.806 58.337.27 58.337.271 12.485-12.521 12.485-12.52H446.03l12.057 12.5 12.058 12.5h115.946l3.4-3.4 3.4-3.4v-90.2h-529v45.444Zm86.309-23.631c3.319 1.468 5.501 3.492 8.445 7.833 4.695 6.924 9.246 15.679 9.246 17.787 0 2.304-2.959 8.299-8.245 16.704-4.171 6.632-5.491 7.945-10.029 9.975-7.523 3.366-18.185 3.257-25.726-.262-5.006-2.337-6.023-3.41-11.328-11.958-5.565-8.967-5.811-9.643-5.45-14.947.311-4.572 1.24-6.916 5.257-13.257 5.958-9.406 7.123-10.495 13.769-12.874 6.572-2.353 17.511-1.899 24.061.999Zm382.551-.253c4.703 1.883 9.878 8.044 14.627 17.415 3.898 7.691 3.248 12.117-3.432 23.375-4.771 8.042-5.737 9.073-10.576 11.288-13.455 6.16-27.967 3.225-34.779-7.034-10.102-15.216-10.693-19.949-3.914-31.36 6.084-10.241 9.244-12.976 17.714-15.331 4.387-1.219 15.427-.326 20.36 1.647Zm-404.285 12.649c-4.284 2.5-8.581 9.373-8.566 13.698.016 4.354 5.667 13.06 9.524 14.671 4.364 1.824 10.591 1.815 14.985-.021 4.197-1.754 9.482-9.579 9.482-14.041 0-4.082-3.81-11.396-7.237-13.893-4.258-3.102-13.233-3.307-18.188-.414Zm385.426-1.14c-3.264 1.372-6.839 4.755-8.596 8.131-3.607 6.933.109 17.918 7.199 21.282 4.745 2.252 13.37 1.669 17.187-1.162 3.753-2.782 7.176-9.137 7.176-13.32s-3.423-10.538-7.176-13.32c-3.134-2.325-11.954-3.224-15.79-1.611Z" clip-rule="evenodd"/>
  </mask>
  <g mask="url(#a)">
    <path fill="#fff" d="M-294.109-374.168h1254v1254h-1254z"/>
  </g>
</svg>
