<svg xmlns="http://www.w3.org/2000/svg" width="252" height="576" fill="none" viewBox="0 0 252 576">
  <mask id="a" width="252" height="576" x="0" y="0" maskUnits="userSpaceOnUse" style="mask-type:alpha">
    <path fill="#fff" fill-rule="evenodd" d="M40 2.12c-2.2 1.132-8.388 6.39-13.75 11.688l-9.75 9.63v249.688c0 137.328-.273 250.399-.607 251.269-.426 1.109-1.915 1.582-4.984 1.582-3.423 0-5.089.636-7.643 2.917L0 531.811v38.328l3.266 2.919 3.266 2.919h233.122l2.983-2.983 2.982-2.982-.309-19.492c-.298-18.745-.397-19.579-2.587-21.768-1.722-1.72-3.796-2.397-8.5-2.775l-6.223-.5v-466l8-.505c4.4-.276 9.051-1.1 10.335-1.83 6.587-3.742 6.812-19.373.379-26.482-2.734-3.02-7.3-4.953-13.214-5.59l-5.5-.593-.581-6.758c-.472-5.494-1.139-7.456-3.571-10.5-6.182-7.737.32-7.244-94.848-7.196C45.237.065 43.942.095 40 2.12Z" clip-rule="evenodd"/>
  </mask>
  <g mask="url(#a)">
    <path fill="#fff" d="M-506.5-315.023h1254v1254h-1254z"/>
  </g>
</svg>
