<svg xmlns="http://www.w3.org/2000/svg" width="288" height="912" fill="none" viewBox="0 0 288 912">
  <mask id="a" width="288" height="912" x="0" y="0" maskUnits="userSpaceOnUse" style="mask-type:alpha">
    <path fill="#fff" fill-rule="evenodd" d="M26.42 1.885c-4.171 2.544-5.139 5.554-6.371 19.813-1.217 14.085-.588 16.639 4.51 18.321 1.795.593 3.529 1.768 3.853 2.611 1.191 3.106.534 8.722-1.386 11.828-1.996 3.23-4.05 22.379-9.548 89.042-1.525 18.483-1.883 20.488-4.719 26.438-2.366 4.962-3.27 8.62-3.945 15.963-.807 8.787-.718 9.738 1.161 12.28 2.241 3.03 2.415 3.945 2.183 11.431-.123 3.976-.796 5.916-3.027 8.723-2.494 3.139-2.96 4.782-3.571 12.588-.665 8.503-.565 9.212 1.892 13.405 2.288 3.904 2.515 5.103 1.922 10.15-.474 4.03-1.443 6.638-3.274 8.814-2.259 2.684-2.686 4.345-3.258 12.649-.621 9.011-.521 9.763 1.75 13.113C6.48 291.84 7 293.915 7 298.666c0 5.227-.412 6.578-3 9.834-2.877 3.621-3 4.18-3 13.678 0 8.603.286 10.29 2.177 12.848 1.664 2.25 2.194 4.421 2.25 9.209.062 5.36-.324 6.784-2.677 9.859C.219 357.402 0 358.407 0 366.705c0 7.968.291 9.444 2.5 12.7 3.297 4.859 3.573 15.666.5 19.595-1.641 2.098-1.959 4.117-1.978 12.556-.02 9.032.22 10.383 2.351 13.272 1.565 2.121 2.608 5.291 3.062 9.302.627 5.544.449 6.447-2.008 10.16-2.602 3.932-2.673 4.405-2.034 13.495.544 7.743 1.086 9.981 3.043 12.568 1.513 1.999 2.638 5.234 3.085 8.869.619 5.044.403 6.232-1.829 10.041-2.32 3.959-2.488 5.025-2.012 12.778.442 7.176.95 9.076 3.35 12.524 4.105 5.898 5.037 14.973 2.036 19.828-1.974 3.194-2.113 4.344-1.49 12.315.704 9.007 1.396 11.272 4.438 14.537 3.165 3.397 4.009 14.849 1.373 18.613-1.344 1.918-1.495 3.878-.905 11.741.652 8.702.962 9.744 3.976 13.35 4.406 5.275 5.604 14.045 2.697 19.754-1.838 3.61-1.859 4.239-.439 12.797 1.234 7.431 2.002 9.534 4.407 12.066 4.063 4.277 5.871 14.125 3.505 19.088-1.995 4.184-2.026 6.745-.198 16.334 1.133 5.939 1.979 7.926 4.092 9.611 3.78 3.015 6.182 14.139 3.974 18.408-1.882 3.641-1.876 6.057.041 15.168 1.172 5.572 2.269 8.062 4.624 10.491 4.277 4.413 6.114 13.099 4.003 18.932-1.343 3.711-1.306 4.939.385 12.996 1.503 7.163 2.421 9.405 4.709 11.495C52.109 784.692 55 792.12 55 796.838c0 1.386-.53 3.986-1.178 5.778-1.678 4.639 1.472 18.221 5.361 23.115 1.547 1.946 3.228 5.165 3.737 7.154.509 1.988 3.263 12.39 6.121 23.115 7.642 28.675 7.276 26.33 4.841 31.002l-2.115 4.058 2.356 8.22c2.537 8.849 5.34 12.72 9.211 12.72 1.333 0 19.453-6.34 40.265-14.09 32.26-12.011 86.828-32.026 144.401-52.965 19.609-7.131 21.421-8.915 18.511-18.215-3.926-12.541-4.562-13.715-8.531-15.74-2.109-1.076-4.067-2.752-4.351-3.723-4.355-14.899-5.754-21.947-5.152-25.963 1.087-7.25-2.127-19.911-6.2-24.419-4.455-4.931-6.259-12.88-4.282-18.87 1.191-3.608 1.153-5.291-.283-12.739-1.408-7.307-2.109-8.968-4.717-11.179-2.433-2.062-3.297-3.876-4.199-8.808-.988-5.411-.904-6.724.656-10.183 1.693-3.754 1.702-4.451.163-12.748-1.332-7.178-2.177-9.342-4.639-11.883-4.161-4.292-6.049-14.189-3.461-18.139 3.002-4.581.577-22.183-3.445-24.999-3.91-2.739-5.376-14.318-2.441-19.286 1.418-2.401 1.488-3.953.539-11.978-.934-7.902-1.504-9.691-3.985-12.518-4.137-4.711-5.246-14.253-2.161-18.586 1.945-2.731 2.066-3.766 1.414-12.101-.634-8.099-1.035-9.481-3.604-12.407-2.344-2.67-3.009-4.549-3.511-9.929-.542-5.799-.349-7.003 1.53-9.544 3.73-5.046 2.436-20.481-2.177-25.964-3.513-4.175-3.773-12.51-.551-17.723 1.801-2.914 2.097-4.82 1.956-12.581-.15-8.222-.435-9.498-2.823-12.629-1.976-2.591-2.765-4.975-3.078-9.308-.365-5.047-.071-6.329 2.2-9.607 2.334-3.368 2.622-4.731 2.622-12.403 0-7.944-.215-8.876-2.75-11.888-2.39-2.84-2.749-4.127-2.745-9.826.004-5.379.441-7.141 2.428-9.796 2.002-2.673 2.502-4.724 2.872-11.764.417-7.949.269-8.784-2.179-12.317-2.189-3.158-2.626-4.892-2.626-10.409 0-5.483.404-7.105 2.353-9.446 1.94-2.332 2.472-4.443 3.034-12.048.654-8.859.576-9.377-1.975-13.232-2.317-3.501-2.599-4.779-2.22-10.031.343-4.741.986-6.601 3.03-8.767 2.279-2.415 2.679-3.905 3.283-12.249.631-8.716.515-9.719-1.409-12.158-1.568-1.988-2.096-4.082-2.096-8.315 0-5.86.923-8.566 4.123-12.089 1.405-1.548 2.028-4.29 2.499-11 .555-7.917.383-9.404-1.508-13.013-1.86-3.552-2.025-4.873-1.286-10.277.626-4.575 1.532-6.914 3.456-8.924 2.283-2.384 2.695-3.88 3.307-11.99.583-7.73.407-9.911-1.058-13.16-1.955-4.335-2.585 4.537 5.908-83.074 1.787-18.425 3.059-35.525 2.828-38-.734-7.852 1.385-10.837 8.81-12.407 4.391-.928 4.921-3.889 4.921-27.505 0-20.559-.12-21.97-2.073-24.453L250.855 0 140.177.004C33.66.007 29.384.078 26.42 1.885Z" clip-rule="evenodd"/>
  </mask>
  <g mask="url(#a)">
    <path fill="#fff" d="M-503-171H751v1254H-503z"/>
  </g>
</svg>
