<svg xmlns="http://www.w3.org/2000/svg" width="283" height="991" fill="none" viewBox="0 0 283 991">
  <mask id="a" width="283" height="991" x="0" y="0" maskUnits="userSpaceOnUse" style="mask-type:alpha">
    <path fill="#fff" fill-rule="evenodd" d="M79.2.936c-2.831 1.369-4.675 5.918-3.875 9.56.348 1.585 2.415 5.039 4.594 7.675l3.96 4.794v31.2l-4.5 4.132c-4.236 3.89-4.5 4.439-4.5 9.38 0 4.93.282 5.522 4.654 9.77l4.653 4.523-.554 74.717-.554 74.717-2.503 4.922c-2.43 4.779-2.521 5.7-3.126 31.921C76 330.961 72.497 404.993 70.76 409.56c-.524 1.377-2.286 4.023-3.916 5.88-3.722 4.239-4.112 11.111-.9 15.807 3.91 5.713 3.997 6.807 2.447 30.825-1.9 29.425-4.405 62.227-5.07 66.373-.282 1.759-2.032 5.015-3.887 7.237-4.13 4.941-5.38 10.741-3.185 14.764 5.309 9.728 5.038 7.38 3.23 27.935-2.002 22.8-6.417 66.554-7.19 71.266-.306 1.871-1.88 4.724-3.496 6.34-1.617 1.617-3.384 3.77-3.927 4.784-1.833 3.425-1.116 9.9 1.612 14.555l2.599 4.435-1.623 14.743c-2.676 24.295-5.556 47.911-7.625 62.507-1.072 7.57-1.95 14.192-1.95 14.716 0 .524-2.025 3.233-4.5 6.02-3.98 4.481-4.5 5.612-4.503 9.783-.002 2.945.827 6.284 2.207 8.889 2.136 4.034 2.168 4.517.948 14.5-3.52 28.807-15.417 105.83-16.657 107.837-.25.403-2.75.953-5.558 1.223-3.422.329-5.818 1.203-7.27 2.654-2.03 2.028-2.185 3.254-2.45 19.389-.256 15.724-.108 17.503 1.703 20.421 1.352 2.177 3.195 3.508 5.782 4.178 2.089.541 18.198 2.638 35.798 4.659s62.925 7.426 100.722 12.009c50.978 6.183 69.545 8.098 71.91 7.42 3.66-1.049 7.452-4.298 9.41-8.059 2.178-4.187 7.511-26.59 6.802-28.58-1.155-3.248-3.545-5.27-6.992-5.917-1.856-.348-3.556-.927-3.778-1.286-.222-.359.927-9.646 2.554-20.636 1.626-10.991 5.856-40.009 9.399-64.484 3.543-24.475 6.693-45.958 7.001-47.739.307-1.782 2.339-5.297 4.515-7.811 5.032-5.813 5.657-11.873 1.866-18.068-2.298-3.754-2.37-7.516-.423-22.273.817-6.195 2.844-22.817 4.505-36.936 5.103-43.384 4.505-40.049 7.812-43.546 6.088-6.438 6.924-12.621 2.572-19.026-2.365-3.48-2.573-4.519-2.102-10.482 1.348-17.043 7.818-85.87 8.259-87.851.273-1.227 1.909-3.839 3.635-5.805 4.517-5.145 5.089-11.967 1.461-17.449-3.274-4.948-3.298-6.668-.626-45.453 4-58.072 3.523-54.294 7.501-59.4 4.244-5.448 4.786-11.758 1.431-16.661-1.129-1.65-2.449-3.971-2.934-5.158-.523-1.281-.316-14.085.509-31.5 2.284-48.251 3.719-102.58 3.033-114.842-.354-6.325-.959-58.365-1.343-115.645-.652-97.208-.816-104.275-2.449-106.08-1.364-1.506-1.75-3.722-1.75-10.04 0-4.457-.43-9.236-.955-10.618-1.77-4.654-4.345-5.35-24.526-6.622l-18.982-1.198-6.234-5.832c-6.741-6.306-6.673-6.284-22.303-7.428-4.125-.302-31.8-2.346-61.5-4.542C82.7-.598 82.399-.61 79.2.936Z" clip-rule="evenodd"/>
  </mask>
  <g mask="url(#a)">
    <path fill="#fff" d="M-469.121-132.253h1254v1254h-1254z"/>
  </g>
</svg>
