<svg xmlns="http://www.w3.org/2000/svg" width="728" height="475" fill="none" viewBox="0 0 728 475">
  <path fill="#fff" fill-rule="evenodd" d="M121.464 1.892c-5.419 2.461-9.199 7.163-9.948 12.376-.335 2.334-.475 12.57-.31 22.745l.299 18.5h368l.276-16.407c.314-18.704-.748-24.23-5.838-30.373-5.611-6.772-9.494-8.066-25.58-8.53-18.864-.544-18.358-1.007-18.358 16.81v13h-51V17.466c0-11.987-.109-12.655-2.455-15-2.449-2.45-2.499-2.455-23.31-2.455-26.771 0-25.235-1.038-25.235 17.04v12.96h-52v-12.81c0-18.283 1.627-17.19-25.584-17.19-21.501 0-21.508.001-23.961 2.455-2.346 2.345-2.455 3.013-2.455 15v12.546h-51V17.466c0-11.987-.109-12.655-2.455-15C168.097.013 168.09.012 146.8.034c-18.495.02-21.826.263-25.336 1.858ZM511.273 71.67c-.678.273-2.658 3.17-4.4 6.439-3.239 6.077-5.708 7.724-9.688 6.46-1.401-.445-2.355-2.264-3.323-6.34l-1.357-5.716h-412l-5 2.57c-3.557 1.83-5.864 3.97-8 7.422l-3 4.85-.267 134.078c-.264 131.869-.234 134.188 1.743 140.714 3.485 11.491 12.675 19.524 25.019 21.865 7.26 1.377 411.187 1.366 416.005-.012 1.926-.55 7.773-4.637 13-9.087 5.225-4.448 10.542-8.496 11.815-8.995 1.275-.499 24.926-.906 52.625-.906 27.671 0 51.829-.294 53.685-.654 2.637-.51 7.281-4.499 21.246-18.25 9.828-9.678 18.491-19.044 19.25-20.814 2.037-4.753 2.054-215.754.017-220.564-2.049-4.84-25.859-29.163-30.969-31.636-4.227-2.046-5.408-2.08-69.734-2.002-35.989.043-65.989.302-66.667.578ZM8.025 105.751c-1.914.968-4.502 3.289-5.75 5.158l-2.27 3.398.002 103.102c.001 116.195-.55 108.057 7.604 112.177 3.644 1.841 6.028 2.087 21.177 2.19 12.891.088 17.335-.202 18.149-1.182.759-.915 1.003-34.494.823-113.691l-.255-112.392-18-.26c-15.538-.225-18.475-.02-21.48 1.5Zm688.225 107.01.255 91.75h11.18c12.591 0 15.264-1.09 18.568-7.571 1.622-3.181 1.749-9.279 1.75-84.211.002-88.997.224-85.783-6.188-89.692-2.801-1.708-5.041-2.019-14.565-2.022l-11.255-.004.255 91.75ZM435.766 125.86c10.698 3.33 18.713 10.429 23.51 20.822l2.229 4.83v171l-2.229 4.83c-4.475 9.696-11.156 15.92-21.182 19.73-5.039 1.914-8.775 1.967-151.378 2.177l-146.211.214-6-2.388c-8.347-3.322-17.351-12.38-20.44-20.563l-2.266-6 .016-83.5c.015-83.08.026-83.529 2.173-89.247 3.912-10.416 14.936-20.116 25.763-22.667 2.074-.489 67.809-.93 146.916-.986 136.591-.095 143.433-.015 149.099 1.748Zm-238.261 23.097c-3.999 1.637-5.862 4.913-6.309 11.092l-.431 5.963H172.95c-9.798 0-18.972.44-20.385.977-1.414.538-3.311 2.531-4.216 4.429-1.403 2.94-1.455 3.912-.354 6.569 2.233 5.391 4.859 6.025 24.96 6.025h18.05v4.596c0 5.268 2.26 9.746 5.712 11.319 3.024 1.378 16.799 1.417 19.343.055 2.879-1.54 4.945-6.307 4.945-11.406v-4.536l100.087-.264 100.086-.264 2.414-2.806c3.295-3.831 3.208-8.628-.222-12.058l-2.638-2.636H221.245l-.444-6.149c-.389-5.376-.846-6.507-3.636-9-2.906-2.596-3.84-2.845-10.426-2.788-3.979.035-8.134.432-9.234.882Zm391.164 15.529 3.336 3.859v42.667l21.25.004c19.55.003 21.515.165 24.56 2.022 4.391 2.677 6.525 7.936 5.964 14.702-.316 3.802-1.119 6.014-2.857 7.875-4.768 5.104-6.309 5.397-28.367 5.397h-20.55v21.096c0 23.088-.393 24.934-6.039 28.268-4.029 2.381-13.571 2.171-17.771-.39-5.532-3.372-6.19-6.449-6.19-28.942v-20.032h-20.099c-16.49 0-20.713-.292-23.526-1.627-5.797-2.751-7.375-5.673-7.375-13.663 0-6.901.068-7.085 4.042-10.865l4.042-3.845h42.916v-20.05c0-21.347.352-23.224 5.156-27.573 3.358-3.039 4.587-3.358 11.758-3.043 6.058.266 6.6.496 9.75 4.14Zm-303.276 47.506c-4.068 1.644-6.388 5.877-6.388 11.655v5.365H217.07c-37.91 0-62.932.379-64.505.977-1.414.538-3.311 2.531-4.216 4.429-1.403 2.94-1.455 3.912-.354 6.569 2.559 6.178.806 6.025 68.84 6.025h61.931l.432 5.986c.327 4.528 1.008 6.6 2.794 8.501 2.19 2.332 3.03 2.513 11.552 2.513 8.553 0 9.368-.179 11.777-2.589 2.068-2.068 2.649-3.729 2.887-8.25l.297-5.661 56.337-.5 56.338-.5 2.412-2.806c1.346-1.565 2.413-4.083 2.413-5.694 0-1.611-1.067-4.129-2.413-5.694l-2.412-2.806-56.338-.5-56.337-.5-.119-5.225c-.135-5.921-2.238-9.89-5.998-11.32-3.065-1.165-14.09-1.149-16.995.025Zm65.013 65.421c-2.502 2.502-3.404 4.284-3.414 6.75-.007 1.842-.286 4.362-.617 5.599l-.602 2.25h-95.434c-104.672 0-99.73-.288-102.314 5.953-1.017 2.453-1.017 3.641 0 6.094 2.584 6.241-2.359 5.953 102.323 5.953 106.313 0 96.657-.702 96.657 7.026 0 2.641.764 4.75 2.414 6.668 2.335 2.715 2.727 2.806 12.086 2.806s9.752-.091 12.087-2.806c1.905-2.215 2.413-3.939 2.413-8.197v-5.391l22.589-.303 22.588-.303 2.412-2.806c3.082-3.585 3.081-7.802 0-11.387l-2.412-2.807-22.338-.5-22.339-.5-.581-5.5c-.32-3.025-.938-6.304-1.372-7.287-1.369-3.1-6.021-4.713-13.596-4.713-6.798 0-7.317.168-10.55 3.401ZM142.241 402.759c-.387.964-.711 5.008-.72 8.986l-.016 7.234 13.5 13.528 13.5 13.526.502 11.578c.485 11.177.599 11.662 3.317 14l2.816 2.422 144.521-.261 144.521-.26 1.912-2.361c1.612-1.99 1.911-4.013 1.911-12.892v-10.531l14.04-14.257 14.041-14.256-.291-8.852-.29-8.851-176.28-.253c-167.194-.24-176.317-.162-176.984 1.5Zm184.554 18.156c6.552 3.36 11.24 10.403 11.189 16.815-.05 6.315-6.188 14.911-12.294 17.218-11.871 4.486-25.685-4.755-25.685-17.181 0-5.503 1.55-9.048 5.662-12.95 6.058-5.75 14.489-7.307 21.128-3.902Z" clip-rule="evenodd"/>
</svg>
