<svg xmlns="http://www.w3.org/2000/svg" width="479" height="251" fill="none" viewBox="0 0 479 251">
  <path fill="#fff" fill-rule="evenodd" d="M134.829 1.934c-1.744 1.063-4.587 3.874-6.317 6.246-5.629 7.718-12.288 17.118-19.217 27.127l-6.795 9.815v147.871l181.25-.022c174.595-.021 181.401-.09 185.349-1.883 2.254-1.024 5.179-3.377 6.5-5.228l2.401-3.367.26-57.5c.253-55.992.207-57.586-1.741-60.759-4.142-6.747-6.108-7.233-29.274-7.237l-20.755-.004-6.227-12.5-6.226-12.5H303.821l-5.869-8.25c-10.704-15.047-14.683-19.92-17.833-21.841C277.133.081 274.044 0 207.5 0c-66.944 0-69.617.072-72.671 1.934ZM55.381 58.496c-5.924 3.22-5.881 2.733-5.881 66.75v58.451l2.285 3.398c3.246 4.828 7.055 5.777 23.465 5.842l14.25.056v-136l-15.75.04c-11.665.03-16.429.409-18.369 1.463ZM9.815 77.521c-3.069 1.839-4.937 4.038-7 8.24L0 91.493v36c0 35.208.049 36.091 2.206 40.124 4.866 9.097 11.588 11.961 25.488 10.861l8.806-.697v-49.812c0-27.397-.273-50.524-.607-51.394-.501-1.306-2.462-1.58-11.25-1.573-9.574.009-11.063.262-14.828 2.519ZM155.5 220.928c0 15.346.612 17.985 5.311 22.9 5.842 6.111 6.14 6.165 34.092 6.165h25.502l.297-6.25.298-6.25 49.25-.259 49.25-.26v13.111l26.909-.296 26.909-.296 3.841-3.106c6.949-5.619 7.61-7.694 7.81-24.486l.176-14.908H155.5v13.935Z" clip-rule="evenodd"/>
</svg>
