<svg xmlns="http://www.w3.org/2000/svg" width="1003" height="351" fill="none" viewBox="0 0 1003 351">
  <path fill="#fff" fill-rule="evenodd" d="M308.519.98c-1.245.51-2.748 2.176-3.339 3.703-1.156 2.984-.746 28.557.503 31.392 1.39 3.155 5.447 3.885 21.592 3.885 15.256 0 16.008.095 18.636 2.356 2.301 1.979 2.853 3.453 3.449 9.209.589 5.698 1.158 7.239 3.372 9.144l2.664 2.29h125.879c80.962 0 126.811-.354 128.492-.993 3.16-1.201 5.517-6.35 5.517-12.051 0-3.208.641-4.75 2.923-7.032 2.707-2.707 3.473-2.923 10.365-2.923 6.015 0 7.948-.398 10.077-2.073l2.635-2.072V20.079c0-12.006-.336-16.197-1.418-17.678C638.531.574 636.828.443 610.76.164c-34.802-.372-32.476-1.365-32.476 13.865 0 10.369-.145 11.167-2.455 13.476-2.417 2.418-2.715 2.455-19.825 2.455-16.865 0-17.435-.067-19.546-2.314-1.922-2.046-2.174-3.434-2.174-11.953 0-11.405-1.087-14.477-5.403-15.265-1.703-.312-20.737-.432-42.298-.267-30.471.232-39.49.588-40.5 1.596-.865.865-1.41 5.038-1.632 12.5-.483 16.235.268 15.703-22.167 15.703-17.158 0-17.712-.065-19.826-2.314-1.947-2.073-2.174-3.411-2.174-12.81 0-7.482-.407-11.051-1.419-12.435C397.503.537 395.73.45 354.115.257 329.32.14 309.815.45 308.519.98Zm-65.967 78.935c-8.98 3.232-15.874 9.536-20.329 18.588-2.356 4.789-2.45 5.803-2.754 29.881-.173 13.708-.066 25.914.238 27.123.918 3.662 4.879 4.387 22.077 4.043 22.229-.444 28.404 1.709 33.794 11.786 2.154 4.027 2.206 4.947 2.206 39.124 0 34.34-.042 35.079-2.241 39.192-2.164 4.049-6.046 7.627-11.259 10.375-1.78.939-8.052 1.37-21.777 1.496-17.146.157-19.502.379-21.305 2.012-1.961 1.774-2.018 2.773-1.723 30.38l.305 28.545 2.992 5.913c4.117 8.135 10.525 14.215 19.502 18.502l7.506 3.585 99 .296c75.67.226 100.06.008 103.5-.927 3.729-1.013 6.685-3.377 17.246-13.796 7.01-6.915 14.435-13.349 16.5-14.297 3.401-1.562 8.748-1.726 56.939-1.75 29.802-.014 54.203-.429 55.5-.942 1.273-.504 7.191-5.669 13.15-11.477 7.64-7.446 11.915-10.86 14.5-11.578 2.016-.56 13.047-1.02 24.515-1.023l20.85-.006 3.4-3.4 3.4-3.4.016-85.85c.016-89.94-.003-89.51 4.358-100.85 3.359-8.734.683-17.9-6.259-21.441l-4.035-2.06-212.29.037c-205.329.035-212.462.098-217.522 1.919Zm571.732 14.579c-36.088 5.352-52.042 8.264-54.655 9.975-1.342.88-3.317 3.038-4.389 4.795-1.894 3.107-1.949 5.772-1.952 95.478-.003 76.427.234 92.853 1.383 95.601 2.42 5.793 5.825 7.3 22.716 10.056 44.371 7.238 61.583 9.561 70.846 9.561 14.988 0 16.051-1.514 16.051-22.85v-14.949l-3.622-5.351c-5.943-8.779-10.13-17.34-11.346-23.194-.79-3.805-1.048-19.684-.835-51.333.353-52.4-.268-48.421 10.119-64.769l5.684-8.945v-14.854c0-15.693-.877-19.55-4.945-21.725-3.597-1.925-22.133-.895-45.055 2.504ZM702.04 114.715c-5.965 3.698-5.756.417-5.756 90.178 0 89.351-.164 86.7 5.614 90.613 2.55 1.727 4.656 1.954 18.107 1.954 14.505 0 15.328-.107 17.5-2.278l2.279-2.277.267-86.223c.187-60.265-.059-87.011-.817-88.842-1.715-4.143-4.799-4.882-20.247-4.853-11.598.021-14.706.338-16.947 1.728Zm264.744 26.303c-14.85 4.368-37.228 10.714-49.729 14.102l-22.729 6.16.582 2.59c.319 1.424 1.466 5.668 2.548 9.431 1.761 6.125 2.195 6.787 4.147 6.323 1.2-.284 24.231-5.58 51.181-11.767 26.95-6.188 49.126-11.336 49.286-11.441.15-.104-.61-3.512-1.7-7.573a1945.704 1945.704 0 0 1-3.068-11.633c-.602-2.337-1.64-4.224-2.307-4.192-.666.032-13.361 3.632-28.211 8Zm-557.355 20.917c16.606 5.161 29.577 19.417 34.274 37.669 2.087 8.11 1.994 13.421-.397 22.771-2.594 10.142-6.271 16.776-13.1 23.638-12.282 12.338-27.989 17.466-44.609 14.562-28.71-5.017-48.008-34.331-40.805-61.984 4.497-17.266 16.785-30.67 33.264-36.286 8.922-3.041 22.271-3.198 31.373-.37Zm-196.645 17.369c-6.058 2.792-9.5 9.358-9.5 18.124v5.532h-101c-97.669 0-101 .061-101 1.853 0 1.02-.289 4.617-.642 7.996L0 218.95l101.392.255 101.392.255.575 6.5c.661 7.465 2.808 12.222 6.652 14.741 2.134 1.398 4.85 1.759 13.229 1.759 8.889 0 11.329-.361 15.544-2.301 8.909-4.101 15.086-11.526 18.039-21.687 4.158-14.301-4.18-31.42-18.417-37.813-5.884-2.643-21.084-3.447-25.622-1.355Zm170.705.49c-9.874 3.523-17.684 12.126-20.829 22.944-4.04 13.898 3.628 30.148 17.421 36.922 4.948 2.429 6.828 2.79 14.203 2.725 10.274-.091 15.908-2.28 22.286-8.659 6.989-6.988 9.214-12.607 9.214-23.266 0-10.14-1.71-14.88-8.031-22.265-7.556-8.828-22.678-12.536-34.264-8.401Zm155.6 5.756c6.368 3.174 10.777 8.316 12.724 14.842 1.985 6.654 1.853 10.472-.589 16.998-2.579 6.895-9.114 12.95-16.268 15.075-6.328 1.879-8.047 1.87-14.613-.08-10.036-2.98-18.059-14.056-18.059-24.928 0-8.629 6.851-18.71 15.332-22.561 6.253-2.839 14.998-2.573 21.473.654Zm359.789 47.211c-2.17 7.251-4.503 16.623-4.211 16.916 1.051 1.051 100.668 28.565 101.264 27.969.292-.291 1.791-5.511 3.331-11.599l2.798-11.07-4.072-1.097c-2.242-.603-10.854-2.607-19.14-4.453a5822.885 5822.885 0 0 1-35.064-7.973c-11-2.539-24.95-5.732-31-7.096-6.05-1.364-11.539-2.664-12.199-2.888-.659-.224-1.427.357-1.707 1.291Z" clip-rule="evenodd"/>
</svg>
