<svg xmlns="http://www.w3.org/2000/svg" width="512" height="512" fill="none" viewBox="0 0 512 512">
  <path fill="#fff" d="M155.661 218.3c-1.76-2.56-4.58-4.18-7.7-4.2h-1.6c-3.4 0-6.24 1.64-8 4.2a8.878 8.878 0 0 1-6.88 3.82v66.46c2.94.16 5.52 1.72 7.02 4.04 1.76 2.7 4.64 4.44 7.86 4.44h1.28c3.22 0 6.1-1.76 7.86-4.44 1.34-2.04 3.48-3.5 5.96-3.92V222c-2.4-.4-4.48-1.76-5.8-3.7Zm-33.041 76.06c1.1-2.92 3.7-5.12 6.86-5.66v-66.68a8.88 8.88 0 0 1-6.72-5.38c-.64-1.52-2.06-2.56-3.72-2.58L60 214c-2.22 0-4 1.78-4 4v75.08c0 2.2 1.8 4 4 4h58.84c1.72 0 3.18-1.12 3.78-2.72Zm47.88-1.74c1.76 2.7 4.64 4.44 7.86 4.44h1.28c3.22 0 6.1-1.74 7.86-4.44a8.934 8.934 0 0 1 6.5-4V222.1c-2.62-.3-4.9-1.72-6.34-3.78-1.78-2.54-4.58-4.16-7.68-4.18h-1.64c-3.4 0-6.22 1.62-8 4.18a8.884 8.884 0 0 1-6.86 3.8v66.46c2.94.16 5.5 1.72 7.02 4.04Zm31.82-74.28a8.915 8.915 0 0 1-6.32 3.76v66.52c2.72.3 5.06 1.82 6.5 4 1.76 2.7 4.64 4.44 7.86 4.44h1.28c3.22 0 6.1-1.74 7.86-4.44a8.934 8.934 0 0 1 6.5-4V222.1c-2.62-.3-4.9-1.7-6.32-3.76-1.78-2.54-4.58-4.14-7.66-4.16h-1.68c-3.42 0-6.24 1.62-8.02 4.16Zm94.44-4.08C369.84 218.58 454 245.4 454 245.4v21.72c-23.94 9.06-98.78 26.38-157.24 29.84l-20.76.1v-.1l-35.52.1c-2.26 0-4.4-1.24-5.34-3.3a8.968 8.968 0 0 0-7.14-5.14v-66.54c3.04-.34 5.62-2.2 6.96-4.8 1-1.94 3.06-3.08 5.24-3.08l35.8.04h20.76v.02Z"/>
</svg>
