<svg xmlns="http://www.w3.org/2000/svg" width="512" height="512" fill="none" viewBox="0 0 512 512">
  <path fill="#A1A1A1" d="M380.58 283.6c4.04-1.56 7.96-3.4 11.72-5.6a3.45 3.45 0 0 0 1.7-2.98v-39.8c0-.76-.4-1.46-1.06-1.86-3.96-2.38-8.1-4.34-12.36-5.98v56.22Zm-2.002.78V226.6a79.955 79.955 0 0 0-26.68-4.6h-12.32v67h12.3c9.14 0 18.16-1.6 26.7-4.62Z"/>
  <path fill="#fff" d="M131.978 226.96v55.88c3.12.2 5.6 2.78 5.6 5.96 0 .06-.02.14-.02.2h198.02v-67h-198.1a5.98 5.98 0 0 1-5.5 4.96Zm-1.998 56.08v-56.28c-2.22-.62-3.92-2.46-4.3-4.76h-8.1l-.36 67h8.38c0-.06-.02-.14-.02-.2 0-2.76 1.86-5.06 4.4-5.76Z"/>
</svg>
