<svg xmlns="http://www.w3.org/2000/svg" width="512" height="512" fill="none" viewBox="0 0 512 512">
  <path fill="#fff" d="M188 309.539v-92h-48.98v92H188Zm-52 6h-4.8c-3.98 0-7.2-3.04-7.2-6.78v-90.44c0-3.74 3.22-6.78 7.2-6.78h4.8v104Zm273.699-98.26h-215.7v92h215.7v-92Zm-157.7 83a4 4 0 0 1-4-4v-68a2 2 0 0 1 2-2h144a4 4 0 0 1 4 4v66a4 4 0 0 1-4 4h-142Z"/>
  <path fill="#A1A1A1" d="M374 241.999a8 8 0 1 0 16 0 8 8 0 0 0-16 0Zm-24 0a8 8 0 1 0 16 0 8 8 0 0 0-16 0Zm-24 0a8 8 0 1 0 16 0 8 8 0 0 0-16 0Zm-24 0a8 8 0 1 0 16 0 8 8 0 0 0-16 0Zm-24 0a8 8 0 1 0 16 0 8 8 0 0 0-16 0Zm-24 0a8 8 0 1 0 16 0 8 8 0 0 0-16 0Zm108 21.2a8 8 0 0 0 8 8 8 8 0 1 0 0-16 8 8 0 0 0-8 8Zm-24 0a8 8 0 0 0 8 8 8 8 0 1 0 0-16 8 8 0 0 0-8 8Zm-24 0a8 8 0 0 0 8 8 8 8 0 1 0 0-16 8 8 0 0 0-8 8Zm-24 0a8 8 0 0 0 8 8 8 8 0 1 0 0-16 8 8 0 0 0-8 8Zm-24 0a8 8 0 0 0 8 8 8 8 0 1 0 0-16 8 8 0 0 0-8 8Zm108 21.8a8 8 0 1 0 16 0 8 8 0 0 0-16 0Zm-23.199 0a8 8 0 1 0 16 0 8 8 0 0 0-16 0Zm-23.199 0a8 8 0 1 0 16 0 8 8 0 0 0-16 0Zm-23.204 0a8 8 0 1 0 16 0 8 8 0 0 0-16 0Zm-23.199 0a8 8 0 1 0 16 0 8 8 0 0 0-16 0Zm-23.199 0a8 8 0 1 0 16 0 8 8 0 0 0-16 0Z"/>
</svg>
