<svg xmlns="http://www.w3.org/2000/svg" width="512" height="512" fill="none" viewBox="0 0 512 512">
  <path fill="#A1A1A1" d="M314.82 282.24c52.44-4.08 72.2-18.4 76.32-21.9.54-.46.86-1.2.86-2.02v-2.46c0-.8-.3-1.54-.84-2-4.1-3.58-23.98-18.4-76.32-22.68v51.06h-.02Z"/>
  <path fill="#fff" d="M285.82 282.64h23v-51.72h-23l-14.1-2.9H138.76c.02.22.06.44.06.66 0 2.98-2.16 5.42-5 5.9v44.2c2.84.48 5 2.92 5 5.9 0 .26-.04.52-.08.78h132.98l14.1-2.82Zm-154-3.88v-44.2c-2.84-.48-5-2.92-5-5.9 0-.22.04-.44.06-.66h-6.06v57.44h6.08c-.04-.26-.08-.52-.08-.78 0-2.98 2.16-5.42 5-5.9Z"/>
</svg>
