<svg xmlns="http://www.w3.org/2000/svg" width="512" height="512" fill="none" viewBox="0 0 512 512">
  <path fill="#A1A1A1" d="M365.559 271.68c.48-.26.96-.58 1.4-.94l6.38-5.32c.98-.82 2.08-1.5 3.22-2.04v-16.3c-1.16-.54-2.24-1.22-3.22-2.04l-6.38-5.3c-.44-.36-.9-.66-1.4-.94v32.88Zm-37-33.94v35h32.88c.72 0 1.42-.12 2.12-.3v-34.4c-.7-.18-1.4-.3-2.12-.3h-32.88Zm52.001 24.4c.06 0 .1-.02.16-.04l34.44-5.24c.48-.08.84-.5.84-.98v-1.28c0-.5-.36-.92-.84-.98l-34.44-5.24c-.06 0-.1-.02-.16-.04v13.8Z"/>
  <path fill="#fff" d="M108.539 280.32c.02-.2.06-.38.06-.58 0-1.86-1.3-3.42-3.04-3.86V234.2c1.74-.44 3.04-2 3.04-3.86 0-.06-.02-.12-.02-.18l163.98 2.2 18 4.82 36 .56v35l-36 .56-18 4.82-164.02 2.2Zm-7.98-.58c0-1.86 1.28-3.42 3-3.86V234.2c-1.72-.44-3-2-3-3.86 0-.1.02-.18.02-.28l-5.02-.06v50.48l5.06-.06c-.02-.22-.06-.44-.06-.68Z"/>
</svg>
