<svg width="512" height="512" viewBox="0 0 512 512" fill="none" xmlns="http://www.w3.org/2000/svg">
<path d="M423.341 194.234C423.301 189.311 422.472 187.559 421.295 187.666C420.332 187.746 417.027 188.629 417.027 188.629C416.479 188.816 416.038 188.95 415.663 189.057V200.574C418.084 201.47 421.188 202.032 421.188 202.032C424.037 204.213 423.381 199.156 423.341 194.247V194.234Z" fill="white"/>
<path d="M414.205 202.098L414.165 200.68V200.546V188.962C413.87 185.872 411.503 184.935 410.874 184.748H398.755C399.156 188.159 399.384 192.038 399.384 196.038C399.384 199.355 399.236 202.539 398.942 205.535C405.122 205.535 409.269 205.522 410.045 205.535C410.045 205.535 413.001 205.509 413.656 204.158C414.312 202.833 414.205 202.111 414.205 202.111V202.098Z" fill="white"/>
<path d="M396.896 184.748H393.86L393.833 184.802L389.258 184.775L349.757 184.494H349.623C350.024 187.972 350.238 191.918 350.238 195.971C350.238 199.356 350.091 202.606 349.81 205.656C363.227 205.616 377.674 205.589 389.071 205.562C391.559 205.562 394.957 205.562 397.11 205.549C397.391 202.7 397.552 199.476 397.552 196.038C397.552 191.865 397.311 187.999 396.91 184.748H396.896Z" fill="white"/>
<path d="M153.896 217.562C160.53 216.572 174.215 210.366 179.258 203.396C181.211 200.708 182.909 197.805 184.622 194.996C186.374 192.12 187.244 190.127 188.019 188.2L187.524 187.946C187.163 187.732 186.815 187.572 186.468 187.438C182.321 185.739 180.448 189.391 180.448 189.391C175.94 194.581 170.362 191.264 170.362 191.264C166.296 188.2 160.744 187.451 160.744 187.451C156.852 187.117 154.966 188.936 154.966 188.936C153.615 190.956 155.741 191.17 155.741 191.17C159.915 190.087 168.944 196.695 168.944 196.695C170.603 197.818 171.713 198.862 172.476 199.838C175.218 203.329 173.84 205.309 173.84 205.309C173.639 206.647 171.713 208.399 170.188 208.279C168.663 208.158 165.935 208.627 164.664 209.509C160.651 212.305 155.942 216.398 155.942 216.398" fill="#A1A1A1"/>
<path d="M347.683 184.481L271.275 184.174V205.871H302.67C302.831 205.871 303.018 205.871 303.018 205.871C304.49 205.831 310.014 205.764 310.014 205.764C310.014 205.764 327.926 205.724 347.87 205.67C348.151 202.767 348.312 199.477 348.312 195.972C348.312 191.732 348.084 187.799 347.683 184.481Z" fill="white"/>
<path d="M199.068 193.364C199.068 193.15 199.108 192.962 199.135 192.762C192.634 197.283 188.42 204.44 188.42 212.519C188.42 220.599 192.66 227.782 199.188 232.303C199.121 231.969 199.081 231.634 199.081 231.286V193.364H199.068Z" fill="white"/>
<path d="M191.256 184.174L189.744 187.919C188.968 189.846 187.657 192.775 185.838 195.758L185.116 196.935C183.644 199.37 182.12 201.885 180.407 204.252C175.498 211.048 161.734 217.147 154.35 218.926C158.068 224.331 164.101 231.661 170.442 233.213C175.083 234.363 178.454 237.587 179.926 242.322C181.451 247.218 179.752 252.943 177.143 256.381C181.156 257.652 185.116 262.427 186.4 265.223C188.206 254.843 193.811 248.435 203.482 248.435C204.753 248.435 206.091 248.529 207.482 248.716C207.722 248.756 207.977 248.77 208.217 248.743C209.408 248.663 212.525 248.208 215.896 245.787L216.123 245.626L216.391 245.559C216.471 245.533 218.477 245.051 221.273 245.051C227.012 245.051 237.312 246.777 237.539 261.544C240.776 256.033 249.137 254.829 249.137 254.829C253.109 255.324 252.949 253.01 252.949 253.01L260.654 231.139C265.657 224.799 267.556 220.264 268.279 217.83V184.174H191.242H191.256Z" fill="white"/>
<path d="M214.785 248.863C212.337 250.723 209.649 251.204 208.632 251.325C208.364 251.351 208.097 251.351 207.843 251.311C192.179 249.104 188.701 258.08 187.885 266.414C187.912 266.48 187.912 266.521 187.912 266.521C188.326 272.232 192.379 276.553 192.379 276.553C198.921 284.258 216.578 279.041 216.578 279.041C216.578 279.041 232.937 274.119 236.629 264.461C236.83 263.925 236.763 263.591 236.83 262.962C236.87 262.548 236.736 261.598 236.683 261.197C235.238 249.184 228.724 247.058 223.119 246.576C220.163 246.322 217.153 247.084 214.785 248.863Z" fill="#A1A1A1"/>
<path d="M266.888 182.809C264.935 181.324 258.153 181.859 258.153 181.859C252.214 182.18 248.589 180.388 246.916 179.264C246.087 178.702 245.111 178.394 244.121 178.381L203.054 177.726C202.172 177.699 201.369 178.301 201.222 179.184C201.061 180.16 200.62 181.177 199.416 180.668C198.266 180.174 197.717 178.863 197.45 177.752C197.195 176.722 196.272 176 195.216 176H193.156C192.126 176 191.296 176.856 191.336 177.886L191.484 182.327L191.27 182.835H268.306L266.901 182.822L266.888 182.809Z" fill="white"/>
<path d="M310.803 210.806C310.335 209.201 307.299 208.76 307.299 208.76H275.703V215.756H306.884C307.031 215.756 307.192 215.756 307.339 215.756C312.128 215.635 310.803 210.806 310.803 210.806Z" fill="white"/>
<path d="M274.258 208.76H271.275V215.756H274.258V208.76Z" fill="white"/>
<path d="M410.7 183.304V178.247C410.674 176.896 409.403 176.401 409.403 176.401H399.103C397.792 177.833 395.759 181.324 394.648 183.317H410.7V183.304Z" fill="white"/>
<path d="M249.953 231.273C249.953 234.577 247.264 237.266 243.96 237.266H204.392C202.492 237.266 200.807 236.37 199.723 234.992L197.65 233.467C190.868 228.451 186.975 220.826 186.975 212.519C186.975 204.212 190.855 196.614 197.61 191.611L199.255 190.394C200.285 188.602 202.185 187.398 204.392 187.398H243.96C247.264 187.398 249.953 190.086 249.953 193.39V231.3V231.273Z" fill="white"/>
</svg>
