<svg width="512" height="512" viewBox="0 0 512 512" fill="none" xmlns="http://www.w3.org/2000/svg">
<path d="M348.929 207.539C348.929 206.307 347.594 204.972 346.362 204.972H341.227V207.847H336.914V204.972H331.471V207.847H327.157V204.972H321.714V207.847H317.401V204.972H311.958V207.847H307.645V204.972H302.202V207.847H297.888V204.972H292.446V207.847H288.132V204.972H282.176V243.072H345.746C347.286 243.072 348.826 241.84 348.826 240.197V207.539H348.929Z" fill="#A1A1A1"/>
<path fill-rule="evenodd" clip-rule="evenodd" d="M196.218 199.221H279.609V185.767C279.609 184.638 278.787 183.713 277.657 183.611C269.339 182.892 202.586 177.654 181.122 176.011C177.527 175.806 174.344 178.476 173.83 182.07C173.522 184.432 173.111 186.486 172.392 186.486H171.057C170.03 186.486 169.209 187.205 168.901 188.129L166.128 199.221H196.218Z" fill="white"/>
<path fill-rule="evenodd" clip-rule="evenodd" d="M196.219 214.318C195.602 214.318 195.089 213.804 195.089 213.188V201.378H279.609V214.421H196.219V214.318Z" fill="white"/>
<path fill-rule="evenodd" clip-rule="evenodd" d="M185.948 253.342H160.171C169.209 266.282 135.216 300.788 127.616 308.593C126.795 309.415 126.795 310.852 127.616 311.674L127.719 311.777C137.064 319.992 156.371 321.019 160.685 321.019C161.198 321.019 161.814 321.019 161.917 320.403C162.123 318.452 160.274 316.603 160.274 314.858C160.377 311.16 162.944 308.696 166.641 307.874C167.463 307.669 167.874 306.847 167.668 306.128C167.668 306.026 167.668 306.026 167.566 305.923C166.744 303.561 166.847 300.993 167.874 298.734C169.003 296.269 171.16 294.421 173.83 293.702C174.549 293.497 174.96 292.778 174.754 292.059C174.446 290.21 174.652 288.259 175.473 286.513C176.706 283.638 179.376 281.686 182.559 281.276C183.381 279.838 184.511 279.016 186.051 278.297L185.948 253.342Z" fill="white"/>
<path fill-rule="evenodd" clip-rule="evenodd" d="M213.471 223.046H157.193C156.68 223.046 156.166 223.457 156.063 223.97V224.073V230.543C156.063 231.056 156.474 231.57 156.988 231.673H157.09H213.369C213.882 231.673 214.396 231.262 214.498 230.748V230.646V224.176C214.601 223.559 214.088 223.046 213.471 223.046Z" fill="#A1A1A1"/>
<path d="M152.366 239.272C153.29 239.272 154.009 239.991 154.009 240.916C154.009 241.84 153.29 242.559 152.366 242.559C151.442 242.559 150.723 241.84 150.723 240.916C150.723 239.991 151.442 239.272 152.366 239.272Z" fill="white"/>
<path fill-rule="evenodd" clip-rule="evenodd" d="M224.87 259.298C224.87 256.012 222.2 253.342 218.914 253.342H188.105L188.002 278.297C188.618 278.297 224.87 278.297 224.87 278.297V259.298Z" fill="white"/>
<path d="M260.609 256.629C262.663 256.629 264.409 258.375 264.409 260.429C264.409 262.483 262.663 264.229 260.609 264.229C258.555 264.229 256.81 262.483 256.81 260.429C256.81 258.272 258.555 256.629 260.609 256.629Z" fill="#A1A1A1"/>
<path d="M279.608 323.28C278.684 320.404 277.657 317.631 276.836 314.858L238.427 326.155C239.556 330.366 240.789 333.036 241.508 334.679C241.918 335.706 243.048 336.219 244.075 335.911L278.068 326.155C279.198 325.95 279.917 324.82 279.711 323.793C279.711 323.588 279.608 323.382 279.608 323.28Z" fill="white"/>
<path fill-rule="evenodd" clip-rule="evenodd" d="M220.865 238.76V251.289C224.357 251.7 227.027 254.678 227.027 258.272V277.579C226.924 278.196 227.232 278.298 227.643 278.196L271.187 269.466C270.879 261.456 271.29 253.445 272.522 245.538C272.727 244.511 273.652 243.689 274.679 243.689H279.506V238.862H220.865V238.76Z" fill="white"/>
<path d="M363.821 217.192H360.432V229.721H363.821V217.192Z" fill="white"/>
<path d="M359.302 217.192H355.913V229.721H359.302V217.192Z" fill="white"/>
<path d="M383.539 217.192H383.436H364.848V229.721H383.436C384.668 229.721 385.593 228.797 385.593 227.565V219.452C385.695 218.219 384.771 217.295 383.539 217.192Z" fill="white"/>
<path d="M354.886 217.192H351.086V229.721H354.886V217.192Z" fill="white"/>
<path fill-rule="evenodd" clip-rule="evenodd" d="M146.718 216.269H139.94C138.707 216.269 137.783 217.398 137.783 218.631C137.783 219.966 137.783 234.549 137.783 234.549C137.783 235.781 138.707 236.705 139.94 236.705H146.718V216.269Z" fill="#A1A1A1"/>
<path fill-rule="evenodd" clip-rule="evenodd" d="M196.218 215.447C194.986 215.447 194.062 214.523 194.062 213.291V201.378H158.631C157.399 201.378 156.474 202.302 156.474 203.535V210.005C156.474 211.237 155.55 212.161 154.318 212.161H150.004C148.875 212.161 147.848 212.983 147.848 214.112C147.848 214.112 147.848 214.112 147.848 214.215V214.318V246.976C148.258 247.489 148.875 247.797 149.594 247.797C151.75 247.797 151.75 247.797 151.75 247.797C157.809 247.694 157.09 248.516 158.734 250.467C159.042 250.878 159.555 251.084 160.171 251.084H219.941V237.63H279.711V215.447H196.218Z" fill="white"/>
<path d="M270.366 272.238L228.26 280.454C228.362 280.968 231.751 309.826 237.708 324.819L276.117 313.42C270.982 290.929 271.085 285.178 270.366 272.238Z" fill="#A1A1A1"/>
</svg>
