<svg width="512" height="512" viewBox="0 0 512 512" fill="none" xmlns="http://www.w3.org/2000/svg">
<path d="M178.139 181.191L169.329 176.169C169.096 176.048 168.834 175.99 168.571 176.001C168.309 176.012 168.053 176.092 167.83 176.232C167.608 176.372 167.426 176.569 167.302 176.801C167.179 177.033 167.118 177.294 167.127 177.557V181.191H178.139Z" fill="#A1A1A1"/>
<path d="M135.918 225.989C138.003 225.131 139.895 223.861 141.479 222.256C143.281 220.382 144.633 218.123 145.432 215.649L135.114 209.801C134.689 209.557 134.189 209.479 133.709 209.58C133.23 209.682 132.805 209.957 132.515 210.352L127.009 217.829C126.85 218.048 126.736 218.297 126.675 218.561C126.613 218.825 126.606 219.098 126.652 219.365C126.698 219.632 126.797 219.887 126.944 220.115C127.09 220.343 127.281 220.539 127.504 220.692L135.323 225.989H135.918Z" fill="#A1A1A1"/>
<path d="M288.062 182.314H225.898V186.235H288.062V182.314Z" fill="#A1A1A1"/>
<path d="M300.583 182.314H294.934V186.235H300.583V182.314Z" fill="#A1A1A1"/>
<path d="M236.734 210.737C235.581 210.735 234.436 210.53 233.354 210.131C230.021 208.97 227.261 206.573 225.645 203.436C225.071 202.217 224.781 200.884 224.797 199.537V182.314H180.099H165.783C165.269 182.316 164.761 182.432 164.297 182.653C163.832 182.873 163.422 183.194 163.096 183.592L149.727 199.736C148.995 200.624 148.526 201.7 148.373 202.841C147.877 206.618 146.721 215.263 146.457 216.133C145.582 218.706 144.154 221.055 142.272 223.015C140.502 224.781 138.388 226.164 136.061 227.079C131.736 227.57 127.386 227.809 123.034 227.795C122.691 227.786 122.351 227.853 122.037 227.99C121.723 228.127 121.443 228.331 121.217 228.588L118.155 232.089C118.074 232.187 118.022 232.305 118.006 232.431C117.989 232.557 118.008 232.685 118.061 232.8C118.114 232.915 118.199 233.013 118.305 233.082C118.411 233.151 118.535 233.189 118.662 233.191H143.142C143.142 233.191 157.931 231.902 159.429 248.696L166.157 228.07C166.368 227.461 166.764 226.934 167.289 226.561C167.814 226.188 168.442 225.988 169.087 225.989L267.326 224.965L360.445 224.766V210.737H236.734Z" fill="white"/>
<path d="M392.831 186.234V182.997H384.286V178.096C384.285 177.874 384.233 177.655 384.133 177.457C384.032 177.259 383.887 177.087 383.708 176.955C383.529 176.824 383.322 176.736 383.103 176.699C382.884 176.662 382.659 176.676 382.447 176.742L374.562 179.208C373.905 179.423 373.332 179.837 372.923 180.395C372.514 180.952 372.29 181.623 372.283 182.314H357.526V186.234H392.831Z" fill="#A1A1A1"/>
<path d="M350.655 182.314H345.006V186.235H350.655V182.314Z" fill="#A1A1A1"/>
<path d="M313.103 182.314H307.454V186.235H313.103V182.314Z" fill="#A1A1A1"/>
<path d="M393.107 209.636L392.842 187.336H225.898V199.537C225.884 200.72 226.136 201.89 226.636 202.962C228.126 205.845 230.67 208.041 233.739 209.096C234.697 209.452 235.711 209.635 236.734 209.636H393.107Z" fill="#A1A1A1"/>
<path d="M325.625 182.314H319.976V186.235H325.625V182.314Z" fill="#A1A1A1"/>
<path d="M338.134 182.314H332.496V186.235H338.134V182.314Z" fill="#A1A1A1"/>
<path d="M251.601 243.52C251.601 245.337 251.414 262.692 251.403 262.692C251.463 263.07 251.433 263.457 251.315 263.821C251.197 264.186 250.995 264.517 250.724 264.788C250.453 265.058 250.122 265.261 249.757 265.379C249.393 265.497 249.006 265.527 248.628 265.467L215.173 265.984C215.501 264.963 215.669 263.897 215.668 262.824C215.671 262.252 215.623 261.681 215.525 261.117H245.038C246.403 261.117 246.987 260.577 246.987 259.19C246.987 256.448 246.987 247.715 246.987 243.52C247.766 243.9 248.62 244.103 249.487 244.114C250.218 244.025 250.931 243.824 251.601 243.52Z" fill="white"/>
<path d="M192.311 334.062H143.483V336H192.311V334.062Z" fill="#A1A1A1"/>
<path d="M218.322 238.817V248.145C218.379 249.424 218.67 250.682 219.181 251.856C220.624 254.334 224.159 258.882 230.557 259.058C229.819 258.166 225.139 253.959 224.588 249.554C224.374 245.979 224.374 242.393 224.588 238.817H218.322Z" fill="#A1A1A1"/>
<path d="M249.178 238.972C249.963 238.972 250.599 238.336 250.599 237.551C250.599 236.767 249.963 236.131 249.178 236.131C248.394 236.131 247.758 236.767 247.758 237.551C247.758 238.336 248.394 238.972 249.178 238.972Z" fill="white"/>
<path d="M267.877 226.979V232.849L279.737 232.739V235.25H286.388V232.673L292.148 232.618V235.25H298.799V232.552L304.558 232.497V235.25H311.199V232.431L316.958 232.375V235.25H323.61V232.309L329.369 232.254V235.25H336.009V232.199L341.769 232.144V235.25H348.42V232.078L354.179 232.023V235.25H360.831V231.957L366.59 231.902V235.25H373.23L373.318 227.057L267.877 226.979Z" fill="white"/>
<path d="M361.546 210.736V224.777H385.365C385.716 224.776 386.058 224.671 386.348 224.475C386.638 224.279 386.864 224 386.995 223.675C388.504 220.24 393.118 210.802 393.129 211.32V210.703L361.546 210.736Z" fill="white"/>
<path d="M221.494 230.283C221.08 230.283 220.675 230.406 220.331 230.636C219.987 230.866 219.719 231.193 219.561 231.575C219.402 231.957 219.361 232.378 219.442 232.784C219.522 233.19 219.722 233.562 220.014 233.855C220.307 234.148 220.68 234.347 221.085 234.428C221.491 234.508 221.912 234.467 222.294 234.309C222.677 234.15 223.003 233.882 223.233 233.538C223.463 233.194 223.586 232.789 223.586 232.376C223.586 232.101 223.532 231.829 223.427 231.575C223.322 231.321 223.167 231.09 222.973 230.896C222.779 230.702 222.548 230.548 222.294 230.442C222.041 230.337 221.768 230.283 221.494 230.283Z" fill="white"/>
<path d="M249.211 231.836C249.711 231.836 250.19 231.638 250.543 231.285C250.896 230.932 251.094 230.453 251.094 229.953V227.2H247.328V229.898C247.319 230.15 247.362 230.402 247.452 230.637C247.543 230.873 247.681 231.088 247.857 231.269C248.032 231.45 248.243 231.593 248.476 231.691C248.709 231.789 248.959 231.838 249.211 231.836Z" fill="white"/>
<path d="M266.577 226.98L252.195 227.178V229.953C252.195 230.745 251.881 231.504 251.321 232.063C250.762 232.623 250.003 232.937 249.211 232.937C248.42 232.937 247.661 232.623 247.101 232.063C246.541 231.504 246.227 230.745 246.227 229.953V227.266L180.572 228.191L180.143 232.739C180.021 233.906 180.322 235.079 180.991 236.043C181.428 236.645 182.003 237.133 182.668 237.466C183.333 237.8 184.068 237.969 184.812 237.959L241.822 237.717C242.199 237.717 242.572 237.788 242.923 237.926C244.417 238.488 245.633 239.61 246.315 241.053C246.554 241.578 246.918 242.036 247.375 242.387C247.832 242.739 248.369 242.972 248.937 243.068C249.506 243.164 250.089 243.118 250.636 242.936C251.183 242.754 251.677 242.44 252.074 242.022C254.277 239.743 257.812 236.715 261.512 236.913C262.469 237.004 263.431 236.803 264.272 236.337C265.113 235.872 265.794 235.162 266.225 234.303C266.431 233.831 266.604 233.345 266.742 232.849V226.925C266.69 226.951 266.635 226.969 266.577 226.98Z" fill="white"/>
<path d="M203.147 238.762L200.053 254.179L199.569 256.602L197.619 266.293L197.124 268.716L186.86 319.801C186.778 320.292 186.525 320.739 186.147 321.063C185.769 321.387 185.288 321.568 184.79 321.574H130.214L158.846 252.054L167.226 229.589C167.363 229.199 167.618 228.862 167.955 228.623C168.292 228.384 168.696 228.256 169.109 228.257H179.482L179.075 232.662C178.982 233.557 179.08 234.461 179.361 235.316C179.762 236.45 180.509 237.431 181.497 238.118C182.485 238.806 183.664 239.166 184.867 239.148L203.147 238.762Z" fill="#A1A1A1"/>
<path d="M209.688 254.301C209.372 253.924 209.136 253.486 208.994 253.015C208.852 252.544 208.807 252.048 208.862 251.559L210.305 238.752H204.27L201.308 253.486L200.889 255.568L198.445 267.758L198.026 269.817L187.939 320.033C187.805 320.772 187.417 321.441 186.842 321.923C186.267 322.406 185.541 322.672 184.79 322.676H129.872C129.189 325.308 128 332.366 134.937 332.642L143.483 332.983H192.311C192.311 332.983 197.817 332.983 197.432 327.477C197.134 322.676 202.189 283.428 203.466 273.749C203.548 273.213 203.777 272.71 204.127 272.296C204.477 271.883 204.934 271.573 205.448 271.403C208.455 270.247 213.047 268.793 214.038 263.948C215.029 259.102 210.866 255.7 209.688 254.301Z" fill="white"/>
</svg>
