<svg width="340" height="200" viewBox="1270 170 340 200" fill="none" xmlns="http://www.w3.org/2000/svg">
<path d="M100.099 368.241C100.241 370.094 99.503 371.505 98.9331 372.295C98.7259 372.593 98.9331 372.995 99.3087 372.995H148.098C148.202 372.995 148.72 373.008 148.836 372.995C153.978 372.684 159.379 373.526 154.587 368.229H100.099V368.241Z" fill="white"/>
<path d="M250.819 230.369H214.373C213.958 233.296 213.712 237.648 218.44 240.808H246.713C246.895 240.808 251.816 240.549 251.816 234.63V230.369H250.832H250.819Z" fill="white"/>
<path d="M215.227 223.646C215.227 223.646 215.409 226.548 214.865 228.814H251.79C251.79 228.814 250.586 225.693 251.13 223.646H215.227Z" fill="white"/>
<path d="M186.682 292.071C188.999 292.071 190.878 290.192 190.878 287.875C190.878 285.557 188.999 283.679 186.682 283.679C184.364 283.679 182.485 285.557 182.485 287.875C182.485 290.192 184.364 292.071 186.682 292.071Z" fill="white"/>
<path d="M270.143 267.722C261.012 267.657 219.009 267.411 207.935 267.722C195.501 268.085 191.383 279.715 191.383 279.715C197.716 285.142 194.297 292.952 193.144 295.128C195.242 295.672 196.745 296.902 196.745 296.902C206.951 309.427 221.263 306.927 221.263 306.927C242.568 304.427 240.6 283.653 240.6 283.653C239.848 280.441 240.056 277.565 242.167 276.529C247.205 274.055 254.639 274.561 257.605 274.884C258.421 274.975 259.224 274.612 259.691 273.939L261.18 271.828C264.379 271.828 267.436 270.52 269.651 268.201L269.948 267.89L270.143 267.696V267.722ZM224.138 303.093C208.479 307.652 199.529 293.056 199.529 293.056C196.266 285.453 198.662 280.169 200.889 277.28C201.641 276.309 203.221 276.879 203.156 278.109C202.275 296.579 216.173 299.765 216.173 299.765C212.857 297.887 210.888 291.89 210.888 291.89C205.967 281.956 214.295 274.612 214.295 274.612C229.889 264.873 234.435 279.003 234.435 279.003C242.491 296.449 224.138 303.081 224.138 303.081V303.093Z" fill="#A1A1A1"/>
<path d="M395.076 239.228H342.362C341.715 239.228 341.197 238.49 341.197 237.583C341.197 236.677 341.715 235.938 342.362 235.938H395.076C395.724 235.938 396.242 236.677 396.242 237.583C396.242 238.49 395.724 239.228 395.076 239.228Z" fill="white"/>
<path d="M398.301 226.756L401.047 226.652H402.795C404.324 229.1 405.347 233.322 405.347 238.14C405.347 242.958 404.324 247.18 402.795 249.628H402.07L399.532 248.527L399.506 248.333H399.532C400.464 245.885 401.047 242.608 401.047 238.995C401.047 234.85 400.283 231.185 399.091 228.66L398.301 226.756Z" fill="#A1A1A1"/>
<path d="M415.54 226.639H404.505C405.995 229.462 406.888 233.632 406.888 238.126C406.888 242.62 405.982 246.791 404.505 249.614H414.361C414.361 249.614 421.199 240.25 415.527 226.639H415.54Z" fill="#A1A1A1"/>
<path d="M403.858 225.564H414.18L411.149 216.796H404.272L401.526 224.903L403.858 225.564Z" fill="#A1A1A1"/>
<path d="M134.24 218.337V215.526C134.24 214.724 134.784 214.024 135.548 213.83L138.553 213.053C139.019 212.936 139.524 213.014 139.926 213.273L148.901 218.946L134.227 218.35L134.24 218.337Z" fill="white"/>
<path d="M256.362 223.35H253.357V234.631C253.357 240.537 249.045 242.272 246.765 242.363H246.739H217.96L217.572 242.104C211.627 238.141 212.469 232.468 212.935 229.424L213.039 228.764C213.272 227.054 213.181 225.241 213.116 224.308L213.026 223.35H200.177L194.686 221.563H151.828L133.385 221.019L121.625 228.103C120.368 229.1 117.648 229.113 116.185 228.984L110.732 228.427C109.981 228.349 109.217 228.427 108.543 228.764C106.031 229.942 104.761 232.455 105.979 233.828C106.652 234.592 109.437 233.854 110.434 234.087C122.402 236.755 122.104 243.762 122.777 248.774H259.264V228.129C258.655 224.788 256.375 223.363 256.375 223.363L256.362 223.35Z" fill="white"/>
<path d="M398.068 230.226L397.408 228.672L391.761 228.711L260.792 229.695L260.818 248.32H397.9L398.392 246.882C399.104 244.628 399.493 241.87 399.493 238.982C399.493 235.705 398.975 232.57 398.068 230.213V230.226ZM395.076 240.082H342.362C340.977 240.082 339.863 238.956 339.863 237.583C339.863 236.21 340.99 235.083 342.362 235.083H395.076C396.462 235.083 397.576 236.21 397.576 237.583C397.576 238.956 396.449 240.082 395.076 240.082Z" fill="#A1A1A1"/>
<path d="M260.805 250.329H122.285C122.208 250.575 122.143 250.847 122.052 251.08C120.757 254.409 119.902 257.504 116.638 258.968C114.359 260.004 111.458 260.198 111.328 261.675C111.25 262.594 111.419 263.967 113.012 264.576C114.864 265.275 118.931 266.234 118.931 266.234C131.08 268.785 127.997 275.974 125.238 279.872C123.062 282.955 121.236 286.257 119.578 289.651C114.113 300.906 103.92 322.134 101.342 329.206C97.7676 338.984 94.1929 354.384 94.1929 354.384C92.5869 366.196 101.537 366.74 101.537 366.74L154.768 366.908C157.864 367.232 157.203 362.621 157.203 362.621C157.566 345.434 180.659 303.159 180.659 303.159C183.923 296.943 188.353 294.132 191.565 294.896L191.59 294.857C191.811 294.508 196.771 286.231 190.477 280.843L189.661 280.144L190.023 279.134C190.062 279.004 194.647 266.493 208.013 266.104C211.692 266.001 219.152 265.949 230.174 265.949C247.84 265.949 268.913 266.091 271.723 266.104L272.928 264.848V249.889L260.844 250.342L260.805 250.329Z" fill="white"/>
<path d="M144.044 271.751L171.062 270.495C173.16 270.378 186.228 270.287 184.7 271.207C182.071 272.787 177.939 277.579 176.476 279.224C168.277 288.394 150.533 323.092 145.935 346.405C145.301 349.617 143.306 355.445 139.589 355.42L110.512 354.979C105.914 354.953 100.448 354.319 102.262 348.853C108.323 330.604 127.09 291.502 137.672 275.96C138.579 274.626 142.011 271.854 144.044 271.738V271.751Z" fill="#A1A1A1"/>
<path d="M770.139 181.191L761.329 176.169C761.096 176.048 760.834 175.99 760.571 176.001C760.309 176.012 760.053 176.092 759.83 176.232C759.608 176.372 759.426 176.569 759.302 176.801C759.179 177.033 759.118 177.294 759.127 177.557V181.191H770.139Z" fill="#A1A1A1"/>
<path d="M727.918 225.989C730.003 225.131 731.895 223.861 733.479 222.256C735.281 220.382 736.633 218.123 737.432 215.649L727.114 209.801C726.689 209.557 726.189 209.479 725.709 209.58C725.23 209.682 724.805 209.957 724.515 210.352L719.009 217.829C718.85 218.048 718.736 218.297 718.675 218.561C718.613 218.825 718.606 219.098 718.652 219.365C718.698 219.632 718.797 219.887 718.944 220.115C719.09 220.343 719.281 220.539 719.504 220.692L727.323 225.989H727.918Z" fill="#A1A1A1"/>
<path d="M880.062 182.314H817.898V186.235H880.062V182.314Z" fill="#A1A1A1"/>
<path d="M892.583 182.314H886.934V186.235H892.583V182.314Z" fill="#A1A1A1"/>
<path d="M828.734 210.737C827.581 210.735 826.436 210.53 825.354 210.131C822.021 208.97 819.261 206.573 817.645 203.436C817.071 202.217 816.781 200.884 816.797 199.537V182.314H772.099H757.783C757.269 182.316 756.761 182.432 756.297 182.653C755.832 182.873 755.422 183.194 755.096 183.592L741.727 199.736C740.995 200.624 740.526 201.7 740.373 202.841C739.877 206.618 738.721 215.263 738.457 216.133C737.582 218.706 736.154 221.055 734.272 223.015C732.502 224.781 730.388 226.164 728.061 227.079C723.736 227.57 719.386 227.809 715.034 227.795C714.691 227.786 714.351 227.853 714.037 227.99C713.723 228.127 713.443 228.331 713.217 228.588L710.155 232.089C710.074 232.187 710.022 232.305 710.006 232.431C709.989 232.557 710.008 232.685 710.061 232.8C710.114 232.915 710.199 233.013 710.305 233.082C710.411 233.151 710.535 233.189 710.662 233.191H735.142C735.142 233.191 749.931 231.902 751.429 248.696L758.157 228.07C758.368 227.461 758.764 226.934 759.289 226.561C759.814 226.188 760.442 225.988 761.087 225.989L859.326 224.965L952.445 224.766V210.737H828.734Z" fill="white"/>
<path d="M984.831 186.234V182.997H976.286V178.096C976.285 177.874 976.233 177.655 976.133 177.457C976.032 177.259 975.887 177.087 975.708 176.955C975.529 176.824 975.322 176.736 975.103 176.699C974.884 176.662 974.659 176.676 974.447 176.742L966.562 179.208C965.905 179.423 965.332 179.837 964.923 180.395C964.514 180.952 964.29 181.623 964.283 182.314H949.526V186.234H984.831Z" fill="#A1A1A1"/>
<path d="M942.655 182.314H937.006V186.235H942.655V182.314Z" fill="#A1A1A1"/>
<path d="M905.103 182.314H899.454V186.235H905.103V182.314Z" fill="#A1A1A1"/>
<path d="M985.107 209.636L984.842 187.336H817.898V199.537C817.884 200.72 818.136 201.89 818.636 202.962C820.126 205.845 822.67 208.041 825.739 209.096C826.697 209.452 827.711 209.635 828.734 209.636H985.107Z" fill="#A1A1A1"/>
<path d="M917.625 182.314H911.976V186.235H917.625V182.314Z" fill="#A1A1A1"/>
<path d="M930.134 182.314H924.496V186.235H930.134V182.314Z" fill="#A1A1A1"/>
<path d="M843.601 243.52C843.601 245.337 843.414 262.692 843.403 262.692C843.463 263.07 843.433 263.457 843.315 263.821C843.197 264.186 842.995 264.517 842.724 264.788C842.453 265.058 842.122 265.261 841.757 265.379C841.393 265.497 841.006 265.527 840.628 265.467L807.173 265.984C807.501 264.963 807.669 263.897 807.668 262.824C807.671 262.252 807.623 261.681 807.525 261.117H837.038C838.403 261.117 838.987 260.577 838.987 259.19C838.987 256.448 838.987 247.715 838.987 243.52C839.766 243.9 840.62 244.103 841.487 244.114C842.218 244.025 842.931 243.824 843.601 243.52Z" fill="white"/>
<path d="M810.322 238.817V248.145C810.379 249.424 810.67 250.682 811.181 251.856C812.624 254.334 816.159 258.882 822.557 259.058L822.557 258.959C821.819 258.166 817.139 253.959 816.588 249.554C816.374 245.979 816.374 242.393 816.588 238.817H810.322Z" fill="#A1A1A1"/>
<path d="M859.877 226.979V232.849L871.737 232.739V235.25H878.388V232.673L884.148 232.618V235.25H890.799V232.552L896.558 232.497V235.25H903.199V232.431L908.958 232.375V235.25H915.61V232.309L921.369 232.254V235.25H928.009V232.199L933.769 232.144V235.25H940.42V232.078L946.179 232.023V235.25H952.831V231.957L958.59 231.902V235.25H965.23L965.318 227.057L859.877 226.979Z" fill="white"/>
<path d="M953.546 210.736V224.777H977.365C977.716 224.776 978.058 224.671 978.348 224.475C978.638 224.279 978.864 224 978.995 223.675C980.504 220.24 985.118 210.802 985.129 211.32V210.703L953.546 210.736Z" fill="white"/>
<path d="M858.577 226.98L844.195 227.178V229.953C844.195 230.745 843.881 231.504 843.321 232.063C842.762 232.623 842.003 232.937 841.211 232.937C840.42 232.937 839.661 232.623 839.101 232.063C838.541 231.504 838.227 230.745 838.227 229.953V227.266L772.572 228.191L772.143 232.739C772.021 233.906 772.322 235.079 772.991 236.043C773.428 236.645 774.003 237.133 774.668 237.466C775.333 237.8 776.068 237.969 776.812 237.959L833.822 237.717C834.199 237.717 834.572 237.788 834.923 237.926C836.417 238.488 837.633 239.61 838.315 241.053C838.554 241.578 838.918 242.036 839.375 242.387C839.832 242.739 840.369 242.972 840.937 243.068C841.506 243.164 842.089 243.118 842.636 242.936C843.183 242.754 843.677 242.44 844.074 242.022C846.277 239.743 849.812 236.715 853.512 236.913C854.469 237.004 855.431 236.803 856.272 236.337C857.113 235.872 857.794 235.162 858.225 234.303C858.431 233.831 858.604 233.345 858.742 232.849V226.925C858.69 226.951 858.635 226.969 858.577 226.98Z" fill="white"/>
<path d="M795.147 238.762L792.053 254.179L791.569 256.602L789.619 266.293L789.124 268.716L778.86 319.801C778.778 320.292 778.525 320.739 778.147 321.063C777.769 321.387 777.288 321.568 776.79 321.574H722.214L750.846 252.054L759.226 229.589C759.363 229.199 759.618 228.862 759.955 228.623C760.292 228.384 760.696 228.256 761.109 228.257H771.482L771.075 232.662C770.982 233.557 771.08 234.461 771.361 235.316C771.762 236.45 772.509 237.431 773.497 238.118C774.485 238.806 775.664 239.166 776.867 239.148L795.147 238.762Z" fill="#A1A1A1"/>
<path d="M801.688 254.301C801.372 253.924 801.136 253.486 800.994 253.015C800.852 252.544 800.807 252.048 800.862 251.559L802.305 238.752H796.27L793.308 253.486L792.889 255.568L790.445 267.758L790.026 269.817L779.939 320.033C779.805 320.772 779.417 321.441 778.842 321.923C778.267 322.406 777.541 322.672 776.79 322.676H721.872C721.189 325.308 720 332.366 726.937 332.642L735.483 332.983H784.311C784.311 332.983 789.817 332.983 789.432 327.477C789.134 322.676 794.189 283.428 795.466 273.749C795.548 273.213 795.777 272.71 796.127 272.296C796.477 271.883 796.934 271.573 797.448 271.403C800.455 270.247 805.047 268.793 806.038 263.948C807.029 259.102 802.866 255.7 801.688 254.301Z" fill="white"/>
<path d="M1384.67 238.299C1385.07 239.213 1390.28 249.465 1398.73 246.696C1398.79 246.67 1398.85 246.625 1398.89 246.566C1398.93 246.508 1398.95 246.44 1398.95 246.37C1398.95 246.3 1398.93 246.231 1398.89 246.173C1398.85 246.115 1398.79 246.07 1398.73 246.043C1396.66 245.038 1393.33 244.541 1390.81 239.03C1389.51 236.066 1390.81 229.405 1390.81 229.405L1378.6 232.278C1378.44 234.048 1378.79 235.827 1379.62 237.398C1380.38 238.521 1383.92 236.523 1384.67 238.299Z" fill="#A1A1A1"/>
<path d="M1466 179.884C1465.84 179.687 1465.64 179.526 1465.42 179.413C1465.19 179.3 1464.94 179.238 1464.69 179.231H1458.7C1458.37 179.247 1458.07 179.383 1457.84 179.612C1457.61 179.842 1457.47 180.148 1457.46 180.472V182.536L1468.35 182.771L1466 179.884Z" fill="#A1A1A1"/>
<path d="M1282.16 200.583C1282.73 202.124 1282.69 203.469 1284.09 204.657C1286.47 200.945 1288.36 196.942 1289.72 192.747C1288.4 192.865 1287.17 193.422 1286.21 194.327C1286.02 194.473 1285.81 194.576 1285.59 194.628C1285.36 194.68 1285.13 194.68 1284.9 194.628C1282.9 194.197 1277.65 193.439 1276.03 197.24C1276 197.304 1275.99 197.374 1276 197.443C1276.01 197.512 1276.04 197.578 1276.08 197.634C1276.12 197.691 1276.17 197.736 1276.23 197.765C1276.3 197.794 1276.37 197.807 1276.44 197.801C1280.3 197.475 1281.45 198.728 1282.16 200.583Z" fill="#A1A1A1"/>
<path d="M1286 335.998C1288.17 335.868 1290.21 334.899 1291.69 333.295H1282.55C1282.71 334.079 1283.15 334.78 1283.78 335.274C1284.41 335.768 1285.2 336.025 1286 335.998Z" fill="white"/>
<path d="M1312.7 177.024C1311.99 176.527 1309.95 175.248 1308.55 176.606L1306.63 178.852C1306.24 179.337 1306.02 179.939 1306 180.563V181.634L1319.25 181.764C1318.25 181.059 1315.92 179.218 1312.7 177.024Z" fill="#A1A1A1"/>
<path d="M1360.32 227.068C1360.75 227.064 1361.17 226.889 1361.47 226.581C1361.78 226.273 1361.95 225.856 1361.95 225.422V219.036H1341.93V225.422C1341.93 225.851 1342.1 226.262 1342.4 226.569C1342.7 226.875 1343.11 227.054 1343.54 227.068H1360.32Z" fill="#A1A1A1"/>
<path d="M1478.97 191.559C1479.41 196.966 1479.38 202.403 1478.86 207.805H1483.78C1484.47 202.413 1484.33 196.947 1483.37 191.598L1478.97 191.559Z" fill="white"/>
<path d="M1303.69 196.064H1289.67C1288.2 199.551 1283.28 207.818 1283.06 208.301H1316.11C1317.42 208.301 1322.37 208.771 1324.65 205.389C1325.96 203.482 1325.96 198.676 1325.38 196.064H1321.47C1322.46 197.204 1323.01 198.666 1323.01 200.178V201.484C1323.01 202.696 1322.53 203.859 1321.67 204.716C1320.81 205.573 1319.65 206.055 1318.44 206.055H1306.68C1305.47 206.055 1304.31 205.573 1303.45 204.716C1302.59 203.859 1302.11 202.696 1302.11 201.484V200.178C1302.12 198.66 1302.68 197.198 1303.69 196.064Z" fill="white"/>
<path d="M1477.42 184.142L1294.98 182.836C1294.68 182.834 1294.38 182.928 1294.13 183.103C1293.88 183.279 1293.69 183.528 1293.58 183.815L1292.08 187.994C1291.81 189.654 1291.46 191.297 1291.01 192.918C1291.01 193.088 1290.92 193.258 1290.87 193.414H1478.05C1478.07 190.312 1477.86 187.213 1477.42 184.142Z" fill="white"/>
<path d="M1363.26 225.422C1363.25 226.204 1362.94 226.953 1362.39 227.505C1361.84 228.058 1361.09 228.37 1360.31 228.374H1343.54C1342.75 228.374 1342 228.063 1341.45 227.509C1340.9 226.956 1340.59 226.205 1340.59 225.422V219.036H1279.07C1278.59 221.623 1278.55 224.273 1278.97 226.872C1279.01 227.118 1279.14 227.341 1279.34 227.499L1282.26 229.784C1282.53 230.007 1282.87 230.136 1283.21 230.15C1286.19 230.294 1300.78 231.73 1298.81 245.821C1296.61 261.571 1279.04 288.67 1277.91 309.918C1276.79 331.166 1278.02 331.649 1282.33 331.976H1294.97C1295.46 330.838 1296.04 329.746 1296.72 328.711C1297.36 327.771 1298.23 327.003 1299.23 326.475C1300.24 325.947 1301.37 325.674 1302.5 325.681H1338.01C1338.01 325.681 1341.93 325.524 1342.4 320.274C1343.13 312.582 1349.06 273.756 1349.73 271.196C1351.15 265.763 1356.32 259.116 1364.38 258.737C1371.14 258.437 1401.09 255.29 1410.57 254.297C1411.37 254.21 1412.1 253.833 1412.63 253.237C1413.17 252.642 1413.46 251.87 1413.46 251.071V234.094C1413.46 234.094 1412.9 226.637 1418.76 226.258C1424.62 225.879 1440.14 225.409 1443.08 223.947C1443.94 223.445 1444.65 222.734 1445.16 221.88C1445.67 221.026 1445.96 220.056 1445.99 219.062H1363.26V225.422Z" fill="white"/>
<path d="M1297.83 329.442C1297.3 330.25 1296.83 331.097 1296.43 331.976H1335.81C1336.36 331.976 1336.89 331.756 1337.28 331.364C1337.67 330.972 1337.89 330.44 1337.89 329.886V327.039H1302.5C1301.59 327.03 1300.68 327.244 1299.87 327.663C1299.05 328.082 1298.35 328.692 1297.83 329.442Z" fill="#A1A1A1"/>
<path d="M1600.17 182.9H1483.78C1485.8 194.34 1485.91 206.033 1484.11 217.508H1600.9C1603.67 206.042 1604 192.734 1600.17 182.9Z" fill="#A1A1A1"/>
<path d="M1340.22 236.784C1335.3 236.484 1318.71 236.079 1313.34 236.079H1311.92C1306.11 236.34 1305.83 239.174 1305.39 243.915C1305.23 246.523 1304.73 249.1 1303.91 251.581C1303.4 252.978 1302.2 256.073 1300.52 260.357C1294.99 274.487 1284.69 300.842 1283.54 308.024C1282.86 312.217 1283.28 315.364 1284.85 317.362C1285.32 317.974 1285.91 318.485 1286.58 318.865C1287.25 319.244 1288 319.484 1288.77 319.569C1291.77 319.909 1329.32 319.569 1329.69 319.569C1329.76 319.569 1335.49 319.504 1337.67 315.468C1339.04 312.922 1341.2 290.263 1342.78 273.678C1343.93 261.715 1345.2 251.476 1345.47 249.269C1345.95 245.43 1345.8 241.434 1344.01 238.965C1343.59 238.331 1343.03 237.804 1342.37 237.425C1341.71 237.046 1340.98 236.827 1340.22 236.784Z" fill="#A1A1A1"/>
<path d="M1313.94 278.249C1312.28 278.249 1310.65 278.743 1309.26 279.669C1307.88 280.594 1306.8 281.91 1306.16 283.449C1305.52 284.988 1305.36 286.682 1305.68 288.316C1306.01 289.95 1306.81 291.451 1307.99 292.629C1309.17 293.807 1310.67 294.609 1312.3 294.934C1313.93 295.259 1315.63 295.092 1317.17 294.455C1318.71 293.817 1320.02 292.737 1320.95 291.352C1321.87 289.967 1322.37 288.338 1322.37 286.672C1322.37 284.438 1321.48 282.296 1319.9 280.716C1318.32 279.136 1316.18 278.249 1313.94 278.249Z" fill="white"/>
<path d="M1311.48 204.801H1318.46C1319.17 204.8 1319.86 204.569 1320.42 204.143C1320.99 203.717 1321.4 203.118 1321.6 202.437C1321.65 202.253 1321.69 202.065 1321.71 201.876C1321.71 201.745 1321.71 201.601 1321.71 201.471V200.165C1321.71 199.304 1321.37 198.478 1320.76 197.869C1320.15 197.26 1319.32 196.917 1318.46 196.913H1312.62H1311.45C1310.58 196.913 1309.75 197.257 1309.14 197.869C1308.53 198.482 1308.18 199.312 1308.18 200.178V201.484C1308.18 202.292 1308.48 203.071 1309.02 203.672C1309.56 204.273 1310.31 204.652 1311.11 204.736L1311.48 204.801Z" fill="#A1A1A1"/>
<path d="M1478.05 196.064H1326.76C1327.46 198.389 1327.38 203.77 1325.79 206.12C1323.26 209.868 1317.85 209.607 1316.16 209.607H1282.39C1281.28 211.79 1280.37 214.072 1279.69 216.424H1328.77L1333.4 200.962C1333.51 200.652 1333.84 200.376 1334.15 200.197C1334.45 200.018 1334.81 199.951 1335.15 200.011C1335.49 200.07 1335.79 200.252 1336 200.519C1336.21 200.787 1336.31 201.122 1336.27 201.456L1331.81 216.424H1334.85L1339.49 200.962C1339.6 200.652 1339.84 200.396 1340.13 200.246C1340.42 200.095 1340.76 200.061 1341.08 200.15C1341.4 200.24 1341.67 200.446 1341.84 200.727C1342.02 201.008 1342.07 201.344 1342.01 201.667L1337.55 216.424H1340.91L1345.55 200.962C1345.66 200.652 1345.9 200.396 1346.19 200.246C1346.49 200.095 1346.83 200.061 1347.14 200.15C1347.46 200.24 1347.74 200.446 1347.91 200.727C1348.08 201.008 1348.14 201.344 1348.07 201.667L1343.62 216.424H1477.37C1477.5 214.113 1478.38 198.441 1478.05 196.064Z" fill="white"/>
</svg>
