<svg width="512" height="512" viewBox="0 0 512 512" fill="none" xmlns="http://www.w3.org/2000/svg">
<path d="M218.091 239.097C218.091 239.097 218.014 246.571 218.091 247.826C218.276 250.881 218.691 252.976 220.578 254.984C222.761 257.351 228.642 257.766 231.173 257.69C231.208 257.68 231.239 257.66 231.261 257.631C231.283 257.603 231.295 257.568 231.295 257.531C231.295 257.495 231.283 257.46 231.261 257.432C231.239 257.403 231.208 257.382 231.173 257.373C229.133 256.489 226.165 253.543 224.812 251.557C224.144 250.597 223.79 249.454 223.797 248.284V239.151L218.091 239.097Z" fill="#A1A1A1"/>
<path d="M278.244 212.494H357.755H391.973L392.202 211.959V190.311L278.244 190.093V212.494Z" fill="white"/>
<path d="M382.186 179.018C382.177 178.685 382.092 178.359 381.938 178.064C381.783 177.769 381.563 177.513 381.295 177.316C381.026 177.119 380.716 176.986 380.388 176.928C380.061 176.869 379.724 176.886 379.404 176.978L371.373 179.509C370.867 179.673 370.426 179.992 370.112 180.421C369.799 180.85 369.629 181.367 369.627 181.899V182.903H382.186V179.018Z" fill="#A1A1A1"/>
<path d="M170.212 276.348C168.649 276.346 167.12 276.807 165.82 277.674C164.519 278.54 163.505 279.773 162.905 281.217C162.306 282.66 162.148 284.249 162.451 285.782C162.755 287.315 163.506 288.724 164.611 289.83C165.715 290.936 167.123 291.689 168.655 291.995C170.188 292.3 171.777 292.145 173.221 291.547C174.665 290.949 175.9 289.937 176.768 288.638C177.637 287.338 178.1 285.81 178.1 284.248C178.098 282.155 177.266 280.149 175.787 278.669C174.309 277.188 172.304 276.353 170.212 276.348Z" fill="#A1A1A1"/>
<path d="M357.941 220.482H388.515L391.025 214.677H357.941V220.482Z" fill="#A1A1A1"/>
<path d="M186.829 318.891L203.076 239.467C198.591 239.62 183.665 240.056 182.039 238.813C178.394 236.019 179.027 230.694 179.387 228.796H170.876C170.134 230.978 166.25 242.206 164.33 248.644C163.118 252.801 159.638 254.678 156.746 255.54C152.033 265.436 137.248 296.381 132.185 306.037C129.864 310.521 128.698 315.513 128.791 320.56H184.778C185.259 320.558 185.725 320.392 186.098 320.088C186.471 319.784 186.729 319.362 186.829 318.891Z" fill="#A1A1A1"/>
<path d="M226.328 203.579V184.015L180.26 182.924L164.068 183L149.785 201.08C149.457 204.354 147.526 221.037 141.056 226.46H154.848L163.817 197.992H166.152L157.161 226.46H161.394L170.364 197.992H172.699L163.708 226.46H167.941L176.91 197.992H179.791L170.287 226.46H174.488L183.457 197.992H185.792L176.801 226.46H181.035L190.004 197.992H192.339L183.348 226.46H187.582L196.551 197.992H198.886L189.895 226.46H194.129L203.098 197.992H205.433L196.442 226.46H200.675L209.645 197.992H211.98L202.989 226.46H207.222L216.191 197.992H218.526L209.535 226.46H356.839V214.676H237.436C234.493 214.673 231.671 213.503 229.588 211.423C227.506 209.343 226.334 206.522 226.328 203.579Z" fill="white"/>
<path d="M382.186 184.026H369.627H356.25V186.591H349.703V184.026H295.146V186.591H288.599V184.026H228.478V203.58C228.479 204.753 228.712 205.916 229.163 206.999C229.614 208.083 230.275 209.067 231.107 209.895C231.939 210.723 232.927 211.379 234.013 211.825C235.099 212.271 236.262 212.498 237.436 212.494H277.153V189.002L392.203 189.231V184.026H382.186Z" fill="#A1A1A1"/>
<path d="M357.941 227.552H385.449L388.035 221.572H357.941V227.552Z" fill="#A1A1A1"/>
<path d="M180.184 180.797C180.183 180.315 180.03 179.845 179.748 179.454C179.467 179.063 179.07 178.769 178.613 178.614L171.215 176.105C170.91 176.003 170.586 175.975 170.268 176.023C169.95 176.071 169.648 176.194 169.387 176.381C169.126 176.569 168.914 176.816 168.767 177.101C168.62 177.387 168.543 177.704 168.542 178.025V181.91H180.184V180.797Z" fill="#A1A1A1"/>
<path d="M141.547 335.498C141.55 335.63 141.603 335.756 141.697 335.85C141.79 335.943 141.917 335.997 142.049 336H191.15C191.3 336.001 191.449 335.968 191.585 335.904C191.721 335.84 191.841 335.746 191.936 335.629L194.325 332.727H141.547V335.498Z" fill="#A1A1A1"/>
<path d="M147.133 235.932C158.765 235.692 158.307 252.452 158.307 252.452L157.488 254.176C158.863 253.746 160.115 252.993 161.139 251.979C162.162 250.965 162.927 249.72 163.37 248.349C165.192 242.054 168.913 231.24 169.807 228.644H133.505L133.167 228.72H123.063C122.655 228.721 122.251 228.805 121.876 228.967C121.501 229.128 121.163 229.363 120.881 229.658L118.393 232.299C118.217 232.485 118.094 232.714 118.037 232.964C117.979 233.213 117.989 233.473 118.066 233.717L118.666 235.66C118.689 235.737 118.736 235.806 118.801 235.855C118.866 235.904 118.945 235.931 119.026 235.932C121.23 235.965 136.364 236.14 147.133 235.932Z" fill="white"/>
<path d="M205.553 261.399C205.098 261.397 204.651 261.53 204.271 261.782C203.891 262.034 203.595 262.393 203.419 262.813C203.243 263.234 203.196 263.697 203.283 264.144C203.371 264.591 203.589 265.003 203.911 265.326C204.232 265.649 204.642 265.869 205.089 265.959C205.536 266.049 206 266.004 206.421 265.83C206.842 265.656 207.203 265.361 207.456 264.982C207.71 264.603 207.845 264.158 207.845 263.702C207.842 263.094 207.6 262.512 207.171 262.081C206.742 261.65 206.161 261.405 205.553 261.399Z" fill="white"/>
<path d="M207.517 258.06L207.637 257.471L210.485 239.445H204.2L187.713 319.982C187.617 320.455 187.36 320.88 186.986 321.184C186.612 321.488 186.144 321.654 185.662 321.652H128.923C128.923 322.044 128.923 322.274 128.923 322.274C128.923 325.863 132 329.202 133.898 330.894C134.449 331.373 135.154 331.637 135.884 331.635H196.573C197.172 331.414 197.695 331.026 198.082 330.518C198.468 330.01 198.702 329.402 198.756 328.766C198.793 328.265 198.695 327.764 198.472 327.315C196.519 323.146 197.577 317.385 197.577 317.385L205.946 270.314L206.077 269.724C207.151 269.716 208.202 269.415 209.117 268.853C210.032 268.292 210.777 267.491 211.271 266.538C211.666 265.782 211.891 264.949 211.93 264.098C211.97 263.246 211.823 262.396 211.5 261.606C211.163 260.743 210.627 259.971 209.935 259.355C209.242 258.739 208.414 258.295 207.517 258.06Z" fill="white"/>
</svg>
